solid ascii
 facet normal -0.413191 0.553677 0.72299
  outer loop
   vertex 26.4961 -40 -46
   vertex 26 -40 -46.2835
   vertex 26 -40.3702 -46
  endloop
 endfacet
 facet normal -0.1512 0.601016 0.784805
  outer loop
   vertex 26 -40.3702 -46
   vertex 26 -40 -46.2835
   vertex 24 -40.8734 -46
  endloop
 endfacet
 facet normal -0.183457 0.72924 0.659206
  outer loop
   vertex 26 -40.3702 -46
   vertex 24 -40.8734 -46
   vertex 26 -42 -44.1971
  endloop
 endfacet
 facet normal -0.213043 0.704744 0.676719
  outer loop
   vertex 26 -42 -44.1971
   vertex 24 -40.8734 -46
   vertex 24 -42 -44.8267
  endloop
 endfacet
 facet normal -0.181779 0.79596 0.577411
  outer loop
   vertex 26 -42 -44.1971
   vertex 24 -42 -44.8267
   vertex 24 -42.5997 -44
  endloop
 endfacet
 facet normal 0.126937 0.802899 0.582444
  outer loop
   vertex 24 -42.5997 -44
   vertex 24 -42 -44.8267
   vertex 22 -42.2835 -44
  endloop
 endfacet
 facet normal 0.156147 0.987658 -0.0122071
  outer loop
   vertex 24 -42.5997 -44
   vertex 22 -42.2835 -44
   vertex 22 -42.2588 -42
  endloop
 endfacet
 facet normal 0.445724 0.895102 -0.0110631
  outer loop
   vertex 22 -42.2588 -42
   vertex 22 -42.2835 -44
   vertex 21.4306 -42 -44
  endloop
 endfacet
 facet normal 0.201953 0.976967 0.0689283
  outer loop
   vertex 22 -42.2588 -42
   vertex 21.4306 -42 -44
   vertex 20.748 -42 -42
  endloop
 endfacet
 facet normal 0.33869 0.93377 0.115598
  outer loop
   vertex 20.748 -42 -42
   vertex 21.4306 -42 -44
   vertex 20 -41.7287 -42
  endloop
 endfacet
 facet normal 0.156081 0.430316 -0.889082
  outer loop
   vertex 20.748 -42 -42
   vertex 20 -41.7287 -42
   vertex 20 -40 -41.1633
  endloop
 endfacet
 facet normal 0.399399 0.399399 -0.825204
  outer loop
   vertex 20 -40 -41.1633
   vertex 20 -41.7287 -42
   vertex 18.2713 -40 -42
  endloop
 endfacet
 facet normal 0.428772 0.17706 -0.885892
  outer loop
   vertex 20 -40 -41.1633
   vertex 18.2713 -40 -42
   vertex 18 -38 -41.7316
  endloop
 endfacet
 facet normal 0.500384 0.181497 -0.846566
  outer loop
   vertex 18 -38 -41.7316
   vertex 18.2713 -40 -42
   vertex 18 -39.252 -42
  endloop
 endfacet
 facet normal 0.712042 0.147188 -0.686536
  outer loop
   vertex 18 -38 -41.7316
   vertex 18 -39.252 -42
   vertex 17.7412 -38 -42
  endloop
 endfacet
 facet normal 0.960286 0.198503 -0.196081
  outer loop
   vertex 17.7412 -38 -42
   vertex 18 -39.252 -42
   vertex 17.3328 -38 -44
  endloop
 endfacet
 facet normal 0.978342 -0.0542178 -0.199768
  outer loop
   vertex 17.7412 -38 -42
   vertex 17.3328 -38 -44
   vertex 17.4437 -36 -44
  endloop
 endfacet
 facet normal 0.937144 -0.0519347 0.345055
  outer loop
   vertex 17.4437 -36 -44
   vertex 17.3328 -38 -44
   vertex 18 -38 -45.812
  endloop
 endfacet
 facet normal 0.942986 -0.037334 0.330733
  outer loop
   vertex 17.4437 -36 -44
   vertex 18 -38 -45.812
   vertex 18 -36 -45.5863
  endloop
 endfacet
 facet normal 0.786412 -0.0692877 0.613804
  outer loop
   vertex 18 -36 -45.5863
   vertex 18 -38 -45.812
   vertex 18.3229 -36 -46
  endloop
 endfacet
 facet normal 0.463357 -0.809015 0.361656
  outer loop
   vertex 18 -36 -45.5863
   vertex 18.3229 -36 -46
   vertex 18 -35.2909 -44
  endloop
 endfacet
 facet normal 0.623317 -0.699874 0.348787
  outer loop
   vertex 18 -35.2909 -44
   vertex 18.3229 -36 -46
   vertex 19.4494 -34 -44
  endloop
 endfacet
 facet normal 0.635289 -0.713315 -0.295955
  outer loop
   vertex 18 -35.2909 -44
   vertex 19.4494 -34 -44
   vertex 18.1355 -36 -42
  endloop
 endfacet
 facet normal 0.776876 -0.620032 -0.109654
  outer loop
   vertex 18.1355 -36 -42
   vertex 19.4494 -34 -44
   vertex 19.7317 -34 -42
  endloop
 endfacet
 facet normal 0.587452 -0.468851 -0.659605
  outer loop
   vertex 18.1355 -36 -42
   vertex 19.7317 -34 -42
   vertex 20 -34 -41.7611
  endloop
 endfacet
 facet normal 0.57013 -0.514931 -0.640155
  outer loop
   vertex 20 -34 -41.7611
   vertex 19.7317 -34 -42
   vertex 20 -33.703 -42
  endloop
 endfacet
 facet normal 0.737736 -0.42313 -0.526029
  outer loop
   vertex 20 -34 -41.7611
   vertex 20 -33.703 -42
   vertex 22 -32 -40.5649
  endloop
 endfacet
 facet normal 0.742302 -0.553402 -0.377801
  outer loop
   vertex 22 -32 -40.5649
   vertex 20 -33.703 -42
   vertex 21.2696 -32 -42
  endloop
 endfacet
 facet normal 0.67617 -0.651429 -0.344142
  outer loop
   vertex 22 -32 -40.5649
   vertex 21.2696 -32 -42
   vertex 22 -31.2419 -42
  endloop
 endfacet
 facet normal 0.70031 -0.674685 0.233166
  outer loop
   vertex 22 -31.2419 -42
   vertex 21.2696 -32 -42
   vertex 22 -31.9331 -44
  endloop
 endfacet
 facet normal 0.348319 -0.885961 0.306181
  outer loop
   vertex 22 -31.2419 -42
   vertex 22 -31.9331 -44
   vertex 24 -31.1467 -44
  endloop
 endfacet
 facet normal 0.27282 -0.693926 0.66636
  outer loop
   vertex 24 -31.1467 -44
   vertex 22 -31.9331 -44
   vertex 22 -32 -44.0697
  endloop
 endfacet
 facet normal 0.266969 -0.681444 0.681441
  outer loop
   vertex 24 -31.1467 -44
   vertex 22 -32 -44.0697
   vertex 24 -32 -44.8533
  endloop
 endfacet
 facet normal 0.299418 -0.571177 0.764268
  outer loop
   vertex 24 -32 -44.8533
   vertex 22 -32 -44.0697
   vertex 22 -34 -45.5644
  endloop
 endfacet
 facet normal 0.304319 -0.5745 0.759829
  outer loop
   vertex 24 -32 -44.8533
   vertex 22 -34 -45.5644
   vertex 24 -33.5167 -46
  endloop
 endfacet
 facet normal 0.304318 -0.574496 0.759832
  outer loop
   vertex 24 -33.5167 -46
   vertex 22 -34 -45.5644
   vertex 23.0876 -34 -46
  endloop
 endfacet
 facet normal 0.29124 -0.549807 0.782874
  outer loop
   vertex 24 -33.5167 -46
   vertex 23.0876 -34 -46
   vertex 24 -34 -46.3394
  endloop
 endfacet
 facet normal 0.29124 -0.549808 0.782873
  outer loop
   vertex 24 -34 -46.3394
   vertex 23.0876 -34 -46
   vertex 22 -36 -47
  endloop
 endfacet
 facet normal 0 -0.313617 0.949549
  outer loop
   vertex 24 -34 -46.3394
   vertex 22 -36 -47
   vertex 24 -36 -47
  endloop
 endfacet
 facet normal 0 -0.0970754 0.995277
  outer loop
   vertex 24 -36 -47
   vertex 22 -36 -47
   vertex 24 -38 -47.1951
  endloop
 endfacet
 facet normal -0.0966212 -0.0966212 0.99062
  outer loop
   vertex 24 -36 -47
   vertex 24 -38 -47.1951
   vertex 26 -38 -47
  endloop
 endfacet
 facet normal -0.0914373 0.335838 0.937471
  outer loop
   vertex 26 -38 -47
   vertex 24 -38 -47.1951
   vertex 26 -40 -46.2835
  endloop
 endfacet
 facet normal -0.136812 0.33408 0.932563
  outer loop
   vertex 26 -38 -47
   vertex 26 -40 -46.2835
   vertex 28 -38 -46.7066
  endloop
 endfacet
 facet normal -0.410341 0.562222 0.718002
  outer loop
   vertex 28 -38 -46.7066
   vertex 26 -40 -46.2835
   vertex 26.4961 -40 -46
  endloop
 endfacet
 facet normal -0.435019 0.572613 0.69489
  outer loop
   vertex 28 -38 -46.7066
   vertex 26.4961 -40 -46
   vertex 28 -38.8575 -46
  endloop
 endfacet
 facet normal -0.473235 0.622916 0.622916
  outer loop
   vertex 28 -38.8575 -46
   vertex 26.4961 -40 -46
   vertex 28 -40 -44.8575
  endloop
 endfacet
 facet normal -0.518468 0.604645 0.604645
  outer loop
   vertex 28 -38.8575 -46
   vertex 28 -40 -44.8575
   vertex 29 -38 -46
  endloop
 endfacet
 facet normal -0.518468 0.604645 0.604645
  outer loop
   vertex 29 -38 -46
   vertex 28 -40 -44.8575
   vertex 30 -38 -45.1425
  endloop
 endfacet
 facet normal -0.513499 0.614571 0.59885
  outer loop
   vertex 29 -38 -46
   vertex 30 -38 -45.1425
   vertex 30 -37.1645 -46
  endloop
 endfacet
 facet normal -0.561866 0.592467 0.577312
  outer loop
   vertex 30 -37.1645 -46
   vertex 30 -38 -45.1425
   vertex 31.2279 -36 -46
  endloop
 endfacet
 facet normal -0.559307 0.589769 0.582536
  outer loop
   vertex 30 -37.1645 -46
   vertex 31.2279 -36 -46
   vertex 30 -36 -47.1789
  endloop
 endfacet
 facet normal -0.654256 0.328028 0.681429
  outer loop
   vertex 30 -36 -47.1789
   vertex 31.2279 -36 -46
   vertex 32 -34 -46.2214
  endloop
 endfacet
 facet normal -0.261936 -0.190956 0.946005
  outer loop
   vertex 30 -36 -47.1789
   vertex 32 -34 -46.2214
   vertex 30 -34 -46.7752
  endloop
 endfacet
 facet normal -0.239253 -0.442846 0.864086
  outer loop
   vertex 30 -34 -46.7752
   vertex 32 -34 -46.2214
   vertex 32 -33.5679 -46
  endloop
 endfacet
 facet normal -0.153036 -0.641027 0.752107
  outer loop
   vertex 30 -34 -46.7752
   vertex 32 -33.5679 -46
   vertex 30 -33.0905 -46
  endloop
 endfacet
 facet normal -0.14947 -0.626089 0.765292
  outer loop
   vertex 30 -33.0905 -46
   vertex 32 -33.5679 -46
   vertex 30 -32 -45.1079
  endloop
 endfacet
 facet normal 0.0417153 -0.632651 0.773313
  outer loop
   vertex 30 -33.0905 -46
   vertex 30 -32 -45.1079
   vertex 28 -32 -45
  endloop
 endfacet
 facet normal 0.0406187 -0.656783 0.752985
  outer loop
   vertex 28 -32 -45
   vertex 30 -32 -45.1079
   vertex 30 -30.7298 -44
  endloop
 endfacet
 facet normal 0.0950848 -0.703903 0.703903
  outer loop
   vertex 28 -32 -45
   vertex 30 -30.7298 -44
   vertex 28 -31 -44
  endloop
 endfacet
 facet normal 0.0967618 -0.716318 0.691033
  outer loop
   vertex 28 -31 -44
   vertex 30 -30.7298 -44
   vertex 28 -30 -42.9634
  endloop
 endfacet
 facet normal 0 -0.719695 0.69429
  outer loop
   vertex 28 -31 -44
   vertex 28 -30 -42.9634
   vertex 26 -30 -42.9634
  endloop
 endfacet
 facet normal 0 -0.733735 0.679435
  outer loop
   vertex 26 -30 -42.9634
   vertex 28 -30 -42.9634
   vertex 28 -29.1079 -42
  endloop
 endfacet
 facet normal 0 -0.733735 0.679435
  outer loop
   vertex 26 -30 -42.9634
   vertex 28 -29.1079 -42
   vertex 26 -29.1079 -42
  endloop
 endfacet
 facet normal 0 -0.835964 0.548784
  outer loop
   vertex 26 -29.1079 -42
   vertex 28 -29.1079 -42
   vertex 26 -28 -40.3124
  endloop
 endfacet
 facet normal 0.481102 -0.73286 0.481099
  outer loop
   vertex 26 -29.1079 -42
   vertex 26 -28 -40.3124
   vertex 25.6877 -28 -40
  endloop
 endfacet
 facet normal 0.481101 -0.732862 0.481098
  outer loop
   vertex 25.6877 -28 -40
   vertex 26 -28 -40.3124
   vertex 26 -27.795 -40
  endloop
 endfacet
 facet normal 0.54497 -0.830154 -0.11769
  outer loop
   vertex 25.6877 -28 -40
   vertex 26 -27.795 -40
   vertex 26 -28 -38.5536
  endloop
 endfacet
 facet normal 0 -0.9901 -0.140365
  outer loop
   vertex 26 -28 -38.5536
   vertex 26 -27.795 -40
   vertex 28 -28 -38.5536
  endloop
 endfacet
 facet normal -0 -0.962805 -0.270197
  outer loop
   vertex 26 -28 -38.5536
   vertex 28 -28 -38.5536
   vertex 26 -28.1554 -38
  endloop
 endfacet
 facet normal 0.00964076 -0.971279 -0.237749
  outer loop
   vertex 26 -28.1554 -38
   vertex 28 -28 -38.5536
   vertex 28 -28.1355 -38
  endloop
 endfacet
 facet normal 0.00425214 -0.428391 -0.903584
  outer loop
   vertex 26 -28.1554 -38
   vertex 28 -28.1355 -38
   vertex 28 -30 -37.116
  endloop
 endfacet
 facet normal -0.191716 -0.420448 -0.886831
  outer loop
   vertex 28 -30 -37.116
   vertex 28 -28.1355 -38
   vertex 30 -30 -37.5484
  endloop
 endfacet
 facet normal -0.210137 -0.104782 -0.972041
  outer loop
   vertex 28 -30 -37.116
   vertex 30 -30 -37.5484
   vertex 30 -32 -37.3328
  endloop
 endfacet
 facet normal -0.41291 -0.0976118 -0.905526
  outer loop
   vertex 30 -32 -37.3328
   vertex 30 -30 -37.5484
   vertex 30.9904 -30 -38
  endloop
 endfacet
 facet normal -0.54476 -0.00997433 -0.838533
  outer loop
   vertex 30 -32 -37.3328
   vertex 30.9904 -30 -38
   vertex 31.027 -32 -38
  endloop
 endfacet
 facet normal -0.666143 -0.0121968 -0.745724
  outer loop
   vertex 31.027 -32 -38
   vertex 30.9904 -30 -38
   vertex 32 -32 -38.8692
  endloop
 endfacet
 facet normal -0.606809 0.412712 -0.679302
  outer loop
   vertex 31.027 -32 -38
   vertex 32 -32 -38.8692
   vertex 32 -33.8613 -40
  endloop
 endfacet
 facet normal -0.577685 0.42383 -0.697602
  outer loop
   vertex 32 -33.8613 -40
   vertex 32 -32 -38.8692
   vertex 33.3656 -32 -40
  endloop
 endfacet
 facet normal -0.564294 0.414006 -0.714263
  outer loop
   vertex 32 -33.8613 -40
   vertex 33.3656 -32 -40
   vertex 32 -34 -40.0804
  endloop
 endfacet
 facet normal -0.516471 0.38342 -0.765667
  outer loop
   vertex 32 -34 -40.0804
   vertex 33.3656 -32 -40
   vertex 34 -32 -40.428
  endloop
 endfacet
 facet normal -0.434342 0.285912 -0.854167
  outer loop
   vertex 32 -34 -40.0804
   vertex 34 -32 -40.428
   vertex 34 -34 -41.0974
  endloop
 endfacet
 facet normal -0.251739 0.307194 -0.917747
  outer loop
   vertex 34 -34 -41.0974
   vertex 34 -32 -40.428
   vertex 36 -34 -41.646
  endloop
 endfacet
 facet normal -0.246216 0.365615 -0.89761
  outer loop
   vertex 34 -34 -41.0974
   vertex 36 -34 -41.646
   vertex 34 -36 -41.9121
  endloop
 endfacet
 facet normal -0.468129 0.559148 -0.684258
  outer loop
   vertex 34 -36 -41.9121
   vertex 36 -34 -41.646
   vertex 36 -34.4332 -42
  endloop
 endfacet
 facet normal -0.496013 0.5978 -0.629767
  outer loop
   vertex 34 -36 -41.9121
   vertex 36 -34.4332 -42
   vertex 34.1117 -36 -42
  endloop
 endfacet
 facet normal -0.625227 0.75353 0.203186
  outer loop
   vertex 34.1117 -36 -42
   vertex 36 -34.4332 -42
   vertex 34 -35.5534 -44
  endloop
 endfacet
 facet normal -0.605535 0.768827 0.205503
  outer loop
   vertex 34.1117 -36 -42
   vertex 34 -35.5534 -44
   vertex 34 -36 -42.329
  endloop
 endfacet
 facet normal -0.61779 0.759674 0.203056
  outer loop
   vertex 34 -36 -42.329
   vertex 34 -35.5534 -44
   vertex 33.4508 -36 -44
  endloop
 endfacet
 facet normal -0.727674 0.642873 0.239173
  outer loop
   vertex 34 -36 -42.329
   vertex 33.4508 -36 -44
   vertex 32 -38 -43.0381
  endloop
 endfacet
 facet normal -0.587197 0.654799 0.475855
  outer loop
   vertex 32 -38 -43.0381
   vertex 33.4508 -36 -44
   vertex 32 -37.301 -44
  endloop
 endfacet
 facet normal -0.61045 0.640732 0.465632
  outer loop
   vertex 32 -38 -43.0381
   vertex 32 -37.301 -44
   vertex 31.2663 -38 -44
  endloop
 endfacet
 facet normal -0.549655 0.576921 0.604187
  outer loop
   vertex 31.2663 -38 -44
   vertex 32 -37.301 -44
   vertex 32 -36 -45.2423
  endloop
 endfacet
 facet normal -0.547004 0.577247 0.606278
  outer loop
   vertex 31.2663 -38 -44
   vertex 32 -36 -45.2423
   vertex 30 -38 -45.1425
  endloop
 endfacet
 facet normal -0.564095 0.592769 0.574823
  outer loop
   vertex 30 -38 -45.1425
   vertex 32 -36 -45.2423
   vertex 31.2279 -36 -46
  endloop
 endfacet
 facet normal -0.155766 0.609138 0.777617
  outer loop
   vertex 24 -40.8734 -46
   vertex 26 -40 -46.2835
   vertex 24 -40 -46.6841
  endloop
 endfacet
 facet normal -0.190524 0.24298 0.951137
  outer loop
   vertex 24 -40 -46.6841
   vertex 26 -40 -46.2835
   vertex 24 -38 -47.1951
  endloop
 endfacet
 facet normal -0.218799 0.241516 0.945408
  outer loop
   vertex 24 -40 -46.6841
   vertex 24 -38 -47.1951
   vertex 22 -38 -47.6579
  endloop
 endfacet
 facet normal -0.214716 -0.305206 0.927764
  outer loop
   vertex 22 -38 -47.6579
   vertex 24 -38 -47.1951
   vertex 22 -36 -47
  endloop
 endfacet
 facet normal 0.0695269 -0.311739 0.947621
  outer loop
   vertex 22 -38 -47.6579
   vertex 22 -36 -47
   vertex 20 -36 -46.8533
  endloop
 endfacet
 facet normal 0.0599343 -0.573689 0.816878
  outer loop
   vertex 20 -36 -46.8533
   vertex 22 -36 -47
   vertex 22 -34.5761 -46
  endloop
 endfacet
 facet normal 0.184151 -0.682501 0.707305
  outer loop
   vertex 20 -36 -46.8533
   vertex 22 -34.5761 -46
   vertex 20 -35.1157 -46
  endloop
 endfacet
 facet normal 0.20775 -0.769963 0.603321
  outer loop
   vertex 20 -35.1157 -46
   vertex 22 -34.5761 -46
   vertex 20 -34 -44.5761
  endloop
 endfacet
 facet normal 0.542261 -0.661361 0.518223
  outer loop
   vertex 20 -35.1157 -46
   vertex 20 -34 -44.5761
   vertex 19.4494 -34 -44
  endloop
 endfacet
 facet normal 0.557666 -0.636379 0.532945
  outer loop
   vertex 19.4494 -34 -44
   vertex 20 -34 -44.5761
   vertex 20 -33.5175 -44
  endloop
 endfacet
 facet normal 0.65623 -0.748855 -0.0926252
  outer loop
   vertex 19.4494 -34 -44
   vertex 20 -33.5175 -44
   vertex 19.7317 -34 -42
  endloop
 endfacet
 facet normal 0.74069 -0.668977 -0.0620276
  outer loop
   vertex 19.7317 -34 -42
   vertex 20 -33.5175 -44
   vertex 20 -33.703 -42
  endloop
 endfacet
 facet normal 0.0401911 0.706535 0.706535
  outer loop
   vertex 22 -40.5704 -46
   vertex 24 -40 -46.6841
   vertex 22 -40 -46.5704
  endloop
 endfacet
 facet normal 0.0499117 0.477123 0.877418
  outer loop
   vertex 22 -40 -46.5704
   vertex 24 -40 -46.6841
   vertex 22 -38 -47.6579
  endloop
 endfacet
 facet normal 0.0969406 0.475469 0.874375
  outer loop
   vertex 22 -40 -46.5704
   vertex 22 -38 -47.6579
   vertex 20 -38 -47.4362
  endloop
 endfacet
 facet normal 0.105841 -0.278256 0.954658
  outer loop
   vertex 20 -38 -47.4362
   vertex 22 -38 -47.6579
   vertex 20 -36 -46.8533
  endloop
 endfacet
 facet normal 0.438896 -0.251435 0.862642
  outer loop
   vertex 20 -38 -47.4362
   vertex 20 -36 -46.8533
   vertex 18.3229 -36 -46
  endloop
 endfacet
 facet normal 0.343806 -0.652048 0.675745
  outer loop
   vertex 18.3229 -36 -46
   vertex 20 -36 -46.8533
   vertex 20 -35.1157 -46
  endloop
 endfacet
 facet normal 0.396071 -0.751171 0.528082
  outer loop
   vertex 18.3229 -36 -46
   vertex 20 -35.1157 -46
   vertex 19.4494 -34 -44
  endloop
 endfacet
 facet normal 0.0930179 0.613992 0.783812
  outer loop
   vertex 24 -40 -46.6841
   vertex 22 -40.5704 -46
   vertex 24 -40.8734 -46
  endloop
 endfacet
 facet normal 0.108629 0.717035 0.688521
  outer loop
   vertex 24 -40.8734 -46
   vertex 22 -40.5704 -46
   vertex 24 -42 -44.8267
  endloop
 endfacet
 facet normal 0.374042 0.655779 0.655779
  outer loop
   vertex 22 -40.5704 -46
   vertex 22 -40 -46.5704
   vertex 21 -40 -46
  endloop
 endfacet
 facet normal 0.376613 0.649757 0.660287
  outer loop
   vertex 21 -40 -46
   vertex 22 -40 -46.5704
   vertex 20 -39.4204 -46
  endloop
 endfacet
 facet normal 0.40746 0.702977 0.582923
  outer loop
   vertex 21 -40 -46
   vertex 20 -39.4204 -46
   vertex 20 -40 -45.301
  endloop
 endfacet
 facet normal 0.555746 0.639955 0.530664
  outer loop
   vertex 20 -40 -45.301
   vertex 20 -39.4204 -46
   vertex 18.7577 -40 -44
  endloop
 endfacet
 facet normal 0.566261 0.622083 0.540704
  outer loop
   vertex 20 -40 -45.301
   vertex 18.7577 -40 -44
   vertex 20 -41.1308 -44
  endloop
 endfacet
 facet normal 0.65728 0.722074 0.215854
  outer loop
   vertex 20 -41.1308 -44
   vertex 18.7577 -40 -44
   vertex 20 -41.7287 -42
  endloop
 endfacet
 facet normal 0.503078 0.828035 0.24753
  outer loop
   vertex 20 -41.1308 -44
   vertex 20 -41.7287 -42
   vertex 21.4306 -42 -44
  endloop
 endfacet
 facet normal -0.478749 0.558324 0.67755
  outer loop
   vertex 28 -38.8575 -46
   vertex 29 -38 -46
   vertex 28 -38 -46.7066
  endloop
 endfacet
 facet normal -0.457241 0.610065 0.64711
  outer loop
   vertex 28 -38 -46.7066
   vertex 29 -38 -46
   vertex 30 -36 -47.1789
  endloop
 endfacet
 facet normal -0.2114 0.419846 0.882632
  outer loop
   vertex 28 -38 -46.7066
   vertex 30 -36 -47.1789
   vertex 28 -36 -47.6579
  endloop
 endfacet
 facet normal -0.218281 -0.348971 0.911358
  outer loop
   vertex 28 -36 -47.6579
   vertex 30 -36 -47.1789
   vertex 28 -34 -46.8921
  endloop
 endfacet
 facet normal 0.0966526 -0.35592 0.929505
  outer loop
   vertex 28 -36 -47.6579
   vertex 28 -34 -46.8921
   vertex 26 -34 -46.6841
  endloop
 endfacet
 facet normal 0.0760748 -0.677467 0.731609
  outer loop
   vertex 26 -34 -46.6841
   vertex 28 -34 -46.8921
   vertex 28 -33.0366 -46
  endloop
 endfacet
 facet normal 0.0277523 -0.61643 0.786921
  outer loop
   vertex 26 -34 -46.6841
   vertex 28 -33.0366 -46
   vertex 26 -33.1266 -46
  endloop
 endfacet
 facet normal 0.0298728 -0.663529 0.747554
  outer loop
   vertex 26 -33.1266 -46
   vertex 28 -33.0366 -46
   vertex 26 -32 -45
  endloop
 endfacet
 facet normal 0.0547901 -0.662828 0.746764
  outer loop
   vertex 26 -33.1266 -46
   vertex 26 -32 -45
   vertex 24 -32 -44.8533
  endloop
 endfacet
 facet normal 0.0518107 -0.706157 0.706157
  outer loop
   vertex 24 -32 -44.8533
   vertex 26 -32 -45
   vertex 26 -31 -44
  endloop
 endfacet
 facet normal 0.0518122 -0.706159 0.706155
  outer loop
   vertex 24 -32 -44.8533
   vertex 26 -31 -44
   vertex 24 -31.1467 -44
  endloop
 endfacet
 facet normal 0.0595913 -0.812181 0.580354
  outer loop
   vertex 24 -31.1467 -44
   vertex 26 -31 -44
   vertex 24 -30 -42.3952
  endloop
 endfacet
 facet normal 0.502615 -0.703389 0.502615
  outer loop
   vertex 24 -31.1467 -44
   vertex 24 -30 -42.3952
   vertex 23.6048 -30 -42
  endloop
 endfacet
 facet normal 0.504225 -0.701081 0.504225
  outer loop
   vertex 23.6048 -30 -42
   vertex 24 -30 -42.3952
   vertex 24 -29.7158 -42
  endloop
 endfacet
 facet normal 0.581107 -0.807978 0.0973972
  outer loop
   vertex 23.6048 -30 -42
   vertex 24 -29.7158 -42
   vertex 23.2696 -30 -40
  endloop
 endfacet
 facet normal 0.71062 -0.684618 0.162225
  outer loop
   vertex 23.2696 -30 -40
   vertex 24 -29.7158 -42
   vertex 24 -29.2419 -40
  endloop
 endfacet
 facet normal 0.670284 -0.645758 -0.365672
  outer loop
   vertex 23.2696 -30 -40
   vertex 24 -29.2419 -40
   vertex 24 -30 -38.6612
  endloop
 endfacet
 facet normal 0.539245 -0.732814 -0.414968
  outer loop
   vertex 24 -30 -38.6612
   vertex 24 -29.2419 -40
   vertex 25.6877 -28 -40
  endloop
 endfacet
 facet normal 0.70298 -0.694818 -0.151813
  outer loop
   vertex 24 -30 -38.6612
   vertex 25.6877 -28 -40
   vertex 26 -28 -38.5536
  endloop
 endfacet
 facet normal 0.376653 0.65865 0.651393
  outer loop
   vertex 22 -40 -46.5704
   vertex 20 -38 -47.4362
   vertex 20 -39.4204 -46
  endloop
 endfacet
 facet normal 0.47326 0.626347 0.619447
  outer loop
   vertex 20 -39.4204 -46
   vertex 20 -38 -47.4362
   vertex 18.1202 -38 -46
  endloop
 endfacet
 facet normal 0.540998 0.715996 0.441215
  outer loop
   vertex 20 -39.4204 -46
   vertex 18.1202 -38 -46
   vertex 18 -39.1417 -44
  endloop
 endfacet
 facet normal 0.640443 0.64979 0.409397
  outer loop
   vertex 18 -39.1417 -44
   vertex 18.1202 -38 -46
   vertex 18 -38 -45.812
  endloop
 endfacet
 facet normal 0.822803 0.480846 0.302955
  outer loop
   vertex 18 -39.1417 -44
   vertex 18 -38 -45.812
   vertex 17.3328 -38 -44
  endloop
 endfacet
 facet normal -0.510984 0.611561 0.604061
  outer loop
   vertex 29 -38 -46
   vertex 30 -37.1645 -46
   vertex 30 -36 -47.1789
  endloop
 endfacet
 facet normal -0.144481 0.0960569 0.984834
  outer loop
   vertex 26 -38 -47
   vertex 28 -38 -46.7066
   vertex 26 -36 -47.1951
  endloop
 endfacet
 facet normal 0.204574 0.42047 0.883943
  outer loop
   vertex 26 -36 -47.1951
   vertex 28 -38 -46.7066
   vertex 28 -36 -47.6579
  endloop
 endfacet
 facet normal 0.218799 -0.241516 0.945408
  outer loop
   vertex 26 -36 -47.1951
   vertex 28 -36 -47.6579
   vertex 26 -34 -46.6841
  endloop
 endfacet
 facet normal 0.0966212 0.0966212 0.99062
  outer loop
   vertex 26 -38 -47
   vertex 26 -36 -47.1951
   vertex 24 -36 -47
  endloop
 endfacet
 facet normal 0.0922207 -0.312281 0.945503
  outer loop
   vertex 24 -36 -47
   vertex 26 -36 -47.1951
   vertex 24 -34 -46.3394
  endloop
 endfacet
 facet normal 0.605952 -0.0614339 0.793126
  outer loop
   vertex 20 -38 -47.4362
   vertex 18.3229 -36 -46
   vertex 18.1202 -38 -46
  endloop
 endfacet
 facet normal 0.839504 -0.0851125 0.536645
  outer loop
   vertex 18.1202 -38 -46
   vertex 18.3229 -36 -46
   vertex 18 -38 -45.812
  endloop
 endfacet
 facet normal -0.323858 0.364777 0.872957
  outer loop
   vertex 32.5969 -34 -46
   vertex 32 -34 -46.2214
   vertex 32 -34.5299 -46
  endloop
 endfacet
 facet normal -0.591755 0.310804 0.743792
  outer loop
   vertex 32 -34.5299 -46
   vertex 32 -34 -46.2214
   vertex 31.2279 -36 -46
  endloop
 endfacet
 facet normal -0.657346 0.345254 0.669848
  outer loop
   vertex 32 -34.5299 -46
   vertex 31.2279 -36 -46
   vertex 32 -36 -45.2423
  endloop
 endfacet
 facet normal -0.0572031 -0.19754 0.978624
  outer loop
   vertex 30 -36 -47.1789
   vertex 30 -34 -46.7752
   vertex 28 -34 -46.8921
  endloop
 endfacet
 facet normal -0.0444427 -0.648027 0.76032
  outer loop
   vertex 28 -34 -46.8921
   vertex 30 -34 -46.7752
   vertex 30 -33.0905 -46
  endloop
 endfacet
 facet normal -0.0182979 -0.679322 0.733612
  outer loop
   vertex 28 -34 -46.8921
   vertex 30 -33.0905 -46
   vertex 28 -33.0366 -46
  endloop
 endfacet
 facet normal -0.0186978 -0.694169 0.719569
  outer loop
   vertex 28 -33.0366 -46
   vertex 30 -33.0905 -46
   vertex 28 -32 -45
  endloop
 endfacet
 facet normal 0 -0.69429 0.719695
  outer loop
   vertex 28 -33.0366 -46
   vertex 28 -32 -45
   vertex 26 -32 -45
  endloop
 endfacet
 facet normal 0 -0.707107 0.707107
  outer loop
   vertex 26 -32 -45
   vertex 28 -32 -45
   vertex 28 -31 -44
  endloop
 endfacet
 facet normal 0 -0.707107 0.707107
  outer loop
   vertex 26 -32 -45
   vertex 28 -31 -44
   vertex 26 -31 -44
  endloop
 endfacet
 facet normal 0 -0.719695 0.69429
  outer loop
   vertex 26 -31 -44
   vertex 28 -31 -44
   vertex 26 -30 -42.9634
  endloop
 endfacet
 facet normal 0.193529 -0.706089 0.681165
  outer loop
   vertex 26 -31 -44
   vertex 26 -30 -42.9634
   vertex 24 -30 -42.3952
  endloop
 endfacet
 facet normal 0.189539 -0.720435 0.66712
  outer loop
   vertex 24 -30 -42.3952
   vertex 26 -30 -42.9634
   vertex 26 -29.1079 -42
  endloop
 endfacet
 facet normal 0.23957 -0.788196 0.56688
  outer loop
   vertex 24 -30 -42.3952
   vertex 26 -29.1079 -42
   vertex 24 -29.7158 -42
  endloop
 endfacet
 facet normal 0.283613 -0.9331 0.221105
  outer loop
   vertex 24 -29.7158 -42
   vertex 26 -29.1079 -42
   vertex 24 -29.2419 -40
  endloop
 endfacet
 facet normal 0.16471 -0.244133 0.955651
  outer loop
   vertex 26 -36 -47.1951
   vertex 26 -34 -46.6841
   vertex 24 -34 -46.3394
  endloop
 endfacet
 facet normal 0.134449 -0.611068 0.780076
  outer loop
   vertex 24 -34 -46.3394
   vertex 26 -34 -46.6841
   vertex 26 -33.1266 -46
  endloop
 endfacet
 facet normal 0.111384 -0.571145 0.813257
  outer loop
   vertex 24 -34 -46.3394
   vertex 26 -33.1266 -46
   vertex 24 -33.5167 -46
  endloop
 endfacet
 facet normal 0.116812 -0.598976 0.792201
  outer loop
   vertex 24 -33.5167 -46
   vertex 26 -33.1266 -46
   vertex 24 -32 -44.8533
  endloop
 endfacet
 facet normal 0.29124 -0.549808 0.782874
  outer loop
   vertex 22 -36 -47
   vertex 23.0876 -34 -46
   vertex 22 -34.5761 -46
  endloop
 endfacet
 facet normal 0.304318 -0.574497 0.759831
  outer loop
   vertex 22 -34.5761 -46
   vertex 23.0876 -34 -46
   vertex 22 -34 -45.5644
  endloop
 endfacet
 facet normal 0.366715 -0.561086 0.742093
  outer loop
   vertex 22 -34.5761 -46
   vertex 22 -34 -45.5644
   vertex 20 -34 -44.5761
  endloop
 endfacet
 facet normal 0.368048 -0.556621 0.744791
  outer loop
   vertex 20 -34 -44.5761
   vertex 22 -34 -45.5644
   vertex 22 -32 -44.0697
  endloop
 endfacet
 facet normal 0.494189 -0.642473 0.585666
  outer loop
   vertex 20 -34 -44.5761
   vertex 22 -32 -44.0697
   vertex 21.9174 -32 -44
  endloop
 endfacet
 facet normal 0.50459 -0.62273 0.597993
  outer loop
   vertex 21.9174 -32 -44
   vertex 22 -32 -44.0697
   vertex 22 -31.9331 -44
  endloop
 endfacet
 facet normal 0.616863 -0.76129 0.199793
  outer loop
   vertex 21.9174 -32 -44
   vertex 22 -31.9331 -44
   vertex 21.2696 -32 -42
  endloop
 endfacet
 facet normal -0.313511 -0.433098 0.845066
  outer loop
   vertex 32 -34 -46.2214
   vertex 32.5969 -34 -46
   vertex 32 -33.5679 -46
  endloop
 endfacet
 facet normal -0.278079 -0.38415 0.880398
  outer loop
   vertex 32 -33.5679 -46
   vertex 32.5969 -34 -46
   vertex 32 -32 -45.3159
  endloop
 endfacet
 facet normal 0.0948755 -0.39812 0.912414
  outer loop
   vertex 32 -33.5679 -46
   vertex 32 -32 -45.3159
   vertex 30 -32 -45.1079
  endloop
 endfacet
 facet normal 0.0880622 -0.524424 0.846891
  outer loop
   vertex 30 -32 -45.1079
   vertex 32 -32 -45.3159
   vertex 32 -30 -44.0774
  endloop
 endfacet
 facet normal 0.279337 -0.645568 0.710783
  outer loop
   vertex 30 -32 -45.1079
   vertex 32 -30 -44.0774
   vertex 31.8031 -30 -44
  endloop
 endfacet
 facet normal 0.267746 -0.68129 0.68129
  outer loop
   vertex 31.8031 -30 -44
   vertex 32 -30 -44.0774
   vertex 32 -29.9226 -44
  endloop
 endfacet
 facet normal 0.286749 -0.729644 0.620801
  outer loop
   vertex 31.8031 -30 -44
   vertex 32 -29.9226 -44
   vertex 30 -30 -43.1671
  endloop
 endfacet
 facet normal 0.256755 -0.800038 0.542233
  outer loop
   vertex 30 -30 -43.1671
   vertex 32 -29.9226 -44
   vertex 30 -29.209 -42
  endloop
 endfacet
 facet normal 0.0570599 -0.826439 0.560127
  outer loop
   vertex 30 -30 -43.1671
   vertex 30 -29.209 -42
   vertex 28 -30 -42.9634
  endloop
 endfacet
 facet normal -0.0370526 -0.733231 0.678969
  outer loop
   vertex 28 -30 -42.9634
   vertex 30 -29.209 -42
   vertex 28 -29.1079 -42
  endloop
 endfacet
 facet normal -0.486207 0.708812 0.511067
  outer loop
   vertex 26.2072 -42 -44
   vertex 26 -42 -44.1971
   vertex 26 -42.1421 -44
  endloop
 endfacet
 facet normal -0.182482 0.797523 0.575029
  outer loop
   vertex 26 -42.1421 -44
   vertex 26 -42 -44.1971
   vertex 24 -42.5997 -44
  endloop
 endfacet
 facet normal -0.221981 0.970148 -0.0976628
  outer loop
   vertex 26 -42.1421 -44
   vertex 24 -42.5997 -44
   vertex 24 -42.3984 -42
  endloop
 endfacet
 facet normal 0.0692721 0.992581 -0.0999211
  outer loop
   vertex 24 -42.3984 -42
   vertex 24 -42.5997 -44
   vertex 22 -42.2588 -42
  endloop
 endfacet
 facet normal 0.0501771 0.718973 -0.693224
  outer loop
   vertex 24 -42.3984 -42
   vertex 22 -42.2588 -42
   vertex 22 -42 -41.7316
  endloop
 endfacet
 facet normal 0.147189 0.712039 -0.686539
  outer loop
   vertex 22 -42 -41.7316
   vertex 22 -42.2588 -42
   vertex 20.748 -42 -42
  endloop
 endfacet
 facet normal 0.188434 0.438166 -0.878922
  outer loop
   vertex 22 -42 -41.7316
   vertex 20.748 -42 -42
   vertex 20 -40 -41.1633
  endloop
 endfacet
 facet normal 0.137457 0.786396 0.602235
  outer loop
   vertex 22 -42.2835 -44
   vertex 24 -42 -44.8267
   vertex 22 -42 -44.3702
  endloop
 endfacet
 facet normal 0.148836 0.743387 0.652091
  outer loop
   vertex 22 -42 -44.3702
   vertex 24 -42 -44.8267
   vertex 22 -40.5704 -46
  endloop
 endfacet
 facet normal 0.394086 0.690923 0.60607
  outer loop
   vertex 22 -42 -44.3702
   vertex 22 -40.5704 -46
   vertex 21.4306 -42 -44
  endloop
 endfacet
 facet normal 0.413651 0.680845 0.604436
  outer loop
   vertex 21.4306 -42 -44
   vertex 22 -40.5704 -46
   vertex 20 -41.1308 -44
  endloop
 endfacet
 facet normal 0.367656 0.738327 0.565423
  outer loop
   vertex 22 -42.2835 -44
   vertex 22 -42 -44.3702
   vertex 21.4306 -42 -44
  endloop
 endfacet
 facet normal -0.497667 0.669382 0.551593
  outer loop
   vertex 28.9504 -40 -44
   vertex 28 -40 -44.8575
   vertex 28 -40.7066 -44
  endloop
 endfacet
 facet normal -0.486444 0.674278 0.555628
  outer loop
   vertex 28 -40.7066 -44
   vertex 28 -40 -44.8575
   vertex 26.2072 -42 -44
  endloop
 endfacet
 facet normal -0.582432 0.80733 -0.0948179
  outer loop
   vertex 28 -40.7066 -44
   vertex 26.2072 -42 -44
   vertex 26 -42 -42.7275
  endloop
 endfacet
 facet normal -0.563276 0.821165 -0.0916993
  outer loop
   vertex 26 -42 -42.7275
   vertex 26.2072 -42 -44
   vertex 26 -42.1421 -44
  endloop
 endfacet
 facet normal -0.23558 0.965851 -0.107856
  outer loop
   vertex 26 -42 -42.7275
   vertex 26 -42.1421 -44
   vertex 25.6669 -42 -42
  endloop
 endfacet
 facet normal -0.231109 0.967005 -0.107194
  outer loop
   vertex 25.6669 -42 -42
   vertex 26 -42.1421 -44
   vertex 24 -42.3984 -42
  endloop
 endfacet
 facet normal -0.166632 0.697221 -0.697221
  outer loop
   vertex 25.6669 -42 -42
   vertex 24 -42.3984 -42
   vertex 24 -42 -41.6016
  endloop
 endfacet
 facet normal 0.0459017 0.706361 -0.706361
  outer loop
   vertex 24 -42 -41.6016
   vertex 24 -42.3984 -42
   vertex 22 -42 -41.7316
  endloop
 endfacet
 facet normal 0.061175 0.331715 -0.941394
  outer loop
   vertex 24 -42 -41.6016
   vertex 22 -42 -41.7316
   vertex 22 -40 -41.0269
  endloop
 endfacet
 facet normal 0.0642205 0.331651 -0.941214
  outer loop
   vertex 22 -40 -41.0269
   vertex 22 -42 -41.7316
   vertex 20 -40 -41.1633
  endloop
 endfacet
 facet normal 0.0679161 0.0679161 -0.995377
  outer loop
   vertex 22 -40 -41.0269
   vertex 20 -40 -41.1633
   vertex 20 -38 -41.0269
  endloop
 endfacet
 facet normal 0.331651 0.0642205 -0.941214
  outer loop
   vertex 20 -38 -41.0269
   vertex 20 -40 -41.1633
   vertex 18 -38 -41.7316
  endloop
 endfacet
 facet normal 0.332044 -0.0420256 -0.942327
  outer loop
   vertex 20 -38 -41.0269
   vertex 18 -38 -41.7316
   vertex 20 -36 -41.116
  endloop
 endfacet
 facet normal 0.430945 -0.157484 -0.88853
  outer loop
   vertex 20 -36 -41.116
   vertex 18 -38 -41.7316
   vertex 18 -36.4856 -42
  endloop
 endfacet
 facet normal 0.425365 -0.118714 -0.897202
  outer loop
   vertex 20 -36 -41.116
   vertex 18 -36.4856 -42
   vertex 18.1355 -36 -42
  endloop
 endfacet
 facet normal 0.836329 -0.233408 -0.49606
  outer loop
   vertex 18.1355 -36 -42
   vertex 18 -36.4856 -42
   vertex 18 -36 -42.2285
  endloop
 endfacet
 facet normal 0.530927 -0.786732 -0.314914
  outer loop
   vertex 18.1355 -36 -42
   vertex 18 -36 -42.2285
   vertex 18 -35.2909 -44
  endloop
 endfacet
 facet normal 0.763785 -0.599246 -0.239867
  outer loop
   vertex 18 -35.2909 -44
   vertex 18 -36 -42.2285
   vertex 17.4437 -36 -44
  endloop
 endfacet
 facet normal 0.75841 -0.595029 0.265997
  outer loop
   vertex 18 -35.2909 -44
   vertex 17.4437 -36 -44
   vertex 18 -36 -45.5863
  endloop
 endfacet
 facet normal -0.505108 0.680422 0.530934
  outer loop
   vertex 26.2072 -42 -44
   vertex 28 -40 -44.8575
   vertex 26 -42 -44.1971
  endloop
 endfacet
 facet normal -0.456873 0.655447 0.601379
  outer loop
   vertex 26 -42 -44.1971
   vertex 28 -40 -44.8575
   vertex 26.4961 -40 -46
  endloop
 endfacet
 facet normal -0.484337 0.649013 0.586685
  outer loop
   vertex 26 -42 -44.1971
   vertex 26.4961 -40 -46
   vertex 26 -40.3702 -46
  endloop
 endfacet
 facet normal 0.416818 0.686059 0.596311
  outer loop
   vertex 20 -40 -45.301
   vertex 20 -41.1308 -44
   vertex 21 -40 -46
  endloop
 endfacet
 facet normal 0.398481 0.698627 0.594249
  outer loop
   vertex 21 -40 -46
   vertex 20 -41.1308 -44
   vertex 22 -40.5704 -46
  endloop
 endfacet
 facet normal -0.529303 0.612919 0.586659
  outer loop
   vertex 31.2663 -38 -44
   vertex 30 -38 -45.1425
   vertex 30 -39.0936 -44
  endloop
 endfacet
 facet normal -0.529305 0.612918 0.586658
  outer loop
   vertex 30 -39.0936 -44
   vertex 30 -38 -45.1425
   vertex 28.9504 -40 -44
  endloop
 endfacet
 facet normal -0.618078 0.715714 0.325165
  outer loop
   vertex 30 -39.0936 -44
   vertex 28.9504 -40 -44
   vertex 30 -40 -42.0049
  endloop
 endfacet
 facet normal -0.569258 0.765674 0.299481
  outer loop
   vertex 30 -40 -42.0049
   vertex 28.9504 -40 -44
   vertex 28 -40.7066 -44
  endloop
 endfacet
 facet normal -0.572818 0.760933 0.30473
  outer loop
   vertex 30 -40 -42.0049
   vertex 28 -40.7066 -44
   vertex 30 -40.002 -42
  endloop
 endfacet
 facet normal -0.295044 0.954592 -0.0412743
  outer loop
   vertex 30 -40.002 -42
   vertex 28 -40.7066 -44
   vertex 28 -40.6201 -42
  endloop
 endfacet
 facet normal -0.202569 0.655397 -0.727613
  outer loop
   vertex 30 -40.002 -42
   vertex 28 -40.6201 -42
   vertex 28 -40 -41.4414
  endloop
 endfacet
 facet normal -0.12001 0.664435 -0.737647
  outer loop
   vertex 28 -40 -41.4414
   vertex 28 -40.6201 -42
   vertex 26 -40 -41.116
  endloop
 endfacet
 facet normal -0.15979 0.0991863 -0.982155
  outer loop
   vertex 28 -40 -41.4414
   vertex 26 -40 -41.116
   vertex 26 -38 -40.9141
  endloop
 endfacet
 facet normal 0.0427085 0.100386 -0.994032
  outer loop
   vertex 26 -38 -40.9141
   vertex 26 -40 -41.116
   vertex 24 -38 -41
  endloop
 endfacet
 facet normal 0.0424693 0.145379 -0.988464
  outer loop
   vertex 26 -38 -40.9141
   vertex 24 -38 -41
   vertex 24 -36 -40.7058
  endloop
 endfacet
 facet normal 0.102461 0.144744 -0.98415
  outer loop
   vertex 24 -36 -40.7058
   vertex 24 -38 -41
   vertex 22 -36 -40.9141
  endloop
 endfacet
 facet normal 0.102028 0.170894 -0.979993
  outer loop
   vertex 24 -36 -40.7058
   vertex 22 -36 -40.9141
   vertex 22 -34 -40.5653
  endloop
 endfacet
 facet normal 0.50751 0.148023 -0.848836
  outer loop
   vertex 22 -34 -40.5653
   vertex 22 -36 -40.9141
   vertex 20 -34 -41.7611
  endloop
 endfacet
 facet normal 0.513163 0.000162069 -0.858291
  outer loop
   vertex 22 -34 -40.5653
   vertex 20 -34 -41.7611
   vertex 22 -32 -40.5649
  endloop
 endfacet
 facet normal -0.529304 0.612918 0.586659
  outer loop
   vertex 28 -40 -44.8575
   vertex 28.9504 -40 -44
   vertex 30 -38 -45.1425
  endloop
 endfacet
 facet normal 0.626427 0.552984 0.549362
  outer loop
   vertex 20 -39.4204 -46
   vertex 18 -39.1417 -44
   vertex 18.7577 -40 -44
  endloop
 endfacet
 facet normal 0.749188 0.661352 0.0364856
  outer loop
   vertex 18.7577 -40 -44
   vertex 18 -39.1417 -44
   vertex 18 -39.252 -42
  endloop
 endfacet
 facet normal 0.916426 0.332402 0.222873
  outer loop
   vertex 18.7577 -40 -44
   vertex 18 -39.252 -42
   vertex 18.2713 -40 -42
  endloop
 endfacet
 facet normal -0.52651 0.587126 0.614874
  outer loop
   vertex 32 -37.301 -44
   vertex 33.4508 -36 -44
   vertex 32 -36 -45.2423
  endloop
 endfacet
 facet normal -0.526819 0.58647 0.615235
  outer loop
   vertex 32 -36 -45.2423
   vertex 33.4508 -36 -44
   vertex 34 -34 -45.4362
  endloop
 endfacet
 facet normal -0.338363 0.420008 0.842083
  outer loop
   vertex 32 -36 -45.2423
   vertex 34 -34 -45.4362
   vertex 32.5969 -34 -46
  endloop
 endfacet
 facet normal -0.342683 -0.394003 0.852836
  outer loop
   vertex 32.5969 -34 -46
   vertex 34 -34 -45.4362
   vertex 32 -32 -45.3159
  endloop
 endfacet
 facet normal -0.543617 0.588262 0.598689
  outer loop
   vertex 36.1879 -34 -44
   vertex 36 -34 -44.1707
   vertex 36 -34.1737 -44
  endloop
 endfacet
 facet normal -0.435282 0.630987 0.642172
  outer loop
   vertex 36 -34.1737 -44
   vertex 36 -34 -44.1707
   vertex 34 -35.5534 -44
  endloop
 endfacet
 facet normal -0.564626 0.818485 0.106204
  outer loop
   vertex 36 -34.1737 -44
   vertex 34 -35.5534 -44
   vertex 36 -34.4332 -42
  endloop
 endfacet
 facet normal -0.421359 0.615668 0.66589
  outer loop
   vertex 34 -35.5534 -44
   vertex 36 -34 -44.1707
   vertex 34 -34 -45.4362
  endloop
 endfacet
 facet normal -0.532268 -0.0955784 0.841163
  outer loop
   vertex 34 -34 -45.4362
   vertex 36 -34 -44.1707
   vertex 34 -32 -45.209
  endloop
 endfacet
 facet normal -0.053035 -0.112741 0.992208
  outer loop
   vertex 34 -34 -45.4362
   vertex 34 -32 -45.209
   vertex 32 -32 -45.3159
  endloop
 endfacet
 facet normal -0.0453973 -0.525926 0.849318
  outer loop
   vertex 32 -32 -45.3159
   vertex 34 -32 -45.209
   vertex 32 -30 -44.0774
  endloop
 endfacet
 facet normal -0.483317 0.594318 0.642799
  outer loop
   vertex 33.4508 -36 -44
   vertex 34 -35.5534 -44
   vertex 34 -34 -45.4362
  endloop
 endfacet
 facet normal -0.376777 0.424383 0.82337
  outer loop
   vertex 32 -36 -45.2423
   vertex 32.5969 -34 -46
   vertex 32 -34.5299 -46
  endloop
 endfacet
 facet normal -0.670494 0.0719184 0.738421
  outer loop
   vertex 36.1879 -34 -44
   vertex 36 -32 -44.3654
   vertex 36 -34 -44.1707
  endloop
 endfacet
 facet normal -0.387051 0.0893809 0.917716
  outer loop
   vertex 36 -34 -44.1707
   vertex 36 -32 -44.3654
   vertex 34 -32 -45.209
  endloop
 endfacet
 facet normal -0.637842 0.0800258 0.765999
  outer loop
   vertex 36.1879 -34 -44
   vertex 36.4389 -32 -44
   vertex 36 -32 -44.3654
  endloop
 endfacet
 facet normal -0.569735 -0.455261 0.684208
  outer loop
   vertex 36 -32 -44.3654
   vertex 36.4389 -32 -44
   vertex 36 -31.4508 -44
  endloop
 endfacet
 facet normal -0.398162 -0.508157 0.763704
  outer loop
   vertex 36 -32 -44.3654
   vertex 36 -31.4508 -44
   vertex 34 -30 -44.0774
  endloop
 endfacet
 facet normal -0.41308 -0.529954 0.740617
  outer loop
   vertex 34 -30 -44.0774
   vertex 36 -31.4508 -44
   vertex 34.1387 -30 -44
  endloop
 endfacet
 facet normal -0.366888 -0.657797 0.657797
  outer loop
   vertex 34 -30 -44.0774
   vertex 34.1387 -30 -44
   vertex 34 -29.9226 -44
  endloop
 endfacet
 facet normal -0.46964 -0.842024 0.265394
  outer loop
   vertex 34 -29.9226 -44
   vertex 34.1387 -30 -44
   vertex 34 -29.2922 -42
  endloop
 endfacet
 facet normal -0.0837269 -0.950399 0.299552
  outer loop
   vertex 34 -29.9226 -44
   vertex 34 -29.2922 -42
   vertex 32 -29.1161 -42
  endloop
 endfacet
 facet normal -0.0875002 -0.99323 -0.0764064
  outer loop
   vertex 32 -29.1161 -42
   vertex 34 -29.2922 -42
   vertex 32 -29.2699 -40
  endloop
 endfacet
 facet normal -0.261282 -0.962419 -0.0740362
  outer loop
   vertex 32 -29.1161 -42
   vertex 32 -29.2699 -40
   vertex 30 -28.7269 -40
  endloop
 endfacet
 facet normal -0.248736 -0.916207 -0.314156
  outer loop
   vertex 30 -28.7269 -40
   vertex 32 -29.2699 -40
   vertex 30 -29.4127 -38
  endloop
 endfacet
 facet normal -0.517056 -0.809676 -0.277628
  outer loop
   vertex 30 -28.7269 -40
   vertex 30 -29.4127 -38
   vertex 28 -28.1355 -38
  endloop
 endfacet
 facet normal -0.362753 -0.568047 -0.738737
  outer loop
   vertex 28 -28.1355 -38
   vertex 30 -29.4127 -38
   vertex 30 -30 -37.5484
  endloop
 endfacet
 facet normal 0.518756 -0.655436 0.548905
  outer loop
   vertex 20 -34 -44.5761
   vertex 21.9174 -32 -44
   vertex 20 -33.5175 -44
  endloop
 endfacet
 facet normal 0.608437 -0.768746 0.197064
  outer loop
   vertex 20 -33.5175 -44
   vertex 21.9174 -32 -44
   vertex 21.2696 -32 -42
  endloop
 endfacet
 facet normal 0.800492 -0.596784 -0.0553338
  outer loop
   vertex 20 -33.5175 -44
   vertex 21.2696 -32 -42
   vertex 20 -33.703 -42
  endloop
 endfacet
 facet normal -0.344593 -0.46227 0.817045
  outer loop
   vertex 36 -32 -44.3654
   vertex 34 -30 -44.0774
   vertex 34 -32 -45.209
  endloop
 endfacet
 facet normal 0 -0.49243 0.870352
  outer loop
   vertex 34 -32 -45.209
   vertex 34 -30 -44.0774
   vertex 32 -30 -44.0774
  endloop
 endfacet
 facet normal 0.25712 -0.635226 0.72827
  outer loop
   vertex 30 -32 -45.1079
   vertex 31.8031 -30 -44
   vertex 30 -30.7298 -44
  endloop
 endfacet
 facet normal 0.291227 -0.719488 0.630495
  outer loop
   vertex 30 -30.7298 -44
   vertex 31.8031 -30 -44
   vertex 30 -30 -43.1671
  endloop
 endfacet
 facet normal 0.0669876 -0.750399 0.657582
  outer loop
   vertex 30 -30.7298 -44
   vertex 30 -30 -43.1671
   vertex 28 -30 -42.9634
  endloop
 endfacet
 facet normal 0 -0.707107 0.707107
  outer loop
   vertex 34 -30 -44.0774
   vertex 34 -29.9226 -44
   vertex 32 -30 -44.0774
  endloop
 endfacet
 facet normal 0 -0.707107 0.707107
  outer loop
   vertex 32 -30 -44.0774
   vertex 34 -29.9226 -44
   vertex 32 -29.9226 -44
  endloop
 endfacet
 facet normal -0.340168 0.872966 0.349595
  outer loop
   vertex 30 -40 -42.0049
   vertex 30 -40.002 -42
   vertex 30.005 -40 -42
  endloop
 endfacet
 facet normal -0.304004 0.780158 -0.54675
  outer loop
   vertex 30.005 -40 -42
   vertex 30 -40.002 -42
   vertex 30 -40 -41.9972
  endloop
 endfacet
 facet normal -0.362383 0.666264 -0.651744
  outer loop
   vertex 30.005 -40 -42
   vertex 30 -40 -41.9972
   vertex 30 -38.0463 -40
  endloop
 endfacet
 facet normal 0.163937 0.705182 -0.689814
  outer loop
   vertex 30 -38.0463 -40
   vertex 30 -40 -41.9972
   vertex 28 -38 -40.428
  endloop
 endfacet
 facet normal 0.189559 0.526276 -0.828916
  outer loop
   vertex 30 -38.0463 -40
   vertex 28 -38 -40.428
   vertex 29.8714 -38 -40
  endloop
 endfacet
 facet normal 0.189048 0.52996 -0.826682
  outer loop
   vertex 29.8714 -38 -40
   vertex 28 -38 -40.428
   vertex 28 -37.3324 -40
  endloop
 endfacet
 facet normal 0.20938 0.586956 -0.782076
  outer loop
   vertex 29.8714 -38 -40
   vertex 28 -37.3324 -40
   vertex 28 -36 -39
  endloop
 endfacet
 facet normal 0.469548 0.529974 -0.706153
  outer loop
   vertex 28 -36 -39
   vertex 28 -37.3324 -40
   vertex 26.4961 -36 -40
  endloop
 endfacet
 facet normal 0.451622 0.578563 -0.679193
  outer loop
   vertex 28 -36 -39
   vertex 26.4961 -36 -40
   vertex 26 -35.6127 -40
  endloop
 endfacet
 facet normal 0.418749 0.53645 -0.732715
  outer loop
   vertex 26 -35.6127 -40
   vertex 26.4961 -36 -40
   vertex 26 -36 -40.2835
  endloop
 endfacet
 facet normal 0.167959 0.582346 -0.795401
  outer loop
   vertex 26 -35.6127 -40
   vertex 26 -36 -40.2835
   vertex 24 -36 -40.7058
  endloop
 endfacet
 facet normal 0.197427 0.294765 -0.934952
  outer loop
   vertex 24 -36 -40.7058
   vertex 26 -36 -40.2835
   vertex 26 -38 -40.9141
  endloop
 endfacet
 facet normal -0.601165 0.785611 -0.146338
  outer loop
   vertex 28 -40.7066 -44
   vertex 26 -42 -42.7275
   vertex 26 -41.8645 -42
  endloop
 endfacet
 facet normal -0.371373 0.912783 -0.170027
  outer loop
   vertex 26 -41.8645 -42
   vertex 26 -42 -42.7275
   vertex 25.6669 -42 -42
  endloop
 endfacet
 facet normal -0.20183 0.496071 -0.844499
  outer loop
   vertex 26 -41.8645 -42
   vertex 25.6669 -42 -42
   vertex 24 -42 -41.6016
  endloop
 endfacet
 facet normal -0.527923 0.848499 -0.0366871
  outer loop
   vertex 28 -40.7066 -44
   vertex 26 -41.8645 -42
   vertex 28 -40.6201 -42
  endloop
 endfacet
 facet normal -0.257549 0.413942 -0.87311
  outer loop
   vertex 28 -40.6201 -42
   vertex 26 -41.8645 -42
   vertex 26 -40 -41.116
  endloop
 endfacet
 facet normal 0.696878 0.696877 0.16948
  outer loop
   vertex 18.2713 -40 -42
   vertex 20 -41.7287 -42
   vertex 18.7577 -40 -44
  endloop
 endfacet
 facet normal -0.628071 0.595494 0.500913
  outer loop
   vertex 32.828 -38 -42
   vertex 32 -38 -43.0381
   vertex 32 -38.8733 -42
  endloop
 endfacet
 facet normal -0.39674 0.702458 0.590889
  outer loop
   vertex 32 -38.8733 -42
   vertex 32 -38 -43.0381
   vertex 30.005 -40 -42
  endloop
 endfacet
 facet normal -0.373812 0.661863 -0.649771
  outer loop
   vertex 32 -38.8733 -42
   vertex 30.005 -40 -42
   vertex 30.0697 -38 -40
  endloop
 endfacet
 facet normal -0.42894 0.645653 -0.631777
  outer loop
   vertex 30.0697 -38 -40
   vertex 30.005 -40 -42
   vertex 30 -38.0463 -40
  endloop
 endfacet
 facet normal -0.378097 0.569123 -0.730166
  outer loop
   vertex 30.0697 -38 -40
   vertex 30 -38.0463 -40
   vertex 30 -38 -39.9639
  endloop
 endfacet
 facet normal 0.216193 0.60022 -0.770063
  outer loop
   vertex 30 -38 -39.9639
   vertex 30 -38.0463 -40
   vertex 29.8714 -38 -40
  endloop
 endfacet
 facet normal 0.217868 0.591874 -0.776028
  outer loop
   vertex 30 -38 -39.9639
   vertex 29.8714 -38 -40
   vertex 28 -36 -39
  endloop
 endfacet
 facet normal -0.476732 0.729851 0.489943
  outer loop
   vertex 30.005 -40 -42
   vertex 32 -38 -43.0381
   vertex 30 -40 -42.0049
  endloop
 endfacet
 facet normal -0.532605 0.742488 0.406254
  outer loop
   vertex 30 -40 -42.0049
   vertex 32 -38 -43.0381
   vertex 31.2663 -38 -44
  endloop
 endfacet
 facet normal -0.618077 0.715715 0.325166
  outer loop
   vertex 30 -40 -42.0049
   vertex 31.2663 -38 -44
   vertex 30 -39.0936 -44
  endloop
 endfacet
 facet normal 0.863044 0.504362 0.0278247
  outer loop
   vertex 18 -39.252 -42
   vertex 18 -39.1417 -44
   vertex 17.3328 -38 -44
  endloop
 endfacet
 facet normal -0.799379 0.536094 0.271288
  outer loop
   vertex 34.1117 -36 -42
   vertex 34 -36 -42.329
   vertex 34 -36.1665 -42
  endloop
 endfacet
 facet normal -0.812911 0.519641 0.262962
  outer loop
   vertex 34 -36.1665 -42
   vertex 34 -36 -42.329
   vertex 32.828 -38 -42
  endloop
 endfacet
 facet normal -0.632372 0.404234 -0.660833
  outer loop
   vertex 34 -36.1665 -42
   vertex 32.828 -38 -42
   vertex 32 -38 -41.2077
  endloop
 endfacet
 facet normal -0.578219 0.548227 -0.604243
  outer loop
   vertex 32 -38 -41.2077
   vertex 32.828 -38 -42
   vertex 32 -38.8733 -42
  endloop
 endfacet
 facet normal -0.420423 0.609674 -0.671969
  outer loop
   vertex 32 -38 -41.2077
   vertex 32 -38.8733 -42
   vertex 30.0697 -38 -40
  endloop
 endfacet
 facet normal -0.681918 0.489088 0.543857
  outer loop
   vertex 32 -38 -43.0381
   vertex 32.828 -38 -42
   vertex 34 -36 -42.329
  endloop
 endfacet
 facet normal 0.928031 -0.158593 -0.337056
  outer loop
   vertex 18 -36 -42.2285
   vertex 18 -36.4856 -42
   vertex 17.7412 -38 -42
  endloop
 endfacet
 facet normal 0.714496 -0.122102 -0.688902
  outer loop
   vertex 17.7412 -38 -42
   vertex 18 -36.4856 -42
   vertex 18 -38 -41.7316
  endloop
 endfacet
 facet normal 0.942414 -0.15576 -0.295965
  outer loop
   vertex 18 -36 -42.2285
   vertex 17.7412 -38 -42
   vertex 17.4437 -36 -44
  endloop
 endfacet
 facet normal -0.584675 0.804523 0.104392
  outer loop
   vertex 36 -34.1737 -44
   vertex 36 -34.4332 -42
   vertex 36.5961 -34 -42
  endloop
 endfacet
 facet normal -0.417794 0.574892 -0.703525
  outer loop
   vertex 36.5961 -34 -42
   vertex 36 -34.4332 -42
   vertex 36 -34 -41.646
  endloop
 endfacet
 facet normal -0.506122 0.132248 -0.852262
  outer loop
   vertex 36.5961 -34 -42
   vertex 36 -34 -41.646
   vertex 37.1187 -32 -42
  endloop
 endfacet
 facet normal -0.56529 0.173451 -0.80645
  outer loop
   vertex 37.1187 -32 -42
   vertex 36 -34 -41.646
   vertex 36 -32 -41.2159
  endloop
 endfacet
 facet normal -0.522896 -0.412444 -0.745969
  outer loop
   vertex 37.1187 -32 -42
   vertex 36 -32 -41.2159
   vertex 36 -30.5817 -42
  endloop
 endfacet
 facet normal -0.435555 -0.435555 -0.787771
  outer loop
   vertex 36 -30.5817 -42
   vertex 36 -32 -41.2159
   vertex 35.4183 -30 -42
  endloop
 endfacet
 facet normal -0.644252 -0.644252 0.412163
  outer loop
   vertex 36 -30.5817 -42
   vertex 35.4183 -30 -42
   vertex 34.1387 -30 -44
  endloop
 endfacet
 facet normal -0.429348 -0.860357 0.274677
  outer loop
   vertex 34.1387 -30 -44
   vertex 35.4183 -30 -42
   vertex 34 -29.2922 -42
  endloop
 endfacet
 facet normal -0.672271 0.727482 0.13719
  outer loop
   vertex 36 -34.1737 -44
   vertex 36.5961 -34 -42
   vertex 36.1879 -34 -44
  endloop
 endfacet
 facet normal -0.972486 0.122011 0.198454
  outer loop
   vertex 36.1879 -34 -44
   vertex 36.5961 -34 -42
   vertex 36.4389 -32 -44
  endloop
 endfacet
 facet normal -0.919092 0.240156 0.312402
  outer loop
   vertex 36.5961 -34 -42
   vertex 37.1187 -32 -42
   vertex 36.4389 -32 -44
  endloop
 endfacet
 facet normal -0.758602 -0.598361 0.257851
  outer loop
   vertex 36.4389 -32 -44
   vertex 37.1187 -32 -42
   vertex 36 -30.5817 -42
  endloop
 endfacet
 facet normal -0.753976 -0.602483 0.261789
  outer loop
   vertex 36.4389 -32 -44
   vertex 36 -30.5817 -42
   vertex 36 -31.4508 -44
  endloop
 endfacet
 facet normal -0.581565 -0.746109 0.324197
  outer loop
   vertex 36 -31.4508 -44
   vertex 36 -30.5817 -42
   vertex 34.1387 -30 -44
  endloop
 endfacet
 facet normal 0.530685 -0.685785 0.498068
  outer loop
   vertex 24 -31.1467 -44
   vertex 23.6048 -30 -42
   vertex 22 -31.2419 -42
  endloop
 endfacet
 facet normal 0.567416 -0.733251 -0.374675
  outer loop
   vertex 22 -31.2419 -42
   vertex 23.6048 -30 -42
   vertex 22.3409 -32 -40
  endloop
 endfacet
 facet normal 0.612086 -0.699216 -0.369388
  outer loop
   vertex 22 -31.2419 -42
   vertex 22.3409 -32 -40
   vertex 22 -32 -40.5649
  endloop
 endfacet
 facet normal 0.809068 0.327118 -0.488264
  outer loop
   vertex 22 -32 -40.5649
   vertex 22.3409 -32 -40
   vertex 23.1496 -34 -40
  endloop
 endfacet
 facet normal 0.441287 0.000169447 -0.897366
  outer loop
   vertex 22 -32 -40.5649
   vertex 23.1496 -34 -40
   vertex 22 -34 -40.5653
  endloop
 endfacet
 facet normal 0.385809 0.48542 -0.78455
  outer loop
   vertex 22 -34 -40.5653
   vertex 23.1496 -34 -40
   vertex 24 -34.6759 -40
  endloop
 endfacet
 facet normal 0.378092 0.4355 -0.816937
  outer loop
   vertex 22 -34 -40.5653
   vertex 24 -34.6759 -40
   vertex 24 -36 -40.7058
  endloop
 endfacet
 facet normal 0.215188 0.459399 -0.861769
  outer loop
   vertex 24 -36 -40.7058
   vertex 24 -34.6759 -40
   vertex 26 -35.6127 -40
  endloop
 endfacet
 facet normal 0 -0.927423 0.374013
  outer loop
   vertex 34 -29.9226 -44
   vertex 32 -29.1161 -42
   vertex 32 -29.9226 -44
  endloop
 endfacet
 facet normal 0.0430403 -0.926564 0.373667
  outer loop
   vertex 32 -29.9226 -44
   vertex 32 -29.1161 -42
   vertex 30 -29.209 -42
  endloop
 endfacet
 facet normal -0.157493 0.808696 -0.56675
  outer loop
   vertex 30 -40.002 -42
   vertex 28 -40 -41.4414
   vertex 30 -40 -41.9972
  endloop
 endfacet
 facet normal -0.240597 0.438737 -0.865808
  outer loop
   vertex 30 -40 -41.9972
   vertex 28 -40 -41.4414
   vertex 28 -38 -40.428
  endloop
 endfacet
 facet normal -0.204594 0.419332 -0.884478
  outer loop
   vertex 26 -41.8645 -42
   vertex 24 -42 -41.6016
   vertex 26 -40 -41.116
  endloop
 endfacet
 facet normal -0.0554784 0.287614 -0.956138
  outer loop
   vertex 26 -40 -41.116
   vertex 24 -42 -41.6016
   vertex 24 -40 -41
  endloop
 endfacet
 facet normal -0.057926 0 -0.998321
  outer loop
   vertex 26 -40 -41.116
   vertex 24 -40 -41
   vertex 24 -38 -41
  endloop
 endfacet
 facet normal 0 0 -1
  outer loop
   vertex 24 -38 -41
   vertex 24 -40 -41
   vertex 22 -38 -41
  endloop
 endfacet
 facet normal 0 0.0429253 -0.999078
  outer loop
   vertex 24 -38 -41
   vertex 22 -38 -41
   vertex 22 -36 -40.9141
  endloop
 endfacet
 facet normal 0.100386 0.0427085 -0.994032
  outer loop
   vertex 22 -36 -40.9141
   vertex 22 -38 -41
   vertex 20 -36 -41.116
  endloop
 endfacet
 facet normal 0.0956724 -0.30554 -0.947361
  outer loop
   vertex 22 -36 -40.9141
   vertex 20 -36 -41.116
   vertex 20 -34 -41.7611
  endloop
 endfacet
 facet normal 0.411285 -0.279785 -0.867505
  outer loop
   vertex 20 -34 -41.7611
   vertex 20 -36 -41.116
   vertex 18.1355 -36 -42
  endloop
 endfacet
 facet normal 0.0128557 0.288034 -0.957534
  outer loop
   vertex 24 -42 -41.6016
   vertex 22 -40 -41.0269
   vertex 24 -40 -41
  endloop
 endfacet
 facet normal 0.0134234 0.0134234 -0.99982
  outer loop
   vertex 24 -40 -41
   vertex 22 -40 -41.0269
   vertex 22 -38 -41
  endloop
 endfacet
 facet normal 0.211885 0.441751 -0.871757
  outer loop
   vertex 28 -40 -41.4414
   vertex 26 -38 -40.9141
   vertex 28 -38 -40.428
  endloop
 endfacet
 facet normal 0.22582 0.292917 -0.929088
  outer loop
   vertex 28 -38 -40.428
   vertex 26 -38 -40.9141
   vertex 26 -36 -40.2835
  endloop
 endfacet
 facet normal 0.43192 0.486754 -0.759286
  outer loop
   vertex 28 -38 -40.428
   vertex 26 -36 -40.2835
   vertex 28 -37.3324 -40
  endloop
 endfacet
 facet normal 0.432919 0.488632 -0.757509
  outer loop
   vertex 28 -37.3324 -40
   vertex 26 -36 -40.2835
   vertex 26.4961 -36 -40
  endloop
 endfacet
 facet normal 0.0134234 0.0134234 -0.99982
  outer loop
   vertex 22 -40 -41.0269
   vertex 20 -38 -41.0269
   vertex 22 -38 -41
  endloop
 endfacet
 facet normal 0.0134113 -0.0445493 -0.998917
  outer loop
   vertex 22 -38 -41
   vertex 20 -38 -41.0269
   vertex 20 -36 -41.116
  endloop
 endfacet
 facet normal -0.571495 0.383266 -0.725604
  outer loop
   vertex 34.1117 -36 -42
   vertex 34 -36.1665 -42
   vertex 34 -36 -41.9121
  endloop
 endfacet
 facet normal -0.614276 0.368547 -0.697738
  outer loop
   vertex 34 -36 -41.9121
   vertex 34 -36.1665 -42
   vertex 32 -38 -41.2077
  endloop
 endfacet
 facet normal -0.54327 0.262409 -0.797496
  outer loop
   vertex 34 -36 -41.9121
   vertex 32 -38 -41.2077
   vertex 32 -36 -40.5496
  endloop
 endfacet
 facet normal -0.654647 0.236271 -0.718062
  outer loop
   vertex 32 -36 -40.5496
   vertex 32 -38 -41.2077
   vertex 31.3971 -36 -40
  endloop
 endfacet
 facet normal -0.663526 0.173324 -0.7278
  outer loop
   vertex 32 -36 -40.5496
   vertex 31.3971 -36 -40
   vertex 31.9196 -34 -40
  endloop
 endfacet
 facet normal -0.772096 0.201685 -0.602654
  outer loop
   vertex 31.9196 -34 -40
   vertex 31.3971 -36 -40
   vertex 30.3585 -34 -38
  endloop
 endfacet
 facet normal -0.762279 0.254785 -0.594992
  outer loop
   vertex 31.9196 -34 -40
   vertex 30.3585 -34 -38
   vertex 31.027 -32 -38
  endloop
 endfacet
 facet normal -0.64895 0.216906 -0.729257
  outer loop
   vertex 31.027 -32 -38
   vertex 30.3585 -34 -38
   vertex 30 -34 -37.681
  endloop
 endfacet
 facet normal -0.539073 0.144451 -0.82978
  outer loop
   vertex 31.027 -32 -38
   vertex 30 -34 -37.681
   vertex 30 -32 -37.3328
  endloop
 endfacet
 facet normal -0.120725 0.17025 -0.977978
  outer loop
   vertex 30 -32 -37.3328
   vertex 30 -34 -37.681
   vertex 28 -32 -37.0859
  endloop
 endfacet
 facet normal -0.1225 -0.0149434 -0.992356
  outer loop
   vertex 30 -32 -37.3328
   vertex 28 -32 -37.0859
   vertex 28 -30 -37.116
  endloop
 endfacet
 facet normal 0.0475672 -0.0150398 -0.998755
  outer loop
   vertex 28 -30 -37.116
   vertex 28 -32 -37.0859
   vertex 26 -30 -37.2113
  endloop
 endfacet
 facet normal 0.0437497 -0.392762 -0.918599
  outer loop
   vertex 28 -30 -37.116
   vertex 26 -30 -37.2113
   vertex 26 -28.1554 -38
  endloop
 endfacet
 facet normal 0.441869 -0.352676 -0.824846
  outer loop
   vertex 26 -28.1554 -38
   vertex 26 -30 -37.2113
   vertex 24.5277 -30 -38
  endloop
 endfacet
 facet normal 0.769867 -0.614467 -0.172441
  outer loop
   vertex 26 -28.1554 -38
   vertex 24.5277 -30 -38
   vertex 26 -28 -38.5536
  endloop
 endfacet
 facet normal 0.625849 -0.598993 -0.499521
  outer loop
   vertex 26 -28 -38.5536
   vertex 24.5277 -30 -38
   vertex 24 -30 -38.6612
  endloop
 endfacet
 facet normal -0.500304 0.332059 -0.799645
  outer loop
   vertex 32 -38 -41.2077
   vertex 30.0697 -38 -40
   vertex 31.3971 -36 -40
  endloop
 endfacet
 facet normal -0.439804 0.291904 -0.849332
  outer loop
   vertex 31.3971 -36 -40
   vertex 30.0697 -38 -40
   vertex 30 -38 -39.9639
  endloop
 endfacet
 facet normal -0.635675 0.432523 -0.639407
  outer loop
   vertex 31.3971 -36 -40
   vertex 30 -38 -39.9639
   vertex 30 -36 -38.611
  endloop
 endfacet
 facet normal 0.159049 0.553163 -0.81775
  outer loop
   vertex 30 -36 -38.611
   vertex 30 -38 -39.9639
   vertex 28 -36 -39
  endloop
 endfacet
 facet normal 0.170796 0.446863 -0.878147
  outer loop
   vertex 30 -36 -38.611
   vertex 28 -36 -39
   vertex 30 -34.7993 -38
  endloop
 endfacet
 facet normal 0.0395005 0.599792 -0.79918
  outer loop
   vertex 30 -34.7993 -38
   vertex 28 -36 -39
   vertex 28 -34.6676 -38
  endloop
 endfacet
 facet normal 0.0346944 0.526815 -0.849271
  outer loop
   vertex 30 -34.7993 -38
   vertex 28 -34.6676 -38
   vertex 28 -34 -37.5859
  endloop
 endfacet
 facet normal 0.423158 0.477612 -0.769951
  outer loop
   vertex 28 -34 -37.5859
   vertex 28 -34.6676 -38
   vertex 27.2465 -34 -38
  endloop
 endfacet
 facet normal 0.430202 0.449669 -0.782767
  outer loop
   vertex 28 -34 -37.5859
   vertex 27.2465 -34 -38
   vertex 26 -32 -37.5362
  endloop
 endfacet
 facet normal 0.420708 0.445494 -0.790278
  outer loop
   vertex 26 -32 -37.5362
   vertex 27.2465 -34 -38
   vertex 26 -32.8228 -38
  endloop
 endfacet
 facet normal 0.416937 0.446348 -0.791793
  outer loop
   vertex 26 -32 -37.5362
   vertex 26 -32.8228 -38
   vertex 25.1191 -32 -38
  endloop
 endfacet
 facet normal 0.445847 0.477297 -0.757237
  outer loop
   vertex 25.1191 -32 -38
   vertex 26 -32.8228 -38
   vertex 24 -32 -38.6589
  endloop
 endfacet
 facet normal 0.507369 -0.000971377 -0.861728
  outer loop
   vertex 25.1191 -32 -38
   vertex 24 -32 -38.6589
   vertex 24 -30 -38.6612
  endloop
 endfacet
 facet normal 0.628637 -0.000876655 -0.777698
  outer loop
   vertex 24 -30 -38.6612
   vertex 24 -32 -38.6589
   vertex 22.3409 -32 -40
  endloop
 endfacet
 facet normal 0.812918 -0.377471 -0.443485
  outer loop
   vertex 24 -30 -38.6612
   vertex 22.3409 -32 -40
   vertex 23.2696 -30 -40
  endloop
 endfacet
 facet normal 0.896688 -0.416368 0.150291
  outer loop
   vertex 23.2696 -30 -40
   vertex 22.3409 -32 -40
   vertex 23.6048 -30 -42
  endloop
 endfacet
 facet normal -0.552706 0.190341 -0.811348
  outer loop
   vertex 34 -36 -41.9121
   vertex 32 -36 -40.5496
   vertex 32 -34 -40.0804
  endloop
 endfacet
 facet normal -0.697565 0.163651 -0.697582
  outer loop
   vertex 32 -34 -40.0804
   vertex 32 -36 -40.5496
   vertex 31.9196 -34 -40
  endloop
 endfacet
 facet normal -0.654276 0.379244 -0.654291
  outer loop
   vertex 32 -34 -40.0804
   vertex 31.9196 -34 -40
   vertex 32 -33.8613 -40
  endloop
 endfacet
 facet normal -0.647044 0.375052 -0.66383
  outer loop
   vertex 32 -33.8613 -40
   vertex 31.9196 -34 -40
   vertex 31.027 -32 -38
  endloop
 endfacet
 facet normal -0.42605 0.341278 -0.837861
  outer loop
   vertex 32 -34 -40.0804
   vertex 34 -34 -41.0974
   vertex 34 -36 -41.9121
  endloop
 endfacet
 facet normal -0.359406 0.196222 -0.912318
  outer loop
   vertex 36 -34 -41.646
   vertex 34 -32 -40.428
   vertex 36 -32 -41.2159
  endloop
 endfacet
 facet normal -0.366383 -0.0284443 -0.930029
  outer loop
   vertex 36 -32 -41.2159
   vertex 34 -32 -40.428
   vertex 34 -30 -40.4891
  endloop
 endfacet
 facet normal -0.657196 -0.433034 -0.616908
  outer loop
   vertex 36 -32 -41.2159
   vertex 34 -30 -40.4891
   vertex 35.4183 -30 -42
  endloop
 endfacet
 facet normal -0.411811 -0.825215 -0.386565
  outer loop
   vertex 35.4183 -30 -42
   vertex 34 -30 -40.4891
   vertex 34 -29.2922 -42
  endloop
 endfacet
 facet normal -0.558748 0.0405989 -0.828343
  outer loop
   vertex 33.3656 -32 -40
   vertex 33.5109 -30 -40
   vertex 34 -32 -40.428
  endloop
 endfacet
 facet normal -0.706941 -0.0216213 -0.706941
  outer loop
   vertex 34 -32 -40.428
   vertex 33.5109 -30 -40
   vertex 34 -30 -40.4891
  endloop
 endfacet
 facet normal -0.398964 -0.825624 -0.398964
  outer loop
   vertex 34 -30 -40.4891
   vertex 33.5109 -30 -40
   vertex 32 -29.2699 -40
  endloop
 endfacet
 facet normal -0.385139 -0.797013 -0.465229
  outer loop
   vertex 32 -29.2699 -40
   vertex 33.5109 -30 -40
   vertex 32 -30 -38.7492
  endloop
 endfacet
 facet normal -0.404616 -0.789783 -0.461009
  outer loop
   vertex 32 -29.2699 -40
   vertex 32 -30 -38.7492
   vertex 30 -29.4127 -38
  endloop
 endfacet
 facet normal -0.420345 -0.708836 -0.566446
  outer loop
   vertex 30 -29.4127 -38
   vertex 32 -30 -38.7492
   vertex 30.9904 -30 -38
  endloop
 endfacet
 facet normal -0.33995 -0.573264 -0.745522
  outer loop
   vertex 30 -29.4127 -38
   vertex 30.9904 -30 -38
   vertex 30 -30 -37.5484
  endloop
 endfacet
 facet normal -0.398369 -0.830608 -0.389092
  outer loop
   vertex 34 -30 -40.4891
   vertex 32 -29.2699 -40
   vertex 34 -29.2922 -42
  endloop
 endfacet
 facet normal 0.0451126 -0.971175 0.234062
  outer loop
   vertex 32 -29.1161 -42
   vertex 30 -28.7269 -40
   vertex 30 -29.209 -42
  endloop
 endfacet
 facet normal -0.0490675 -0.970993 0.234018
  outer loop
   vertex 30 -29.209 -42
   vertex 30 -28.7269 -40
   vertex 28 -29.1079 -42
  endloop
 endfacet
 facet normal -0.365612 -0.80553 0.466314
  outer loop
   vertex 28.3984 -28 -40
   vertex 28 -28 -40.3124
   vertex 30 -28.7269 -40
  endloop
 endfacet
 facet normal -0.362984 -0.778948 0.511354
  outer loop
   vertex 30 -28.7269 -40
   vertex 28 -28 -40.3124
   vertex 28 -29.1079 -42
  endloop
 endfacet
 facet normal 0 -0.835964 0.548784
  outer loop
   vertex 28 -29.1079 -42
   vertex 28 -28 -40.3124
   vertex 26 -28 -40.3124
  endloop
 endfacet
 facet normal 0 -0.835966 0.548782
  outer loop
   vertex 26 -28 -40.3124
   vertex 28 -28 -40.3124
   vertex 28 -27.795 -40
  endloop
 endfacet
 facet normal 0 -0.835966 0.548782
  outer loop
   vertex 26 -28 -40.3124
   vertex 28 -27.795 -40
   vertex 26 -27.795 -40
  endloop
 endfacet
 facet normal -0 -0.9901 -0.140365
  outer loop
   vertex 26 -27.795 -40
   vertex 28 -27.795 -40
   vertex 28 -28 -38.5536
  endloop
 endfacet
 facet normal 0.521783 -0.709084 0.474282
  outer loop
   vertex 25.6877 -28 -40
   vertex 24 -29.2419 -40
   vertex 26 -29.1079 -42
  endloop
 endfacet
 facet normal -0.395237 -0.7679 0.5041
  outer loop
   vertex 28 -28 -40.3124
   vertex 28.3984 -28 -40
   vertex 28 -27.795 -40
  endloop
 endfacet
 facet normal -0.454045 -0.882158 -0.125062
  outer loop
   vertex 28 -27.795 -40
   vertex 28.3984 -28 -40
   vertex 28 -28 -38.5536
  endloop
 endfacet
 facet normal -0.711023 0.318906 -0.626694
  outer loop
   vertex 30 -36 -38.611
   vertex 30 -34.7993 -38
   vertex 30.3585 -34 -38
  endloop
 endfacet
 facet normal -0.637061 0.285733 -0.715898
  outer loop
   vertex 30.3585 -34 -38
   vertex 30 -34.7993 -38
   vertex 30 -34 -37.681
  endloop
 endfacet
 facet normal -0.666889 0.324471 -0.670804
  outer loop
   vertex 30 -36 -38.611
   vertex 30.3585 -34 -38
   vertex 31.3971 -36 -40
  endloop
 endfacet
 facet normal 0.446445 0.503895 -0.739444
  outer loop
   vertex 28 -34.6676 -38
   vertex 26 -34 -38.7526
   vertex 27.2465 -34 -38
  endloop
 endfacet
 facet normal 0.453394 0.480106 -0.750954
  outer loop
   vertex 27.2465 -34 -38
   vertex 26 -34 -38.7526
   vertex 26 -32.8228 -38
  endloop
 endfacet
 facet normal 0.448549 0.546812 -0.706965
  outer loop
   vertex 28 -34.6676 -38
   vertex 26 -35.6127 -40
   vertex 26 -34 -38.7526
  endloop
 endfacet
 facet normal 0.310731 0.581526 -0.751847
  outer loop
   vertex 26 -34 -38.7526
   vertex 26 -35.6127 -40
   vertex 24 -34 -39.5792
  endloop
 endfacet
 facet normal 0.351494 0.391329 -0.850478
  outer loop
   vertex 26 -34 -38.7526
   vertex 24 -34 -39.5792
   vertex 24 -32 -38.6589
  endloop
 endfacet
 facet normal 0.410003 0.381253 -0.828579
  outer loop
   vertex 24 -32 -38.6589
   vertex 24 -34 -39.5792
   vertex 23.1496 -34 -40
  endloop
 endfacet
 facet normal 0.609266 0.246335 -0.753733
  outer loop
   vertex 24 -32 -38.6589
   vertex 23.1496 -34 -40
   vertex 22.3409 -32 -40
  endloop
 endfacet
 facet normal 0.458643 0.533404 -0.710723
  outer loop
   vertex 26 -35.6127 -40
   vertex 28 -34.6676 -38
   vertex 28 -36 -39
  endloop
 endfacet
 facet normal 0.240312 0.513036 -0.824041
  outer loop
   vertex 26 -35.6127 -40
   vertex 24 -34.6759 -40
   vertex 24 -34 -39.5792
  endloop
 endfacet
 facet normal 0.387285 0.487278 -0.782668
  outer loop
   vertex 24 -34 -39.5792
   vertex 24 -34.6759 -40
   vertex 23.1496 -34 -40
  endloop
 endfacet
 facet normal 0.446633 0.481941 -0.753825
  outer loop
   vertex 26 -32.8228 -38
   vertex 26 -34 -38.7526
   vertex 24 -32 -38.6589
  endloop
 endfacet
 facet normal -0.637007 0.0461519 -0.769475
  outer loop
   vertex 33.5109 -30 -40
   vertex 32 -32 -38.8692
   vertex 32 -30 -38.7492
  endloop
 endfacet
 facet normal -0.595228 0.0481097 -0.802115
  outer loop
   vertex 32 -30 -38.7492
   vertex 32 -32 -38.8692
   vertex 30.9904 -30 -38
  endloop
 endfacet
 facet normal -0.637119 0.0462934 -0.769374
  outer loop
   vertex 33.3656 -32 -40
   vertex 32 -32 -38.8692
   vertex 33.5109 -30 -40
  endloop
 endfacet
 facet normal 0.761501 0.22518 -0.607791
  outer loop
   vertex 24 -30 -38.6612
   vertex 24.5277 -30 -38
   vertex 25.1191 -32 -38
  endloop
 endfacet
 facet normal 0.467673 0.138294 -0.873016
  outer loop
   vertex 25.1191 -32 -38
   vertex 24.5277 -30 -38
   vertex 26 -30 -37.2113
  endloop
 endfacet
 facet normal 0.461186 0.142258 -0.875825
  outer loop
   vertex 25.1191 -32 -38
   vertex 26 -30 -37.2113
   vertex 26 -32 -37.5362
  endloop
 endfacet
 facet normal 0.216911 0.15651 -0.963563
  outer loop
   vertex 26 -32 -37.5362
   vertex 26 -30 -37.2113
   vertex 28 -32 -37.0859
  endloop
 endfacet
 facet normal 0.213364 0.236935 -0.947807
  outer loop
   vertex 26 -32 -37.5362
   vertex 28 -32 -37.0859
   vertex 28 -34 -37.5859
  endloop
 endfacet
 facet normal -0.0460761 0.242262 -0.969116
  outer loop
   vertex 28 -34 -37.5859
   vertex 28 -32 -37.0859
   vertex 30 -34 -37.681
  endloop
 endfacet
 facet normal -0.0441143 0.37033 -0.927852
  outer loop
   vertex 28 -34 -37.5859
   vertex 30 -34 -37.681
   vertex 30 -34.7993 -38
  endloop
 endfacet
 facet normal -0.65343 -0.735279 -0.179981
  outer loop
   vertex 28 -28 -38.5536
   vertex 28.3984 -28 -40
   vertex 28 -28.1355 -38
  endloop
 endfacet
 facet normal -0.409077 -0.901295 -0.142557
  outer loop
   vertex 28 -28.1355 -38
   vertex 28.3984 -28 -40
   vertex 30 -28.7269 -40
  endloop
 endfacet
endsolid
