solid ascii
 facet normal -0.513597 0.513592 0.687344
  outer loop
   vertex 16.1971 -38 -28
   vertex 16 -38 -28.1473
   vertex 16 -38.1971 -28
  endloop
 endfacet
 facet normal -0.0528089 0.597735 0.799953
  outer loop
   vertex 16 -38.1971 -28
   vertex 16 -38 -28.1473
   vertex 14 -38.3738 -28
  endloop
 endfacet
 facet normal -0.0764061 0.864828 0.496221
  outer loop
   vertex 16 -38.1971 -28
   vertex 14 -38.3738 -28
   vertex 16 -39.3446 -26
  endloop
 endfacet
 facet normal -0.503982 0.463352 0.728908
  outer loop
   vertex 16 -39.3446 -26
   vertex 14 -38.3738 -28
   vertex 15.3975 -40 -26
  endloop
 endfacet
 facet normal -0.656501 0.603576 -0.452441
  outer loop
   vertex 16 -39.3446 -26
   vertex 15.3975 -40 -26
   vertex 15.8579 -38 -24
  endloop
 endfacet
 facet normal -0.904063 0.387799 -0.179672
  outer loop
   vertex 15.8579 -38 -24
   vertex 15.3975 -40 -26
   vertex 15 -40 -24
  endloop
 endfacet
 facet normal -0.8794 0.377219 -0.290449
  outer loop
   vertex 15.8579 -38 -24
   vertex 15 -40 -24
   vertex 14.3394 -40 -22
  endloop
 endfacet
 facet normal -0.801255 0.536616 -0.26464
  outer loop
   vertex 14.3394 -40 -22
   vertex 15 -40 -24
   vertex 14 -41.4932 -24
  endloop
 endfacet
 facet normal -0.834756 0.499656 -0.23136
  outer loop
   vertex 14.3394 -40 -22
   vertex 14 -41.4932 -24
   vertex 14 -40.5671 -22
  endloop
 endfacet
 facet normal -0.854324 0.471634 -0.218385
  outer loop
   vertex 14 -40.5671 -22
   vertex 14 -41.4932 -24
   vertex 13.209 -42 -22
  endloop
 endfacet
 facet normal -0.81933 0.452316 -0.352291
  outer loop
   vertex 14 -40.5671 -22
   vertex 13.209 -42 -22
   vertex 13.4531 -40 -20
  endloop
 endfacet
 facet normal -0.859246 0.410356 -0.305458
  outer loop
   vertex 13.4531 -40 -20
   vertex 13.209 -42 -22
   vertex 12.498 -42 -20
  endloop
 endfacet
 facet normal -0.864623 0.412924 -0.286218
  outer loop
   vertex 13.4531 -40 -20
   vertex 12.498 -42 -20
   vertex 12.791 -40 -18
  endloop
 endfacet
 facet normal -0.757542 0.513747 -0.402733
  outer loop
   vertex 12.791 -40 -18
   vertex 12.498 -42 -20
   vertex 12 -42 -19.0633
  endloop
 endfacet
 facet normal -0.779789 0.505085 -0.36989
  outer loop
   vertex 12.791 -40 -18
   vertex 12 -42 -19.0633
   vertex 12 -41.2213 -18
  endloop
 endfacet
 facet normal -0.709808 0.568299 -0.416184
  outer loop
   vertex 12 -41.2213 -18
   vertex 12 -42 -19.0633
   vertex 11.3765 -42 -18
  endloop
 endfacet
 facet normal -0.767036 0.614117 -0.185783
  outer loop
   vertex 12 -41.2213 -18
   vertex 11.3765 -42 -18
   vertex 10.8921 -42 -16
  endloop
 endfacet
 facet normal -0.709635 0.683283 -0.17188
  outer loop
   vertex 10.8921 -42 -16
   vertex 11.3765 -42 -18
   vertex 10 -43.4296 -18
  endloop
 endfacet
 facet normal -0.724702 0.671071 -0.15643
  outer loop
   vertex 10.8921 -42 -16
   vertex 10 -43.4296 -18
   vertex 10 -42.9634 -16
  endloop
 endfacet
 facet normal -0.310523 0.925747 -0.215796
  outer loop
   vertex 10 -42.9634 -16
   vertex 10 -43.4296 -18
   vertex 8 -43.6343 -16
  endloop
 endfacet
 facet normal -0.305502 0.910777 -0.277766
  outer loop
   vertex 10 -42.9634 -16
   vertex 8 -43.6343 -16
   vertex 8 -43.0243 -14
  endloop
 endfacet
 facet normal 0.872089 0.468063 -0.142749
  outer loop
   vertex 8 -43.0243 -14
   vertex 8 -43.6343 -16
   vertex 7.12286 -42 -16
  endloop
 endfacet
 facet normal 0.84231 0.530017 -0.0979583
  outer loop
   vertex 8 -43.0243 -14
   vertex 7.12286 -42 -16
   vertex 7.35546 -42 -14
  endloop
 endfacet
 facet normal 0.991461 0.0609071 -0.115304
  outer loop
   vertex 7.35546 -42 -14
   vertex 7.12286 -42 -16
   vertex 7 -40 -16
  endloop
 endfacet
 facet normal 0.990357 0.131037 -0.0449782
  outer loop
   vertex 7.35546 -42 -14
   vertex 7 -40 -16
   vertex 7.09083 -40 -14
  endloop
 endfacet
 facet normal 0.99897 0 -0.0453694
  outer loop
   vertex 7.09083 -40 -14
   vertex 7 -40 -16
   vertex 7 -38 -16
  endloop
 endfacet
 facet normal 0.999399 0.0319703 -0.0134185
  outer loop
   vertex 7.09083 -40 -14
   vertex 7 -38 -16
   vertex 7.02685 -38 -14
  endloop
 endfacet
 facet normal 0.980469 -0.196231 -0.0131643
  outer loop
   vertex 7.02685 -38 -14
   vertex 7 -38 -16
   vertex 7.40028 -36 -16
  endloop
 endfacet
 facet normal 0.983012 -0.183542 0
  outer loop
   vertex 7.02685 -38 -14
   vertex 7.40028 -36 -16
   vertex 7.40028 -36 -14
  endloop
 endfacet
 facet normal 0.809446 -0.587194 0
  outer loop
   vertex 7.40028 -36 -14
   vertex 7.40028 -36 -16
   vertex 8 -35.1733 -16
  endloop
 endfacet
 facet normal 0.809446 -0.587194 0
  outer loop
   vertex 7.40028 -36 -14
   vertex 8 -35.1733 -16
   vertex 8 -35.1733 -14
  endloop
 endfacet
 facet normal 0.749414 -0.662102 0
  outer loop
   vertex 8 -35.1733 -14
   vertex 8 -35.1733 -16
   vertex 9.03659 -34 -14
  endloop
 endfacet
 facet normal 0.712441 -0.629436 -0.310221
  outer loop
   vertex 8 -35.1733 -14
   vertex 9.03659 -34 -14
   vertex 9.90746 -34 -12
  endloop
 endfacet
 facet normal 0.675798 -0.675799 -0.294266
  outer loop
   vertex 9.90746 -34 -12
   vertex 9.03659 -34 -14
   vertex 10 -33.0366 -14
  endloop
 endfacet
 facet normal 0.632708 -0.708708 -0.312112
  outer loop
   vertex 9.90746 -34 -12
   vertex 10 -33.0366 -14
   vertex 10 -33.9174 -12
  endloop
 endfacet
 facet normal 0.383003 -0.845397 -0.372309
  outer loop
   vertex 10 -33.9174 -12
   vertex 10 -33.0366 -14
   vertex 12 -33.0113 -12
  endloop
 endfacet
 facet normal 0.162267 -0.358169 -0.919448
  outer loop
   vertex 10 -33.9174 -12
   vertex 12 -33.0113 -12
   vertex 12 -34 -11.6149
  endloop
 endfacet
 facet normal -0.395487 -0.333386 -0.855829
  outer loop
   vertex 12 -34 -11.6149
   vertex 12 -33.0113 -12
   vertex 12.8335 -34 -12
  endloop
 endfacet
 facet normal -0.398125 0.315033 -0.86154
  outer loop
   vertex 12 -34 -11.6149
   vertex 12.8335 -34 -12
   vertex 12 -35.0533 -12
  endloop
 endfacet
 facet normal -0.602394 0.476669 -0.64024
  outer loop
   vertex 12 -35.0533 -12
   vertex 12.8335 -34 -12
   vertex 13.3765 -36 -14
  endloop
 endfacet
 facet normal -0.717115 0.293123 -0.632317
  outer loop
   vertex 12 -35.0533 -12
   vertex 13.3765 -36 -14
   vertex 12 -36 -12.4389
  endloop
 endfacet
 facet normal -0.706528 0.335727 -0.622981
  outer loop
   vertex 12 -36 -12.4389
   vertex 13.3765 -36 -14
   vertex 12 -38 -13.5167
  endloop
 endfacet
 facet normal -0.587061 0.384048 -0.712647
  outer loop
   vertex 12 -36 -12.4389
   vertex 12 -38 -13.5167
   vertex 11.4673 -36 -12
  endloop
 endfacet
 facet normal -0.786577 0.226195 -0.574572
  outer loop
   vertex 11.4673 -36 -12
   vertex 12 -38 -13.5167
   vertex 10.8921 -38 -12
  endloop
 endfacet
 facet normal -0.864547 0.248617 -0.436747
  outer loop
   vertex 11.4673 -36 -12
   vertex 10.8921 -38 -12
   vertex 10 -38 -10.234
  endloop
 endfacet
 facet normal -0.811076 0.417459 -0.409735
  outer loop
   vertex 10 -38 -10.234
   vertex 10.8921 -38 -12
   vertex 10 -39.7333 -12
  endloop
 endfacet
 facet normal -0.469294 0.630208 -0.618547
  outer loop
   vertex 10 -38 -10.234
   vertex 10 -39.7333 -12
   vertex 9.69152 -38 -10
  endloop
 endfacet
 facet normal -0.459884 0.634715 -0.621002
  outer loop
   vertex 9.69152 -38 -10
   vertex 10 -39.7333 -12
   vertex 9.63188 -40 -12
  endloop
 endfacet
 facet normal -0.72824 0.495332 -0.473617
  outer loop
   vertex 9.69152 -38 -10
   vertex 9.63188 -40 -12
   vertex 8.33116 -40 -10
  endloop
 endfacet
 facet normal -0.639247 0.646934 -0.41574
  outer loop
   vertex 8.33116 -40 -10
   vertex 9.63188 -40 -12
   vertex 8 -41.6125 -12
  endloop
 endfacet
 facet normal -0.666868 0.630194 -0.39767
  outer loop
   vertex 8.33116 -40 -10
   vertex 8 -41.6125 -12
   vertex 8 -40.3504 -10
  endloop
 endfacet
 facet normal 0.905469 0.358926 -0.226492
  outer loop
   vertex 8 -40.3504 -10
   vertex 8 -41.6125 -12
   vertex 7.36081 -40 -12
  endloop
 endfacet
 facet normal 0.824205 0.540583 -0.168692
  outer loop
   vertex 8 -40.3504 -10
   vertex 7.36081 -40 -12
   vertex 7.77016 -40 -10
  endloop
 endfacet
 facet normal 0.973103 0.115775 -0.199167
  outer loop
   vertex 7.77016 -40 -10
   vertex 7.36081 -40 -12
   vertex 7.12286 -38 -12
  endloop
 endfacet
 facet normal 0.971828 0.212425 -0.102103
  outer loop
   vertex 7.77016 -40 -10
   vertex 7.12286 -38 -12
   vertex 7.33299 -38 -10
  endloop
 endfacet
 facet normal 0.972981 -0.207023 -0.102224
  outer loop
   vertex 7.33299 -38 -10
   vertex 7.12286 -38 -12
   vertex 7.54841 -36 -12
  endloop
 endfacet
 facet normal 0.909762 -0.338418 -0.240428
  outer loop
   vertex 7.33299 -38 -10
   vertex 7.54841 -36 -12
   vertex 8 -36 -10.2912
  endloop
 endfacet
 facet normal 0.763979 -0.612839 -0.201901
  outer loop
   vertex 8 -36 -10.2912
   vertex 7.54841 -36 -12
   vertex 8 -35.437 -12
  endloop
 endfacet
 facet normal 0.570047 -0.780354 -0.25709
  outer loop
   vertex 8 -36 -10.2912
   vertex 8 -35.437 -12
   vertex 10 -34 -11.9273
  endloop
 endfacet
 facet normal 0.477771 -0.634173 -0.607914
  outer loop
   vertex 10 -34 -11.9273
   vertex 8 -35.437 -12
   vertex 9.90746 -34 -12
  endloop
 endfacet
 facet normal 0.508089 -0.569119 -0.64649
  outer loop
   vertex 10 -34 -11.9273
   vertex 9.90746 -34 -12
   vertex 10 -33.9174 -12
  endloop
 endfacet
 facet normal -0.0253231 0.480808 0.87646
  outer loop
   vertex 14 -38.3738 -28
   vertex 16 -38 -28.1473
   vertex 14 -38 -28.205
  endloop
 endfacet
 facet normal -0.0283345 0.193525 0.980686
  outer loop
   vertex 14 -38 -28.205
   vertex 16 -38 -28.1473
   vertex 14 -36 -28.5997
  endloop
 endfacet
 facet normal 0.579844 0.157733 0.799313
  outer loop
   vertex 14 -38 -28.205
   vertex 14 -36 -28.5997
   vertex 13.1733 -36 -28
  endloop
 endfacet
 facet normal 0.577412 -0.181778 0.79596
  outer loop
   vertex 13.1733 -36 -28
   vertex 14 -36 -28.5997
   vertex 13.8029 -34 -28
  endloop
 endfacet
 facet normal 0.676718 -0.213042 0.704745
  outer loop
   vertex 13.1733 -36 -28
   vertex 13.8029 -34 -28
   vertex 12 -36 -26.8734
  endloop
 endfacet
 facet normal 0.687721 -0.23255 0.687721
  outer loop
   vertex 12 -36 -26.8734
   vertex 13.8029 -34 -28
   vertex 12 -34 -26.1971
  endloop
 endfacet
 facet normal 0.795732 -0.194006 0.573736
  outer loop
   vertex 12 -36 -26.8734
   vertex 12 -34 -26.1971
   vertex 11.8579 -34 -26
  endloop
 endfacet
 facet normal 0.727169 -0.443094 0.524301
  outer loop
   vertex 11.8579 -34 -26
   vertex 12 -34 -26.1971
   vertex 12 -33.7668 -26
  endloop
 endfacet
 facet normal 0.822946 -0.501455 0.267026
  outer loop
   vertex 11.8579 -34 -26
   vertex 12 -33.7668 -26
   vertex 11.209 -34 -24
  endloop
 endfacet
 facet normal 0.840832 -0.464186 0.278446
  outer loop
   vertex 11.209 -34 -24
   vertex 12 -33.7668 -26
   vertex 12 -32.5671 -24
  endloop
 endfacet
 facet normal 0.839224 -0.463298 0.284707
  outer loop
   vertex 11.209 -34 -24
   vertex 12 -32.5671 -24
   vertex 11.6346 -32 -22
  endloop
 endfacet
 facet normal 0.803526 -0.517805 0.293639
  outer loop
   vertex 11.6346 -32 -22
   vertex 12 -32.5671 -24
   vertex 12 -32 -23
  endloop
 endfacet
 facet normal 0.739845 -0.616061 0.270368
  outer loop
   vertex 11.6346 -32 -22
   vertex 12 -32 -23
   vertex 12 -31.5611 -22
  endloop
 endfacet
 facet normal 0.707083 -0.647517 0.284173
  outer loop
   vertex 12 -31.5611 -22
   vertex 12 -32 -23
   vertex 13.4296 -30 -22
  endloop
 endfacet
 facet normal 0.69422 -0.635738 -0.337486
  outer loop
   vertex 12 -31.5611 -22
   vertex 13.4296 -30 -22
   vertex 14 -30 -20.8267
  endloop
 endfacet
 facet normal 0.668703 -0.668699 -0.325081
  outer loop
   vertex 14 -30 -20.8267
   vertex 13.4296 -30 -22
   vertex 14 -29.4296 -22
  endloop
 endfacet
 facet normal 0.635736 -0.69422 -0.337487
  outer loop
   vertex 14 -30 -20.8267
   vertex 14 -29.4296 -22
   vertex 15.5611 -28 -22
  endloop
 endfacet
 facet normal 0.671184 -0.732928 -0.111034
  outer loop
   vertex 15.5611 -28 -22
   vertex 14 -29.4296 -22
   vertex 14 -29.1266 -24
  endloop
 endfacet
 facet normal 0.731947 -0.649677 -0.20536
  outer loop
   vertex 15.5611 -28 -22
   vertex 14 -29.1266 -24
   vertex 15 -28 -24
  endloop
 endfacet
 facet normal 0.712211 -0.632159 0.305172
  outer loop
   vertex 15 -28 -24
   vertex 14 -29.1266 -24
   vertex 14 -30 -25.8092
  endloop
 endfacet
 facet normal 0.611387 -0.67673 0.410174
  outer loop
   vertex 15 -28 -24
   vertex 14 -30 -25.8092
   vertex 14.128 -30 -26
  endloop
 endfacet
 facet normal 0.708476 -0.521673 0.47531
  outer loop
   vertex 14.128 -30 -26
   vertex 14 -30 -25.8092
   vertex 14 -30.1739 -26
  endloop
 endfacet
 facet normal 0.509353 -0.375053 0.774529
  outer loop
   vertex 14.128 -30 -26
   vertex 14 -30.1739 -26
   vertex 14 -32 -26.8843
  endloop
 endfacet
 facet normal 0.668978 -0.323941 0.668977
  outer loop
   vertex 14 -32 -26.8843
   vertex 14 -30.1739 -26
   vertex 13.1157 -32 -26
  endloop
 endfacet
 facet normal 0.645661 -0.407732 0.64566
  outer loop
   vertex 14 -32 -26.8843
   vertex 13.1157 -32 -26
   vertex 14 -33.7668 -28
  endloop
 endfacet
 facet normal 0.565484 -0.477896 0.672193
  outer loop
   vertex 14 -33.7668 -28
   vertex 13.1157 -32 -26
   vertex 13.8029 -34 -28
  endloop
 endfacet
 facet normal 0.524301 -0.443092 0.727171
  outer loop
   vertex 14 -33.7668 -28
   vertex 13.8029 -34 -28
   vertex 14 -34 -28.1421
  endloop
 endfacet
 facet normal 0.575027 -0.182482 0.797524
  outer loop
   vertex 14 -34 -28.1421
   vertex 13.8029 -34 -28
   vertex 14 -36 -28.5997
  endloop
 endfacet
 facet normal 0.137225 -0.220937 0.965586
  outer loop
   vertex 14 -34 -28.1421
   vertex 14 -36 -28.5997
   vertex 16 -36 -28.884
  endloop
 endfacet
 facet normal 0.132186 0.342609 0.930132
  outer loop
   vertex 16 -36 -28.884
   vertex 14 -36 -28.5997
   vertex 16 -38 -28.1473
  endloop
 endfacet
 facet normal -0.352767 0.323421 0.87804
  outer loop
   vertex 16 -36 -28.884
   vertex 16 -38 -28.1473
   vertex 18 -36 -28.0804
  endloop
 endfacet
 facet normal -0.519624 0.496383 0.69541
  outer loop
   vertex 18 -36 -28.0804
   vertex 16 -38 -28.1473
   vertex 16.1971 -38 -28
  endloop
 endfacet
 facet normal -0.538757 0.512552 0.668604
  outer loop
   vertex 18 -36 -28.0804
   vertex 16.1971 -38 -28
   vertex 18 -36.1049 -28
  endloop
 endfacet
 facet normal -0.704867 0.670583 0.23126
  outer loop
   vertex 18 -36.1049 -28
   vertex 16.1971 -38 -28
   vertex 16.8533 -38 -26
  endloop
 endfacet
 facet normal -0.825722 0.561068 0.0581949
  outer loop
   vertex 18 -36.1049 -28
   vertex 16.8533 -38 -26
   vertex 18 -36.3123 -26
  endloop
 endfacet
 facet normal -0.739406 0.502418 -0.448168
  outer loop
   vertex 18 -36.3123 -26
   vertex 16.8533 -38 -26
   vertex 17 -36 -24
  endloop
 endfacet
 facet normal -0.754501 0.476201 -0.451621
  outer loop
   vertex 18 -36.3123 -26
   vertex 17 -36 -24
   vertex 18 -36 -25.6707
  endloop
 endfacet
 facet normal -0.805226 0.345403 -0.481983
  outer loop
   vertex 18 -36 -25.6707
   vertex 17 -36 -24
   vertex 17.8579 -34 -24
  endloop
 endfacet
 facet normal -0.7792 0.368285 -0.507163
  outer loop
   vertex 18 -36 -25.6707
   vertex 17.8579 -34 -24
   vertex 18 -34 -24.2183
  endloop
 endfacet
 facet normal -0.746407 0.454814 -0.485819
  outer loop
   vertex 18 -34 -24.2183
   vertex 17.8579 -34 -24
   vertex 18 -33.7668 -24
  endloop
 endfacet
 facet normal -0.729461 0.46748 -0.499349
  outer loop
   vertex 18 -34 -24.2183
   vertex 18 -33.7668 -24
   vertex 19.2196 -34 -26
  endloop
 endfacet
 facet normal -0.750148 0.42458 -0.506962
  outer loop
   vertex 19.2196 -34 -26
   vertex 18 -33.7668 -24
   vertex 19 -32 -24
  endloop
 endfacet
 facet normal -0.760961 0.415078 -0.498648
  outer loop
   vertex 19.2196 -34 -26
   vertex 19 -32 -24
   vertex 20 -32.5694 -26
  endloop
 endfacet
 facet normal -0.78134 0.3764 -0.497826
  outer loop
   vertex 20 -32.5694 -26
   vertex 19 -32 -24
   vertex 20 -32 -25.5695
  endloop
 endfacet
 facet normal -0.74655 0.401262 -0.530709
  outer loop
   vertex 20 -32.5694 -26
   vertex 20 -32 -25.5695
   vertex 20.306 -32 -26
  endloop
 endfacet
 facet normal -0.793315 0.229363 -0.563954
  outer loop
   vertex 20.306 -32 -26
   vertex 20 -32 -25.5695
   vertex 20.8843 -30 -26
  endloop
 endfacet
 facet normal -0.960369 0.277662 0.024399
  outer loop
   vertex 20.306 -32 -26
   vertex 20.8843 -30 -26
   vertex 20.8335 -30 -28
  endloop
 endfacet
 facet normal -0.976846 0.2125 0.0248176
  outer loop
   vertex 20.8335 -30 -28
   vertex 20.8843 -30 -26
   vertex 21.2685 -28 -28
  endloop
 endfacet
 facet normal -0.298988 0.065041 0.952038
  outer loop
   vertex 20.8335 -30 -28
   vertex 21.2685 -28 -28
   vertex 20 -28 -28.3984
  endloop
 endfacet
 facet normal -0.292125 -0.222309 0.930184
  outer loop
   vertex 20 -28 -28.3984
   vertex 21.2685 -28 -28
   vertex 20 -26.3331 -28
  endloop
 endfacet
 facet normal 0.489093 -0.202749 0.84834
  outer loop
   vertex 20 -28 -28.3984
   vertex 20 -26.3331 -28
   vertex 19.309 -28 -28
  endloop
 endfacet
 facet normal 0.477236 -0.197834 0.856217
  outer loop
   vertex 19.309 -28 -28
   vertex 20 -26.3331 -28
   vertex 18 -28 -27.2704
  endloop
 endfacet
 facet normal 0.48124 -0.151477 0.863402
  outer loop
   vertex 19.309 -28 -28
   vertex 18 -28 -27.2704
   vertex 18 -30 -27.6213
  endloop
 endfacet
 facet normal 0.482176 -0.151388 0.862895
  outer loop
   vertex 18 -30 -27.6213
   vertex 18 -28 -27.2704
   vertex 16 -28 -26.1528
  endloop
 endfacet
 facet normal 0.28802 -0.362711 0.886276
  outer loop
   vertex 18 -30 -27.6213
   vertex 16 -28 -26.1528
   vertex 16 -30 -26.9713
  endloop
 endfacet
 facet normal 0.601297 -0.30264 0.739494
  outer loop
   vertex 16 -30 -26.9713
   vertex 16 -28 -26.1528
   vertex 15.8121 -28 -26
  endloop
 endfacet
 facet normal 0.429408 -0.361569 0.827573
  outer loop
   vertex 16 -30 -26.9713
   vertex 15.8121 -28 -26
   vertex 14.128 -30 -26
  endloop
 endfacet
 facet normal 0.73052 -0.61511 0.296614
  outer loop
   vertex 14.128 -30 -26
   vertex 15.8121 -28 -26
   vertex 15 -28 -24
  endloop
 endfacet
 facet normal 0.49883 0.41685 0.759871
  outer loop
   vertex 14 -38.3738 -28
   vertex 14 -38 -28.205
   vertex 13.6876 -38 -28
  endloop
 endfacet
 facet normal 0.543398 0.139751 0.827761
  outer loop
   vertex 13.6876 -38 -28
   vertex 14 -38 -28.205
   vertex 13.1733 -36 -28
  endloop
 endfacet
 facet normal 0.556241 0.143054 0.818616
  outer loop
   vertex 13.6876 -38 -28
   vertex 13.1733 -36 -28
   vertex 12 -38 -26.8533
  endloop
 endfacet
 facet normal 0.692601 0.00725291 0.721285
  outer loop
   vertex 12 -38 -26.8533
   vertex 13.1733 -36 -28
   vertex 12 -36 -26.8734
  endloop
 endfacet
 facet normal 0.78721 0.00620079 0.616654
  outer loop
   vertex 12 -38 -26.8533
   vertex 12 -36 -26.8734
   vertex 11.3159 -36 -26
  endloop
 endfacet
 facet normal 0.769897 -0.208661 0.603091
  outer loop
   vertex 11.3159 -36 -26
   vertex 12 -36 -26.8734
   vertex 11.8579 -34 -26
  endloop
 endfacet
 facet normal 0.892667 -0.241934 0.38028
  outer loop
   vertex 11.3159 -36 -26
   vertex 11.8579 -34 -26
   vertex 10.4638 -36 -24
  endloop
 endfacet
 facet normal 0.896553 -0.334013 0.290909
  outer loop
   vertex 10.4638 -36 -24
   vertex 11.8579 -34 -26
   vertex 11.209 -34 -24
  endloop
 endfacet
 facet normal 0.889048 -0.331217 0.316053
  outer loop
   vertex 10.4638 -36 -24
   vertex 11.209 -34 -24
   vertex 10.498 -34 -22
  endloop
 endfacet
 facet normal 0.830643 -0.472055 0.29529
  outer loop
   vertex 10.498 -34 -22
   vertex 11.209 -34 -24
   vertex 11.6346 -32 -22
  endloop
 endfacet
 facet normal 0.868969 -0.493836 0.031903
  outer loop
   vertex 10.498 -34 -22
   vertex 11.6346 -32 -22
   vertex 11.5611 -32 -20
  endloop
 endfacet
 facet normal 0.768159 -0.639637 0.0282019
  outer loop
   vertex 11.5611 -32 -20
   vertex 11.6346 -32 -22
   vertex 12 -31.5611 -22
  endloop
 endfacet
 facet normal 0.639639 -0.768158 -0.0282011
  outer loop
   vertex 11.5611 -32 -20
   vertex 12 -31.5611 -22
   vertex 12 -31.6346 -20
  endloop
 endfacet
 facet normal 0.531518 -0.846477 -0.0310764
  outer loop
   vertex 12 -31.6346 -20
   vertex 12 -31.5611 -22
   vertex 14 -30.3787 -20
  endloop
 endfacet
 facet normal 0.514276 -0.819018 -0.254419
  outer loop
   vertex 12 -31.6346 -20
   vertex 14 -30.3787 -20
   vertex 14 -31 -18
  endloop
 endfacet
 facet normal 0.0325364 -0.954479 -0.296498
  outer loop
   vertex 14 -31 -18
   vertex 14 -30.3787 -20
   vertex 16 -30.9318 -18
  endloop
 endfacet
 facet normal 0.0338228 -0.992217 -0.119841
  outer loop
   vertex 14 -31 -18
   vertex 16 -30.9318 -18
   vertex 14 -31.2416 -16
  endloop
 endfacet
 facet normal -0.512978 -0.606983 -0.606981
  outer loop
   vertex 14 -31.2416 -16
   vertex 16 -30.9318 -18
   vertex 16 -32 -16.9318
  endloop
 endfacet
 facet normal -0.46786 -0.815666 -0.340289
  outer loop
   vertex 14 -31.2416 -16
   vertex 16 -32 -16.9318
   vertex 15.3223 -32 -16
  endloop
 endfacet
 facet normal -0.707117 0.485255 -0.514308
  outer loop
   vertex 15.3223 -32 -16
   vertex 16 -32 -16.9318
   vertex 16 -33.1321 -18
  endloop
 endfacet
 facet normal -0.813654 0.342611 -0.469664
  outer loop
   vertex 15.3223 -32 -16
   vertex 16 -33.1321 -18
   vertex 15.6346 -34 -18
  endloop
 endfacet
 facet normal -0.843668 0.355249 -0.402521
  outer loop
   vertex 15.6346 -34 -18
   vertex 16 -33.1321 -18
   vertex 16 -34 -18.7659
  endloop
 endfacet
 facet normal -0.796998 0.469256 -0.380255
  outer loop
   vertex 15.6346 -34 -18
   vertex 16 -34 -18.7659
   vertex 16 -35 -20
  endloop
 endfacet
 facet normal -0.817729 0.447207 -0.362388
  outer loop
   vertex 16 -35 -20
   vertex 16 -34 -18.7659
   vertex 16.5469 -34 -20
  endloop
 endfacet
 facet normal -0.817729 0.447207 -0.362388
  outer loop
   vertex 16 -35 -20
   vertex 16.5469 -34 -20
   vertex 16 -36 -21.2341
  endloop
 endfacet
 facet normal -0.81773 0.447207 -0.362387
  outer loop
   vertex 16 -36 -21.2341
   vertex 16.5469 -34 -20
   vertex 16.3394 -36 -22
  endloop
 endfacet
 facet normal -0.802011 0.480056 -0.355421
  outer loop
   vertex 16 -36 -21.2341
   vertex 16.3394 -36 -22
   vertex 16 -36.5671 -22
  endloop
 endfacet
 facet normal -0.820003 0.490825 -0.294425
  outer loop
   vertex 16 -36.5671 -22
   vertex 16.3394 -36 -22
   vertex 16 -37.7668 -24
  endloop
 endfacet
 facet normal -0.840832 0.464186 -0.278446
  outer loop
   vertex 16 -36.5671 -22
   vertex 16 -37.7668 -24
   vertex 15.209 -38 -22
  endloop
 endfacet
 facet normal -0.822946 0.501455 -0.267026
  outer loop
   vertex 15.209 -38 -22
   vertex 16 -37.7668 -24
   vertex 15.8579 -38 -24
  endloop
 endfacet
 facet normal -0.878988 0.382146 -0.28521
  outer loop
   vertex 15.209 -38 -22
   vertex 15.8579 -38 -24
   vertex 14.3394 -40 -22
  endloop
 endfacet
 facet normal -0.57754 0.496674 0.647891
  outer loop
   vertex 18 -36 -28.0804
   vertex 18 -36.1049 -28
   vertex 18.0902 -36 -28
  endloop
 endfacet
 facet normal -0.757256 0.651226 0.0496835
  outer loop
   vertex 18.0902 -36 -28
   vertex 18 -36.1049 -28
   vertex 18.2214 -36 -26
  endloop
 endfacet
 facet normal -0.850091 0.523674 0.0557744
  outer loop
   vertex 18.0902 -36 -28
   vertex 18.2214 -36 -26
   vertex 19.3223 -34 -28
  endloop
 endfacet
 facet normal -0.893806 0.446102 -0.0458591
  outer loop
   vertex 19.3223 -34 -28
   vertex 18.2214 -36 -26
   vertex 19.2196 -34 -26
  endloop
 endfacet
 facet normal -0.877049 0.478289 -0.0449993
  outer loop
   vertex 19.3223 -34 -28
   vertex 19.2196 -34 -26
   vertex 20 -32.7572 -28
  endloop
 endfacet
 facet normal -0.877005 0.478376 -0.0449281
  outer loop
   vertex 20 -32.7572 -28
   vertex 19.2196 -34 -26
   vertex 20 -32.5694 -26
  endloop
 endfacet
 facet normal -0.879959 0.472968 -0.0444201
  outer loop
   vertex 20 -32.7572 -28
   vertex 20 -32.5694 -26
   vertex 20.306 -32 -26
  endloop
 endfacet
 facet normal -0.647893 0.227979 0.726815
  outer loop
   vertex 18.0902 -36 -28
   vertex 18 -34 -28.7078
   vertex 18 -36 -28.0804
  endloop
 endfacet
 facet normal 0.000909959 0.299291 0.954161
  outer loop
   vertex 18 -36 -28.0804
   vertex 18 -34 -28.7078
   vertex 16 -34 -28.7059
  endloop
 endfacet
 facet normal -0.371537 -0.0823501 0.924759
  outer loop
   vertex 18 -36 -28.0804
   vertex 16 -34 -28.7059
   vertex 16 -36 -28.884
  endloop
 endfacet
 facet normal 0.270313 -0.0853972 0.958978
  outer loop
   vertex 16 -36 -28.884
   vertex 16 -34 -28.7059
   vertex 14 -34 -28.1421
  endloop
 endfacet
 facet normal -0.453153 0.279152 0.846597
  outer loop
   vertex 18.0902 -36 -28
   vertex 19.3223 -34 -28
   vertex 18 -34 -28.7078
  endloop
 endfacet
 facet normal -0.454642 0.268059 0.849379
  outer loop
   vertex 18 -34 -28.7078
   vertex 19.3223 -34 -28
   vertex 20 -32 -28.2684
  endloop
 endfacet
 facet normal -0.0718844 -0.144893 0.986833
  outer loop
   vertex 18 -34 -28.7078
   vertex 20 -32 -28.2684
   vertex 18 -32 -28.4141
  endloop
 endfacet
 facet normal -0.0724989 0.0646759 0.995269
  outer loop
   vertex 18 -32 -28.4141
   vertex 20 -32 -28.2684
   vertex 20 -30 -28.3984
  endloop
 endfacet
 facet normal 0.332739 -0.339653 0.879728
  outer loop
   vertex 18 -32 -28.4141
   vertex 20 -30 -28.3984
   vertex 18.9467 -30 -28
  endloop
 endfacet
 facet normal 0.353046 -0.0639514 0.933418
  outer loop
   vertex 18.9467 -30 -28
   vertex 20 -30 -28.3984
   vertex 19.309 -28 -28
  endloop
 endfacet
 facet normal 0.370584 -0.0671282 0.92637
  outer loop
   vertex 18.9467 -30 -28
   vertex 19.309 -28 -28
   vertex 18 -30 -27.6213
  endloop
 endfacet
 facet normal -0.629654 0.259563 0.732231
  outer loop
   vertex 20.3121 -32 -28
   vertex 20 -32 -28.2684
   vertex 20 -32.7572 -28
  endloop
 endfacet
 facet normal -0.522416 0.284894 0.80369
  outer loop
   vertex 20 -32.7572 -28
   vertex 20 -32 -28.2684
   vertex 19.3223 -34 -28
  endloop
 endfacet
 facet normal 0.287896 -0.431066 0.85516
  outer loop
   vertex 16 -34 -28.7059
   vertex 16.898 -32 -28
   vertex 16 -32.5997 -28
  endloop
 endfacet
 facet normal 0.319576 -0.4785 0.817869
  outer loop
   vertex 16 -32.5997 -28
   vertex 16.898 -32 -28
   vertex 16 -32 -27.6491
  endloop
 endfacet
 facet normal 0.313452 -0.479532 0.819632
  outer loop
   vertex 16 -32.5997 -28
   vertex 16 -32 -27.6491
   vertex 14 -32 -26.8843
  endloop
 endfacet
 facet normal 0.340546 -0.301787 0.890479
  outer loop
   vertex 14 -32 -26.8843
   vertex 16 -32 -27.6491
   vertex 16 -30 -26.9713
  endloop
 endfacet
 facet normal 0.424342 -0.388746 0.817808
  outer loop
   vertex 14 -32 -26.8843
   vertex 16 -30 -26.9713
   vertex 14.128 -30 -26
  endloop
 endfacet
 facet normal 0.316077 -0.438781 0.841169
  outer loop
   vertex 16.898 -32 -28
   vertex 16 -34 -28.7059
   vertex 18 -32 -28.4141
  endloop
 endfacet
 facet normal 0.000943557 -0.145269 0.989392
  outer loop
   vertex 18 -32 -28.4141
   vertex 16 -34 -28.7059
   vertex 18 -34 -28.7078
  endloop
 endfacet
 facet normal 0.244093 -0.436508 0.865956
  outer loop
   vertex 16 -34 -28.7059
   vertex 16 -32.5997 -28
   vertex 14 -34 -28.1421
  endloop
 endfacet
 facet normal 0.290545 -0.4979 0.817117
  outer loop
   vertex 14 -34 -28.1421
   vertex 16 -32.5997 -28
   vertex 14 -33.7668 -28
  endloop
 endfacet
 facet normal -0.651211 0.0492119 0.7573
  outer loop
   vertex 20 -32 -28.2684
   vertex 20.3121 -32 -28
   vertex 20 -30 -28.3984
  endloop
 endfacet
 facet normal -0.428556 0.111706 0.896583
  outer loop
   vertex 20 -30 -28.3984
   vertex 20.3121 -32 -28
   vertex 20.8335 -30 -28
  endloop
 endfacet
 facet normal -0.431255 0 0.90223
  outer loop
   vertex 20 -30 -28.3984
   vertex 20.8335 -30 -28
   vertex 20 -28 -28.3984
  endloop
 endfacet
 facet normal 0.316479 -0.333666 0.88798
  outer loop
   vertex 18 -32 -28.4141
   vertex 18.9467 -30 -28
   vertex 18 -30.8979 -28
  endloop
 endfacet
 facet normal 0.34585 -0.364631 0.864542
  outer loop
   vertex 18 -30.8979 -28
   vertex 18.9467 -30 -28
   vertex 18 -30 -27.6213
  endloop
 endfacet
 facet normal 0.351764 -0.363776 0.862513
  outer loop
   vertex 18 -30.8979 -28
   vertex 18 -30 -27.6213
   vertex 16 -32 -27.6491
  endloop
 endfacet
 facet normal 0.294165 -0.306771 0.905184
  outer loop
   vertex 16 -32 -27.6491
   vertex 18 -30 -27.6213
   vertex 16 -30 -26.9713
  endloop
 endfacet
 facet normal 0.331818 -0.331817 0.88306
  outer loop
   vertex 18 -32 -28.4141
   vertex 18 -30.8979 -28
   vertex 16.898 -32 -28
  endloop
 endfacet
 facet normal 0.342 -0.341998 0.875256
  outer loop
   vertex 16.898 -32 -28
   vertex 18 -30.8979 -28
   vertex 16 -32 -27.6491
  endloop
 endfacet
 facet normal 0.499467 0 0.866333
  outer loop
   vertex 20 -28 -28.3984
   vertex 19.309 -28 -28
   vertex 20 -30 -28.3984
  endloop
 endfacet
 facet normal -0.508294 0.508294 0.69518
  outer loop
   vertex 15.3975 -40 -26
   vertex 14 -40 -27.0218
   vertex 14 -41.3975 -26
  endloop
 endfacet
 facet normal -0.166253 0.582013 0.796003
  outer loop
   vertex 14 -41.3975 -26
   vertex 14 -40 -27.0218
   vertex 12 -41.9688 -26
  endloop
 endfacet
 facet normal -0.274376 0.960524 0.0459552
  outer loop
   vertex 14 -41.3975 -26
   vertex 12 -41.9688 -26
   vertex 14 -41.4932 -24
  endloop
 endfacet
 facet normal -0.651977 0.550932 0.520961
  outer loop
   vertex 14 -41.4932 -24
   vertex 12 -41.9688 -26
   vertex 13.5717 -42 -24
  endloop
 endfacet
 facet normal -0.756587 0.63933 -0.137231
  outer loop
   vertex 14 -41.4932 -24
   vertex 13.5717 -42 -24
   vertex 13.209 -42 -22
  endloop
 endfacet
 facet normal -0.885416 0.436173 -0.160598
  outer loop
   vertex 13.209 -42 -22
   vertex 13.5717 -42 -24
   vertex 12.2237 -44 -22
  endloop
 endfacet
 facet normal -0.854654 0.421019 -0.303826
  outer loop
   vertex 13.209 -42 -22
   vertex 12.2237 -44 -22
   vertex 12.498 -42 -20
  endloop
 endfacet
 facet normal -0.747229 0.51835 -0.415888
  outer loop
   vertex 12.498 -42 -20
   vertex 12.2237 -44 -22
   vertex 12 -44 -21.5981
  endloop
 endfacet
 facet normal -0.755945 0.513076 -0.406571
  outer loop
   vertex 12.498 -42 -20
   vertex 12 -44 -21.5981
   vertex 12 -42.7337 -20
  endloop
 endfacet
 facet normal -0.690122 0.567201 -0.44946
  outer loop
   vertex 12 -42.7337 -20
   vertex 12 -44 -21.5981
   vertex 10.9592 -44 -20
  endloop
 endfacet
 facet normal -0.698167 0.573812 -0.428138
  outer loop
   vertex 12 -42.7337 -20
   vertex 10.9592 -44 -20
   vertex 11.3765 -42 -18
  endloop
 endfacet
 facet normal -0.632969 0.609464 -0.477393
  outer loop
   vertex 11.3765 -42 -18
   vertex 10.9592 -44 -20
   vertex 10 -43.4296 -18
  endloop
 endfacet
 facet normal 0.177745 0.305017 0.935613
  outer loop
   vertex 12 -41.9688 -26
   vertex 14 -40 -27.0218
   vertex 12 -40 -26.6418
  endloop
 endfacet
 facet normal 0.18564 0.103298 0.977173
  outer loop
   vertex 12 -40 -26.6418
   vertex 14 -40 -27.0218
   vertex 12 -38 -26.8533
  endloop
 endfacet
 facet normal 0.70514 0.074541 0.70514
  outer loop
   vertex 12 -40 -26.6418
   vertex 12 -38 -26.8533
   vertex 11.1467 -38 -26
  endloop
 endfacet
 facet normal 0.705846 -0.0596839 0.705846
  outer loop
   vertex 11.1467 -38 -26
   vertex 12 -38 -26.8533
   vertex 11.3159 -36 -26
  endloop
 endfacet
 facet normal 0.917227 -0.0775576 0.390742
  outer loop
   vertex 11.1467 -38 -26
   vertex 11.3159 -36 -26
   vertex 10.4638 -36 -24
  endloop
 endfacet
 facet normal 0.593876 0.249375 0.764934
  outer loop
   vertex 12 -41.9688 -26
   vertex 12 -40 -26.6418
   vertex 11.1733 -40 -26
  endloop
 endfacet
 facet normal 0.61323 0.00814013 0.789863
  outer loop
   vertex 11.1733 -40 -26
   vertex 12 -40 -26.6418
   vertex 11.1467 -38 -26
  endloop
 endfacet
 facet normal 0.69259 0.00919357 0.721273
  outer loop
   vertex 11.1733 -40 -26
   vertex 11.1467 -38 -26
   vertex 10 -40 -24.8734
  endloop
 endfacet
 facet normal 0.792202 -0.116813 0.598975
  outer loop
   vertex 10 -40 -24.8734
   vertex 11.1467 -38 -26
   vertex 10 -38 -24.4833
  endloop
 endfacet
 facet normal 0.813257 -0.111386 0.571144
  outer loop
   vertex 10 -40 -24.8734
   vertex 10 -38 -24.4833
   vertex 9.66056 -38 -24
  endloop
 endfacet
 facet normal 0.775731 -0.318505 0.54479
  outer loop
   vertex 9.66056 -38 -24
   vertex 10 -38 -24.4833
   vertex 10 -37.1733 -24
  endloop
 endfacet
 facet normal 0.803355 -0.329847 0.495804
  outer loop
   vertex 9.66056 -38 -24
   vertex 10 -37.1733 -24
   vertex 9.2474 -36 -22
  endloop
 endfacet
 facet normal 0.788166 -0.353386 0.503898
  outer loop
   vertex 9.2474 -36 -22
   vertex 10 -37.1733 -24
   vertex 10 -36 -23.1772
  endloop
 endfacet
 facet normal 0.741762 -0.47423 0.474231
  outer loop
   vertex 9.2474 -36 -22
   vertex 10 -36 -23.1772
   vertex 10 -34.8228 -22
  endloop
 endfacet
 facet normal 0.759741 -0.459779 0.45978
  outer loop
   vertex 10 -34.8228 -22
   vertex 10 -36 -23.1772
   vertex 10.498 -34 -22
  endloop
 endfacet
 facet normal 0.787083 -0.476326 0.391935
  outer loop
   vertex 10 -34.8228 -22
   vertex 10.498 -34 -22
   vertex 10 -34 -21
  endloop
 endfacet
 facet normal 0.658247 -0.677696 0.32778
  outer loop
   vertex 10 -34 -21
   vertex 10.498 -34 -22
   vertex 11.5611 -32 -20
  endloop
 endfacet
 facet normal 0.622525 -0.679793 0.387741
  outer loop
   vertex 10 -34 -21
   vertex 11.5611 -32 -20
   vertex 10 -33.4296 -20
  endloop
 endfacet
 facet normal 0.666805 -0.728147 -0.158658
  outer loop
   vertex 10 -33.4296 -20
   vertex 11.5611 -32 -20
   vertex 12 -32 -18.1555
  endloop
 endfacet
 facet normal 0.66168 -0.735092 -0.147718
  outer loop
   vertex 10 -33.4296 -20
   vertex 12 -32 -18.1555
   vertex 12 -32.0313 -18
  endloop
 endfacet
 facet normal 0.458352 -0.871352 -0.175099
  outer loop
   vertex 12 -32.0313 -18
   vertex 12 -32 -18.1555
   vertex 12.0594 -32 -18
  endloop
 endfacet
 facet normal 0.458352 -0.871352 0.175099
  outer loop
   vertex 12 -32.0313 -18
   vertex 12.0594 -32 -18
   vertex 12 -32 -17.8445
  endloop
 endfacet
 facet normal 0.451212 -0.875612 0.172372
  outer loop
   vertex 12 -32 -17.8445
   vertex 12.0594 -32 -18
   vertex 14 -31 -18
  endloop
 endfacet
 facet normal 0.451363 -0.877603 0.161508
  outer loop
   vertex 12 -32 -17.8445
   vertex 14 -31 -18
   vertex 12 -31.6606 -16
  endloop
 endfacet
 facet normal 0.20363 -0.971984 -0.117397
  outer loop
   vertex 12 -31.6606 -16
   vertex 14 -31 -18
   vertex 14 -31.2416 -16
  endloop
 endfacet
 facet normal 0.204524 -0.976252 0.0714246
  outer loop
   vertex 12 -31.6606 -16
   vertex 14 -31.2416 -16
   vertex 12 -31.5142 -14
  endloop
 endfacet
 facet normal -0.121886 -0.959825 -0.252746
  outer loop
   vertex 12 -31.5142 -14
   vertex 14 -31.2416 -16
   vertex 14 -31.7682 -14
  endloop
 endfacet
 facet normal -0.105927 -0.834157 -0.54126
  outer loop
   vertex 12 -31.5142 -14
   vertex 14 -31.7682 -14
   vertex 14 -32 -13.6428
  endloop
 endfacet
 facet normal -0.586794 -0.679269 -0.440757
  outer loop
   vertex 14 -32 -13.6428
   vertex 14 -31.7682 -14
   vertex 14.2683 -32 -14
  endloop
 endfacet
 facet normal -0.780229 -0.218597 -0.586053
  outer loop
   vertex 14 -32 -13.6428
   vertex 14.2683 -32 -14
   vertex 14 -34 -12.8968
  endloop
 endfacet
 facet normal -0.853313 -0.159365 -0.496447
  outer loop
   vertex 14 -34 -12.8968
   vertex 14.2683 -32 -14
   vertex 14.6418 -34 -14
  endloop
 endfacet
 facet normal -0.769789 0.454811 -0.447853
  outer loop
   vertex 14 -34 -12.8968
   vertex 14.6418 -34 -14
   vertex 14 -35.0863 -14
  endloop
 endfacet
 facet normal -0.805713 0.476036 -0.352443
  outer loop
   vertex 14 -35.0863 -14
   vertex 14.6418 -34 -14
   vertex 14 -36 -15.2341
  endloop
 endfacet
 facet normal -0.762293 0.52018 -0.385125
  outer loop
   vertex 14 -35.0863 -14
   vertex 14 -36 -15.2341
   vertex 13.3765 -36 -14
  endloop
 endfacet
 facet normal -0.762295 0.520177 -0.385126
  outer loop
   vertex 13.3765 -36 -14
   vertex 14 -36 -15.2341
   vertex 14 -36.5671 -16
  endloop
 endfacet
 facet normal -0.810032 0.447183 -0.37931
  outer loop
   vertex 13.3765 -36 -14
   vertex 14 -36.5671 -16
   vertex 13.209 -38 -16
  endloop
 endfacet
 facet normal -0.8569 0.473057 -0.204793
  outer loop
   vertex 13.209 -38 -16
   vertex 14 -36.5671 -16
   vertex 14 -37.4329 -18
  endloop
 endfacet
 facet normal -0.84237 0.504214 -0.190212
  outer loop
   vertex 13.209 -38 -16
   vertex 14 -37.4329 -18
   vertex 13.6606 -38 -18
  endloop
 endfacet
 facet normal -0.802011 0.480056 -0.355421
  outer loop
   vertex 13.6606 -38 -18
   vertex 14 -37.4329 -18
   vertex 14 -38 -18.7659
  endloop
 endfacet
 facet normal -0.81773 0.447206 -0.362387
  outer loop
   vertex 13.6606 -38 -18
   vertex 14 -38 -18.7659
   vertex 14 -39 -20
  endloop
 endfacet
 facet normal -0.81773 0.447206 -0.362387
  outer loop
   vertex 14 -39 -20
   vertex 14 -38 -18.7659
   vertex 14.5469 -38 -20
  endloop
 endfacet
 facet normal -0.81773 0.447206 -0.362387
  outer loop
   vertex 14 -39 -20
   vertex 14.5469 -38 -20
   vertex 14 -40 -21.2341
  endloop
 endfacet
 facet normal -0.81773 0.447206 -0.362387
  outer loop
   vertex 14 -40 -21.2341
   vertex 14.5469 -38 -20
   vertex 14.3394 -40 -22
  endloop
 endfacet
 facet normal -0.802011 0.480056 -0.355421
  outer loop
   vertex 14 -40 -21.2341
   vertex 14.3394 -40 -22
   vertex 14 -40.5671 -22
  endloop
 endfacet
 facet normal -0.807072 0.512138 0.293854
  outer loop
   vertex 16 -38.1971 -28
   vertex 16 -39.3446 -26
   vertex 16.8533 -38 -26
  endloop
 endfacet
 facet normal -0.778415 0.493953 -0.387401
  outer loop
   vertex 16.8533 -38 -26
   vertex 16 -39.3446 -26
   vertex 16 -38 -24.2855
  endloop
 endfacet
 facet normal -0.785921 0.478895 -0.391137
  outer loop
   vertex 16.8533 -38 -26
   vertex 16 -38 -24.2855
   vertex 16 -37.7668 -24
  endloop
 endfacet
 facet normal -0.785921 0.478894 -0.391136
  outer loop
   vertex 16 -37.7668 -24
   vertex 16 -38 -24.2855
   vertex 15.8579 -38 -24
  endloop
 endfacet
 facet normal -0.688816 0.68881 0.225994
  outer loop
   vertex 16.1971 -38 -28
   vertex 16 -38.1971 -28
   vertex 16.8533 -38 -26
  endloop
 endfacet
 facet normal -0.530944 0.4368 0.726157
  outer loop
   vertex 15.3975 -40 -26
   vertex 14 -38.3738 -28
   vertex 14 -40 -27.0218
  endloop
 endfacet
 facet normal 0.524988 0.438709 0.72933
  outer loop
   vertex 14 -40 -27.0218
   vertex 14 -38.3738 -28
   vertex 13.6876 -38 -28
  endloop
 endfacet
 facet normal 0.504226 0.441695 0.742066
  outer loop
   vertex 14 -40 -27.0218
   vertex 13.6876 -38 -28
   vertex 12 -38 -26.8533
  endloop
 endfacet
 facet normal -0.814327 0.577309 0.0598794
  outer loop
   vertex 18 -36.1049 -28
   vertex 18 -36.3123 -26
   vertex 18.2214 -36 -26
  endloop
 endfacet
 facet normal -0.715263 0.507079 -0.480905
  outer loop
   vertex 18.2214 -36 -26
   vertex 18 -36.3123 -26
   vertex 18 -36 -25.6707
  endloop
 endfacet
 facet normal -0.766705 0.382665 -0.515491
  outer loop
   vertex 18.2214 -36 -26
   vertex 18 -36 -25.6707
   vertex 19.2196 -34 -26
  endloop
 endfacet
 facet normal -0.763447 0.379505 -0.522614
  outer loop
   vertex 19.2196 -34 -26
   vertex 18 -36 -25.6707
   vertex 18 -34 -24.2183
  endloop
 endfacet
 facet normal -0.924523 0.381117 -0.00282583
  outer loop
   vertex 20 -32.7572 -28
   vertex 20.306 -32 -26
   vertex 20.3121 -32 -28
  endloop
 endfacet
 facet normal -0.967663 0.252228 -0.00295769
  outer loop
   vertex 20.3121 -32 -28
   vertex 20.306 -32 -26
   vertex 20.8335 -30 -28
  endloop
 endfacet
 facet normal 0.297473 -0.509772 0.807244
  outer loop
   vertex 16 -32.5997 -28
   vertex 14 -32 -26.8843
   vertex 14 -33.7668 -28
  endloop
 endfacet
 facet normal 0.652384 -0.411979 0.636135
  outer loop
   vertex 13.8029 -34 -28
   vertex 13.1157 -32 -26
   vertex 12 -33.7668 -26
  endloop
 endfacet
 facet normal 0.803363 -0.507321 0.311822
  outer loop
   vertex 12 -33.7668 -26
   vertex 13.1157 -32 -26
   vertex 12.3394 -32 -24
  endloop
 endfacet
 facet normal 0.820003 -0.490825 0.294425
  outer loop
   vertex 12 -33.7668 -26
   vertex 12.3394 -32 -24
   vertex 12 -32.5671 -24
  endloop
 endfacet
 facet normal 0.823807 -0.493102 0.279631
  outer loop
   vertex 12 -32.5671 -24
   vertex 12.3394 -32 -24
   vertex 12 -32 -23
  endloop
 endfacet
 facet normal 0.606984 -0.512971 0.606985
  outer loop
   vertex 13.8029 -34 -28
   vertex 12 -33.7668 -26
   vertex 12 -34 -26.1971
  endloop
 endfacet
 facet normal -0.986369 0.162278 -0.0272344
  outer loop
   vertex 21.2685 -28 -28
   vertex 20.8843 -30 -26
   vertex 21.2133 -28 -26
  endloop
 endfacet
 facet normal -0.944409 0.155374 -0.289741
  outer loop
   vertex 21.2133 -28 -26
   vertex 20.8843 -30 -26
   vertex 20.5997 -28 -24
  endloop
 endfacet
 facet normal -0.955528 0.0320464 -0.293152
  outer loop
   vertex 21.2133 -28 -26
   vertex 20.5997 -28 -24
   vertex 21.2804 -26 -26
  endloop
 endfacet
 facet normal -0.949148 0.00830682 -0.31472
  outer loop
   vertex 21.2804 -26 -26
   vertex 20.5997 -28 -24
   vertex 20.6172 -26 -24
  endloop
 endfacet
 facet normal -0.829028 -0.486978 -0.274891
  outer loop
   vertex 21.2804 -26 -26
   vertex 20.6172 -26 -24
   vertex 20 -24.9492 -24
  endloop
 endfacet
 facet normal -0.726642 -0.426835 -0.538334
  outer loop
   vertex 20 -24.9492 -24
   vertex 20.6172 -26 -24
   vertex 20 -26 -23.1669
  endloop
 endfacet
 facet normal 0.0852864 -0.619025 -0.780727
  outer loop
   vertex 20 -24.9492 -24
   vertex 20 -26 -23.1669
   vertex 18 -25.2248 -24
  endloop
 endfacet
 facet normal -0.132797 -0.864192 -0.485321
  outer loop
   vertex 18 -25.2248 -24
   vertex 20 -26 -23.1669
   vertex 18 -26 -22.6196
  endloop
 endfacet
 facet normal 0.612035 -0.689537 -0.387236
  outer loop
   vertex 18 -25.2248 -24
   vertex 18 -26 -22.6196
   vertex 17.1266 -26 -24
  endloop
 endfacet
 facet normal 0.612035 -0.689537 -0.387236
  outer loop
   vertex 17.1266 -26 -24
   vertex 18 -26 -22.6196
   vertex 16 -27 -24
  endloop
 endfacet
 facet normal 0.635186 -0.715619 0.290565
  outer loop
   vertex 17.1266 -26 -24
   vertex 16 -27 -24
   vertex 16 -27.8121 -26
  endloop
 endfacet
 facet normal 0.679649 -0.679649 0.27596
  outer loop
   vertex 16 -27.8121 -26
   vertex 16 -27 -24
   vertex 15 -28 -24
  endloop
 endfacet
 facet normal 0.679643 -0.679657 0.275956
  outer loop
   vertex 16 -27.8121 -26
   vertex 15 -28 -24
   vertex 15.8121 -28 -26
  endloop
 endfacet
 facet normal -0.462237 -0.351765 0.814002
  outer loop
   vertex 21.2685 -28 -28
   vertex 20 -26 -27.8561
   vertex 20 -26.3331 -28
  endloop
 endfacet
 facet normal 0.554024 -0.330242 0.764197
  outer loop
   vertex 20 -26.3331 -28
   vertex 20 -26 -27.8561
   vertex 18 -28 -27.2704
  endloop
 endfacet
 facet normal -0.717289 -0.490565 0.494816
  outer loop
   vertex 20 -26 -27.8561
   vertex 21.2685 -28 -28
   vertex 21.2804 -26 -26
  endloop
 endfacet
 facet normal -0.999058 0.0335063 -0.0275848
  outer loop
   vertex 21.2804 -26 -26
   vertex 21.2685 -28 -28
   vertex 21.2133 -28 -26
  endloop
 endfacet
 facet normal 0.543561 -0.31583 0.777684
  outer loop
   vertex 18 -28 -27.2704
   vertex 20 -26 -27.8561
   vertex 18 -26 -26.4582
  endloop
 endfacet
 facet normal 0.419324 -0.681354 0.599936
  outer loop
   vertex 18 -26 -26.4582
   vertex 20 -26 -27.8561
   vertex 20 -24.3657 -26
  endloop
 endfacet
 facet normal 0.396291 -0.663025 0.6351
  outer loop
   vertex 18 -26 -26.4582
   vertex 20 -24.3657 -26
   vertex 18 -25.5611 -26
  endloop
 endfacet
 facet normal 0.507782 -0.849556 0.142871
  outer loop
   vertex 18 -25.5611 -26
   vertex 20 -24.3657 -26
   vertex 18 -25.2248 -24
  endloop
 endfacet
 facet normal 0.658638 -0.74204 0.12479
  outer loop
   vertex 18 -25.5611 -26
   vertex 18 -25.2248 -24
   vertex 17.1266 -26 -24
  endloop
 endfacet
 facet normal 0.586474 -0.511001 0.628432
  outer loop
   vertex 16 -28 -26.1528
   vertex 17.5789 -26 -26
   vertex 16 -27.8121 -26
  endloop
 endfacet
 facet normal 0.74323 -0.647584 0.16806
  outer loop
   vertex 16 -27.8121 -26
   vertex 17.5789 -26 -26
   vertex 17.1266 -26 -24
  endloop
 endfacet
 facet normal 0.622102 -0.534801 0.571818
  outer loop
   vertex 17.5789 -26 -26
   vertex 16 -28 -26.1528
   vertex 18 -26 -26.4582
  endloop
 endfacet
 facet normal 0.459761 -0.334145 0.82278
  outer loop
   vertex 18 -26 -26.4582
   vertex 16 -28 -26.1528
   vertex 18 -28 -27.2704
  endloop
 endfacet
 facet normal 0.533569 -0.53358 0.656199
  outer loop
   vertex 15.8121 -28 -26
   vertex 16 -28 -26.1528
   vertex 16 -27.8121 -26
  endloop
 endfacet
 facet normal -0.691765 -0.541972 0.477209
  outer loop
   vertex 20 -26 -27.8561
   vertex 21.2804 -26 -26
   vertex 20 -24.3657 -26
  endloop
 endfacet
 facet normal -0.774737 -0.606977 -0.177089
  outer loop
   vertex 20 -24.3657 -26
   vertex 21.2804 -26 -26
   vertex 20 -24.9492 -24
  endloop
 endfacet
 facet normal 0.131119 -0.951689 -0.277661
  outer loop
   vertex 20 -24.3657 -26
   vertex 20 -24.9492 -24
   vertex 18 -25.2248 -24
  endloop
 endfacet
 facet normal 0.601311 -0.577009 0.552707
  outer loop
   vertex 18 -26 -26.4582
   vertex 18 -25.5611 -26
   vertex 17.5789 -26 -26
  endloop
 endfacet
 facet normal 0.712121 -0.683341 0.161025
  outer loop
   vertex 17.5789 -26 -26
   vertex 18 -25.5611 -26
   vertex 17.1266 -26 -24
  endloop
 endfacet
 facet normal -0.0927051 0.59857 0.795688
  outer loop
   vertex 11.9006 -44 -24
   vertex 10 -44 -24.2214
   vertex 10 -44.2944 -24
  endloop
 endfacet
 facet normal 0.492922 0.523053 0.695301
  outer loop
   vertex 10 -44.2944 -24
   vertex 10 -44 -24.2214
   vertex 9.68765 -44 -24
  endloop
 endfacet
 facet normal 0.429796 0.456068 0.77928
  outer loop
   vertex 10 -44.2944 -24
   vertex 9.68765 -44 -24
   vertex 8 -45.827 -22
  endloop
 endfacet
 facet normal 0.599737 0.270438 0.753112
  outer loop
   vertex 8 -45.827 -22
   vertex 9.68765 -44 -24
   vertex 8 -44 -22.656
  endloop
 endfacet
 facet normal 0.770876 0.215278 0.599504
  outer loop
   vertex 8 -45.827 -22
   vertex 8 -44 -22.656
   vertex 7.4898 -44 -22
  endloop
 endfacet
 facet normal 0.787599 -0.0672469 0.612508
  outer loop
   vertex 7.4898 -44 -22
   vertex 8 -44 -22.656
   vertex 7.66056 -42 -22
  endloop
 endfacet
 facet normal 0.990449 -0.0845668 0.108896
  outer loop
   vertex 7.4898 -44 -22
   vertex 7.66056 -42 -22
   vertex 7.26991 -44 -20
  endloop
 endfacet
 facet normal 0.962232 0.0740234 0.261974
  outer loop
   vertex 7.26991 -44 -20
   vertex 7.66056 -42 -22
   vertex 7.11605 -42 -20
  endloop
 endfacet
 facet normal 0.949583 0.0730503 -0.304886
  outer loop
   vertex 7.26991 -44 -20
   vertex 7.11605 -42 -20
   vertex 7.91205 -44 -18
  endloop
 endfacet
 facet normal 0.924991 0.37981 0.0116621
  outer loop
   vertex 7.91205 -44 -18
   vertex 7.11605 -42 -20
   vertex 7.09083 -42 -18
  endloop
 endfacet
 facet normal 0.924952 0.379795 -0.0148136
  outer loop
   vertex 7.91205 -44 -18
   vertex 7.09083 -42 -18
   vertex 7.12286 -42 -16
  endloop
 endfacet
 facet normal 0.998842 0.0453635 -0.015997
  outer loop
   vertex 7.12286 -42 -16
   vertex 7.09083 -42 -18
   vertex 7 -40 -18
  endloop
 endfacet
 facet normal 0.998118 0.0613161 -0
  outer loop
   vertex 7.12286 -42 -16
   vertex 7 -40 -18
   vertex 7 -40 -16
  endloop
 endfacet
 facet normal 1 0 0
  outer loop
   vertex 7 -40 -16
   vertex 7 -40 -18
   vertex 7 -38 -18
  endloop
 endfacet
 facet normal 1 0 -0
  outer loop
   vertex 7 -40 -16
   vertex 7 -38 -18
   vertex 7 -38 -16
  endloop
 endfacet
 facet normal 0.980554 -0.196248 0
  outer loop
   vertex 7 -38 -16
   vertex 7 -38 -18
   vertex 7.40028 -36 -18
  endloop
 endfacet
 facet normal 0.980554 -0.196248 0
  outer loop
   vertex 7 -38 -16
   vertex 7.40028 -36 -18
   vertex 7.40028 -36 -16
  endloop
 endfacet
 facet normal 0.809446 -0.587194 0
  outer loop
   vertex 7.40028 -36 -16
   vertex 7.40028 -36 -18
   vertex 8 -35.1733 -18
  endloop
 endfacet
 facet normal 0.809446 -0.587194 0
  outer loop
   vertex 7.40028 -36 -16
   vertex 8 -35.1733 -18
   vertex 8 -35.1733 -16
  endloop
 endfacet
 facet normal 0.749414 -0.662102 0
  outer loop
   vertex 8 -35.1733 -16
   vertex 8 -35.1733 -18
   vertex 9.03659 -34 -16
  endloop
 endfacet
 facet normal 0.749414 -0.662102 0
  outer loop
   vertex 8 -35.1733 -16
   vertex 9.03659 -34 -16
   vertex 9.03659 -34 -14
  endloop
 endfacet
 facet normal 0.679435 -0.733736 0
  outer loop
   vertex 9.03659 -34 -14
   vertex 9.03659 -34 -16
   vertex 10 -33.1079 -16
  endloop
 endfacet
 facet normal 0.706882 -0.706883 0.0251992
  outer loop
   vertex 9.03659 -34 -14
   vertex 10 -33.1079 -16
   vertex 10 -33.0366 -14
  endloop
 endfacet
 facet normal 0.62615 -0.779208 0.0277775
  outer loop
   vertex 10 -33.0366 -14
   vertex 10 -33.1079 -16
   vertex 11.29 -32 -14
  endloop
 endfacet
 facet normal 0.583287 -0.725868 -0.364544
  outer loop
   vertex 10 -33.0366 -14
   vertex 11.29 -32 -14
   vertex 12 -32 -12.8639
  endloop
 endfacet
 facet normal 0.532468 -0.778289 -0.332783
  outer loop
   vertex 12 -32 -12.8639
   vertex 11.29 -32 -14
   vertex 12 -31.5142 -14
  endloop
 endfacet
 facet normal -0.15134 -0.908883 -0.388623
  outer loop
   vertex 12 -32 -12.8639
   vertex 12 -31.5142 -14
   vertex 14 -32 -13.6428
  endloop
 endfacet
 facet normal -0.665827 0.527576 0.527577
  outer loop
   vertex 13.5717 -42 -24
   vertex 12 -42 -25.9836
   vertex 12 -43.9836 -24
  endloop
 endfacet
 facet normal -0.115988 0.702334 0.702335
  outer loop
   vertex 12 -43.9836 -24
   vertex 12 -42 -25.9836
   vertex 11.9006 -44 -24
  endloop
 endfacet
 facet normal -0.160571 0.972298 0.169861
  outer loop
   vertex 12 -43.9836 -24
   vertex 11.9006 -44 -24
   vertex 12 -44 -23.906
  endloop
 endfacet
 facet normal -0.151085 0.975515 0.159826
  outer loop
   vertex 12 -44 -23.906
   vertex 11.9006 -44 -24
   vertex 10 -44.2944 -24
  endloop
 endfacet
 facet normal -0.150556 0.978949 0.137811
  outer loop
   vertex 12 -44 -23.906
   vertex 10 -44.2944 -24
   vertex 12 -44.2683 -22
  endloop
 endfacet
 facet normal -0.53187 0.665864 0.523201
  outer loop
   vertex 12 -44.2683 -22
   vertex 10 -44.2944 -24
   vertex 10 -45.8659 -22
  endloop
 endfacet
 facet normal -0.5912 0.740141 -0.320426
  outer loop
   vertex 12 -44.2683 -22
   vertex 10 -45.8659 -22
   vertex 10 -45 -20
  endloop
 endfacet
 facet normal -0.188473 0.901245 -0.390173
  outer loop
   vertex 10 -45 -20
   vertex 10 -45.8659 -22
   vertex 8 -45.4183 -20
  endloop
 endfacet
 facet normal -0.171631 0.820706 -0.544963
  outer loop
   vertex 10 -45 -20
   vertex 8 -45.4183 -20
   vertex 8 -44.0902 -18
  endloop
 endfacet
 facet normal 0.850687 0.437921 -0.290787
  outer loop
   vertex 8 -44.0902 -18
   vertex 8 -45.4183 -20
   vertex 7.26991 -44 -20
  endloop
 endfacet
 facet normal 0.697851 0.680294 -0.224061
  outer loop
   vertex 8 -44.0902 -18
   vertex 7.26991 -44 -20
   vertex 7.91205 -44 -18
  endloop
 endfacet
 facet normal -0.082205 0.70386 0.705566
  outer loop
   vertex 11.9006 -44 -24
   vertex 12 -42 -25.9836
   vertex 10 -44 -24.2214
  endloop
 endfacet
 facet normal 0.474404 0.265182 0.839416
  outer loop
   vertex 10 -44 -24.2214
   vertex 12 -42 -25.9836
   vertex 10 -42 -24.8533
  endloop
 endfacet
 facet normal 0.690098 0.218011 0.690098
  outer loop
   vertex 10 -44 -24.2214
   vertex 10 -42 -24.8533
   vertex 9.14674 -42 -24
  endloop
 endfacet
 facet normal 0.705846 -0.0596839 0.705846
  outer loop
   vertex 9.14674 -42 -24
   vertex 10 -42 -24.8533
   vertex 9.31585 -40 -24
  endloop
 endfacet
 facet normal 0.896043 -0.0757663 0.437455
  outer loop
   vertex 9.14674 -42 -24
   vertex 9.31585 -40 -24
   vertex 8.33944 -40 -22
  endloop
 endfacet
 facet normal 0.888037 -0.153057 0.433547
  outer loop
   vertex 8.33944 -40 -22
   vertex 9.31585 -40 -24
   vertex 9.66056 -38 -24
  endloop
 endfacet
 facet normal 0.888037 -0.153057 0.433547
  outer loop
   vertex 8.33944 -40 -22
   vertex 9.66056 -38 -24
   vertex 8.68415 -38 -22
  endloop
 endfacet
 facet normal 0.871161 -0.245342 0.425307
  outer loop
   vertex 8.68415 -38 -22
   vertex 9.66056 -38 -24
   vertex 9.2474 -36 -22
  endloop
 endfacet
 facet normal 0.814945 -0.229511 0.532155
  outer loop
   vertex 8.68415 -38 -22
   vertex 9.2474 -36 -22
   vertex 8 -38 -20.9523
  endloop
 endfacet
 facet normal 0.802886 -0.208125 0.558621
  outer loop
   vertex 8 -38 -20.9523
   vertex 9.2474 -36 -22
   vertex 8 -36 -20.2072
  endloop
 endfacet
 facet normal 0.806913 -0.206218 0.553503
  outer loop
   vertex 8 -38 -20.9523
   vertex 8 -36 -20.2072
   vertex 7.8579 -36 -20
  endloop
 endfacet
 facet normal 0.708813 -0.511061 0.486211
  outer loop
   vertex 7.8579 -36 -20
   vertex 8 -36 -20.2072
   vertex 8 -35.8029 -20
  endloop
 endfacet
 facet normal 0.797526 -0.575024 0.182483
  outer loop
   vertex 7.8579 -36 -20
   vertex 8 -35.8029 -20
   vertex 7.40028 -36 -18
  endloop
 endfacet
 facet normal 0.795961 -0.577411 0.181778
  outer loop
   vertex 7.40028 -36 -18
   vertex 8 -35.8029 -20
   vertex 8 -35.1733 -18
  endloop
 endfacet
 facet normal 0.571396 0.154537 0.805993
  outer loop
   vertex 10 -44 -24.2214
   vertex 9.14674 -42 -24
   vertex 9.68765 -44 -24
  endloop
 endfacet
 facet normal 0.614293 0.166138 0.77139
  outer loop
   vertex 9.68765 -44 -24
   vertex 9.14674 -42 -24
   vertex 8 -44 -22.656
  endloop
 endfacet
 facet normal -0.830584 0.556258 0.0266135
  outer loop
   vertex 14 -41.4932 -24
   vertex 15 -40 -24
   vertex 14 -41.3975 -26
  endloop
 endfacet
 facet normal -0.700226 0.700226 -0.139162
  outer loop
   vertex 14 -41.3975 -26
   vertex 15 -40 -24
   vertex 15.3975 -40 -26
  endloop
 endfacet
 facet normal -0.745041 0.3105 0.590342
  outer loop
   vertex 13.5717 -42 -24
   vertex 12 -41.9688 -26
   vertex 12 -42 -25.9836
  endloop
 endfacet
 facet normal 0.742534 0.311798 0.592811
  outer loop
   vertex 12 -42 -25.9836
   vertex 12 -41.9688 -26
   vertex 11.1733 -40 -26
  endloop
 endfacet
 facet normal 0.664815 0.28049 0.692349
  outer loop
   vertex 12 -42 -25.9836
   vertex 11.1733 -40 -26
   vertex 10 -40 -24.8734
  endloop
 endfacet
 facet normal 0.492 0.00875386 0.870551
  outer loop
   vertex 12 -42 -25.9836
   vertex 10 -40 -24.8734
   vertex 10 -42 -24.8533
  endloop
 endfacet
 facet normal 0.78721 0.00620079 0.616654
  outer loop
   vertex 10 -42 -24.8533
   vertex 10 -40 -24.8734
   vertex 9.31585 -40 -24
  endloop
 endfacet
 facet normal -0.778416 0.493953 -0.387401
  outer loop
   vertex 16 -39.3446 -26
   vertex 15.8579 -38 -24
   vertex 16 -38 -24.2855
  endloop
 endfacet
 facet normal 0.780078 -0.13445 0.611066
  outer loop
   vertex 9.66056 -38 -24
   vertex 9.31585 -40 -24
   vertex 10 -40 -24.8734
  endloop
 endfacet
 facet normal -0.799864 0.452719 -0.394033
  outer loop
   vertex 16.8533 -38 -26
   vertex 16 -37.7668 -24
   vertex 17 -36 -24
  endloop
 endfacet
 facet normal -0.836407 0.473402 -0.27625
  outer loop
   vertex 17 -36 -24
   vertex 16 -37.7668 -24
   vertex 16.3394 -36 -22
  endloop
 endfacet
 facet normal -0.8794 0.37722 -0.290449
  outer loop
   vertex 17 -36 -24
   vertex 16.3394 -36 -22
   vertex 17.8579 -34 -24
  endloop
 endfacet
 facet normal -0.878988 0.382145 -0.285211
  outer loop
   vertex 17.8579 -34 -24
   vertex 16.3394 -36 -22
   vertex 17.209 -34 -22
  endloop
 endfacet
 facet normal -0.822947 0.501452 -0.267027
  outer loop
   vertex 17.8579 -34 -24
   vertex 17.209 -34 -22
   vertex 18 -33.7668 -24
  endloop
 endfacet
 facet normal -0.840832 0.464187 -0.278446
  outer loop
   vertex 18 -33.7668 -24
   vertex 17.209 -34 -22
   vertex 18 -32.5671 -22
  endloop
 endfacet
 facet normal -0.820003 0.490825 -0.294425
  outer loop
   vertex 18 -33.7668 -24
   vertex 18 -32.5671 -22
   vertex 18.3394 -32 -22
  endloop
 endfacet
 facet normal -0.802011 0.480056 -0.355421
  outer loop
   vertex 18.3394 -32 -22
   vertex 18 -32.5671 -22
   vertex 18 -32 -21.2341
  endloop
 endfacet
 facet normal -0.864874 0.324177 -0.38328
  outer loop
   vertex 18.3394 -32 -22
   vertex 18 -32 -21.2341
   vertex 19.0891 -30 -22
  endloop
 endfacet
 facet normal -0.827692 0.260321 -0.49715
  outer loop
   vertex 19.0891 -30 -22
   vertex 18 -32 -21.2341
   vertex 18 -30 -20.1868
  endloop
 endfacet
 facet normal -0.845914 0.162075 -0.508095
  outer loop
   vertex 19.0891 -30 -22
   vertex 18 -30 -20.1868
   vertex 19.4723 -28 -22
  endloop
 endfacet
 facet normal -0.525874 -0.325354 -0.785876
  outer loop
   vertex 19.4723 -28 -22
   vertex 18 -30 -20.1868
   vertex 18 -28 -21.0148
  endloop
 endfacet
 facet normal -0.486028 -0.486029 -0.726329
  outer loop
   vertex 19.4723 -28 -22
   vertex 18 -28 -21.0148
   vertex 18 -26.5277 -22
  endloop
 endfacet
 facet normal 0.280552 -0.533798 -0.797716
  outer loop
   vertex 18 -26.5277 -22
   vertex 18 -28 -21.0148
   vertex 16 -27.5789 -22
  endloop
 endfacet
 facet normal 0.450678 -0.857491 -0.248189
  outer loop
   vertex 18 -26.5277 -22
   vertex 16 -27.5789 -22
   vertex 16 -27 -24
  endloop
 endfacet
 facet normal 0.677753 -0.7063 -0.204429
  outer loop
   vertex 16 -27 -24
   vertex 16 -27.5789 -22
   vertex 15.5611 -28 -22
  endloop
 endfacet
 facet normal 0.693589 -0.693589 -0.194598
  outer loop
   vertex 16 -27 -24
   vertex 15.5611 -28 -22
   vertex 15 -28 -24
  endloop
 endfacet
 facet normal 0.787242 -0.311227 0.532342
  outer loop
   vertex 10 -37.1733 -24
   vertex 10 -38 -24.4833
   vertex 10.4638 -36 -24
  endloop
 endfacet
 facet normal 0.757315 -0.314015 0.572598
  outer loop
   vertex 10.4638 -36 -24
   vertex 10 -38 -24.4833
   vertex 11.1467 -38 -26
  endloop
 endfacet
 facet normal -0.842347 0.272326 -0.46507
  outer loop
   vertex 20.8843 -30 -26
   vertex 20 -32 -25.5695
   vertex 20 -30 -24.3984
  endloop
 endfacet
 facet normal -0.858836 0.258842 -0.442042
  outer loop
   vertex 20 -30 -24.3984
   vertex 20 -32 -25.5695
   vertex 19.795 -30 -24
  endloop
 endfacet
 facet normal -0.827855 0.364828 -0.426095
  outer loop
   vertex 20 -30 -24.3984
   vertex 19.795 -30 -24
   vertex 20 -29.5347 -24
  endloop
 endfacet
 facet normal -0.801504 0.353216 -0.482525
  outer loop
   vertex 20 -29.5347 -24
   vertex 19.795 -30 -24
   vertex 19.4723 -28 -22
  endloop
 endfacet
 facet normal -0.686505 0.477996 -0.547933
  outer loop
   vertex 20 -29.5347 -24
   vertex 19.4723 -28 -22
   vertex 20 -28 -22.6612
  endloop
 endfacet
 facet normal -0.615802 -0.615803 -0.491502
  outer loop
   vertex 20 -28 -22.6612
   vertex 19.4723 -28 -22
   vertex 18 -26.5277 -22
  endloop
 endfacet
 facet normal -0.612463 -0.601813 -0.512553
  outer loop
   vertex 20 -28 -22.6612
   vertex 18 -26.5277 -22
   vertex 18 -26 -22.6196
  endloop
 endfacet
 facet normal 0.637834 -0.586339 -0.499375
  outer loop
   vertex 18 -26 -22.6196
   vertex 18 -26.5277 -22
   vertex 16 -27 -24
  endloop
 endfacet
 facet normal -0.799632 0.317835 -0.509481
  outer loop
   vertex 20 -32 -25.5695
   vertex 19 -32 -24
   vertex 19.795 -30 -24
  endloop
 endfacet
 facet normal -0.888381 0.35311 -0.293416
  outer loop
   vertex 19.795 -30 -24
   vertex 19 -32 -24
   vertex 18.3394 -32 -22
  endloop
 endfacet
 facet normal -0.889089 0.333253 -0.313788
  outer loop
   vertex 19.795 -30 -24
   vertex 18.3394 -32 -22
   vertex 19.0891 -30 -22
  endloop
 endfacet
 facet normal 0.871955 -0.361898 0.329735
  outer loop
   vertex 14 -30.1739 -26
   vertex 14 -30 -25.8092
   vertex 13.3159 -30 -24
  endloop
 endfacet
 facet normal 0.754501 -0.591034 0.285319
  outer loop
   vertex 13.3159 -30 -24
   vertex 14 -30 -25.8092
   vertex 14 -29.1266 -24
  endloop
 endfacet
 facet normal 0.786436 -0.61605 -0.0447358
  outer loop
   vertex 13.3159 -30 -24
   vertex 14 -29.1266 -24
   vertex 13.4296 -30 -22
  endloop
 endfacet
 facet normal 0.703086 -0.703083 -0.106512
  outer loop
   vertex 13.4296 -30 -22
   vertex 14 -29.1266 -24
   vertex 14 -29.4296 -22
  endloop
 endfacet
 facet normal 0.850619 -0.411898 0.326783
  outer loop
   vertex 14 -30.1739 -26
   vertex 13.3159 -30 -24
   vertex 13.1157 -32 -26
  endloop
 endfacet
 facet normal 0.848493 -0.414241 0.329339
  outer loop
   vertex 13.1157 -32 -26
   vertex 13.3159 -30 -24
   vertex 12.3394 -32 -24
  endloop
 endfacet
 facet normal -0.857179 0.33496 -0.391211
  outer loop
   vertex 20 -30 -24.3984
   vertex 20 -29.5347 -24
   vertex 20.5997 -28 -24
  endloop
 endfacet
 facet normal -0.859595 0.335904 -0.385051
  outer loop
   vertex 20.5997 -28 -24
   vertex 20 -29.5347 -24
   vertex 20 -28 -22.6612
  endloop
 endfacet
 facet normal -0.912593 0.00798689 -0.408791
  outer loop
   vertex 20.5997 -28 -24
   vertex 20 -28 -22.6612
   vertex 20.6172 -26 -24
  endloop
 endfacet
 facet normal -0.794565 -0.14884 -0.588654
  outer loop
   vertex 20.6172 -26 -24
   vertex 20 -28 -22.6612
   vertex 20 -26 -23.1669
  endloop
 endfacet
 facet normal -0.824003 0.337707 -0.454942
  outer loop
   vertex 20 -30 -24.3984
   vertex 20.5997 -28 -24
   vertex 20.8843 -30 -26
  endloop
 endfacet
 facet normal -0.764958 0.637791 0.0897845
  outer loop
   vertex 12 -44 -23.906
   vertex 12 -44.2683 -22
   vertex 12.2237 -44 -22
  endloop
 endfacet
 facet normal -0.706237 0.588832 -0.393073
  outer loop
   vertex 12.2237 -44 -22
   vertex 12 -44.2683 -22
   vertex 12 -44 -21.5981
  endloop
 endfacet
 facet normal 0.0152928 0.786214 0.617765
  outer loop
   vertex 10 -44.2944 -24
   vertex 8 -45.827 -22
   vertex 10 -45.8659 -22
  endloop
 endfacet
 facet normal 0.0190538 0.979575 -0.200176
  outer loop
   vertex 10 -45.8659 -22
   vertex 8 -45.827 -22
   vertex 8 -45.4183 -20
  endloop
 endfacet
 facet normal -0.826149 0.555046 0.0969666
  outer loop
   vertex 12 -44 -23.906
   vertex 12.2237 -44 -22
   vertex 12 -43.9836 -24
  endloop
 endfacet
 facet normal -0.78043 0.618383 0.0923725
  outer loop
   vertex 12 -43.9836 -24
   vertex 12.2237 -44 -22
   vertex 13.5717 -42 -24
  endloop
 endfacet
 facet normal 0.796583 -0.0520136 0.602288
  outer loop
   vertex 8 -44 -22.656
   vertex 9.14674 -42 -24
   vertex 8 -42 -22.4833
  endloop
 endfacet
 facet normal 0.767895 -0.270636 0.580597
  outer loop
   vertex 8 -42 -22.4833
   vertex 9.14674 -42 -24
   vertex 8.33944 -40 -22
  endloop
 endfacet
 facet normal 0.788494 -0.267645 0.553754
  outer loop
   vertex 8 -42 -22.4833
   vertex 8.33944 -40 -22
   vertex 8 -41 -22
  endloop
 endfacet
 facet normal 0.834619 -0.283301 0.472389
  outer loop
   vertex 8 -41 -22
   vertex 8.33944 -40 -22
   vertex 8 -40 -21.4003
  endloop
 endfacet
 facet normal 0.862107 -0.260619 0.434569
  outer loop
   vertex 8 -41 -22
   vertex 8 -40 -21.4003
   vertex 7.29415 -40 -20
  endloop
 endfacet
 facet normal 0.891965 -0.047332 0.44962
  outer loop
   vertex 7.29415 -40 -20
   vertex 8 -40 -21.4003
   vertex 7.40028 -38 -20
  endloop
 endfacet
 facet normal 0.987996 -0.0524278 0.14531
  outer loop
   vertex 7.29415 -40 -20
   vertex 7.40028 -38 -20
   vertex 7 -40 -18
  endloop
 endfacet
 facet normal 0.980554 0 0.196248
  outer loop
   vertex 7 -40 -18
   vertex 7.40028 -38 -20
   vertex 7 -38 -18
  endloop
 endfacet
 facet normal 0.817343 -0.0495719 0.574015
  outer loop
   vertex 8 -44 -22.656
   vertex 8 -42 -22.4833
   vertex 7.66056 -42 -22
  endloop
 endfacet
 facet normal 0.788494 -0.267645 0.553754
  outer loop
   vertex 7.66056 -42 -22
   vertex 8 -42 -22.4833
   vertex 8 -41 -22
  endloop
 endfacet
 facet normal 0.848685 -0.288076 0.44356
  outer loop
   vertex 7.66056 -42 -22
   vertex 8 -41 -22
   vertex 7.29415 -40 -20
  endloop
 endfacet
 facet normal 0.823647 -0.325619 0.464304
  outer loop
   vertex 10 -37.1733 -24
   vertex 10.4638 -36 -24
   vertex 10 -36 -23.1772
  endloop
 endfacet
 facet normal 0.777304 -0.451439 0.43818
  outer loop
   vertex 10 -36 -23.1772
   vertex 10.4638 -36 -24
   vertex 10.498 -34 -22
  endloop
 endfacet
 facet normal -0.836407 0.473402 -0.27625
  outer loop
   vertex 19 -32 -24
   vertex 18 -33.7668 -24
   vertex 18.3394 -32 -22
  endloop
 endfacet
 facet normal 0.725933 -0.642109 0.246409
  outer loop
   vertex 12 -32 -23
   vertex 12.3394 -32 -24
   vertex 13.4296 -30 -22
  endloop
 endfacet
 facet normal 0.897454 -0.438144 -0.051051
  outer loop
   vertex 13.4296 -30 -22
   vertex 12.3394 -32 -24
   vertex 13.3159 -30 -24
  endloop
 endfacet
 facet normal -0.927969 0.177797 -0.32751
  outer loop
   vertex 19.795 -30 -24
   vertex 19.0891 -30 -22
   vertex 19.4723 -28 -22
  endloop
 endfacet
 facet normal -0.25641 -0.236939 -0.937077
  outer loop
   vertex 18 -26 -22.6196
   vertex 20 -26 -23.1669
   vertex 20 -28 -22.6612
  endloop
 endfacet
 facet normal -0.648748 0.632936 -0.422514
  outer loop
   vertex 12 -44 -21.5981
   vertex 12 -44.2683 -22
   vertex 10.9592 -44 -20
  endloop
 endfacet
 facet normal -0.653523 0.626876 -0.424186
  outer loop
   vertex 10.9592 -44 -20
   vertex 12 -44.2683 -22
   vertex 10 -45 -20
  endloop
 endfacet
 facet normal -0.628664 0.603031 -0.491055
  outer loop
   vertex 10.9592 -44 -20
   vertex 10 -45 -20
   vertex 10 -44 -18.772
  endloop
 endfacet
 facet normal -0.267432 0.747183 -0.608439
  outer loop
   vertex 10 -44 -18.772
   vertex 10 -45 -20
   vertex 8.24368 -44 -18
  endloop
 endfacet
 facet normal -0.252718 0.778171 -0.574964
  outer loop
   vertex 10 -44 -18.772
   vertex 8.24368 -44 -18
   vertex 10 -43.4296 -18
  endloop
 endfacet
 facet normal -0.304988 0.93912 -0.158227
  outer loop
   vertex 10 -43.4296 -18
   vertex 8.24368 -44 -18
   vertex 8 -44 -17.5303
  endloop
 endfacet
 facet normal -0.315062 0.923075 -0.220608
  outer loop
   vertex 10 -43.4296 -18
   vertex 8 -44 -17.5303
   vertex 8 -43.6343 -16
  endloop
 endfacet
 facet normal 0.778763 0.610135 -0.145818
  outer loop
   vertex 8 -43.6343 -16
   vertex 8 -44 -17.5303
   vertex 7.91205 -44 -18
  endloop
 endfacet
 facet normal 0.874285 0.469241 -0.124254
  outer loop
   vertex 8 -43.6343 -16
   vertex 7.91205 -44 -18
   vertex 7.12286 -42 -16
  endloop
 endfacet
 facet normal 0.961696 0.268568 -0.0548817
  outer loop
   vertex 8 -45.827 -22
   vertex 7.4898 -44 -22
   vertex 8 -45.4183 -20
  endloop
 endfacet
 facet normal 0.884889 0.455528 0.0972901
  outer loop
   vertex 8 -45.4183 -20
   vertex 7.4898 -44 -22
   vertex 7.26991 -44 -20
  endloop
 endfacet
 facet normal -0.802011 0.480056 -0.355421
  outer loop
   vertex 14 -40.5671 -22
   vertex 13.4531 -40 -20
   vertex 14 -40 -21.2341
  endloop
 endfacet
 facet normal -0.81773 0.447206 -0.362387
  outer loop
   vertex 14 -40 -21.2341
   vertex 13.4531 -40 -20
   vertex 14 -39 -20
  endloop
 endfacet
 facet normal 0.961337 -0.0856082 0.261731
  outer loop
   vertex 7.66056 -42 -22
   vertex 7.29415 -40 -20
   vertex 7.11605 -42 -20
  endloop
 endfacet
 facet normal 0.99598 -0.0886932 0.0125571
  outer loop
   vertex 7.11605 -42 -20
   vertex 7.29415 -40 -20
   vertex 7.09083 -42 -18
  endloop
 endfacet
 facet normal -0.877532 0.381513 -0.290491
  outer loop
   vertex 14.3394 -40 -22
   vertex 14.5469 -38 -20
   vertex 15.209 -38 -22
  endloop
 endfacet
 facet normal -0.872077 0.395149 -0.288685
  outer loop
   vertex 15.209 -38 -22
   vertex 14.5469 -38 -20
   vertex 15.4531 -36 -20
  endloop
 endfacet
 facet normal -0.81933 0.452316 -0.352291
  outer loop
   vertex 15.209 -38 -22
   vertex 15.4531 -36 -20
   vertex 16 -36.5671 -22
  endloop
 endfacet
 facet normal -0.802011 0.480056 -0.355421
  outer loop
   vertex 16 -36.5671 -22
   vertex 15.4531 -36 -20
   vertex 16 -36 -21.2341
  endloop
 endfacet
 facet normal 0.831087 -0.12156 0.542695
  outer loop
   vertex 8 -38 -20.9523
   vertex 8 -40 -21.4003
   vertex 8.68415 -38 -22
  endloop
 endfacet
 facet normal 0.860646 -0.148336 0.48712
  outer loop
   vertex 8.68415 -38 -22
   vertex 8 -40 -21.4003
   vertex 8.33944 -40 -22
  endloop
 endfacet
 facet normal 0.840217 -0.118523 0.529138
  outer loop
   vertex 8 -40 -21.4003
   vertex 8 -38 -20.9523
   vertex 7.40028 -38 -20
  endloop
 endfacet
 facet normal 0.830754 -0.190085 0.523179
  outer loop
   vertex 7.40028 -38 -20
   vertex 8 -38 -20.9523
   vertex 7.8579 -36 -20
  endloop
 endfacet
 facet normal 0.956769 -0.218919 0.191488
  outer loop
   vertex 7.40028 -38 -20
   vertex 7.8579 -36 -20
   vertex 7 -38 -18
  endloop
 endfacet
 facet normal 0.956769 -0.191488 0.218919
  outer loop
   vertex 7 -38 -18
   vertex 7.8579 -36 -20
   vertex 7.40028 -36 -18
  endloop
 endfacet
 facet normal -0.877533 0.381513 -0.29049
  outer loop
   vertex 16.3394 -36 -22
   vertex 16.5469 -34 -20
   vertex 17.209 -34 -22
  endloop
 endfacet
 facet normal -0.881403 0.371482 -0.291771
  outer loop
   vertex 17.209 -34 -22
   vertex 16.5469 -34 -20
   vertex 17.3898 -32 -20
  endloop
 endfacet
 facet normal -0.811679 0.448093 -0.374688
  outer loop
   vertex 17.209 -34 -22
   vertex 17.3898 -32 -20
   vertex 18 -32.5671 -22
  endloop
 endfacet
 facet normal -0.76912 0.513646 -0.380291
  outer loop
   vertex 18 -32.5671 -22
   vertex 17.3898 -32 -20
   vertex 18 -32 -21.2341
  endloop
 endfacet
 facet normal -0.81773 0.447206 -0.362387
  outer loop
   vertex 16 -36 -21.2341
   vertex 15.4531 -36 -20
   vertex 16 -35 -20
  endloop
 endfacet
 facet normal -0.814552 0.445468 -0.371568
  outer loop
   vertex 16 -35 -20
   vertex 15.4531 -36 -20
   vertex 15.6346 -34 -18
  endloop
 endfacet
 facet normal 0.744149 -0.515837 0.424446
  outer loop
   vertex 10 -34.8228 -22
   vertex 10 -34 -21
   vertex 9.42962 -34 -20
  endloop
 endfacet
 facet normal 0.655781 -0.655777 0.374043
  outer loop
   vertex 9.42962 -34 -20
   vertex 10 -34 -21
   vertex 10 -33.4296 -20
  endloop
 endfacet
 facet normal 0.701874 -0.70187 0.121453
  outer loop
   vertex 9.42962 -34 -20
   vertex 10 -33.4296 -20
   vertex 9.08354 -34 -18
  endloop
 endfacet
 facet normal 0.643773 -0.761242 0.0778973
  outer loop
   vertex 9.08354 -34 -18
   vertex 10 -33.4296 -20
   vertex 10 -33.225 -18
  endloop
 endfacet
 facet normal 0.645661 -0.763474 0.0151567
  outer loop
   vertex 9.08354 -34 -18
   vertex 10 -33.225 -18
   vertex 9.03659 -34 -16
  endloop
 endfacet
 facet normal 0.678809 -0.73306 0.0429108
  outer loop
   vertex 9.03659 -34 -16
   vertex 10 -33.225 -18
   vertex 10 -33.1079 -16
  endloop
 endfacet
 facet normal 0.764879 -0.489009 0.419321
  outer loop
   vertex 10 -34.8228 -22
   vertex 9.42962 -34 -20
   vertex 9.2474 -36 -22
  endloop
 endfacet
 facet normal 0.686585 -0.544427 0.481872
  outer loop
   vertex 9.2474 -36 -22
   vertex 9.42962 -34 -20
   vertex 8 -35.8029 -20
  endloop
 endfacet
 facet normal 0.703784 -0.514696 0.489669
  outer loop
   vertex 9.2474 -36 -22
   vertex 8 -35.8029 -20
   vertex 8 -36 -20.2072
  endloop
 endfacet
 facet normal -0.887739 0.138741 -0.438942
  outer loop
   vertex 17.3898 -32 -20
   vertex 17.7024 -30 -20
   vertex 18 -32 -21.2341
  endloop
 endfacet
 facet normal -0.48599 0.405414 -0.774244
  outer loop
   vertex 18 -32 -21.2341
   vertex 17.7024 -30 -20
   vertex 18 -30 -20.1868
  endloop
 endfacet
 facet normal 0.448608 -0.812526 -0.372225
  outer loop
   vertex 14 -30.3787 -20
   vertex 14 -30 -20.8267
   vertex 14.6859 -30 -20
  endloop
 endfacet
 facet normal 0.548997 -0.700788 -0.45552
  outer loop
   vertex 14.6859 -30 -20
   vertex 14 -30 -20.8267
   vertex 16 -28 -21.4932
  endloop
 endfacet
 facet normal 0.422124 -0.703867 -0.571299
  outer loop
   vertex 14.6859 -30 -20
   vertex 16 -28 -21.4932
   vertex 16 -29.2119 -20
  endloop
 endfacet
 facet normal -0.34271 -0.729414 -0.592034
  outer loop
   vertex 16 -29.2119 -20
   vertex 16 -28 -21.4932
   vertex 18 -30 -20.1868
  endloop
 endfacet
 facet normal -0.349116 -0.754171 -0.556187
  outer loop
   vertex 16 -29.2119 -20
   vertex 18 -30 -20.1868
   vertex 17.7024 -30 -20
  endloop
 endfacet
 facet normal 0.69026 -0.65782 -0.301353
  outer loop
   vertex 14 -30 -20.8267
   vertex 14 -30.3787 -20
   vertex 12 -31.5611 -22
  endloop
 endfacet
 facet normal 0.215781 -0.373505 -0.902182
  outer loop
   vertex 18 -30 -20.1868
   vertex 16 -28 -21.4932
   vertex 18 -28 -21.0148
  endloop
 endfacet
 facet normal 0.151097 -0.760312 -0.631739
  outer loop
   vertex 18 -28 -21.0148
   vertex 16 -28 -21.4932
   vertex 16 -27.5789 -22
  endloop
 endfacet
 facet normal 0.541522 -0.697772 -0.4689
  outer loop
   vertex 14 -30 -20.8267
   vertex 15.5611 -28 -22
   vertex 16 -28 -21.4932
  endloop
 endfacet
 facet normal 0.593831 -0.618844 -0.514194
  outer loop
   vertex 16 -28 -21.4932
   vertex 15.5611 -28 -22
   vertex 16 -27.5789 -22
  endloop
 endfacet
 facet normal -0.274592 0.741678 -0.611975
  outer loop
   vertex 10 -45 -20
   vertex 8 -44.0902 -18
   vertex 8.24368 -44 -18
  endloop
 endfacet
 facet normal -0.341701 0.922938 -0.177273
  outer loop
   vertex 8.24368 -44 -18
   vertex 8 -44.0902 -18
   vertex 8 -44 -17.5303
  endloop
 endfacet
 facet normal -0.757382 0.514051 -0.402648
  outer loop
   vertex 12.498 -42 -20
   vertex 12 -42.7337 -20
   vertex 12 -42 -19.0633
  endloop
 endfacet
 facet normal -0.72469 0.542472 -0.42491
  outer loop
   vertex 12 -42 -19.0633
   vertex 12 -42.7337 -20
   vertex 11.3765 -42 -18
  endloop
 endfacet
 facet normal -0.605478 0.640095 -0.472944
  outer loop
   vertex 10.9592 -44 -20
   vertex 10 -44 -18.772
   vertex 10 -43.4296 -18
  endloop
 endfacet
 facet normal 0.98836 0.0448875 0.145363
  outer loop
   vertex 7.09083 -42 -18
   vertex 7.29415 -40 -20
   vertex 7 -40 -18
  endloop
 endfacet
 facet normal -0.81773 0.447206 -0.362387
  outer loop
   vertex 14 -39 -20
   vertex 13.4531 -40 -20
   vertex 13.6606 -38 -18
  endloop
 endfacet
 facet normal -0.877532 0.381513 -0.290491
  outer loop
   vertex 13.6606 -38 -18
   vertex 13.4531 -40 -20
   vertex 12.791 -40 -18
  endloop
 endfacet
 facet normal -0.898026 0.390423 -0.202779
  outer loop
   vertex 13.6606 -38 -18
   vertex 12.791 -40 -18
   vertex 12.3394 -40 -16
  endloop
 endfacet
 facet normal -0.824638 0.534134 -0.186208
  outer loop
   vertex 12.3394 -40 -16
   vertex 12.791 -40 -18
   vertex 12 -41.2213 -18
  endloop
 endfacet
 facet normal -0.800549 0.562217 -0.207445
  outer loop
   vertex 12.3394 -40 -16
   vertex 12 -41.2213 -18
   vertex 12 -40.4833 -16
  endloop
 endfacet
 facet normal -0.789033 0.576367 -0.212666
  outer loop
   vertex 12 -40.4833 -16
   vertex 12 -41.2213 -18
   vertex 10.8921 -42 -16
  endloop
 endfacet
 facet normal -0.737368 0.538627 -0.407638
  outer loop
   vertex 12 -40.4833 -16
   vertex 10.8921 -42 -16
   vertex 11.2474 -40 -14
  endloop
 endfacet
 facet normal -0.852615 0.437378 -0.285916
  outer loop
   vertex 11.2474 -40 -14
   vertex 10.8921 -42 -16
   vertex 10.2214 -42 -14
  endloop
 endfacet
 facet normal -0.76356 0.391694 -0.513373
  outer loop
   vertex 11.2474 -40 -14
   vertex 10.2214 -42 -14
   vertex 10 -42 -13.6707
  endloop
 endfacet
 facet normal -0.694325 0.547713 -0.466823
  outer loop
   vertex 10 -42 -13.6707
   vertex 10.2214 -42 -14
   vertex 10 -42.2807 -14
  endloop
 endfacet
 facet normal -0.389153 0.701077 -0.597538
  outer loop
   vertex 10 -42 -13.6707
   vertex 10 -42.2807 -14
   vertex 8 -42 -12.3681
  endloop
 endfacet
 facet normal -0.300366 0.807862 -0.50709
  outer loop
   vertex 8 -42 -12.3681
   vertex 10 -42.2807 -14
   vertex 8 -43.0243 -14
  endloop
 endfacet
 facet normal 0.802715 0.505102 -0.31705
  outer loop
   vertex 8 -42 -12.3681
   vertex 8 -43.0243 -14
   vertex 7.35546 -42 -14
  endloop
 endfacet
 facet normal -0.824275 0.455046 -0.336904
  outer loop
   vertex 14 -38 -18.7659
   vertex 14 -37.4329 -18
   vertex 14.791 -36 -18
  endloop
 endfacet
 facet normal -0.858835 0.474125 -0.19393
  outer loop
   vertex 14.791 -36 -18
   vertex 14 -37.4329 -18
   vertex 14.3394 -36 -16
  endloop
 endfacet
 facet normal -0.902085 0.38046 -0.203696
  outer loop
   vertex 14.791 -36 -18
   vertex 14.3394 -36 -16
   vertex 15.6346 -34 -18
  endloop
 endfacet
 facet normal -0.901977 0.38109 -0.202996
  outer loop
   vertex 15.6346 -34 -18
   vertex 14.3394 -36 -16
   vertex 15.1844 -34 -16
  endloop
 endfacet
 facet normal -0.973401 0.0670725 -0.21907
  outer loop
   vertex 15.6346 -34 -18
   vertex 15.1844 -34 -16
   vertex 15.3223 -32 -16
  endloop
 endfacet
 facet normal -0.962984 0.0663548 -0.261263
  outer loop
   vertex 15.3223 -32 -16
   vertex 15.1844 -34 -16
   vertex 14.6418 -34 -14
  endloop
 endfacet
 facet normal -0.872846 -0.163013 -0.459964
  outer loop
   vertex 15.3223 -32 -16
   vertex 14.6418 -34 -14
   vertex 14.2683 -32 -14
  endloop
 endfacet
 facet normal -0.812205 0.459093 -0.359939
  outer loop
   vertex 14 -38 -18.7659
   vertex 14.791 -36 -18
   vertex 14.5469 -38 -20
  endloop
 endfacet
 facet normal -0.872077 0.395149 -0.288685
  outer loop
   vertex 14.5469 -38 -20
   vertex 14.791 -36 -18
   vertex 15.4531 -36 -20
  endloop
 endfacet
 facet normal -0.881319 0.371702 -0.291745
  outer loop
   vertex 15.4531 -36 -20
   vertex 14.791 -36 -18
   vertex 15.6346 -34 -18
  endloop
 endfacet
 facet normal 0.718441 -0.663486 0.208876
  outer loop
   vertex 8 -35.1733 -18
   vertex 8 -35.8029 -20
   vertex 9.08354 -34 -18
  endloop
 endfacet
 facet normal 0.776452 -0.615687 0.134358
  outer loop
   vertex 9.08354 -34 -18
   vertex 8 -35.8029 -20
   vertex 9.42962 -34 -20
  endloop
 endfacet
 facet normal -0.838453 0.360614 -0.408601
  outer loop
   vertex 16 -34 -18.7659
   vertex 16 -33.1321 -18
   vertex 16.4869 -32 -18
  endloop
 endfacet
 facet normal -0.847343 0.364438 -0.386257
  outer loop
   vertex 16.4869 -32 -18
   vertex 16 -33.1321 -18
   vertex 16 -32 -16.9318
  endloop
 endfacet
 facet normal -0.840487 -0.383134 -0.383132
  outer loop
   vertex 16.4869 -32 -18
   vertex 16 -32 -16.9318
   vertex 16 -30.9318 -18
  endloop
 endfacet
 facet normal -0.855259 0.353377 -0.379019
  outer loop
   vertex 16 -34 -18.7659
   vertex 16.4869 -32 -18
   vertex 16.5469 -34 -20
  endloop
 endfacet
 facet normal -0.850813 0.358589 -0.384098
  outer loop
   vertex 16.5469 -34 -20
   vertex 16.4869 -32 -18
   vertex 17.3898 -32 -20
  endloop
 endfacet
 facet normal 0.510539 -0.855388 0.0875312
  outer loop
   vertex 10 -33.4296 -20
   vertex 12 -32.0313 -18
   vertex 10 -33.225 -18
  endloop
 endfacet
 facet normal 0.51186 -0.857601 0.050201
  outer loop
   vertex 10 -33.225 -18
   vertex 12 -32.0313 -18
   vertex 10 -33.1079 -16
  endloop
 endfacet
 facet normal -0.498826 -0.541365 -0.676828
  outer loop
   vertex 17.7024 -30 -20
   vertex 16 -30.9318 -18
   vertex 16 -30 -18.7453
  endloop
 endfacet
 facet normal 0.519627 -0.533677 -0.667216
  outer loop
   vertex 16 -30 -18.7453
   vertex 16 -30.9318 -18
   vertex 14 -30.3787 -20
  endloop
 endfacet
 facet normal 0.431235 -0.78106 -0.451643
  outer loop
   vertex 16 -30 -18.7453
   vertex 14 -30.3787 -20
   vertex 14.6859 -30 -20
  endloop
 endfacet
 facet normal -0.65386 -0.29806 -0.695433
  outer loop
   vertex 16 -30.9318 -18
   vertex 17.7024 -30 -20
   vertex 16.4869 -32 -18
  endloop
 endfacet
 facet normal -0.902319 0.14102 -0.40735
  outer loop
   vertex 16.4869 -32 -18
   vertex 17.7024 -30 -20
   vertex 17.3898 -32 -20
  endloop
 endfacet
 facet normal 0.45344 -0.874292 -0.173223
  outer loop
   vertex 12.0594 -32 -18
   vertex 12 -32 -18.1555
   vertex 12 -31.6346 -20
  endloop
 endfacet
 facet normal 0.632604 -0.759708 -0.150521
  outer loop
   vertex 12 -31.6346 -20
   vertex 12 -32 -18.1555
   vertex 11.5611 -32 -20
  endloop
 endfacet
 facet normal 0.451132 -0.875456 -0.173367
  outer loop
   vertex 12.0594 -32 -18
   vertex 12 -31.6346 -20
   vertex 14 -31 -18
  endloop
 endfacet
 facet normal -0.364964 -0.788404 -0.495198
  outer loop
   vertex 17.7024 -30 -20
   vertex 16 -30 -18.7453
   vertex 16 -29.2119 -20
  endloop
 endfacet
 facet normal 0.452806 -0.755029 -0.474235
  outer loop
   vertex 16 -29.2119 -20
   vertex 16 -30 -18.7453
   vertex 14.6859 -30 -20
  endloop
 endfacet
 facet normal 0.709706 0.691851 -0.132887
  outer loop
   vertex 8 -44.0902 -18
   vertex 7.91205 -44 -18
   vertex 8 -44 -17.5303
  endloop
 endfacet
 facet normal -0.898026 0.390423 -0.202779
  outer loop
   vertex 13.6606 -38 -18
   vertex 12.3394 -40 -16
   vertex 13.209 -38 -16
  endloop
 endfacet
 facet normal -0.855328 0.37186 -0.36074
  outer loop
   vertex 13.209 -38 -16
   vertex 12.3394 -40 -16
   vertex 12.3654 -38 -14
  endloop
 endfacet
 facet normal -0.835234 0.422249 -0.352265
  outer loop
   vertex 13.209 -38 -16
   vertex 12.3654 -38 -14
   vertex 13.3765 -36 -14
  endloop
 endfacet
 facet normal -0.739778 0.373992 -0.559337
  outer loop
   vertex 13.3765 -36 -14
   vertex 12.3654 -38 -14
   vertex 12 -38 -13.5167
  endloop
 endfacet
 facet normal -0.837582 0.501348 -0.217041
  outer loop
   vertex 14 -37.4329 -18
   vertex 14 -36.5671 -16
   vertex 14.3394 -36 -16
  endloop
 endfacet
 facet normal -0.802011 0.480056 -0.355421
  outer loop
   vertex 14.3394 -36 -16
   vertex 14 -36.5671 -16
   vertex 14 -36 -15.2341
  endloop
 endfacet
 facet normal -0.803307 0.477456 -0.355996
  outer loop
   vertex 14.3394 -36 -16
   vertex 14 -36 -15.2341
   vertex 14.6418 -34 -14
  endloop
 endfacet
 facet normal 0.734536 -0.67835 0.017243
  outer loop
   vertex 9.08354 -34 -18
   vertex 9.03659 -34 -16
   vertex 8 -35.1733 -18
  endloop
 endfacet
 facet normal 0.600936 -0.783631 0.157472
  outer loop
   vertex 12 -32 -17.8445
   vertex 11.5167 -32 -16
   vertex 12 -32.0313 -18
  endloop
 endfacet
 facet normal 0.582885 -0.797956 0.153333
  outer loop
   vertex 12 -32.0313 -18
   vertex 11.5167 -32 -16
   vertex 10 -33.1079 -16
  endloop
 endfacet
 facet normal 0.568314 -0.809222 0.148923
  outer loop
   vertex 12 -32 -17.8445
   vertex 12 -31.6606 -16
   vertex 11.5167 -32 -16
  endloop
 endfacet
 facet normal 0.573507 -0.816617 0.0650054
  outer loop
   vertex 11.5167 -32 -16
   vertex 12 -31.6606 -16
   vertex 11.29 -32 -14
  endloop
 endfacet
 facet normal 0.588546 -0.805706 0.06671
  outer loop
   vertex 11.5167 -32 -16
   vertex 11.29 -32 -14
   vertex 10 -33.1079 -16
  endloop
 endfacet
 facet normal -0.768145 0.605946 -0.20684
  outer loop
   vertex 10.2214 -42 -14
   vertex 10 -42.9634 -16
   vertex 10 -42.2807 -14
  endloop
 endfacet
 facet normal -0.33192 0.89273 -0.304734
  outer loop
   vertex 10 -42.2807 -14
   vertex 10 -42.9634 -16
   vertex 8 -43.0243 -14
  endloop
 endfacet
 facet normal -0.712485 0.659758 -0.238924
  outer loop
   vertex 10.8921 -42 -16
   vertex 10 -42.9634 -16
   vertex 10.2214 -42 -14
  endloop
 endfacet
 facet normal -0.754265 0.529713 -0.387928
  outer loop
   vertex 12.3394 -40 -16
   vertex 12 -40.4833 -16
   vertex 12 -40 -15.34
  endloop
 endfacet
 facet normal -0.724794 0.55585 -0.407069
  outer loop
   vertex 12 -40 -15.34
   vertex 12 -40.4833 -16
   vertex 11.2474 -40 -14
  endloop
 endfacet
 facet normal -0.783053 0.439788 -0.439789
  outer loop
   vertex 12 -40 -15.34
   vertex 11.2474 -40 -14
   vertex 12 -38.66 -14
  endloop
 endfacet
 facet normal -0.732849 0.411592 -0.541778
  outer loop
   vertex 12 -38.66 -14
   vertex 11.2474 -40 -14
   vertex 10.8921 -38 -12
  endloop
 endfacet
 facet normal -0.741298 0.396558 -0.541497
  outer loop
   vertex 12 -38.66 -14
   vertex 10.8921 -38 -12
   vertex 12 -38 -13.5167
  endloop
 endfacet
 facet normal -0.78733 0.435953 -0.435954
  outer loop
   vertex 12 -40 -15.34
   vertex 12 -38.66 -14
   vertex 12.3654 -38 -14
  endloop
 endfacet
 facet normal -0.729662 0.404022 -0.551689
  outer loop
   vertex 12.3654 -38 -14
   vertex 12 -38.66 -14
   vertex 12 -38 -13.5167
  endloop
 endfacet
 facet normal -0.80515 0.424566 -0.414098
  outer loop
   vertex 12 -40 -15.34
   vertex 12.3654 -38 -14
   vertex 12.3394 -40 -16
  endloop
 endfacet
 facet normal -0.893671 0.377581 -0.242457
  outer loop
   vertex 14.3394 -36 -16
   vertex 14.6418 -34 -14
   vertex 15.1844 -34 -16
  endloop
 endfacet
 facet normal -0.618071 -0.715475 -0.325705
  outer loop
   vertex 14.2683 -32 -14
   vertex 14 -31.7682 -14
   vertex 15.3223 -32 -16
  endloop
 endfacet
 facet normal -0.485061 -0.845653 -0.222681
  outer loop
   vertex 15.3223 -32 -16
   vertex 14 -31.7682 -14
   vertex 14 -31.2416 -16
  endloop
 endfacet
 facet normal 0.563625 -0.823829 0.060273
  outer loop
   vertex 12 -31.5142 -14
   vertex 11.29 -32 -14
   vertex 12 -31.6606 -16
  endloop
 endfacet
 facet normal -0.75738 0.385602 -0.52696
  outer loop
   vertex 11.2474 -40 -14
   vertex 10 -42 -13.6707
   vertex 10 -40 -12.2072
  endloop
 endfacet
 facet normal -0.465234 0.522731 -0.714359
  outer loop
   vertex 10 -40 -12.2072
   vertex 10 -42 -13.6707
   vertex 8 -42 -12.3681
  endloop
 endfacet
 facet normal -0.427791 0.488976 -0.760196
  outer loop
   vertex 10 -40 -12.2072
   vertex 8 -42 -12.3681
   vertex 9.63188 -40 -12
  endloop
 endfacet
 facet normal -0.562626 0.569392 -0.599371
  outer loop
   vertex 9.63188 -40 -12
   vertex 8 -42 -12.3681
   vertex 8 -41.6125 -12
  endloop
 endfacet
 facet normal 0.878143 0.329493 -0.346841
  outer loop
   vertex 8 -42 -12.3681
   vertex 7.35546 -42 -14
   vertex 8 -41.6125 -12
  endloop
 endfacet
 facet normal 0.87158 0.345493 -0.347826
  outer loop
   vertex 8 -41.6125 -12
   vertex 7.35546 -42 -14
   vertex 7.36081 -40 -12
  endloop
 endfacet
 facet normal 0.9826 0.130011 -0.132641
  outer loop
   vertex 7.35546 -42 -14
   vertex 7.09083 -40 -14
   vertex 7.36081 -40 -12
  endloop
 endfacet
 facet normal 0.990514 0.0316861 -0.13371
  outer loop
   vertex 7.36081 -40 -12
   vertex 7.09083 -40 -14
   vertex 7.02685 -38 -14
  endloop
 endfacet
 facet normal 0.99187 0.118007 -0.0476148
  outer loop
   vertex 7.36081 -40 -12
   vertex 7.02685 -38 -14
   vertex 7.12286 -38 -12
  endloop
 endfacet
 facet normal 0.981919 -0.183338 -0.0471371
  outer loop
   vertex 7.12286 -38 -12
   vertex 7.02685 -38 -14
   vertex 7.40028 -36 -14
  endloop
 endfacet
 facet normal 0.975548 -0.20757 -0.072253
  outer loop
   vertex 7.12286 -38 -12
   vertex 7.40028 -36 -14
   vertex 7.54841 -36 -12
  endloop
 endfacet
 facet normal 0.807996 -0.586142 -0.0598434
  outer loop
   vertex 7.54841 -36 -12
   vertex 7.40028 -36 -14
   vertex 8 -35.1733 -14
  endloop
 endfacet
 facet normal 0.777402 -0.623605 -0.0822374
  outer loop
   vertex 7.54841 -36 -12
   vertex 8 -35.1733 -14
   vertex 8 -35.437 -12
  endloop
 endfacet
 facet normal 0.598415 -0.79431 -0.104749
  outer loop
   vertex 8 -35.437 -12
   vertex 8 -35.1733 -14
   vertex 9.90746 -34 -12
  endloop
 endfacet
 facet normal -0.757174 0.389716 -0.524223
  outer loop
   vertex 10.8921 -38 -12
   vertex 11.2474 -40 -14
   vertex 10 -39.7333 -12
  endloop
 endfacet
 facet normal -0.750353 0.405477 -0.522071
  outer loop
   vertex 10 -39.7333 -12
   vertex 11.2474 -40 -14
   vertex 10 -40 -12.2072
  endloop
 endfacet
 facet normal -0.406133 0.560529 -0.721709
  outer loop
   vertex 10 -39.7333 -12
   vertex 10 -40 -12.2072
   vertex 9.63188 -40 -12
  endloop
 endfacet
 facet normal -0.47473 0.627125 -0.617532
  outer loop
   vertex 14 -34 -12.8968
   vertex 14 -35.0863 -14
   vertex 12.8335 -34 -12
  endloop
 endfacet
 facet normal -0.6488 0.442734 -0.618906
  outer loop
   vertex 12.8335 -34 -12
   vertex 14 -35.0863 -14
   vertex 13.3765 -36 -14
  endloop
 endfacet
 facet normal -0.598654 0.336885 -0.72672
  outer loop
   vertex 12 -36 -12.4389
   vertex 11.4673 -36 -12
   vertex 12 -35.0533 -12
  endloop
 endfacet
 facet normal -0.612131 0.34447 -0.711784
  outer loop
   vertex 12 -35.0533 -12
   vertex 11.4673 -36 -12
   vertex 10 -36 -10.7382
  endloop
 endfacet
 facet normal -0.602604 0.274066 -0.749505
  outer loop
   vertex 12 -35.0533 -12
   vertex 10 -36 -10.7382
   vertex 12 -34 -11.6149
  endloop
 endfacet
 facet normal 0.133076 -0.506501 -0.851908
  outer loop
   vertex 12 -34 -11.6149
   vertex 10 -36 -10.7382
   vertex 10 -34 -11.9273
  endloop
 endfacet
 facet normal 0.116452 -0.656268 -0.745487
  outer loop
   vertex 12 -34 -11.6149
   vertex 10 -34 -11.9273
   vertex 10 -33.9174 -12
  endloop
 endfacet
 facet normal -0.54211 -0.456986 -0.705181
  outer loop
   vertex 12.8335 -34 -12
   vertex 12 -33.0113 -12
   vertex 14 -34 -12.8968
  endloop
 endfacet
 facet normal -0.552019 -0.541605 -0.633987
  outer loop
   vertex 14 -34 -12.8968
   vertex 12 -33.0113 -12
   vertex 12 -32 -12.8639
  endloop
 endfacet
 facet normal -0.342766 -0.328309 -0.880185
  outer loop
   vertex 14 -34 -12.8968
   vertex 12 -32 -12.8639
   vertex 14 -32 -13.6428
  endloop
 endfacet
 facet normal 0.609369 -0.51501 -0.602855
  outer loop
   vertex 12 -32 -12.8639
   vertex 12 -33.0113 -12
   vertex 10 -33.0366 -14
  endloop
 endfacet
 facet normal -0.640447 -0.187712 -0.744709
  outer loop
   vertex 11.4673 -36 -12
   vertex 10 -38 -10.234
   vertex 10 -36 -10.7382
  endloop
 endfacet
 facet normal -0.211786 -0.238872 -0.947674
  outer loop
   vertex 10 -36 -10.7382
   vertex 10 -38 -10.234
   vertex 8 -36 -10.2912
  endloop
 endfacet
 facet normal -0.188644 -0.501871 -0.84412
  outer loop
   vertex 10 -36 -10.7382
   vertex 8 -36 -10.2912
   vertex 10 -34 -11.9273
  endloop
 endfacet
 facet normal -0.524415 -0.497224 -0.6912
  outer loop
   vertex 9.69152 -38 -10
   vertex 8 -36.216 -10
   vertex 10 -38 -10.234
  endloop
 endfacet
 facet normal -0.618046 -0.631431 -0.468309
  outer loop
   vertex 10 -38 -10.234
   vertex 8 -36.216 -10
   vertex 8 -36 -10.2912
  endloop
 endfacet
 facet normal 0.906592 -0.338957 -0.251392
  outer loop
   vertex 8 -36 -10.2912
   vertex 8 -36.216 -10
   vertex 7.33299 -38 -10
  endloop
 endfacet
 facet normal 0.842178 -0.314874 -0.437711
  outer loop
   vertex 7.33299 -38 -10
   vertex 8 -36.216 -10
   vertex 8 -38 -8.71664
  endloop
 endfacet
 facet normal 0.87108 0.190404 -0.452732
  outer loop
   vertex 7.33299 -38 -10
   vertex 8 -38 -8.71664
   vertex 7.77016 -40 -10
  endloop
 endfacet
 facet normal 0.830013 0.230511 -0.507881
  outer loop
   vertex 7.77016 -40 -10
   vertex 8 -38 -8.71664
   vertex 8 -40 -9.62437
  endloop
 endfacet
 facet normal 0.744405 0.488244 -0.455498
  outer loop
   vertex 7.77016 -40 -10
   vertex 8 -40 -9.62437
   vertex 8 -40.3504 -10
  endloop
 endfacet
 facet normal -0.611956 0.578301 -0.539516
  outer loop
   vertex 8 -40.3504 -10
   vertex 8 -40 -9.62437
   vertex 8.33116 -40 -10
  endloop
 endfacet
 facet normal -0.568414 0.340033 -0.749189
  outer loop
   vertex 8 -40 -9.62437
   vertex 8 -38 -8.71664
   vertex 9.69152 -38 -10
  endloop
 endfacet
 facet normal -0.524416 -0.497225 -0.691199
  outer loop
   vertex 9.69152 -38 -10
   vertex 8 -38 -8.71664
   vertex 8 -36.216 -10
  endloop
 endfacet
 facet normal -0.668167 0.454472 -0.589074
  outer loop
   vertex 8.33116 -40 -10
   vertex 8 -40 -9.62437
   vertex 9.69152 -38 -10
  endloop
 endfacet
endsolid
