solid ascii
 facet normal -0.143205 0.699819 0.699819
  outer loop
   vertex -24.0532 -2 -28
   vertex -26 -2 -28.3984
   vertex -26 -2.39838 -28
  endloop
 endfacet
 facet normal 0 0.707107 0.707107
  outer loop
   vertex -26 -2.39838 -28
   vertex -26 -2 -28.3984
   vertex -28 -2.39838 -28
  endloop
 endfacet
 facet normal -0 0.930696 0.365793
  outer loop
   vertex -26 -2.39838 -28
   vertex -28 -2.39838 -28
   vertex -28 -3.18445 -26
  endloop
 endfacet
 facet normal 0.308456 0.885314 0.347957
  outer loop
   vertex -28 -3.18445 -26
   vertex -28 -2.39838 -28
   vertex -29.1434 -2 -28
  endloop
 endfacet
 facet normal 0.501189 0.839335 0.210539
  outer loop
   vertex -28 -3.18445 -26
   vertex -29.1434 -2 -28
   vertex -29.9836 -2 -26
  endloop
 endfacet
 facet normal 0.921377 0.0354263 0.387051
  outer loop
   vertex -29.9836 -2 -26
   vertex -29.1434 -2 -28
   vertex -29.2203 0 -28
  endloop
 endfacet
 facet normal 0.947837 -0.046358 0.315365
  outer loop
   vertex -29.9836 -2 -26
   vertex -29.2203 0 -28
   vertex -29.8858 0 -26
  endloop
 endfacet
 facet normal 0.367814 -0.921811 0.12238
  outer loop
   vertex -29.8858 0 -26
   vertex -29.2203 0 -28
   vertex -28 0.486923 -28
  endloop
 endfacet
 facet normal 0.510104 -0.812137 0.283243
  outer loop
   vertex -29.8858 0 -26
   vertex -28 0.486923 -28
   vertex -28 1.18445 -26
  endloop
 endfacet
 facet normal 0.0542514 -0.942832 0.328824
  outer loop
   vertex -28 1.18445 -26
   vertex -28 0.486923 -28
   vertex -26 0.602005 -28
  endloop
 endfacet
 facet normal 0.280887 -0.808929 0.516465
  outer loop
   vertex -28 1.18445 -26
   vertex -26 0.602005 -28
   vertex -26 1.87891 -26
  endloop
 endfacet
 facet normal -0.131387 -0.835556 0.533464
  outer loop
   vertex -26 1.87891 -26
   vertex -26 0.602005 -28
   vertex -24 1.56442 -26
  endloop
 endfacet
 facet normal -0.144131 -0.916595 0.372933
  outer loop
   vertex -26 1.87891 -26
   vertex -24 1.56442 -26
   vertex -26 2 -25.7024
  endloop
 endfacet
 facet normal -0.101931 -0.836203 0.538864
  outer loop
   vertex -26 2 -25.7024
   vertex -24 1.56442 -26
   vertex -24 2 -25.3241
  endloop
 endfacet
 facet normal -0.0886341 -0.87897 0.468568
  outer loop
   vertex -26 2 -25.7024
   vertex -24 2 -25.3241
   vertex -24 2.70585 -24
  endloop
 endfacet
 facet normal -0.241384 -0.856349 0.456509
  outer loop
   vertex -24 2.70585 -24
   vertex -24 2 -25.3241
   vertex -22 2.1421 -24
  endloop
 endfacet
 facet normal -0.268625 -0.952993 0.140162
  outer loop
   vertex -24 2.70585 -24
   vertex -22 2.1421 -24
   vertex -24 3 -22
  endloop
 endfacet
 facet normal -0.140162 -0.952993 0.268625
  outer loop
   vertex -24 3 -22
   vertex -22 2.1421 -24
   vertex -22 2.70585 -22
  endloop
 endfacet
 facet normal -0.143994 -0.979046 0.143994
  outer loop
   vertex -24 3 -22
   vertex -22 2.70585 -22
   vertex -24 3.29415 -20
  endloop
 endfacet
 facet normal -0.143994 -0.979046 0.143994
  outer loop
   vertex -24 3.29415 -20
   vertex -22 2.70585 -22
   vertex -22 3 -20
  endloop
 endfacet
 facet normal -0.142123 -0.966329 0.214499
  outer loop
   vertex -24 3.29415 -20
   vertex -22 3 -20
   vertex -24 3.7381 -18
  endloop
 endfacet
 facet normal -0.260873 -0.960814 0.093714
  outer loop
   vertex -24 3.7381 -18
   vertex -22 3 -20
   vertex -22 3.19507 -18
  endloop
 endfacet
 facet normal -0.240981 -0.887547 -0.392668
  outer loop
   vertex -24 3.7381 -18
   vertex -22 3.19507 -18
   vertex -24 2.85326 -16
  endloop
 endfacet
 facet normal -0.081652 -0.965649 -0.246687
  outer loop
   vertex -24 2.85326 -16
   vertex -22 3.19507 -18
   vertex -22 2.68415 -16
  endloop
 endfacet
 facet normal -0.0706221 -0.835205 -0.545385
  outer loop
   vertex -24 2.85326 -16
   vertex -22 2.68415 -16
   vertex -22 2 -14.9523
  endloop
 endfacet
 facet normal -0.0130404 -0.837225 -0.546704
  outer loop
   vertex -22 2 -14.9523
   vertex -22 2.68415 -16
   vertex -20 2 -15
  endloop
 endfacet
 facet normal -0.01271 -0.846113 -0.532851
  outer loop
   vertex -22 2 -14.9523
   vertex -20 2 -15
   vertex -22 1.40028 -14
  endloop
 endfacet
 facet normal 0 -0.857599 -0.514319
  outer loop
   vertex -22 1.40028 -14
   vertex -20 2 -15
   vertex -20 1.40028 -14
  endloop
 endfacet
 facet normal -0 -0.894088 -0.447892
  outer loop
   vertex -22 1.40028 -14
   vertex -20 1.40028 -14
   vertex -22 0.398384 -12
  endloop
 endfacet
 facet normal 0 -0.894088 -0.447892
  outer loop
   vertex -22 0.398384 -12
   vertex -20 1.40028 -14
   vertex -20 0.398384 -12
  endloop
 endfacet
 facet normal -0 -0.707107 -0.707107
  outer loop
   vertex -22 0.398384 -12
   vertex -20 0.398384 -12
   vertex -20 0 -11.6016
  endloop
 endfacet
 facet normal -0.112766 -0.702597 -0.702597
  outer loop
   vertex -20 0 -11.6016
   vertex -20 0.398384 -12
   vertex -18 0 -11.9226
  endloop
 endfacet
 facet normal -0.14952 -0.331327 -0.931593
  outer loop
   vertex -20 0 -11.6016
   vertex -18 0 -11.9226
   vertex -18 -2 -11.2113
  endloop
 endfacet
 facet normal -0.489297 -0.292241 -0.821696
  outer loop
   vertex -18 -2 -11.2113
   vertex -18 0 -11.9226
   vertex -17.87 0 -12
  endloop
 endfacet
 facet normal -0.469262 -0.297399 -0.831473
  outer loop
   vertex -18 -2 -11.2113
   vertex -17.87 0 -12
   vertex -16.6025 -2 -12
  endloop
 endfacet
 facet normal -0.683602 -0.433239 -0.587361
  outer loop
   vertex -16.6025 -2 -12
   vertex -17.87 0 -12
   vertex -16 -2 -12.7012
  endloop
 endfacet
 facet normal -0.607743 0.59831 -0.522182
  outer loop
   vertex -16.6025 -2 -12
   vertex -16 -2 -12.7012
   vertex -16 -3.1335 -14
  endloop
 endfacet
 facet normal -0.747244 0.500679 -0.436973
  outer loop
   vertex -16 -3.1335 -14
   vertex -16 -2 -12.7012
   vertex -15.2405 -2 -14
  endloop
 endfacet
 facet normal -0.78112 0.523378 -0.34048
  outer loop
   vertex -16 -3.1335 -14
   vertex -15.2405 -2 -14
   vertex -16 -4 -15.332
  endloop
 endfacet
 facet normal -0.77178 0.528539 -0.353556
  outer loop
   vertex -16 -4 -15.332
   vertex -15.2405 -2 -14
   vertex -15.694 -4 -16
  endloop
 endfacet
 facet normal -0.781691 0.510614 -0.358096
  outer loop
   vertex -16 -4 -15.332
   vertex -15.694 -4 -16
   vertex -16 -4.4685 -16
  endloop
 endfacet
 facet normal -0.829911 0.542112 0.131764
  outer loop
   vertex -16 -4.4685 -16
   vertex -15.694 -4 -16
   vertex -16 -4 -17.9275
  endloop
 endfacet
 facet normal -0.770279 0.619666 0.150613
  outer loop
   vertex -16 -4.4685 -16
   vertex -16 -4 -17.9275
   vertex -17.232 -6 -16
  endloop
 endfacet
 facet normal -0.766723 0.622722 0.156057
  outer loop
   vertex -17.232 -6 -16
   vertex -16 -4 -17.9275
   vertex -16.0147 -4 -18
  endloop
 endfacet
 facet normal -0.853135 0.521685 0.00242538
  outer loop
   vertex -17.232 -6 -16
   vertex -16.0147 -4 -18
   vertex -17.2377 -6 -18
  endloop
 endfacet
 facet normal -0.587212 0.359075 0.725429
  outer loop
   vertex -17.2377 -6 -18
   vertex -16.0147 -4 -18
   vertex -18 -4 -19.607
  endloop
 endfacet
 facet normal -0.428096 0.461275 0.777148
  outer loop
   vertex -17.2377 -6 -18
   vertex -18 -4 -19.607
   vertex -18 -6 -18.4199
  endloop
 endfacet
 facet normal -0.195799 0.500531 0.843286
  outer loop
   vertex -18 -6 -18.4199
   vertex -18 -4 -19.607
   vertex -20 -6 -18.8843
  endloop
 endfacet
 facet normal -0.159169 0.710439 0.685523
  outer loop
   vertex -18 -6 -18.4199
   vertex -20 -6 -18.8843
   vertex -20 -6.85326 -18
  endloop
 endfacet
 facet normal -0.0527245 0.718612 0.69341
  outer loop
   vertex -20 -6.85326 -18
   vertex -20 -6 -18.8843
   vertex -22 -7 -18
  endloop
 endfacet
 facet normal -0.0661527 0.901631 0.427416
  outer loop
   vertex -20 -6.85326 -18
   vertex -22 -7 -18
   vertex -20 -7.80136 -16
  endloop
 endfacet
 facet normal -0.287754 0.754374 0.590015
  outer loop
   vertex -20 -7.80136 -16
   vertex -22 -7 -18
   vertex -20.5208 -8 -16
  endloop
 endfacet
 facet normal -0.355905 0.933038 -0.0526433
  outer loop
   vertex -20 -7.80136 -16
   vertex -20.5208 -8 -16
   vertex -20.8166 -8 -14
  endloop
 endfacet
 facet normal -0.311662 0.949074 -0.0460992
  outer loop
   vertex -20.8166 -8 -14
   vertex -20.5208 -8 -16
   vertex -22 -8.48576 -16
  endloop
 endfacet
 facet normal -0.509984 0.855023 0.0940913
  outer loop
   vertex -20.8166 -8 -14
   vertex -22 -8.48576 -16
   vertex -22 -8.70585 -14
  endloop
 endfacet
 facet normal 0 0.993999 0.109385
  outer loop
   vertex -22 -8.70585 -14
   vertex -22 -8.48576 -16
   vertex -24 -8.70585 -14
  endloop
 endfacet
 facet normal 0 0.975917 -0.218141
  outer loop
   vertex -22 -8.70585 -14
   vertex -24 -8.70585 -14
   vertex -24 -8.2588 -12
  endloop
 endfacet
 facet normal 0.395104 0.896513 -0.200392
  outer loop
   vertex -24 -8.2588 -12
   vertex -24 -8.70585 -14
   vertex -25.6016 -8 -14
  endloop
 endfacet
 facet normal 0.168445 0.985684 -0.00734375
  outer loop
   vertex -24 -8.2588 -12
   vertex -25.6016 -8 -14
   vertex -25.5144 -8 -12
  endloop
 endfacet
 facet normal 0.268797 0.963126 -0.0117188
  outer loop
   vertex -25.5144 -8 -12
   vertex -25.6016 -8 -14
   vertex -26 -7.86448 -12
  endloop
 endfacet
 facet normal 0.121417 0.43505 -0.892182
  outer loop
   vertex -25.5144 -8 -12
   vertex -26 -7.86448 -12
   vertex -26 -6 -11.0908
  endloop
 endfacet
 facet normal 0.223735 0.427182 -0.876047
  outer loop
   vertex -26 -6 -11.0908
   vertex -26 -7.86448 -12
   vertex -28 -6 -11.6016
  endloop
 endfacet
 facet normal 0.245638 -0.120766 -0.96181
  outer loop
   vertex -26 -6 -11.0908
   vertex -28 -6 -11.6016
   vertex -28 -4 -11.8527
  endloop
 endfacet
 facet normal 0.619499 -0.097797 -0.778882
  outer loop
   vertex -28 -4 -11.8527
   vertex -28 -6 -11.6016
   vertex -28.5009 -6 -12
  endloop
 endfacet
 facet normal 0.613924 -0.0960608 -0.783499
  outer loop
   vertex -28 -4 -11.8527
   vertex -28.5009 -6 -12
   vertex -28.1879 -4 -12
  endloop
 endfacet
 facet normal 0.77251 -0.120875 -0.623392
  outer loop
   vertex -28.1879 -4 -12
   vertex -28.5009 -6 -12
   vertex -29.8019 -4 -14
  endloop
 endfacet
 facet normal 0.607475 -0.625032 -0.490213
  outer loop
   vertex -28.1879 -4 -12
   vertex -29.8019 -4 -14
   vertex -28 -2.24874 -14
  endloop
 endfacet
 facet normal 0.596067 -0.613294 -0.518241
  outer loop
   vertex -28 -2.24874 -14
   vertex -29.8019 -4 -14
   vertex -28 -2 -14.2944
  endloop
 endfacet
 facet normal 0.577957 -0.623325 -0.526718
  outer loop
   vertex -28 -2.24874 -14
   vertex -28 -2 -14.2944
   vertex -27.7317 -2 -14
  endloop
 endfacet
 facet normal 0.607937 -0.568727 -0.554041
  outer loop
   vertex -27.7317 -2 -14
   vertex -28 -2 -14.2944
   vertex -26 0 -14.1528
  endloop
 endfacet
 facet normal 0.550927 -0.526505 -0.647512
  outer loop
   vertex -27.7317 -2 -14
   vertex -26 0 -14.1528
   vertex -26 -0.187939 -14
  endloop
 endfacet
 facet normal 0.473582 -0.55565 -0.683355
  outer loop
   vertex -26 -0.187939 -14
   vertex -26 0 -14.1528
   vertex -25.7795 0 -14
  endloop
 endfacet
 facet normal 0.551787 -0.647407 -0.525733
  outer loop
   vertex -26 -0.187939 -14
   vertex -25.7795 0 -14
   vertex -24 0 -12.1323
  endloop
 endfacet
 facet normal 0.472051 -0.75821 -0.449762
  outer loop
   vertex -24 0 -12.1323
   vertex -25.7795 0 -14
   vertex -24 1.10789 -14
  endloop
 endfacet
 facet normal 0.198634 -0.842929 -0.500016
  outer loop
   vertex -24 0 -12.1323
   vertex -24 1.10789 -14
   vertex -23.6669 0 -12
  endloop
 endfacet
 facet normal 0.201294 -0.842256 -0.500086
  outer loop
   vertex -23.6669 0 -12
   vertex -24 1.10789 -14
   vertex -22 0.398384 -12
  endloop
 endfacet
 facet normal 0.166632 -0.697221 -0.697221
  outer loop
   vertex -23.6669 0 -12
   vertex -22 0.398384 -12
   vertex -22 0 -11.6016
  endloop
 endfacet
 facet normal 0 -0.707107 -0.707107
  outer loop
   vertex -22 0 -11.6016
   vertex -22 0.398384 -12
   vertex -20 0 -11.6016
  endloop
 endfacet
 facet normal -0 -0.288058 -0.957613
  outer loop
   vertex -22 0 -11.6016
   vertex -20 0 -11.6016
   vertex -20 -2 -11
  endloop
 endfacet
 facet normal -0.100658 -0.286595 -0.952749
  outer loop
   vertex -20 -2 -11
   vertex -20 0 -11.6016
   vertex -18 -2 -11.2113
  endloop
 endfacet
 facet normal -0.100178 0.301471 -0.948198
  outer loop
   vertex -20 -2 -11
   vertex -18 -2 -11.2113
   vertex -18 -4 -11.8472
  endloop
 endfacet
 facet normal -0.473678 0.266847 -0.839298
  outer loop
   vertex -18 -4 -11.8472
   vertex -18 -2 -11.2113
   vertex -16.6025 -2 -12
  endloop
 endfacet
 facet normal -0.589437 0.356473 -0.724908
  outer loop
   vertex -18 -4 -11.8472
   vertex -16.6025 -2 -12
   vertex -17.8121 -4 -12
  endloop
 endfacet
 facet normal -0.762729 0.461275 -0.453287
  outer loop
   vertex -17.8121 -4 -12
   vertex -16.6025 -2 -12
   vertex -16.6235 -4 -14
  endloop
 endfacet
 facet normal -0.662223 0.637631 -0.393557
  outer loop
   vertex -17.8121 -4 -12
   vertex -16.6235 -4 -14
   vertex -18 -5.42962 -14
  endloop
 endfacet
 facet normal -0.65083 0.626661 -0.428621
  outer loop
   vertex -18 -5.42962 -14
   vertex -16.6235 -4 -14
   vertex -17.232 -6 -16
  endloop
 endfacet
 facet normal -0.591521 0.686479 -0.422907
  outer loop
   vertex -18 -5.42962 -14
   vertex -17.232 -6 -16
   vertex -18 -6 -14.9259
  endloop
 endfacet
 facet normal -0.566567 0.717582 -0.405066
  outer loop
   vertex -18 -6 -14.9259
   vertex -17.232 -6 -16
   vertex -18 -6.60634 -16
  endloop
 endfacet
 facet normal -0.623715 0.68069 -0.384241
  outer loop
   vertex -18 -6 -14.9259
   vertex -18 -6.60634 -16
   vertex -18.5704 -6 -14
  endloop
 endfacet
 facet normal -0.640357 0.665054 -0.384247
  outer loop
   vertex -18.5704 -6 -14
   vertex -18 -6.60634 -16
   vertex -20 -7.37653 -14
  endloop
 endfacet
 facet normal -0.637051 0.66162 -0.395507
  outer loop
   vertex -18.5704 -6 -14
   vertex -20 -7.37653 -14
   vertex -19.8121 -6 -12
  endloop
 endfacet
 facet normal -0.651886 0.651886 -0.387414
  outer loop
   vertex -19.8121 -6 -12
   vertex -20 -7.37653 -14
   vertex -20 -6.18794 -12
  endloop
 endfacet
 facet normal -0.533572 0.533572 -0.656203
  outer loop
   vertex -19.8121 -6 -12
   vertex -20 -6.18794 -12
   vertex -20 -6 -11.8472
  endloop
 endfacet
 facet normal -0.272872 0.606941 -0.746434
  outer loop
   vertex -20 -6 -11.8472
   vertex -20 -6.18794 -12
   vertex -22 -6 -11.116
  endloop
 endfacet
 facet normal -0.342836 0.0544159 -0.937818
  outer loop
   vertex -20 -6 -11.8472
   vertex -22 -6 -11.116
   vertex -22 -4 -11
  endloop
 endfacet
 facet normal 0 0.0579265 -0.998321
  outer loop
   vertex -22 -4 -11
   vertex -22 -6 -11.116
   vertex -24 -4 -11
  endloop
 endfacet
 facet normal 0 -0.0579265 -0.998321
  outer loop
   vertex -22 -4 -11
   vertex -24 -4 -11
   vertex -24 -2 -11.116
  endloop
 endfacet
 facet normal 0.342836 -0.0544159 -0.937818
  outer loop
   vertex -24 -2 -11.116
   vertex -24 -4 -11
   vertex -26 -2 -11.8472
  endloop
 endfacet
 facet normal 0.272872 -0.606941 -0.746434
  outer loop
   vertex -24 -2 -11.116
   vertex -26 -2 -11.8472
   vertex -26 -1.81206 -12
  endloop
 endfacet
 facet normal 0.515515 -0.540591 -0.664835
  outer loop
   vertex -26 -1.81206 -12
   vertex -26 -2 -11.8472
   vertex -26.1971 -2 -12
  endloop
 endfacet
 facet normal 0.594984 -0.623926 -0.506666
  outer loop
   vertex -26 -1.81206 -12
   vertex -26.1971 -2 -12
   vertex -26 -0.187939 -14
  endloop
 endfacet
 facet normal 0.63219 -0.604166 -0.485097
  outer loop
   vertex -26 -0.187939 -14
   vertex -26.1971 -2 -12
   vertex -27.7317 -2 -14
  endloop
 endfacet
 facet normal 0 0.707107 0.707107
  outer loop
   vertex -28 -2.39838 -28
   vertex -26 -2 -28.3984
   vertex -28 -2 -28.3984
  endloop
 endfacet
 facet normal 0 0.0265943 0.999646
  outer loop
   vertex -28 -2 -28.3984
   vertex -26 -2 -28.3984
   vertex -28 0 -28.4516
  endloop
 endfacet
 facet normal 0.34695 0.0249423 0.937552
  outer loop
   vertex -28 -2 -28.3984
   vertex -28 0 -28.4516
   vertex -29.2203 0 -28
  endloop
 endfacet
 facet normal 0.261863 -0.656276 0.707622
  outer loop
   vertex -29.2203 0 -28
   vertex -28 0 -28.4516
   vertex -28 0.486923 -28
  endloop
 endfacet
 facet normal 0.239213 0.686577 0.686577
  outer loop
   vertex -28 -2.39838 -28
   vertex -28 -2 -28.3984
   vertex -29.1434 -2 -28
  endloop
 endfacet
 facet normal 0.32899 0.0126494 0.944249
  outer loop
   vertex -29.1434 -2 -28
   vertex -28 -2 -28.3984
   vertex -29.2203 0 -28
  endloop
 endfacet
 facet normal -0.200177 0.0546921 0.978232
  outer loop
   vertex -24.0532 -2 -28
   vertex -26 0 -28.5102
   vertex -26 -2 -28.3984
  endloop
 endfacet
 facet normal 0.0292472 0.0557981 0.998014
  outer loop
   vertex -26 -2 -28.3984
   vertex -26 0 -28.5102
   vertex -28 0 -28.4516
  endloop
 endfacet
 facet normal -0.251779 0.00179582 0.967783
  outer loop
   vertex -24.0532 -2 -28
   vertex -24.0389 0 -28
   vertex -26 0 -28.5102
  endloop
 endfacet
 facet normal -0.194674 -0.634173 0.748282
  outer loop
   vertex -26 0 -28.5102
   vertex -24.0389 0 -28
   vertex -26 0.602005 -28
  endloop
 endfacet
 facet normal 0.0223509 -0.646381 0.762687
  outer loop
   vertex -26 0 -28.5102
   vertex -26 0.602005 -28
   vertex -28 0 -28.4516
  endloop
 endfacet
 facet normal 0.0390982 -0.679485 0.732647
  outer loop
   vertex -28 0 -28.4516
   vertex -26 0.602005 -28
   vertex -28 0.486923 -28
  endloop
 endfacet
 facet normal -0.500107 0.475924 0.723457
  outer loop
   vertex -20.5734 -2 -26
   vertex -22 -2 -26.9862
   vertex -22 -3.4991 -26
  endloop
 endfacet
 facet normal -0.0179475 0.549501 0.835301
  outer loop
   vertex -22 -3.4991 -26
   vertex -22 -2 -26.9862
   vertex -24 -3.56442 -26
  endloop
 endfacet
 facet normal -0.0274169 0.839427 0.54278
  outer loop
   vertex -22 -3.4991 -26
   vertex -24 -3.56442 -26
   vertex -22 -4 -25.2253
  endloop
 endfacet
 facet normal -0.0267318 0.840281 0.541492
  outer loop
   vertex -22 -4 -25.2253
   vertex -24 -3.56442 -26
   vertex -24 -4 -25.3241
  endloop
 endfacet
 facet normal -0.023217 0.882204 0.470294
  outer loop
   vertex -22 -4 -25.2253
   vertex -24 -4 -25.3241
   vertex -24 -4.70585 -24
  endloop
 endfacet
 facet normal 0.0467758 0.881476 0.469906
  outer loop
   vertex -24 -4.70585 -24
   vertex -24 -4 -25.3241
   vertex -26 -4.59972 -24
  endloop
 endfacet
 facet normal 0.0519631 0.97923 0.195983
  outer loop
   vertex -24 -4.70585 -24
   vertex -26 -4.59972 -24
   vertex -26 -5 -22
  endloop
 endfacet
 facet normal 0.0568042 0.978971 0.195931
  outer loop
   vertex -26 -5 -22
   vertex -26 -4.59972 -24
   vertex -28 -4.88395 -22
  endloop
 endfacet
 facet normal 0.0571795 0.985438 0.160133
  outer loop
   vertex -26 -5 -22
   vertex -28 -4.88395 -22
   vertex -28 -5.20895 -20
  endloop
 endfacet
 facet normal 0.459747 0.876552 0.142439
  outer loop
   vertex -28 -5.20895 -20
   vertex -28 -4.88395 -22
   vertex -30 -4.15996 -20
  endloop
 endfacet
 facet normal 0.435242 0.829832 0.349204
  outer loop
   vertex -28 -5.20895 -20
   vertex -30 -4.15996 -20
   vertex -28 -6 -18.1202
  endloop
 endfacet
 facet normal 0.742571 0.652424 -0.151428
  outer loop
   vertex -28 -6 -18.1202
   vertex -30 -4.15996 -20
   vertex -29.7327 -4 -18
  endloop
 endfacet
 facet normal 0.691322 0.572429 0.440907
  outer loop
   vertex -28 -6 -18.1202
   vertex -29.7327 -4 -18
   vertex -28.0767 -6 -18
  endloop
 endfacet
 facet normal 0.727306 0.602225 0.329167
  outer loop
   vertex -28.0767 -6 -18
   vertex -29.7327 -4 -18
   vertex -28.9818 -6 -16
  endloop
 endfacet
 facet normal 0.544701 0.801578 0.246523
  outer loop
   vertex -28.0767 -6 -18
   vertex -28.9818 -6 -16
   vertex -28 -6.66718 -16
  endloop
 endfacet
 facet normal 0.553683 0.814795 0.171883
  outer loop
   vertex -28 -6.66718 -16
   vertex -28.9818 -6 -16
   vertex -28 -7.08909 -14
  endloop
 endfacet
 facet normal 0.293248 0.935449 0.197336
  outer loop
   vertex -28 -6.66718 -16
   vertex -28 -7.08909 -14
   vertex -26 -7.29415 -16
  endloop
 endfacet
 facet normal 0.323905 0.917755 0.229807
  outer loop
   vertex -26 -7.29415 -16
   vertex -28 -7.08909 -14
   vertex -26 -7.79495 -14
  endloop
 endfacet
 facet normal 0.393097 0.891959 0.223348
  outer loop
   vertex -26 -7.29415 -16
   vertex -26 -7.79495 -14
   vertex -24.3984 -8 -16
  endloop
 endfacet
 facet normal 0.441221 0.857242 0.265445
  outer loop
   vertex -24.3984 -8 -16
   vertex -26 -7.79495 -14
   vertex -25.6016 -8 -14
  endloop
 endfacet
 facet normal 0.391914 0.889275 0.235782
  outer loop
   vertex -24.3984 -8 -16
   vertex -25.6016 -8 -14
   vertex -24 -8.70585 -14
  endloop
 endfacet
 facet normal -0.295509 0.750454 0.591179
  outer loop
   vertex -24 -3.56442 -26
   vertex -22 -2 -26.9862
   vertex -24 -2 -27.9859
  endloop
 endfacet
 facet normal -0.447116 0 0.894476
  outer loop
   vertex -24 -2 -27.9859
   vertex -22 -2 -26.9862
   vertex -24 0 -27.9859
  endloop
 endfacet
 facet normal -0.256261 0 0.966608
  outer loop
   vertex -24 -2 -27.9859
   vertex -24 0 -27.9859
   vertex -24.0532 -2 -28
  endloop
 endfacet
 facet normal -0.340672 0.00242985 0.940179
  outer loop
   vertex -24.0532 -2 -28
   vertex -24 0 -27.9859
   vertex -24.0389 0 -28
  endloop
 endfacet
 facet normal -0.159905 0.781431 0.603155
  outer loop
   vertex -24.0532 -2 -28
   vertex -26 -2.39838 -28
   vertex -24 -2 -27.9859
  endloop
 endfacet
 facet normal -0.158792 0.775569 0.610964
  outer loop
   vertex -24 -2 -27.9859
   vertex -26 -2.39838 -28
   vertex -24 -3.56442 -26
  endloop
 endfacet
 facet normal 0.0731822 0.89169 0.446691
  outer loop
   vertex -24 -3.56442 -26
   vertex -26 -2.39838 -28
   vertex -26 -3.40028 -26
  endloop
 endfacet
 facet normal 0.0960403 0.889955 0.445821
  outer loop
   vertex -26 -3.40028 -26
   vertex -26 -2.39838 -28
   vertex -28 -3.18445 -26
  endloop
 endfacet
 facet normal 0.0921547 0.85395 0.512131
  outer loop
   vertex -26 -3.40028 -26
   vertex -28 -3.18445 -26
   vertex -26 -4 -25
  endloop
 endfacet
 facet normal 0.139001 0.885212 0.443935
  outer loop
   vertex -26 -4 -25
   vertex -28 -3.18445 -26
   vertex -28 -4 -24.3738
  endloop
 endfacet
 facet normal 0.152789 0.859383 0.487972
  outer loop
   vertex -26 -4 -25
   vertex -28 -4 -24.3738
   vertex -28 -4.21224 -24
  endloop
 endfacet
 facet normal 0.508711 0.748665 0.425105
  outer loop
   vertex -28 -4.21224 -24
   vertex -28 -4 -24.3738
   vertex -28.3123 -4 -24
  endloop
 endfacet
 facet normal 0.541516 0.796944 0.267659
  outer loop
   vertex -28 -4.21224 -24
   vertex -28.3123 -4 -24
   vertex -28 -4.88395 -22
  endloop
 endfacet
 facet normal 0.406516 0.857447 0.315483
  outer loop
   vertex -28 -4.88395 -22
   vertex -28.3123 -4 -24
   vertex -29.8645 -4 -22
  endloop
 endfacet
 facet normal 0.426212 0.898992 0.100782
  outer loop
   vertex -28 -4.88395 -22
   vertex -29.8645 -4 -22
   vertex -30 -4.15996 -20
  endloop
 endfacet
 facet normal 0.556376 0.824442 0.103639
  outer loop
   vertex -30 -4.15996 -20
   vertex -29.8645 -4 -22
   vertex -30 -4 -21.2725
  endloop
 endfacet
 facet normal 0.733055 0.674858 0.0848354
  outer loop
   vertex -30 -4.15996 -20
   vertex -30 -4 -21.2725
   vertex -30.1473 -4 -20
  endloop
 endfacet
 facet normal 0.940584 0.32164 0.108853
  outer loop
   vertex -30.1473 -4 -20
   vertex -30 -4 -21.2725
   vertex -30.5997 -2 -22
  endloop
 endfacet
 facet normal 0.923828 0.354199 0.145203
  outer loop
   vertex -30.1473 -4 -20
   vertex -30.5997 -2 -22
   vertex -30.9141 -2 -20
  endloop
 endfacet
 facet normal 0.987646 -0.0214186 0.155233
  outer loop
   vertex -30.9141 -2 -20
   vertex -30.5997 -2 -22
   vertex -30.5563 0 -22
  endloop
 endfacet
 facet normal 0.975411 0.0419085 0.216372
  outer loop
   vertex -30.9141 -2 -20
   vertex -30.5563 0 -22
   vertex -31 0 -20
  endloop
 endfacet
 facet normal 0.955834 -0.20353 0.212029
  outer loop
   vertex -31 0 -20
   vertex -30.5563 0 -22
   vertex -30.5741 2 -20
  endloop
 endfacet
 facet normal 0.959855 -0.204386 -0.192105
  outer loop
   vertex -31 0 -20
   vertex -30.5741 2 -20
   vertex -30.5997 0 -18
  endloop
 endfacet
 facet normal 0.989935 -0.106206 -0.0935399
  outer loop
   vertex -30.5997 0 -18
   vertex -30.5741 2 -20
   vertex -30.3851 2 -18
  endloop
 endfacet
 facet normal 0.802495 -0.0860961 -0.590415
  outer loop
   vertex -30.5997 0 -18
   vertex -30.3851 2 -18
   vertex -30 2 -17.4765
  endloop
 endfacet
 facet normal 0.739794 -0.395548 -0.544285
  outer loop
   vertex -30 2 -17.4765
   vertex -30.3851 2 -18
   vertex -30 2.72034 -18
  endloop
 endfacet
 facet normal 0.577692 -0.479864 -0.660305
  outer loop
   vertex -30 2 -17.4765
   vertex -30 2.72034 -18
   vertex -28.3123 2 -16
  endloop
 endfacet
 facet normal 0.538414 -0.53841 -0.648248
  outer loop
   vertex -28.3123 2 -16
   vertex -30 2.72034 -18
   vertex -28 2.31235 -16
  endloop
 endfacet
 facet normal 0.481101 -0.481098 -0.732862
  outer loop
   vertex -28.3123 2 -16
   vertex -28 2.31235 -16
   vertex -28 2 -15.795
  endloop
 endfacet
 facet normal 0.205002 -0.537127 -0.818211
  outer loop
   vertex -28 2 -15.795
   vertex -28 2.31235 -16
   vertex -26 2 -15.2939
  endloop
 endfacet
 facet normal 0.212645 -0.48421 -0.848718
  outer loop
   vertex -28 2 -15.795
   vertex -26 2 -15.2939
   vertex -26 0 -14.1528
  endloop
 endfacet
 facet normal 0.109806 -0.492547 -0.863331
  outer loop
   vertex -26 0 -14.1528
   vertex -26 2 -15.2939
   vertex -24 2 -15.0395
  endloop
 endfacet
 facet normal 0.416279 -0.682574 -0.600669
  outer loop
   vertex -26 0 -14.1528
   vertex -24 2 -15.0395
   vertex -25.7795 0 -14
  endloop
 endfacet
 facet normal 0.427173 -0.686128 -0.588856
  outer loop
   vertex -25.7795 0 -14
   vertex -24 2 -15.0395
   vertex -24 1.10789 -14
  endloop
 endfacet
 facet normal -0.560498 -0.168569 0.810818
  outer loop
   vertex -20.5734 -2 -26
   vertex -22 0 -26.5704
   vertex -22 -2 -26.9862
  endloop
 endfacet
 facet normal -0.569565 -0.167305 0.804739
  outer loop
   vertex -22 -2 -26.9862
   vertex -22 0 -26.5704
   vertex -24 0 -27.9859
  endloop
 endfacet
 facet normal -0.616137 -0.224156 0.755069
  outer loop
   vertex -20.5734 -2 -26
   vertex -21.301 0 -26
   vertex -22 0 -26.5704
  endloop
 endfacet
 facet normal -0.507017 -0.597382 0.621344
  outer loop
   vertex -22 0 -26.5704
   vertex -21.301 0 -26
   vertex -22 0.593258 -26
  endloop
 endfacet
 facet normal -0.454471 -0.61736 0.642123
  outer loop
   vertex -22 0 -26.5704
   vertex -22 0.593258 -26
   vertex -24 0 -27.9859
  endloop
 endfacet
 facet normal -0.356395 -0.733954 0.578181
  outer loop
   vertex -24 0 -27.9859
   vertex -22 0.593258 -26
   vertex -24 1.56442 -26
  endloop
 endfacet
 facet normal -0.218794 -0.766503 0.603823
  outer loop
   vertex -24 0 -27.9859
   vertex -24 1.56442 -26
   vertex -24.0389 0 -28
  endloop
 endfacet
 facet normal -0.234374 -0.763501 0.601777
  outer loop
   vertex -24.0389 0 -28
   vertex -24 1.56442 -26
   vertex -26 0.602005 -28
  endloop
 endfacet
 facet normal -0.518911 0.794663 0.315027
  outer loop
   vertex -21.2561 -4 -24
   vertex -22 -4 -25.2253
   vertex -22 -4.48576 -24
  endloop
 endfacet
 facet normal -0.101769 0.924791 0.366613
  outer loop
   vertex -22 -4.48576 -24
   vertex -22 -4 -25.2253
   vertex -24 -4.70585 -24
  endloop
 endfacet
 facet normal -0.108235 0.983545 0.144655
  outer loop
   vertex -22 -4.48576 -24
   vertex -24 -4.70585 -24
   vertex -24 -5 -22
  endloop
 endfacet
 facet normal 0 0.989357 0.145509
  outer loop
   vertex -24 -5 -22
   vertex -24 -4.70585 -24
   vertex -26 -5 -22
  endloop
 endfacet
 facet normal -0 0.980554 0.196248
  outer loop
   vertex -24 -5 -22
   vertex -26 -5 -22
   vertex -26 -5.40028 -20
  endloop
 endfacet
 facet normal 0.0933947 0.976268 0.19539
  outer loop
   vertex -26 -5.40028 -20
   vertex -26 -5 -22
   vertex -28 -5.20895 -20
  endloop
 endfacet
 facet normal 0.080686 0.843423 0.531157
  outer loop
   vertex -26 -5.40028 -20
   vertex -28 -5.20895 -20
   vertex -26 -6 -19.0477
  endloop
 endfacet
 facet normal 0.177037 0.907155 0.381743
  outer loop
   vertex -26 -6 -19.0477
   vertex -28 -5.20895 -20
   vertex -28 -6 -18.1202
  endloop
 endfacet
 facet normal 0.206937 0.870671 0.446217
  outer loop
   vertex -26 -6 -19.0477
   vertex -28 -6 -18.1202
   vertex -28 -6.0616 -18
  endloop
 endfacet
 facet normal 0.581691 0.723881 0.370987
  outer loop
   vertex -28 -6.0616 -18
   vertex -28 -6 -18.1202
   vertex -28.0767 -6 -18
  endloop
 endfacet
 facet normal 0.609641 0.758662 0.229718
  outer loop
   vertex -28 -6.0616 -18
   vertex -28.0767 -6 -18
   vertex -28 -6.66718 -16
  endloop
 endfacet
 facet normal 0.0830513 0.854636 0.512542
  outer loop
   vertex -26 -4.59972 -24
   vertex -24 -4 -25.3241
   vertex -26 -4 -25
  endloop
 endfacet
 facet normal 0.0830513 0.854636 0.512542
  outer loop
   vertex -26 -4 -25
   vertex -24 -4 -25.3241
   vertex -26 -3.40028 -26
  endloop
 endfacet
 facet normal 0.163905 0.846001 0.507364
  outer loop
   vertex -26 -4 -25
   vertex -28 -4.21224 -24
   vertex -26 -4.59972 -24
  endloop
 endfacet
 facet normal 0.180638 0.932369 0.313142
  outer loop
   vertex -26 -4.59972 -24
   vertex -28 -4.21224 -24
   vertex -28 -4.88395 -22
  endloop
 endfacet
 facet normal -0.692926 0.590584 0.413599
  outer loop
   vertex -19.2248 -2 -24
   vertex -20 -2 -25.2987
   vertex -20 -2.90954 -24
  endloop
 endfacet
 facet normal -0.579512 0.667544 0.467495
  outer loop
   vertex -20 -2.90954 -24
   vertex -20 -2 -25.2987
   vertex -21.2561 -4 -24
  endloop
 endfacet
 facet normal -0.644018 0.741848 0.186823
  outer loop
   vertex -20 -2.90954 -24
   vertex -21.2561 -4 -24
   vertex -20.6759 -4 -22
  endloop
 endfacet
 facet normal -0.54 0.826959 0.156649
  outer loop
   vertex -20.6759 -4 -22
   vertex -21.2561 -4 -24
   vertex -22 -4.48576 -24
  endloop
 endfacet
 facet normal -0.468218 0.878311 0.0966541
  outer loop
   vertex -20.6759 -4 -22
   vertex -22 -4.48576 -24
   vertex -22 -4.70585 -22
  endloop
 endfacet
 facet normal -0.144655 0.983545 0.108235
  outer loop
   vertex -22 -4.70585 -22
   vertex -22 -4.48576 -24
   vertex -24 -5 -22
  endloop
 endfacet
 facet normal -0.142738 0.970514 0.194239
  outer loop
   vertex -22 -4.70585 -22
   vertex -24 -5 -22
   vertex -24 -5.40028 -20
  endloop
 endfacet
 facet normal 0 0.980554 0.196248
  outer loop
   vertex -24 -5.40028 -20
   vertex -24 -5 -22
   vertex -26 -5.40028 -20
  endloop
 endfacet
 facet normal -0 0.821008 0.570917
  outer loop
   vertex -24 -5.40028 -20
   vertex -26 -5.40028 -20
   vertex -24 -6 -19.1376
  endloop
 endfacet
 facet normal 0.0239374 0.845939 0.532742
  outer loop
   vertex -24 -6 -19.1376
   vertex -26 -5.40028 -20
   vertex -26 -6 -19.0477
  endloop
 endfacet
 facet normal 0.0245594 0.837043 0.546585
  outer loop
   vertex -24 -6 -19.1376
   vertex -26 -6 -19.0477
   vertex -26 -6.68415 -18
  endloop
 endfacet
 facet normal 0.252205 0.81023 0.529076
  outer loop
   vertex -26 -6.68415 -18
   vertex -26 -6 -19.0477
   vertex -28 -6.0616 -18
  endloop
 endfacet
 facet normal 0.285517 0.917247 0.277737
  outer loop
   vertex -26 -6.68415 -18
   vertex -28 -6.0616 -18
   vertex -28 -6.66718 -16
  endloop
 endfacet
 facet normal -0.643673 0.658016 0.390768
  outer loop
   vertex -21.2561 -4 -24
   vertex -20 -2 -25.2987
   vertex -22 -4 -25.2253
  endloop
 endfacet
 facet normal -0.605283 0.623448 0.49492
  outer loop
   vertex -22 -4 -25.2253
   vertex -20 -2 -25.2987
   vertex -20.5734 -2 -26
  endloop
 endfacet
 facet normal -0.661646 0.629653 0.407138
  outer loop
   vertex -22 -4 -25.2253
   vertex -20.5734 -2 -26
   vertex -22 -3.4991 -26
  endloop
 endfacet
 facet normal 0.068824 0.838588 0.540401
  outer loop
   vertex -26 -3.40028 -26
   vertex -24 -4 -25.3241
   vertex -24 -3.56442 -26
  endloop
 endfacet
 facet normal 0.470885 0.788585 0.395476
  outer loop
   vertex -28 -3.18445 -26
   vertex -29.9836 -2 -26
   vertex -28 -4 -24.3738
  endloop
 endfacet
 facet normal 0.471853 0.788593 0.394305
  outer loop
   vertex -28 -4 -24.3738
   vertex -29.9836 -2 -26
   vertex -28.3123 -4 -24
  endloop
 endfacet
 facet normal 0.815279 0.567856 -0.113403
  outer loop
   vertex -28.3123 -4 -24
   vertex -29.9836 -2 -26
   vertex -29.7054 -2 -24
  endloop
 endfacet
 facet normal 0.989304 -0.0483861 -0.137609
  outer loop
   vertex -29.7054 -2 -24
   vertex -29.9836 -2 -26
   vertex -29.8858 0 -26
  endloop
 endfacet
 facet normal 0.979302 -0.0919786 -0.1803
  outer loop
   vertex -29.7054 -2 -24
   vertex -29.8858 0 -26
   vertex -29.5175 0 -24
  endloop
 endfacet
 facet normal 0.529354 -0.842785 -0.0974597
  outer loop
   vertex -29.5175 0 -24
   vertex -29.8858 0 -26
   vertex -28 1.18445 -26
  endloop
 endfacet
 facet normal 0.714332 -0.686583 0.135403
  outer loop
   vertex -29.5175 0 -24
   vertex -28 1.18445 -26
   vertex -28 1.57887 -24
  endloop
 endfacet
 facet normal 0.322472 -0.928692 0.183149
  outer loop
   vertex -28 1.57887 -24
   vertex -28 1.18445 -26
   vertex -26 1.87891 -26
  endloop
 endfacet
 facet normal 0.486555 -0.792521 0.367661
  outer loop
   vertex -28 1.57887 -24
   vertex -26 1.87891 -26
   vertex -27.3141 2 -24
  endloop
 endfacet
 facet normal 0.438743 -0.832355 0.338659
  outer loop
   vertex -27.3141 2 -24
   vertex -26 1.87891 -26
   vertex -26 2 -25.7024
  endloop
 endfacet
 facet normal 0.395385 -0.866331 0.305191
  outer loop
   vertex -27.3141 2 -24
   vertex -26 2 -25.7024
   vertex -26 2.59972 -24
  endloop
 endfacet
 facet normal 0.049987 -0.942007 0.33185
  outer loop
   vertex -26 2.59972 -24
   vertex -26 2 -25.7024
   vertex -24 2.70585 -24
  endloop
 endfacet
 facet normal 0.0523489 -0.986518 0.155056
  outer loop
   vertex -26 2.59972 -24
   vertex -24 2.70585 -24
   vertex -26 2.91407 -22
  endloop
 endfacet
 facet normal 0.0424693 -0.988464 0.145379
  outer loop
   vertex -26 2.91407 -22
   vertex -24 2.70585 -24
   vertex -24 3 -22
  endloop
 endfacet
 facet normal 0.0417126 -0.970853 0.236019
  outer loop
   vertex -26 2.91407 -22
   vertex -24 3 -22
   vertex -26 3.40028 -20
  endloop
 endfacet
 facet normal -0.0524274 -0.987996 0.14531
  outer loop
   vertex -26 3.40028 -20
   vertex -24 3 -22
   vertex -24 3.29415 -20
  endloop
 endfacet
 facet normal -0.0517341 -0.974931 0.216409
  outer loop
   vertex -26 3.40028 -20
   vertex -24 3.29415 -20
   vertex -24 3.7381 -18
  endloop
 endfacet
 facet normal -0.848704 -0.151912 0.506581
  outer loop
   vertex -19.2248 -2 -24
   vertex -20 0 -24.699
   vertex -20 -2 -25.2987
  endloop
 endfacet
 facet normal -0.760571 -0.186492 0.621894
  outer loop
   vertex -20 -2 -25.2987
   vertex -20 0 -24.699
   vertex -20.5734 -2 -26
  endloop
 endfacet
 facet normal -0.772357 -0.0791003 0.630244
  outer loop
   vertex -19.2248 -2 -24
   vertex -19.4296 0 -24
   vertex -20 0 -24.699
  endloop
 endfacet
 facet normal -0.621344 -0.597382 0.507017
  outer loop
   vertex -20 0 -24.699
   vertex -19.4296 0 -24
   vertex -20 0.593258 -24
  endloop
 endfacet
 facet normal -0.543268 -0.640094 0.543268
  outer loop
   vertex -20 0 -24.699
   vertex -20 0.593258 -24
   vertex -22 0.593258 -26
  endloop
 endfacet
 facet normal -0.525279 -0.66945 0.525279
  outer loop
   vertex -22 0.593258 -26
   vertex -20 0.593258 -24
   vertex -22 2 -24.2072
  endloop
 endfacet
 facet normal -0.325915 -0.743772 0.583595
  outer loop
   vertex -22 0.593258 -26
   vertex -22 2 -24.2072
   vertex -24 2 -25.3241
  endloop
 endfacet
 facet normal -0.301225 -0.786337 0.539386
  outer loop
   vertex -24 2 -25.3241
   vertex -22 2 -24.2072
   vertex -22 2.1421 -24
  endloop
 endfacet
 facet normal -0.68481 -0.24914 0.68481
  outer loop
   vertex -20.5734 -2 -26
   vertex -20 0 -24.699
   vertex -21.301 0 -26
  endloop
 endfacet
 facet normal -0.543268 -0.640094 0.543268
  outer loop
   vertex -21.301 0 -26
   vertex -20 0 -24.699
   vertex -22 0.593258 -26
  endloop
 endfacet
 facet normal -0.525279 -0.66945 0.525279
  outer loop
   vertex -22 2 -24.2072
   vertex -20 0.593258 -24
   vertex -21.7928 2 -24
  endloop
 endfacet
 facet normal -0.56555 -0.720774 0.400797
  outer loop
   vertex -21.7928 2 -24
   vertex -20 0.593258 -24
   vertex -20 1.70539 -22
  endloop
 endfacet
 facet normal -0.483994 -0.81698 0.313517
  outer loop
   vertex -21.7928 2 -24
   vertex -20 1.70539 -22
   vertex -20.4973 2 -22
  endloop
 endfacet
 facet normal -0.454108 -0.766532 0.454108
  outer loop
   vertex -20.4973 2 -22
   vertex -20 1.70539 -22
   vertex -20 2 -21.5027
  endloop
 endfacet
 facet normal -0.391261 -0.832964 0.391261
  outer loop
   vertex -20.4973 2 -22
   vertex -20 2 -21.5027
   vertex -20 2.70585 -20
  endloop
 endfacet
 facet normal -0.330228 -0.854345 0.401304
  outer loop
   vertex -20 2.70585 -20
   vertex -20 2 -21.5027
   vertex -18.1739 2 -20
  endloop
 endfacet
 facet normal -0.345412 -0.89363 0.286559
  outer loop
   vertex -20 2.70585 -20
   vertex -18.1739 2 -20
   vertex -18 2.57413 -18
  endloop
 endfacet
 facet normal -0.375483 -0.881682 0.285743
  outer loop
   vertex -18 2.57413 -18
   vertex -18.1739 2 -20
   vertex -18 2 -19.7715
  endloop
 endfacet
 facet normal -0.594744 -0.764756 0.247849
  outer loop
   vertex -18 2.57413 -18
   vertex -18 2 -19.7715
   vertex -17.2617 2 -18
  endloop
 endfacet
 facet normal -0.841151 -0.411813 0.350535
  outer loop
   vertex -17.2617 2 -18
   vertex -18 2 -19.7715
   vertex -17.116 0 -20
  endloop
 endfacet
 facet normal -0.89839 -0.341555 0.276107
  outer loop
   vertex -17.2617 2 -18
   vertex -17.116 0 -20
   vertex -16.5014 0 -18
  endloop
 endfacet
 facet normal -0.953864 -0.0648344 0.293156
  outer loop
   vertex -16.5014 0 -18
   vertex -17.116 0 -20
   vertex -16.3654 -2 -18
  endloop
 endfacet
 facet normal -0.847495 -0.0576045 0.527668
  outer loop
   vertex -16.5014 0 -18
   vertex -16.3654 -2 -18
   vertex -16 0 -17.1947
  endloop
 endfacet
 facet normal -0.852732 -0.0534033 0.519611
  outer loop
   vertex -16 0 -17.1947
   vertex -16.3654 -2 -18
   vertex -16 -2 -17.4003
  endloop
 endfacet
 facet normal -0.805518 -0.0605827 0.589466
  outer loop
   vertex -16 0 -17.1947
   vertex -16 -2 -17.4003
   vertex -14.9753 -2 -16
  endloop
 endfacet
 facet normal -0.77507 0.278511 0.567184
  outer loop
   vertex -14.9753 -2 -16
   vertex -16 -2 -17.4003
   vertex -15.694 -4 -16
  endloop
 endfacet
 facet normal -0.933843 0.335563 -0.123837
  outer loop
   vertex -14.9753 -2 -16
   vertex -15.694 -4 -16
   vertex -15.2405 -2 -14
  endloop
 endfacet
 facet normal -0.377904 -0.778248 0.501517
  outer loop
   vertex -22 0.593258 -26
   vertex -24 2 -25.3241
   vertex -24 1.56442 -26
  endloop
 endfacet
 facet normal -0.492348 -0.717765 0.492348
  outer loop
   vertex -22 2 -24.2072
   vertex -21.7928 2 -24
   vertex -22 2.1421 -24
  endloop
 endfacet
 facet normal -0.55097 -0.803225 0.22641
  outer loop
   vertex -22 2.1421 -24
   vertex -21.7928 2 -24
   vertex -22 2.70585 -22
  endloop
 endfacet
 facet normal -0.599308 0.760773 0.249108
  outer loop
   vertex -18.0141 -2 -22
   vertex -20 -2.90954 -24
   vertex -20 -3.56442 -22
  endloop
 endfacet
 facet normal -0.522264 0.810443 0.265372
  outer loop
   vertex -20 -3.56442 -22
   vertex -20 -2.90954 -24
   vertex -20.6759 -4 -22
  endloop
 endfacet
 facet normal -0.479727 0.744434 0.464413
  outer loop
   vertex -20 -3.56442 -22
   vertex -20.6759 -4 -22
   vertex -20 -4 -21.3018
  endloop
 endfacet
 facet normal -0.428116 0.803086 0.414451
  outer loop
   vertex -20 -4 -21.3018
   vertex -20.6759 -4 -22
   vertex -22 -4.70585 -22
  endloop
 endfacet
 facet normal -0.437765 0.75018 0.495573
  outer loop
   vertex -20 -4 -21.3018
   vertex -22 -4.70585 -22
   vertex -20 -4.85997 -20
  endloop
 endfacet
 facet normal -0.213023 0.934545 0.285038
  outer loop
   vertex -20 -4.85997 -20
   vertex -22 -4.70585 -22
   vertex -22 -5.31585 -20
  endloop
 endfacet
 facet normal -0.157445 0.690724 0.70577
  outer loop
   vertex -20 -4.85997 -20
   vertex -22 -5.31585 -20
   vertex -20 -6 -18.8843
  endloop
 endfacet
 facet normal -0.0745189 0.785037 0.614951
  outer loop
   vertex -20 -6 -18.8843
   vertex -22 -5.31585 -20
   vertex -22 -6 -19.1266
  endloop
 endfacet
 facet normal -0.0801826 0.745478 0.661689
  outer loop
   vertex -20 -6 -18.8843
   vertex -22 -6 -19.1266
   vertex -22 -7 -18
  endloop
 endfacet
 facet normal 0.0403109 0.747278 0.663287
  outer loop
   vertex -22 -7 -18
   vertex -22 -6 -19.1266
   vertex -24 -6.89211 -18
  endloop
 endfacet
 facet normal 0.0425949 0.789619 0.612118
  outer loop
   vertex -22 -7 -18
   vertex -24 -6.89211 -18
   vertex -22 -8 -16.71
  endloop
 endfacet
 facet normal 0.108474 0.831032 0.545545
  outer loop
   vertex -22 -8 -16.71
   vertex -24 -6.89211 -18
   vertex -24 -8 -16.3123
  endloop
 endfacet
 facet normal 0.108474 0.831031 0.545546
  outer loop
   vertex -22 -8 -16.71
   vertex -24 -8 -16.3123
   vertex -24 -8.20505 -16
  endloop
 endfacet
 facet normal 0.395236 0.767899 0.504102
  outer loop
   vertex -24 -8.20505 -16
   vertex -24 -8 -16.3123
   vertex -24.3984 -8 -16
  endloop
 endfacet
 facet normal 0.446701 0.867888 0.217321
  outer loop
   vertex -24 -8.20505 -16
   vertex -24.3984 -8 -16
   vertex -24 -8.70585 -14
  endloop
 endfacet
 facet normal -0.69124 0.589147 0.418442
  outer loop
   vertex -20 -2.90954 -24
   vertex -18.0141 -2 -22
   vertex -19.2248 -2 -24
  endloop
 endfacet
 facet normal -0.852203 -0.0872776 0.515881
  outer loop
   vertex -19.2248 -2 -24
   vertex -18.0141 -2 -22
   vertex -19.4296 0 -24
  endloop
 endfacet
 facet normal 0.836599 0.340979 0.42876
  outer loop
   vertex -30 -2 -23.4251
   vertex -30 -3.79203 -22
   vertex -29.7054 -2 -24
  endloop
 endfacet
 facet normal 0.714418 0.465544 0.522375
  outer loop
   vertex -29.7054 -2 -24
   vertex -30 -3.79203 -22
   vertex -29.8645 -4 -22
  endloop
 endfacet
 facet normal 0.692143 0.48209 0.537148
  outer loop
   vertex -29.7054 -2 -24
   vertex -29.8645 -4 -22
   vertex -28.3123 -4 -24
  endloop
 endfacet
 facet normal 0.880765 0.294756 0.370637
  outer loop
   vertex -30 -3.79203 -22
   vertex -30 -2 -23.4251
   vertex -30.5997 -2 -22
  endloop
 endfacet
 facet normal 0.92153 -0.0199848 0.387792
  outer loop
   vertex -30.5997 -2 -22
   vertex -30 -2 -23.4251
   vertex -30.5563 0 -22
  endloop
 endfacet
 facet normal -0.799453 0.0634638 0.597367
  outer loop
   vertex -17.8527 0 -22
   vertex -18 0 -22.1971
   vertex -18 -1.85506 -22
  endloop
 endfacet
 facet normal -0.735772 0.0715457 0.67344
  outer loop
   vertex -18 -1.85506 -22
   vertex -18 0 -22.1971
   vertex -18.0141 -2 -22
  endloop
 endfacet
 facet normal -0.873553 0.0849434 0.47926
  outer loop
   vertex -18 -1.85506 -22
   vertex -18.0141 -2 -22
   vertex -18 -2 -21.9743
  endloop
 endfacet
 facet normal -0.60813 0.720321 0.333641
  outer loop
   vertex -18 -2 -21.9743
   vertex -18.0141 -2 -22
   vertex -20 -4 -21.3018
  endloop
 endfacet
 facet normal -0.502379 0.681373 0.532303
  outer loop
   vertex -18 -2 -21.9743
   vertex -20 -4 -21.3018
   vertex -18.6207 -4 -20
  endloop
 endfacet
 facet normal -0.461498 0.74021 0.488987
  outer loop
   vertex -18.6207 -4 -20
   vertex -20 -4 -21.3018
   vertex -20 -4.85997 -20
  endloop
 endfacet
 facet normal -0.405995 0.651187 0.64119
  outer loop
   vertex -18.6207 -4 -20
   vertex -20 -4.85997 -20
   vertex -18 -4 -19.607
  endloop
 endfacet
 facet normal -0.403649 0.639935 0.653874
  outer loop
   vertex -18 -4 -19.607
   vertex -20 -4.85997 -20
   vertex -20 -6 -18.8843
  endloop
 endfacet
 facet normal -0.781817 0.0665983 0.61994
  outer loop
   vertex -18.0141 -2 -22
   vertex -18 0 -22.1971
   vertex -19.4296 0 -24
  endloop
 endfacet
 facet normal -0.665552 -0.527753 0.527748
  outer loop
   vertex -19.4296 0 -24
   vertex -18 0 -22.1971
   vertex -18 0.197079 -22
  endloop
 endfacet
 facet normal -0.622606 -0.598595 0.50403
  outer loop
   vertex -19.4296 0 -24
   vertex -18 0.197079 -22
   vertex -20 0.593258 -24
  endloop
 endfacet
 facet normal -0.550323 -0.729722 0.405772
  outer loop
   vertex -20 0.593258 -24
   vertex -18 0.197079 -22
   vertex -20 1.70539 -22
  endloop
 endfacet
 facet normal 0.859602 -0.061567 0.507241
  outer loop
   vertex -30 0 -23.1824
   vertex -30 -2 -23.4251
   vertex -29.5175 0 -24
  endloop
 endfacet
 facet normal 0.886839 -0.0832943 0.454509
  outer loop
   vertex -29.5175 0 -24
   vertex -30 -2 -23.4251
   vertex -29.7054 -2 -24
  endloop
 endfacet
 facet normal 0.903635 -0.0516071 0.425183
  outer loop
   vertex -30 -2 -23.4251
   vertex -30 0 -23.1824
   vertex -30.5563 0 -22
  endloop
 endfacet
 facet normal 0.855266 -0.326458 0.402425
  outer loop
   vertex -30.5563 0 -22
   vertex -30 0 -23.1824
   vertex -30 1.45753 -22
  endloop
 endfacet
 facet normal 0.877644 -0.335 0.342804
  outer loop
   vertex -30.5563 0 -22
   vertex -30 1.45753 -22
   vertex -30.5741 2 -20
  endloop
 endfacet
 facet normal 0.873597 -0.344113 0.344114
  outer loop
   vertex -30.5741 2 -20
   vertex -30 1.45753 -22
   vertex -30 2 -21.4575
  endloop
 endfacet
 facet normal 0.74315 -0.601695 0.292731
  outer loop
   vertex -30.5741 2 -20
   vertex -30 2 -21.4575
   vertex -30 2.70911 -20
  endloop
 endfacet
 facet normal 0.386161 -0.829475 0.403548
  outer loop
   vertex -30 2.70911 -20
   vertex -30 2 -21.4575
   vertex -28 2.66718 -22
  endloop
 endfacet
 facet normal 0.308635 -0.893075 0.327355
  outer loop
   vertex -30 2.70911 -20
   vertex -28 2.66718 -22
   vertex -28 3.40028 -20
  endloop
 endfacet
 facet normal 0.115132 -0.932669 0.341868
  outer loop
   vertex -28 3.40028 -20
   vertex -28 2.66718 -22
   vertex -26 2.91407 -22
  endloop
 endfacet
 facet normal 0 -0.971698 0.236225
  outer loop
   vertex -28 3.40028 -20
   vertex -26 2.91407 -22
   vertex -26 3.40028 -20
  endloop
 endfacet
 facet normal -0.68734 -0.513599 0.513594
  outer loop
   vertex -18 0 -22.1971
   vertex -17.8527 0 -22
   vertex -18 0.197079 -22
  endloop
 endfacet
 facet normal -0.716771 -0.535591 0.446523
  outer loop
   vertex -18 0.197079 -22
   vertex -17.8527 0 -22
   vertex -18 1.86448 -20
  endloop
 endfacet
 facet normal -0.501234 -0.66463 0.554104
  outer loop
   vertex -18 0.197079 -22
   vertex -18 1.86448 -20
   vertex -20 1.70539 -22
  endloop
 endfacet
 facet normal -0.403698 -0.787134 0.466313
  outer loop
   vertex -20 1.70539 -22
   vertex -18 1.86448 -20
   vertex -20 2 -21.5027
  endloop
 endfacet
 facet normal 0.455719 -0.742293 0.491244
  outer loop
   vertex -28 1.57887 -24
   vertex -27.3141 2 -24
   vertex -28 2 -23.3637
  endloop
 endfacet
 facet normal 0.378969 -0.830362 0.408512
  outer loop
   vertex -28 2 -23.3637
   vertex -27.3141 2 -24
   vertex -26 2.59972 -24
  endloop
 endfacet
 facet normal 0.378703 -0.831349 0.406746
  outer loop
   vertex -28 2 -23.3637
   vertex -26 2.59972 -24
   vertex -28 2.66718 -22
  endloop
 endfacet
 facet normal 0.12105 -0.980608 0.154127
  outer loop
   vertex -28 2.66718 -22
   vertex -26 2.59972 -24
   vertex -26 2.91407 -22
  endloop
 endfacet
 facet normal 0.439247 -0.749167 0.495793
  outer loop
   vertex -28 1.57887 -24
   vertex -28 2 -23.3637
   vertex -29.5392 2 -22
  endloop
 endfacet
 facet normal 0.362824 -0.837044 0.409532
  outer loop
   vertex -29.5392 2 -22
   vertex -28 2 -23.3637
   vertex -28 2.66718 -22
  endloop
 endfacet
 facet normal 0.376784 -0.869251 0.320057
  outer loop
   vertex -29.5392 2 -22
   vertex -28 2.66718 -22
   vertex -30 2 -21.4575
  endloop
 endfacet
 facet normal 0.590428 -0.567492 0.573889
  outer loop
   vertex -28 1.57887 -24
   vertex -29.5392 2 -22
   vertex -29.5175 0 -24
  endloop
 endfacet
 facet normal 0.637366 -0.541405 0.548311
  outer loop
   vertex -29.5175 0 -24
   vertex -29.5392 2 -22
   vertex -30 1.45753 -22
  endloop
 endfacet
 facet normal 0.796224 -0.38115 0.469843
  outer loop
   vertex -29.5175 0 -24
   vertex -30 1.45753 -22
   vertex -30 0 -23.1824
  endloop
 endfacet
 facet normal -0.409894 -0.872632 0.265517
  outer loop
   vertex -21.7928 2 -24
   vertex -20.4973 2 -22
   vertex -22 2.70585 -22
  endloop
 endfacet
 facet normal -0.391261 -0.832964 0.391261
  outer loop
   vertex -22 2.70585 -22
   vertex -20.4973 2 -22
   vertex -20 2.70585 -20
  endloop
 endfacet
 facet normal -0.143994 -0.979046 0.143994
  outer loop
   vertex -22 2.70585 -22
   vertex -20 2.70585 -20
   vertex -22 3 -20
  endloop
 endfacet
 facet normal -0.144837 -0.984782 0.0960518
  outer loop
   vertex -22 3 -20
   vertex -20 2.70585 -20
   vertex -22 3.19507 -18
  endloop
 endfacet
 facet normal -0.0403443 0.955721 0.291496
  outer loop
   vertex -22 -4.70585 -22
   vertex -24 -5.40028 -20
   vertex -22 -5.31585 -20
  endloop
 endfacet
 facet normal -0.0332132 0.786791 0.616325
  outer loop
   vertex -22 -5.31585 -20
   vertex -24 -5.40028 -20
   vertex -22 -6 -19.1266
  endloop
 endfacet
 facet normal -0.834686 0.449212 0.318603
  outer loop
   vertex -17.2464 -2 -20
   vertex -18 -2 -21.9743
   vertex -18 -3.40028 -20
  endloop
 endfacet
 facet normal -0.618997 0.640623 0.454362
  outer loop
   vertex -18 -3.40028 -20
   vertex -18 -2 -21.9743
   vertex -18.6207 -4 -20
  endloop
 endfacet
 facet normal -0.468021 0.484372 0.739148
  outer loop
   vertex -18 -3.40028 -20
   vertex -18.6207 -4 -20
   vertex -18 -4 -19.607
  endloop
 endfacet
 facet normal -0.555679 0.705389 0.440055
  outer loop
   vertex -20 -4 -21.3018
   vertex -18.0141 -2 -22
   vertex -20 -3.56442 -22
  endloop
 endfacet
 facet normal 0.827795 0.539425 0.154198
  outer loop
   vertex -29.8645 -4 -22
   vertex -30 -3.79203 -22
   vertex -30 -4 -21.2725
  endloop
 endfacet
 facet normal 0.944427 0.316061 0.0903481
  outer loop
   vertex -30 -4 -21.2725
   vertex -30 -3.79203 -22
   vertex -30.5997 -2 -22
  endloop
 endfacet
 facet normal -0.932393 0.0630789 0.355898
  outer loop
   vertex -18 -2 -21.9743
   vertex -17.2464 -2 -20
   vertex -18 -1.85506 -22
  endloop
 endfacet
 facet normal -0.931432 0.0739409 0.356323
  outer loop
   vertex -18 -1.85506 -22
   vertex -17.2464 -2 -20
   vertex -17.8527 0 -22
  endloop
 endfacet
 facet normal -0.936617 0.0610431 0.344997
  outer loop
   vertex -17.8527 0 -22
   vertex -17.2464 -2 -20
   vertex -17.116 0 -20
  endloop
 endfacet
 facet normal -0.91353 0.0595385 0.402391
  outer loop
   vertex -17.116 0 -20
   vertex -17.2464 -2 -20
   vertex -16.3654 -2 -18
  endloop
 endfacet
 facet normal -0.857352 -0.40647 0.315801
  outer loop
   vertex -17.8527 0 -22
   vertex -17.116 0 -20
   vertex -18 1.86448 -20
  endloop
 endfacet
 facet normal -0.875763 -0.415199 0.246268
  outer loop
   vertex -18 1.86448 -20
   vertex -17.116 0 -20
   vertex -18 2 -19.7715
  endloop
 endfacet
 facet normal -0.556822 -0.714417 0.423743
  outer loop
   vertex -18 1.86448 -20
   vertex -18 2 -19.7715
   vertex -18.1739 2 -20
  endloop
 endfacet
 facet normal -0.492488 -0.631875 0.598489
  outer loop
   vertex -20 2 -21.5027
   vertex -18 1.86448 -20
   vertex -18.1739 2 -20
  endloop
 endfacet
 facet normal 0.639777 -0.543453 0.543455
  outer loop
   vertex -30 1.45753 -22
   vertex -29.5392 2 -22
   vertex -30 2 -21.4575
  endloop
 endfacet
 facet normal -0.357091 0.672501 0.64825
  outer loop
   vertex -17.2377 -6 -18
   vertex -18 -6 -18.4199
   vertex -18 -6.40476 -18
  endloop
 endfacet
 facet normal -0.15939 0.710765 0.685133
  outer loop
   vertex -18 -6.40476 -18
   vertex -18 -6 -18.4199
   vertex -20 -6.85326 -18
  endloop
 endfacet
 facet normal -0.1986 0.885611 0.419822
  outer loop
   vertex -18 -6.40476 -18
   vertex -20 -6.85326 -18
   vertex -20 -7.80136 -16
  endloop
 endfacet
 facet normal -0.00337626 0.786883 0.617094
  outer loop
   vertex -24 -6.89211 -18
   vertex -22 -6 -19.1266
   vertex -24 -6 -19.1376
  endloop
 endfacet
 facet normal -0.0031236 0.821004 0.570914
  outer loop
   vertex -24 -6 -19.1376
   vertex -22 -6 -19.1266
   vertex -24 -5.40028 -20
  endloop
 endfacet
 facet normal 0.0815503 0.784266 0.615042
  outer loop
   vertex -24 -6 -19.1376
   vertex -26 -6.68415 -18
   vertex -24 -6.89211 -18
  endloop
 endfacet
 facet normal 0.0989713 0.951803 0.290301
  outer loop
   vertex -24 -6.89211 -18
   vertex -26 -6.68415 -18
   vertex -26 -7.29415 -16
  endloop
 endfacet
 facet normal 0.355821 0.781254 0.512868
  outer loop
   vertex -24 -6.89211 -18
   vertex -26 -7.29415 -16
   vertex -24 -8 -16.3123
  endloop
 endfacet
 facet normal 0.358624 0.813738 0.457405
  outer loop
   vertex -24 -8 -16.3123
   vertex -26 -7.29415 -16
   vertex -24.3984 -8 -16
  endloop
 endfacet
 facet normal 0.722386 0.674907 -0.150528
  outer loop
   vertex -29.7327 -4 -18
   vertex -30 -4.15996 -20
   vertex -30 -4 -19.2828
  endloop
 endfacet
 facet normal 0.727453 0.669702 -0.149368
  outer loop
   vertex -30 -4 -19.2828
   vertex -30 -4.15996 -20
   vertex -30.1473 -4 -20
  endloop
 endfacet
 facet normal 0.911916 0.365169 -0.187243
  outer loop
   vertex -30 -4 -19.2828
   vertex -30.1473 -4 -20
   vertex -30 -3.34224 -18
  endloop
 endfacet
 facet normal 0.930686 0.321623 -0.174304
  outer loop
   vertex -30 -3.34224 -18
   vertex -30.1473 -4 -20
   vertex -30.4638 -2 -18
  endloop
 endfacet
 facet normal 0.856029 0.295823 -0.423914
  outer loop
   vertex -30 -3.34224 -18
   vertex -30.4638 -2 -18
   vertex -30 -2 -17.0633
  endloop
 endfacet
 facet normal 0.895871 -0.0243896 -0.443644
  outer loop
   vertex -30 -2 -17.0633
   vertex -30.4638 -2 -18
   vertex -30 0 -17.1733
  endloop
 endfacet
 facet normal 0.853754 -0.0285813 -0.519891
  outer loop
   vertex -30 -2 -17.0633
   vertex -30 0 -17.1733
   vertex -29.3525 -2 -16
  endloop
 endfacet
 facet normal 0.710771 -0.17027 -0.682505
  outer loop
   vertex -29.3525 -2 -16
   vertex -30 0 -17.1733
   vertex -28.8734 0 -16
  endloop
 endfacet
 facet normal 0.621718 -0.148936 -0.76895
  outer loop
   vertex -29.3525 -2 -16
   vertex -28.8734 0 -16
   vertex -28 0 -15.2939
  endloop
 endfacet
 facet normal 0.617127 -0.191237 -0.763271
  outer loop
   vertex -28 0 -15.2939
   vertex -28.8734 0 -16
   vertex -28 2 -15.795
  endloop
 endfacet
 facet normal 0.48421 -0.212645 -0.848718
  outer loop
   vertex -28 0 -15.2939
   vertex -28 2 -15.795
   vertex -26 0 -14.1528
  endloop
 endfacet
 facet normal -0.560636 0.453867 0.692598
  outer loop
   vertex -18 -4 -19.607
   vertex -16.0147 -4 -18
   vertex -18 -3.40028 -20
  endloop
 endfacet
 facet normal -0.617641 0.332402 0.712761
  outer loop
   vertex -18 -3.40028 -20
   vertex -16.0147 -4 -18
   vertex -17.2464 -2 -20
  endloop
 endfacet
 facet normal -0.903594 -0.15844 0.398014
  outer loop
   vertex -17.2464 -2 -20
   vertex -16.0147 -4 -18
   vertex -16.3654 -2 -18
  endloop
 endfacet
 facet normal -0.844536 -0.148085 0.514617
  outer loop
   vertex -16.3654 -2 -18
   vertex -16.0147 -4 -18
   vertex -16 -2 -17.4003
  endloop
 endfacet
 facet normal 0.909629 0.369659 -0.189545
  outer loop
   vertex -30 -4 -19.2828
   vertex -30 -3.34224 -18
   vertex -29.7327 -4 -18
  endloop
 endfacet
 facet normal 0.815335 0.33134 -0.474809
  outer loop
   vertex -29.7327 -4 -18
   vertex -30 -3.34224 -18
   vertex -30 -2 -17.0633
  endloop
 endfacet
 facet normal 0.804194 0.33683 -0.489712
  outer loop
   vertex -29.7327 -4 -18
   vertex -30 -2 -17.0633
   vertex -29.3525 -2 -16
  endloop
 endfacet
 facet normal 0.913757 0.350338 -0.205698
  outer loop
   vertex -30.1473 -4 -20
   vertex -30.9141 -2 -20
   vertex -30.4638 -2 -18
  endloop
 endfacet
 facet normal 0.97473 0.0418792 -0.219424
  outer loop
   vertex -30.4638 -2 -18
   vertex -30.9141 -2 -20
   vertex -31 0 -20
  endloop
 endfacet
 facet normal 0.978386 0.0664694 -0.195814
  outer loop
   vertex -30.4638 -2 -18
   vertex -31 0 -20
   vertex -30.5997 0 -18
  endloop
 endfacet
 facet normal -0.206143 -0.968107 0.142385
  outer loop
   vertex -20 2.70585 -20
   vertex -18 2.57413 -18
   vertex -20 3 -18
  endloop
 endfacet
 facet normal -0.204386 -0.959855 -0.192105
  outer loop
   vertex -20 3 -18
   vertex -18 2.57413 -18
   vertex -20 2.59972 -16
  endloop
 endfacet
 facet normal -0.0413572 -0.979715 -0.19608
  outer loop
   vertex -20 3 -18
   vertex -20 2.59972 -16
   vertex -22 2.68415 -16
  endloop
 endfacet
 facet normal -0.0361785 -0.857037 -0.513982
  outer loop
   vertex -22 2.68415 -16
   vertex -20 2.59972 -16
   vertex -20 2 -15
  endloop
 endfacet
 facet normal -0.0960518 -0.984782 0.144837
  outer loop
   vertex -20 2.70585 -20
   vertex -20 3 -18
   vertex -22 3.19507 -18
  endloop
 endfacet
 facet normal -0.094082 -0.964587 -0.246416
  outer loop
   vertex -22 3.19507 -18
   vertex -20 3 -18
   vertex -22 2.68415 -16
  endloop
 endfacet
 facet normal -0.147926 -0.930326 0.335577
  outer loop
   vertex -25.6471 4 -18
   vertex -26 4 -18.1555
   vertex -24 3.7381 -18
  endloop
 endfacet
 facet normal -0.146969 -0.940666 0.305856
  outer loop
   vertex -24 3.7381 -18
   vertex -26 4 -18.1555
   vertex -26 3.40028 -20
  endloop
 endfacet
 facet normal 0.0285594 -0.950605 0.309087
  outer loop
   vertex -26 4 -18.1555
   vertex -27.6834 4 -18
   vertex -26 3.40028 -20
  endloop
 endfacet
 facet normal 0.0375743 -0.948046 0.315908
  outer loop
   vertex -26 3.40028 -20
   vertex -27.6834 4 -18
   vertex -28 3.98745 -18
  endloop
 endfacet
 facet normal 0 -0.959503 0.281697
  outer loop
   vertex -26 3.40028 -20
   vertex -28 3.98745 -18
   vertex -28 3.40028 -20
  endloop
 endfacet
 facet normal 0.519449 -0.819897 0.240711
  outer loop
   vertex -28 3.40028 -20
   vertex -28 3.98745 -18
   vertex -30 2.72034 -18
  endloop
 endfacet
 facet normal 0.326627 -0.945138 0.00531078
  outer loop
   vertex -28 3.40028 -20
   vertex -30 2.72034 -18
   vertex -30 2.70911 -20
  endloop
 endfacet
 facet normal 0.881859 -0.471506 0.00264942
  outer loop
   vertex -30 2.70911 -20
   vertex -30 2.72034 -18
   vertex -30.3851 2 -18
  endloop
 endfacet
 facet normal 0.775108 -0.627569 -0.0732407
  outer loop
   vertex -30 2.70911 -20
   vertex -30.3851 2 -18
   vertex -30.5741 2 -20
  endloop
 endfacet
 facet normal -0.155398 -0.922809 0.352526
  outer loop
   vertex -26 4 -18.1555
   vertex -25.6471 4 -18
   vertex -26 4.05942 -18
  endloop
 endfacet
 facet normal -0.147188 -0.874057 -0.462991
  outer loop
   vertex -26 4.05942 -18
   vertex -25.6471 4 -18
   vertex -26 4 -17.8878
  endloop
 endfacet
 facet normal 0.0311768 -0.883252 -0.467862
  outer loop
   vertex -26 4.05942 -18
   vertex -26 4 -17.8878
   vertex -27.6834 4 -18
  endloop
 endfacet
 facet normal 0.034044 -0.858972 -0.510889
  outer loop
   vertex -27.6834 4 -18
   vertex -26 4 -17.8878
   vertex -28 3.98745 -18
  endloop
 endfacet
 facet normal 0.0329558 -0.93365 0.356667
  outer loop
   vertex -27.6834 4 -18
   vertex -26 4 -18.1555
   vertex -26 4.05942 -18
  endloop
 endfacet
 facet normal -0.26159 0.796593 0.544987
  outer loop
   vertex -20.5208 -8 -16
   vertex -22 -8 -16.71
   vertex -22 -8.48576 -16
  endloop
 endfacet
 facet normal 0.115071 0.819849 0.560898
  outer loop
   vertex -22 -8.48576 -16
   vertex -22 -8 -16.71
   vertex -24 -8.20505 -16
  endloop
 endfacet
 facet normal 0.134908 0.961183 0.240682
  outer loop
   vertex -22 -8.48576 -16
   vertex -24 -8.20505 -16
   vertex -24 -8.70585 -14
  endloop
 endfacet
 facet normal -0.617752 0.782409 0.0788598
  outer loop
   vertex -17.232 -6 -16
   vertex -18 -6.40476 -18
   vertex -18 -6.60634 -16
  endloop
 endfacet
 facet normal -0.511013 0.85524 0.0862005
  outer loop
   vertex -18 -6.60634 -16
   vertex -18 -6.40476 -18
   vertex -20 -7.80136 -16
  endloop
 endfacet
 facet normal -0.504602 0.844511 -0.179384
  outer loop
   vertex -18 -6.60634 -16
   vertex -20 -7.80136 -16
   vertex -20 -7.37653 -14
  endloop
 endfacet
 facet normal -0.598377 0.783729 -0.166473
  outer loop
   vertex -20 -7.37653 -14
   vertex -20 -7.80136 -16
   vertex -20.8166 -8 -14
  endloop
 endfacet
 facet normal -0.564744 0.739679 -0.365978
  outer loop
   vertex -20 -7.37653 -14
   vertex -20.8166 -8 -14
   vertex -22 -8 -12.1739
  endloop
 endfacet
 facet normal -0.486168 0.815095 -0.315057
  outer loop
   vertex -22 -8 -12.1739
   vertex -20.8166 -8 -14
   vertex -22 -8.70585 -14
  endloop
 endfacet
 facet normal -0.128035 0.92507 -0.357566
  outer loop
   vertex -22 -8 -12.1739
   vertex -22 -8.70585 -14
   vertex -22.4856 -8 -12
  endloop
 endfacet
 facet normal -0.157002 0.91872 -0.362358
  outer loop
   vertex -22.4856 -8 -12
   vertex -22 -8.70585 -14
   vertex -24 -8.2588 -12
  endloop
 endfacet
 facet normal -0.122102 0.714496 -0.688902
  outer loop
   vertex -22.4856 -8 -12
   vertex -24 -8.2588 -12
   vertex -24 -8 -11.7316
  endloop
 endfacet
 facet normal 0.122102 0.714496 -0.688902
  outer loop
   vertex -24 -8 -11.7316
   vertex -24 -8.2588 -12
   vertex -25.5144 -8 -12
  endloop
 endfacet
 facet normal 0.156719 0.44 -0.884217
  outer loop
   vertex -24 -8 -11.7316
   vertex -25.5144 -8 -12
   vertex -26 -6 -11.0908
  endloop
 endfacet
 facet normal -0.468976 0.88321 0.00133325
  outer loop
   vertex -17.2377 -6 -18
   vertex -18 -6.40476 -18
   vertex -17.232 -6 -16
  endloop
 endfacet
 facet normal -0.282132 0.758229 0.587784
  outer loop
   vertex -20.5208 -8 -16
   vertex -22 -7 -18
   vertex -22 -8 -16.71
  endloop
 endfacet
 facet normal 0.287213 0.916199 0.279442
  outer loop
   vertex -26 -6.68415 -18
   vertex -28 -6.66718 -16
   vertex -26 -7.29415 -16
  endloop
 endfacet
 facet normal 0.894181 0.436266 0.100558
  outer loop
   vertex -28.9818 -6 -16
   vertex -29.7327 -4 -18
   vertex -29.9576 -4 -16
  endloop
 endfacet
 facet normal 0.951651 -0.287935 0.107021
  outer loop
   vertex -29.9576 -4 -16
   vertex -29.7327 -4 -18
   vertex -29.3525 -2 -16
  endloop
 endfacet
 facet normal 0.954501 -0.288797 -0.0743246
  outer loop
   vertex -29.9576 -4 -16
   vertex -29.3525 -2 -16
   vertex -29.8019 -4 -14
  endloop
 endfacet
 facet normal 0.612637 -0.623446 -0.485789
  outer loop
   vertex -29.8019 -4 -14
   vertex -29.3525 -2 -16
   vertex -28 -2 -14.2944
  endloop
 endfacet
 facet normal -0.986787 -0.0413026 0.15667
  outer loop
   vertex -15.694 -4 -16
   vertex -16 -2 -17.4003
   vertex -16 -4 -17.9275
  endloop
 endfacet
 facet normal -0.978557 -0.0525074 0.199173
  outer loop
   vertex -16 -4 -17.9275
   vertex -16 -2 -17.4003
   vertex -16.0147 -4 -18
  endloop
 endfacet
 facet normal -0.688625 0.0778382 0.720927
  outer loop
   vertex -14.9753 -2 -16
   vertex -14.7492 0 -16
   vertex -16 0 -17.1947
  endloop
 endfacet
 facet normal -0.578236 -0.546975 0.60536
  outer loop
   vertex -16 0 -17.1947
   vertex -14.7492 0 -16
   vertex -16 1.32226 -16
  endloop
 endfacet
 facet normal -0.766032 -0.430947 0.476948
  outer loop
   vertex -16 0 -17.1947
   vertex -16 1.32226 -16
   vertex -16.5014 0 -18
  endloop
 endfacet
 facet normal -0.485921 -0.668087 0.563507
  outer loop
   vertex -16.5014 0 -18
   vertex -16 1.32226 -16
   vertex -16.9318 2 -16
  endloop
 endfacet
 facet normal -0.923808 -0.351218 0.152396
  outer loop
   vertex -16.5014 0 -18
   vertex -16.9318 2 -16
   vertex -17.2617 2 -18
  endloop
 endfacet
 facet normal -0.377963 -0.923719 0.0623505
  outer loop
   vertex -17.2617 2 -18
   vertex -16.9318 2 -16
   vertex -18 2.43707 -16
  endloop
 endfacet
 facet normal -0.613002 -0.788233 -0.0540169
  outer loop
   vertex -17.2617 2 -18
   vertex -18 2.43707 -16
   vertex -18 2.57413 -18
  endloop
 endfacet
 facet normal -0.0808676 -0.994393 -0.0681449
  outer loop
   vertex -18 2.57413 -18
   vertex -18 2.43707 -16
   vertex -20 2.59972 -16
  endloop
 endfacet
 facet normal 0.808225 0.054909 -0.586309
  outer loop
   vertex -30.4638 -2 -18
   vertex -30.5997 0 -18
   vertex -30 0 -17.1733
  endloop
 endfacet
 facet normal 0.806257 -0.0886725 -0.584882
  outer loop
   vertex -30 0 -17.1733
   vertex -30.5997 0 -18
   vertex -30 2 -17.4765
  endloop
 endfacet
 facet normal 0.71736 -0.104432 -0.688832
  outer loop
   vertex -30 0 -17.1733
   vertex -30 2 -17.4765
   vertex -28.8734 0 -16
  endloop
 endfacet
 facet normal 0.647504 -0.181632 -0.7401
  outer loop
   vertex -28.8734 0 -16
   vertex -30 2 -17.4765
   vertex -28.3123 2 -16
  endloop
 endfacet
 facet normal 0.542395 -0.152148 -0.826231
  outer loop
   vertex -28.8734 0 -16
   vertex -28.3123 2 -16
   vertex -28 2 -15.795
  endloop
 endfacet
 facet normal -0.160796 -0.847534 -0.505798
  outer loop
   vertex -26 4 -17.8878
   vertex -25.6471 4 -18
   vertex -26 2.87337 -16
  endloop
 endfacet
 facet normal -0.1356 -0.852803 -0.504321
  outer loop
   vertex -26 2.87337 -16
   vertex -25.6471 4 -18
   vertex -24 3.7381 -18
  endloop
 endfacet
 facet normal -0.00919538 -0.914459 -0.404574
  outer loop
   vertex -26 2.87337 -16
   vertex -24 3.7381 -18
   vertex -24 2.85326 -16
  endloop
 endfacet
 facet normal 0.034111 -0.858208 -0.512168
  outer loop
   vertex -26 4 -17.8878
   vertex -26 2.87337 -16
   vertex -28 3.98745 -18
  endloop
 endfacet
 facet normal 0.210241 -0.749494 -0.62774
  outer loop
   vertex -28 3.98745 -18
   vertex -26 2.87337 -16
   vertex -28 2.31235 -16
  endloop
 endfacet
 facet normal 0.436894 -0.689592 -0.577569
  outer loop
   vertex -28 3.98745 -18
   vertex -28 2.31235 -16
   vertex -30 2.72034 -18
  endloop
 endfacet
 facet normal 0.56762 0.807393 0.16101
  outer loop
   vertex -28.9818 -6 -16
   vertex -29.5491 -6 -14
   vertex -28 -7.08909 -14
  endloop
 endfacet
 facet normal 0.568692 0.808917 -0.149141
  outer loop
   vertex -28 -7.08909 -14
   vertex -29.5491 -6 -14
   vertex -28 -6.72035 -12
  endloop
 endfacet
 facet normal 0.327894 0.929056 -0.171291
  outer loop
   vertex -28 -7.08909 -14
   vertex -28 -6.72035 -12
   vertex -26 -7.79495 -14
  endloop
 endfacet
 facet normal 0.496331 0.867609 0.0301618
  outer loop
   vertex -26 -7.79495 -14
   vertex -28 -6.72035 -12
   vertex -26 -7.86448 -12
  endloop
 endfacet
 facet normal 0.45742 0.888714 0.0308955
  outer loop
   vertex -26 -7.79495 -14
   vertex -26 -7.86448 -12
   vertex -25.6016 -8 -14
  endloop
 endfacet
 facet normal -0.775081 0.517324 -0.362802
  outer loop
   vertex -16 -4 -15.332
   vertex -16 -4.4685 -16
   vertex -16.6235 -4 -14
  endloop
 endfacet
 facet normal -0.725982 0.584031 -0.363122
  outer loop
   vertex -16.6235 -4 -14
   vertex -16 -4.4685 -16
   vertex -17.232 -6 -16
  endloop
 endfacet
 facet normal -0.648269 0.648269 -0.399368
  outer loop
   vertex -18 -6 -14.9259
   vertex -18.5704 -6 -14
   vertex -18 -5.42962 -14
  endloop
 endfacet
 facet normal -0.647464 0.647464 -0.401972
  outer loop
   vertex -18 -5.42962 -14
   vertex -18.5704 -6 -14
   vertex -19.8121 -6 -12
  endloop
 endfacet
 facet normal -0.647464 0.647464 -0.401972
  outer loop
   vertex -18 -5.42962 -14
   vertex -19.8121 -6 -12
   vertex -18 -4.18794 -12
  endloop
 endfacet
 facet normal -0.533572 0.533572 -0.656203
  outer loop
   vertex -18 -4.18794 -12
   vertex -19.8121 -6 -12
   vertex -20 -6 -11.8472
  endloop
 endfacet
 facet normal -0.533572 0.533572 -0.656203
  outer loop
   vertex -18 -4.18794 -12
   vertex -20 -6 -11.8472
   vertex -18 -4 -11.8472
  endloop
 endfacet
 facet normal -0.324737 0.324737 -0.888308
  outer loop
   vertex -18 -4 -11.8472
   vertex -20 -6 -11.8472
   vertex -20 -4 -11.116
  endloop
 endfacet
 facet normal -0.342836 0.0544159 -0.937818
  outer loop
   vertex -18 -4 -11.8472
   vertex -20 -4 -11.116
   vertex -20 -2 -11
  endloop
 endfacet
 facet normal 0 0.0579265 -0.998321
  outer loop
   vertex -20 -2 -11
   vertex -20 -4 -11.116
   vertex -22 -2 -11
  endloop
 endfacet
 facet normal 0 -0.288058 -0.957613
  outer loop
   vertex -20 -2 -11
   vertex -22 -2 -11
   vertex -22 0 -11.6016
  endloop
 endfacet
 facet normal 0.0554789 -0.287614 -0.956138
  outer loop
   vertex -22 0 -11.6016
   vertex -22 -2 -11
   vertex -24 -2 -11.116
  endloop
 endfacet
 facet normal 0.204594 -0.419332 -0.884478
  outer loop
   vertex -22 0 -11.6016
   vertex -24 -2 -11.116
   vertex -24 -0.135517 -12
  endloop
 endfacet
 facet normal 0.337978 -0.403184 -0.850419
  outer loop
   vertex -24 -0.135517 -12
   vertex -24 -2 -11.116
   vertex -26 -1.81206 -12
  endloop
 endfacet
 facet normal 0.545421 -0.650649 -0.528367
  outer loop
   vertex -24 -0.135517 -12
   vertex -26 -1.81206 -12
   vertex -26 -0.187939 -14
  endloop
 endfacet
 facet normal 0.870882 0.424899 0.247033
  outer loop
   vertex -28.9818 -6 -16
   vertex -29.9576 -4 -16
   vertex -29.5491 -6 -14
  endloop
 endfacet
 facet normal 0.989162 0.125 -0.0770236
  outer loop
   vertex -29.5491 -6 -14
   vertex -29.9576 -4 -16
   vertex -29.8019 -4 -14
  endloop
 endfacet
 facet normal 0.880219 0.111233 -0.461348
  outer loop
   vertex -29.5491 -6 -14
   vertex -29.8019 -4 -14
   vertex -28.5009 -6 -12
  endloop
 endfacet
 facet normal -0.758793 0.54597 -0.355178
  outer loop
   vertex -16 -4 -15.332
   vertex -16.6235 -4 -14
   vertex -16 -3.1335 -14
  endloop
 endfacet
 facet normal -0.703516 0.506197 -0.498829
  outer loop
   vertex -16 -3.1335 -14
   vertex -16.6235 -4 -14
   vertex -16.6025 -2 -12
  endloop
 endfacet
 facet normal -0.985156 0.111356 -0.130641
  outer loop
   vertex -14.9753 -2 -16
   vertex -15.2405 -2 -14
   vertex -14.7492 0 -16
  endloop
 endfacet
 facet normal -0.940625 -0.0948639 -0.325923
  outer loop
   vertex -14.7492 0 -16
   vertex -15.2405 -2 -14
   vertex -15.4422 0 -14
  endloop
 endfacet
 facet normal -0.672797 -0.702139 -0.233121
  outer loop
   vertex -14.7492 0 -16
   vertex -15.4422 0 -14
   vertex -16 0.53447 -14
  endloop
 endfacet
 facet normal -0.583149 -0.608582 -0.538112
  outer loop
   vertex -16 0.53447 -14
   vertex -15.4422 0 -14
   vertex -16 0 -13.3955
  endloop
 endfacet
 facet normal -0.440876 -0.672412 -0.594551
  outer loop
   vertex -16 0.53447 -14
   vertex -16 0 -13.3955
   vertex -18 0.0773849 -12
  endloop
 endfacet
 facet normal -0.421979 -0.708654 -0.565458
  outer loop
   vertex -18 0.0773849 -12
   vertex -16 0 -13.3955
   vertex -17.87 0 -12
  endloop
 endfacet
 facet normal -0.388063 -0.651697 -0.651689
  outer loop
   vertex -18 0.0773849 -12
   vertex -17.87 0 -12
   vertex -18 0 -11.9226
  endloop
 endfacet
 facet normal 0.454566 -0.398178 -0.796758
  outer loop
   vertex -26 0 -14.1528
   vertex -28 -2 -14.2944
   vertex -28 0 -15.2939
  endloop
 endfacet
 facet normal 0.748314 -0.296537 -0.593374
  outer loop
   vertex -28 0 -15.2939
   vertex -28 -2 -14.2944
   vertex -29.3525 -2 -16
  endloop
 endfacet
 facet normal -0.701237 -0.663325 -0.26128
  outer loop
   vertex -14.7492 0 -16
   vertex -16 0.53447 -14
   vertex -16 1.32226 -16
  endloop
 endfacet
 facet normal -0.341637 -0.874441 -0.344437
  outer loop
   vertex -16 1.32226 -16
   vertex -16 0.53447 -14
   vertex -18 1.31585 -14
  endloop
 endfacet
 facet normal -0.506425 -0.696278 -0.508655
  outer loop
   vertex -16 1.32226 -16
   vertex -18 1.31585 -14
   vertex -16.9318 2 -16
  endloop
 endfacet
 facet normal -0.327654 -0.826517 -0.457726
  outer loop
   vertex -16.9318 2 -16
   vertex -18 1.31585 -14
   vertex -18 2 -15.2354
  endloop
 endfacet
 facet normal -0.334742 -0.81809 -0.467628
  outer loop
   vertex -16.9318 2 -16
   vertex -18 2 -15.2354
   vertex -18 2.43707 -16
  endloop
 endfacet
 facet normal -0.0704279 -0.86602 -0.495025
  outer loop
   vertex -18 2.43707 -16
   vertex -18 2 -15.2354
   vertex -20 2.59972 -16
  endloop
 endfacet
 facet normal -0.0604158 -0.856032 -0.51338
  outer loop
   vertex -20 2 -15
   vertex -18 2 -15.2354
   vertex -20 1.40028 -14
  endloop
 endfacet
 facet normal -0.0369035 -0.874212 -0.48414
  outer loop
   vertex -20 1.40028 -14
   vertex -18 2 -15.2354
   vertex -18 1.31585 -14
  endloop
 endfacet
 facet normal -0.0377157 -0.893452 -0.447573
  outer loop
   vertex -20 1.40028 -14
   vertex -18 1.31585 -14
   vertex -20 0.398384 -12
  endloop
 endfacet
 facet normal -0.135203 -0.842388 -0.521635
  outer loop
   vertex -20 0.398384 -12
   vertex -18 1.31585 -14
   vertex -18 0.0773849 -12
  endloop
 endfacet
 facet normal -0.112767 -0.702601 -0.702592
  outer loop
   vertex -20 0.398384 -12
   vertex -18 0.0773849 -12
   vertex -18 0 -11.9226
  endloop
 endfacet
 facet normal 0.0283786 -0.758543 -0.651005
  outer loop
   vertex -24 2 -15.0395
   vertex -22 2 -14.9523
   vertex -24 1.10789 -14
  endloop
 endfacet
 facet normal 0.122773 -0.83978 -0.528863
  outer loop
   vertex -24 1.10789 -14
   vertex -22 2 -14.9523
   vertex -22 1.40028 -14
  endloop
 endfacet
 facet normal 0.12961 -0.886546 -0.444114
  outer loop
   vertex -24 1.10789 -14
   vertex -22 1.40028 -14
   vertex -22 0.398384 -12
  endloop
 endfacet
 facet normal -0.0604158 -0.856032 -0.51338
  outer loop
   vertex -20 2 -15
   vertex -20 2.59972 -16
   vertex -18 2 -15.2354
  endloop
 endfacet
 facet normal 0.0289386 -0.747304 -0.663852
  outer loop
   vertex -22 2 -14.9523
   vertex -24 2 -15.0395
   vertex -24 2.85326 -16
  endloop
 endfacet
 facet normal -0.00751748 -0.747596 -0.664112
  outer loop
   vertex -24 2.85326 -16
   vertex -24 2 -15.0395
   vertex -26 2.87337 -16
  endloop
 endfacet
 facet normal 0.0984243 -0.625678 -0.773848
  outer loop
   vertex -24 2 -15.0395
   vertex -26 2 -15.2939
   vertex -26 2.87337 -16
  endloop
 endfacet
 facet normal 0.173685 -0.619175 -0.765804
  outer loop
   vertex -26 2.87337 -16
   vertex -26 2 -15.2939
   vertex -28 2.31235 -16
  endloop
 endfacet
 facet normal -0.628093 0.613738 -0.478356
  outer loop
   vertex -20 -7.37653 -14
   vertex -22 -8 -12.1739
   vertex -22 -7.86448 -12
  endloop
 endfacet
 facet normal -0.214977 0.770285 -0.600371
  outer loop
   vertex -22 -7.86448 -12
   vertex -22 -8 -12.1739
   vertex -22.4856 -8 -12
  endloop
 endfacet
 facet normal -0.147972 0.530198 -0.834862
  outer loop
   vertex -22 -7.86448 -12
   vertex -22.4856 -8 -12
   vertex -24 -8 -11.7316
  endloop
 endfacet
 facet normal -0.584635 0.69743 -0.41448
  outer loop
   vertex -20 -7.37653 -14
   vertex -22 -7.86448 -12
   vertex -20 -6.18794 -12
  endloop
 endfacet
 facet normal -0.337978 0.403185 -0.850419
  outer loop
   vertex -20 -6.18794 -12
   vertex -22 -7.86448 -12
   vertex -22 -6 -11.116
  endloop
 endfacet
 facet normal 0.754165 0.524394 -0.39528
  outer loop
   vertex -29.5491 -6 -14
   vertex -28.5009 -6 -12
   vertex -28 -6.72035 -12
  endloop
 endfacet
 facet normal 0.571267 0.39722 -0.718241
  outer loop
   vertex -28 -6.72035 -12
   vertex -28.5009 -6 -12
   vertex -28 -6 -11.6016
  endloop
 endfacet
 facet normal 0.266822 0.466418 -0.843363
  outer loop
   vertex -28 -6.72035 -12
   vertex -28 -6 -11.6016
   vertex -26 -7.86448 -12
  endloop
 endfacet
 facet normal -0.647464 0.647464 -0.401972
  outer loop
   vertex -18 -5.42962 -14
   vertex -18 -4.18794 -12
   vertex -17.8121 -4 -12
  endloop
 endfacet
 facet normal -0.533572 0.533572 -0.656203
  outer loop
   vertex -17.8121 -4 -12
   vertex -18 -4.18794 -12
   vertex -18 -4 -11.8472
  endloop
 endfacet
 facet normal 0.619713 -0.619712 -0.481573
  outer loop
   vertex -28 -3.80292 -12
   vertex -28 -2.24874 -14
   vertex -26.1971 -2 -12
  endloop
 endfacet
 facet normal 0.602809 -0.650128 -0.462552
  outer loop
   vertex -26.1971 -2 -12
   vertex -28 -2.24874 -14
   vertex -27.7317 -2 -14
  endloop
 endfacet
 facet normal 0.637764 -0.608186 -0.472617
  outer loop
   vertex -28 -2.24874 -14
   vertex -28 -3.80292 -12
   vertex -28.1879 -4 -12
  endloop
 endfacet
 facet normal 0.531635 -0.506979 -0.678481
  outer loop
   vertex -28.1879 -4 -12
   vertex -28 -3.80292 -12
   vertex -28 -4 -11.8527
  endloop
 endfacet
 facet normal -0.71536 -0.229154 -0.660112
  outer loop
   vertex -15.4422 0 -14
   vertex -16 -2 -12.7012
   vertex -16 0 -13.3955
  endloop
 endfacet
 facet normal -0.576196 -0.268034 -0.772112
  outer loop
   vertex -16 0 -13.3955
   vertex -16 -2 -12.7012
   vertex -17.87 0 -12
  endloop
 endfacet
 facet normal -0.859982 -0.0867309 -0.5029
  outer loop
   vertex -15.2405 -2 -14
   vertex -16 -2 -12.7012
   vertex -15.4422 0 -14
  endloop
 endfacet
 facet normal 0.273406 -0.671994 -0.688239
  outer loop
   vertex -24 0 -12.1323
   vertex -23.6669 0 -12
   vertex -24 -0.135517 -12
  endloop
 endfacet
 facet normal 0.20183 -0.496071 -0.844499
  outer loop
   vertex -24 -0.135517 -12
   vertex -23.6669 0 -12
   vertex -22 0 -11.6016
  endloop
 endfacet
 facet normal 0.591614 -0.563236 -0.576851
  outer loop
   vertex -24 0 -12.1323
   vertex -24 -0.135517 -12
   vertex -26 -0.187939 -14
  endloop
 endfacet
 facet normal -0.315229 -0.806848 -0.499628
  outer loop
   vertex -16 0.53447 -14
   vertex -18 0.0773849 -12
   vertex -18 1.31585 -14
  endloop
 endfacet
 facet normal -0.148628 0.423636 -0.893556
  outer loop
   vertex -22 -7.86448 -12
   vertex -24 -8 -11.7316
   vertex -22 -6 -11.116
  endloop
 endfacet
 facet normal -0.0420256 0.332043 -0.942328
  outer loop
   vertex -22 -6 -11.116
   vertex -24 -8 -11.7316
   vertex -24 -6 -11.0269
  endloop
 endfacet
 facet normal -0.0445493 0.0134118 -0.998917
  outer loop
   vertex -22 -6 -11.116
   vertex -24 -6 -11.0269
   vertex -24 -4 -11
  endloop
 endfacet
 facet normal 0.0579213 0.0134026 -0.998231
  outer loop
   vertex -24 -4 -11
   vertex -24 -6 -11.0269
   vertex -26 -4 -11.116
  endloop
 endfacet
 facet normal 0.0544159 -0.342836 -0.937818
  outer loop
   vertex -24 -4 -11
   vertex -26 -4 -11.116
   vertex -26 -2 -11.8472
  endloop
 endfacet
 facet normal 0.326941 -0.324476 -0.887595
  outer loop
   vertex -26 -2 -11.8472
   vertex -26 -4 -11.116
   vertex -28 -4 -11.8527
  endloop
 endfacet
 facet normal 0.515001 -0.513094 -0.686664
  outer loop
   vertex -26 -2 -11.8472
   vertex -28 -4 -11.8527
   vertex -28 -3.80292 -12
  endloop
 endfacet
 facet normal 0.030158 0.332186 -0.942732
  outer loop
   vertex -24 -8 -11.7316
   vertex -26 -6 -11.0908
   vertex -24 -6 -11.0269
  endloop
 endfacet
 facet normal 0.0319712 -0.0126001 -0.999409
  outer loop
   vertex -24 -6 -11.0269
   vertex -26 -6 -11.0908
   vertex -26 -4 -11.116
  endloop
 endfacet
 facet normal -0.0544159 0.342836 -0.937818
  outer loop
   vertex -20 -6 -11.8472
   vertex -22 -4 -11
   vertex -20 -4 -11.116
  endloop
 endfacet
 facet normal -0.0579265 0 -0.998321
  outer loop
   vertex -20 -4 -11.116
   vertex -22 -4 -11
   vertex -22 -2 -11
  endloop
 endfacet
 facet normal 0.345618 -0.0118297 -0.938301
  outer loop
   vertex -28 -4 -11.8527
   vertex -26 -4 -11.116
   vertex -26 -6 -11.0908
  endloop
 endfacet
 facet normal 0.0579265 0 -0.998321
  outer loop
   vertex -24 -2 -11.116
   vertex -22 -2 -11
   vertex -22 -4 -11
  endloop
 endfacet
 facet normal 0.52248 -0.522479 -0.673818
  outer loop
   vertex -28 -3.80292 -12
   vertex -26.1971 -2 -12
   vertex -26 -2 -11.8472
  endloop
 endfacet
endsolid
