solid ascii
 facet normal -0.166632 0.697221 0.697221
  outer loop
   vertex 3.66692 -48 -22
   vertex 2 -48 -22.3984
   vertex 2 -48.3984 -22
  endloop
 endfacet
 facet normal 0.0492889 0.706247 0.706247
  outer loop
   vertex 2 -48.3984 -22
   vertex 2 -48 -22.3984
   vertex 0 -48.2588 -22
  endloop
 endfacet
 facet normal 0.0686353 0.983457 0.167636
  outer loop
   vertex 2 -48.3984 -22
   vertex 0 -48.2588 -22
   vertex 0 -48.5997 -20
  endloop
 endfacet
 facet normal 0.409884 0.899168 0.153269
  outer loop
   vertex 0 -48.5997 -20
   vertex 0 -48.2588 -22
   vertex -0.567742 -48 -22
  endloop
 endfacet
 facet normal 0.499702 0.858454 0.115563
  outer loop
   vertex 0 -48.5997 -20
   vertex -0.567742 -48 -22
   vertex -1.03027 -48 -20
  endloop
 endfacet
 facet normal 0.66058 0.735049 0.152769
  outer loop
   vertex -1.03027 -48 -20
   vertex -0.567742 -48 -22
   vertex -2 -47.1285 -20
  endloop
 endfacet
 facet normal 0.622876 0.693095 -0.362828
  outer loop
   vertex -1.03027 -48 -20
   vertex -2 -47.1285 -20
   vertex 0 -47.8789 -18
  endloop
 endfacet
 facet normal 0.496808 0.849385 -0.178121
  outer loop
   vertex 0 -47.8789 -18
   vertex -2 -47.1285 -20
   vertex -2 -46.7091 -18
  endloop
 endfacet
 facet normal 0.502577 0.859247 -0.0954551
  outer loop
   vertex 0 -47.8789 -18
   vertex -2 -46.7091 -18
   vertex -2 -46.4869 -16
  endloop
 endfacet
 facet normal 0.78491 0.615821 -0.0684126
  outer loop
   vertex -2 -46.4869 -16
   vertex -2 -46.7091 -18
   vertex -2.55635 -46 -18
  endloop
 endfacet
 facet normal 0.732667 0.679505 -0.0383754
  outer loop
   vertex -2 -46.4869 -16
   vertex -2.55635 -46 -18
   vertex -2.45159 -46 -16
  endloop
 endfacet
 facet normal 0.974995 0.216279 -0.051068
  outer loop
   vertex -2.45159 -46 -16
   vertex -2.55635 -46 -18
   vertex -3 -44 -18
  endloop
 endfacet
 facet normal 0.964401 0.264443 -0
  outer loop
   vertex -2.45159 -46 -16
   vertex -3 -44 -18
   vertex -3 -44 -16
  endloop
 endfacet
 facet normal 0.998321 -0.0579266 0
  outer loop
   vertex -3 -44 -16
   vertex -3 -44 -18
   vertex -2.88395 -42 -18
  endloop
 endfacet
 facet normal 0.998321 0 0.0579266
  outer loop
   vertex -3 -44 -16
   vertex -2.88395 -42 -18
   vertex -3 -42 -16
  endloop
 endfacet
 facet normal 0.937818 -0.342836 0.054416
  outer loop
   vertex -3 -42 -16
   vertex -2.88395 -42 -18
   vertex -2.15282 -40 -18
  endloop
 endfacet
 facet normal 0.937818 -0.054416 0.342836
  outer loop
   vertex -3 -42 -16
   vertex -2.15282 -40 -18
   vertex -2.88395 -40 -16
  endloop
 endfacet
 facet normal 0.888309 -0.324737 0.324737
  outer loop
   vertex -2.88395 -40 -16
   vertex -2.15282 -40 -18
   vertex -2.15282 -38 -16
  endloop
 endfacet
 facet normal 0.937818 -0.342836 0.054416
  outer loop
   vertex -2.88395 -40 -16
   vertex -2.15282 -38 -16
   vertex -3 -40 -14
  endloop
 endfacet
 facet normal 0.937818 -0.054416 0.342836
  outer loop
   vertex -3 -40 -14
   vertex -2.15282 -38 -16
   vertex -2.88395 -38 -14
  endloop
 endfacet
 facet normal 0.998321 -0.0579266 0
  outer loop
   vertex -3 -40 -14
   vertex -2.88395 -38 -14
   vertex -3 -40 -12
  endloop
 endfacet
 facet normal 0.998965 -0.0429205 0.0150435
  outer loop
   vertex -3 -40 -12
   vertex -2.88395 -38 -14
   vertex -2.91407 -38 -12
  endloop
 endfacet
 facet normal 0.999078 -0.0429253 0
  outer loop
   vertex -3 -40 -12
   vertex -2.91407 -38 -12
   vertex -3 -40 -10
  endloop
 endfacet
 facet normal 0.993812 -0.0969317 -0.0542327
  outer loop
   vertex -3 -40 -10
   vertex -2.91407 -38 -12
   vertex -2.80493 -38 -10
  endloop
 endfacet
 facet normal 0.994368 -0.096986 -0.042723
  outer loop
   vertex -3 -40 -10
   vertex -2.80493 -38 -10
   vertex -2.91407 -40 -8
  endloop
 endfacet
 facet normal 0.998514 0 0.0544892
  outer loop
   vertex -2.91407 -40 -8
   vertex -2.80493 -38 -10
   vertex -2.91407 -38 -8
  endloop
 endfacet
 facet normal 0.994624 0 -0.10355
  outer loop
   vertex -2.91407 -40 -8
   vertex -2.91407 -38 -8
   vertex -2.70585 -40 -6
  endloop
 endfacet
 facet normal 0.994624 0.10355 -0
  outer loop
   vertex -2.70585 -40 -6
   vertex -2.91407 -38 -8
   vertex -2.91407 -38 -6
  endloop
 endfacet
 facet normal 0.918302 0.0956045 -0.384164
  outer loop
   vertex -2.70585 -40 -6
   vertex -2.91407 -38 -6
   vertex -2.07739 -38 -4
  endloop
 endfacet
 facet normal 0.860657 -0.360049 -0.360049
  outer loop
   vertex -2.07739 -38 -4
   vertex -2.91407 -38 -6
   vertex -2.07739 -36 -6
  endloop
 endfacet
 facet normal 0.764903 -0.45548 -0.45548
  outer loop
   vertex -2.07739 -38 -4
   vertex -2.07739 -36 -6
   vertex -2 -36 -5.87004
  endloop
 endfacet
 facet normal 0.651689 -0.651697 -0.388064
  outer loop
   vertex -2 -36 -5.87004
   vertex -2.07739 -36 -6
   vertex -2 -35.9226 -6
  endloop
 endfacet
 facet normal 0.455477 -0.764907 -0.455477
  outer loop
   vertex -2 -36 -5.87004
   vertex -2 -35.9226 -6
   vertex -0.129956 -36 -4
  endloop
 endfacet
 facet normal 0.455477 -0.764906 -0.455477
  outer loop
   vertex -0.129956 -36 -4
   vertex -2 -35.9226 -6
   vertex 0 -35.9226 -4
  endloop
 endfacet
 facet normal 0.388064 -0.651696 -0.651688
  outer loop
   vertex -0.129956 -36 -4
   vertex 0 -35.9226 -4
   vertex 0 -36 -3.92261
  endloop
 endfacet
 facet normal 0.112765 -0.702601 -0.702592
  outer loop
   vertex 0 -36 -3.92261
   vertex 0 -35.9226 -4
   vertex 2 -36 -3.60162
  endloop
 endfacet
 facet normal 0.147474 -0.366017 -0.918849
  outer loop
   vertex 0 -36 -3.92261
   vertex 2 -36 -3.60162
   vertex 2 -38 -2.80493
  endloop
 endfacet
 facet normal -0.0902412 -0.368554 -0.925216
  outer loop
   vertex 2 -38 -2.80493
   vertex 2 -36 -3.60162
   vertex 4 -38 -3
  endloop
 endfacet
 facet normal -0.0946971 -0.219963 -0.970901
  outer loop
   vertex 2 -38 -2.80493
   vertex 4 -38 -3
   vertex 4 -40 -2.54689
  endloop
 endfacet
 facet normal -0.533398 -0.186899 -0.824958
  outer loop
   vertex 4 -40 -2.54689
   vertex 4 -38 -3
   vertex 6 -40 -3.84004
  endloop
 endfacet
 facet normal -0.537199 0.145352 -0.830837
  outer loop
   vertex 4 -40 -2.54689
   vertex 6 -40 -3.84004
   vertex 4 -42 -2.89678
  endloop
 endfacet
 facet normal -0.67226 0.369783 -0.641348
  outer loop
   vertex 4 -42 -2.89678
   vertex 6 -40 -3.84004
   vertex 6 -40.2774 -4
  endloop
 endfacet
 facet normal -0.696327 0.450786 -0.558499
  outer loop
   vertex 4 -42 -2.89678
   vertex 6 -40.2774 -4
   vertex 4.88485 -42 -4
  endloop
 endfacet
 facet normal -0.711942 0.460894 -0.529826
  outer loop
   vertex 4.88485 -42 -4
   vertex 6 -40.2774 -4
   vertex 6 -42 -5.49846
  endloop
 endfacet
 facet normal -0.623754 0.628849 -0.464197
  outer loop
   vertex 4.88485 -42 -4
   vertex 6 -42 -5.49846
   vertex 6 -42.3702 -6
  endloop
 endfacet
 facet normal -0.712419 0.564593 -0.416765
  outer loop
   vertex 6 -42.3702 -6
   vertex 6 -42 -5.49846
   vertex 6.2934 -42 -6
  endloop
 endfacet
 facet normal -0.70098 0.555528 -0.44723
  outer loop
   vertex 6 -42.3702 -6
   vertex 6.2934 -42 -6
   vertex 6 -43.9803 -8
  endloop
 endfacet
 facet normal -0.881672 0.393548 -0.260335
  outer loop
   vertex 6 -43.9803 -8
   vertex 6.2934 -42 -6
   vertex 6.88395 -42 -8
  endloop
 endfacet
 facet normal -0.894358 0.399211 -0.201876
  outer loop
   vertex 6 -43.9803 -8
   vertex 6.88395 -42 -8
   vertex 6 -44 -8.03889
  endloop
 endfacet
 facet normal -0.888223 0.397067 -0.231081
  outer loop
   vertex 6 -44 -8.03889
   vertex 6.88395 -42 -8
   vertex 6.5102 -44 -10
  endloop
 endfacet
 facet normal -0.748282 0.634173 -0.194674
  outer loop
   vertex 6 -44 -8.03889
   vertex 6.5102 -44 -10
   vertex 6 -44.602 -10
  endloop
 endfacet
 facet normal -0.762421 0.646156 -0.0346021
  outer loop
   vertex 6 -44.602 -10
   vertex 6.5102 -44 -10
   vertex 6 -44.7091 -12
  endloop
 endfacet
 facet normal -0.493386 0.868566 -0.0465123
  outer loop
   vertex 6 -44.602 -10
   vertex 6 -44.7091 -12
   vertex 4 -45.7381 -10
  endloop
 endfacet
 facet normal -0.322549 0.933333 0.157647
  outer loop
   vertex 4 -45.7381 -10
   vertex 6 -44.7091 -12
   vertex 4 -45.4003 -12
  endloop
 endfacet
 facet normal -0.190996 0.967881 0.163482
  outer loop
   vertex 4 -45.7381 -10
   vertex 4 -45.4003 -12
   vertex 2 -45.795 -12
  endloop
 endfacet
 facet normal -0.192042 0.97318 -0.126648
  outer loop
   vertex 2 -45.795 -12
   vertex 4 -45.4003 -12
   vertex 4 -45.6606 -14
  endloop
 endfacet
 facet normal -0.0670447 0.99775 0
  outer loop
   vertex 2 -45.795 -12
   vertex 4 -45.6606 -14
   vertex 2 -45.795 -14
  endloop
 endfacet
 facet normal -0.0588114 0.875223 -0.480131
  outer loop
   vertex 2 -45.795 -14
   vertex 4 -45.6606 -14
   vertex 2 -46 -14.3738
  endloop
 endfacet
 facet normal -0.360408 0.817819 -0.44864
  outer loop
   vertex 2 -45.795 -14
   vertex 2 -46 -14.3738
   vertex 1.53472 -46 -14
  endloop
 endfacet
 facet normal -0.331526 0.848398 -0.412688
  outer loop
   vertex 1.53472 -46 -14
   vertex 2 -46 -14.3738
   vertex 2 -46.791 -16
  endloop
 endfacet
 facet normal -0.331526 0.848398 -0.412688
  outer loop
   vertex 1.53472 -46 -14
   vertex 2 -46.791 -16
   vertex 0 -46.5997 -14
  endloop
 endfacet
 facet normal -0.152443 0.957703 -0.244062
  outer loop
   vertex 0 -46.5997 -14
   vertex 2 -46.791 -16
   vertex 0 -47.1094 -16
  endloop
 endfacet
 facet normal 0.245342 0.939412 -0.239401
  outer loop
   vertex 0 -46.5997 -14
   vertex 0 -47.1094 -16
   vertex -2 -46.0774 -14
  endloop
 endfacet
 facet normal 0.291654 0.93708 -0.191885
  outer loop
   vertex -2 -46.0774 -14
   vertex 0 -47.1094 -16
   vertex -2 -46.4869 -16
  endloop
 endfacet
 facet normal 0.726201 0.673508 -0.137914
  outer loop
   vertex -2 -46.0774 -14
   vertex -2 -46.4869 -16
   vertex -2.45159 -46 -16
  endloop
 endfacet
 facet normal 0.045059 0.719149 0.693393
  outer loop
   vertex 0 -48.2588 -22
   vertex 2 -48 -22.3984
   vertex 0 -48 -22.2684
  endloop
 endfacet
 facet normal 0.061175 0.331714 0.941394
  outer loop
   vertex 0 -48 -22.2684
   vertex 2 -48 -22.3984
   vertex 0 -46 -22.9731
  endloop
 endfacet
 facet normal 0.315376 0.315376 0.895028
  outer loop
   vertex 0 -48 -22.2684
   vertex 0 -46 -22.9731
   vertex -2 -46 -22.2684
  endloop
 endfacet
 facet normal 0.329727 -0.125062 0.935756
  outer loop
   vertex -2 -46 -22.2684
   vertex 0 -46 -22.9731
   vertex 0 -44 -22.7059
  endloop
 endfacet
 facet normal 0.356196 -0.154643 0.921526
  outer loop
   vertex -2 -46 -22.2684
   vertex 0 -44 -22.7059
   vertex -1.82613 -44 -22
  endloop
 endfacet
 facet normal 0.315058 -0.486167 0.815095
  outer loop
   vertex -1.82613 -44 -22
   vertex 0 -44 -22.7059
   vertex 0 -42.8166 -22
  endloop
 endfacet
 facet normal 0.445998 -0.688222 0.572221
  outer loop
   vertex -1.82613 -44 -22
   vertex 0 -42.8166 -22
   vertex -2 -44 -21.8645
  endloop
 endfacet
 facet normal 0.381671 -0.560907 0.73465
  outer loop
   vertex -2 -44 -21.8645
   vertex 0 -42.8166 -22
   vertex 0 -42 -21.3765
  endloop
 endfacet
 facet normal 0.41448 -0.584635 0.69743
  outer loop
   vertex -2 -44 -21.8645
   vertex 0 -42 -21.3765
   vertex -2 -42 -20.1879
  endloop
 endfacet
 facet normal 0.387414 -0.651885 0.651886
  outer loop
   vertex -2 -42 -20.1879
   vertex 0 -42 -21.3765
   vertex 0 -40.6235 -20
  endloop
 endfacet
 facet normal 0.387418 -0.651891 0.651878
  outer loop
   vertex -2 -42 -20.1879
   vertex 0 -40.6235 -20
   vertex -2 -41.8121 -20
  endloop
 endfacet
 facet normal 0.387415 -0.651885 0.651886
  outer loop
   vertex -2 -41.8121 -20
   vertex 0 -40.6235 -20
   vertex -2 -40 -18.1879
  endloop
 endfacet
 facet normal 0.656203 -0.533571 0.533573
  outer loop
   vertex -2 -41.8121 -20
   vertex -2 -40 -18.1879
   vertex -2.15282 -40 -18
  endloop
 endfacet
 facet normal 0.656198 -0.53358 0.533569
  outer loop
   vertex -2.15282 -40 -18
   vertex -2 -40 -18.1879
   vertex -2 -39.8121 -18
  endloop
 endfacet
 facet normal 0.656195 -0.533577 0.533577
  outer loop
   vertex -2.15282 -40 -18
   vertex -2 -39.8121 -18
   vertex -2.15282 -38 -16
  endloop
 endfacet
 facet normal 0.656203 -0.533571 0.533573
  outer loop
   vertex -2.15282 -38 -16
   vertex -2 -39.8121 -18
   vertex -2 -38 -16.1879
  endloop
 endfacet
 facet normal 0.656198 -0.53358 0.533569
  outer loop
   vertex -2.15282 -38 -16
   vertex -2 -38 -16.1879
   vertex -2 -37.8121 -16
  endloop
 endfacet
 facet normal 0.275962 -0.679656 0.679642
  outer loop
   vertex -2 -37.8121 -16
   vertex -2 -38 -16.1879
   vertex 0 -37 -16
  endloop
 endfacet
 facet normal 0.297114 -0.731749 0.613405
  outer loop
   vertex -2 -37.8121 -16
   vertex 0 -37 -16
   vertex -2 -36.1355 -14
  endloop
 endfacet
 facet normal 0.404177 -0.620238 0.672269
  outer loop
   vertex -2 -36.1355 -14
   vertex 0 -37 -16
   vertex -1.79203 -36 -14
  endloop
 endfacet
 facet normal 0.542857 -0.833052 0.106445
  outer loop
   vertex -2 -36.1355 -14
   vertex -1.79203 -36 -14
   vertex -2 -36 -12.9394
  endloop
 endfacet
 facet normal 0.316744 -0.946475 0.0621083
  outer loop
   vertex -2 -36 -12.9394
   vertex -1.79203 -36 -14
   vertex 0 -35.4003 -14
  endloop
 endfacet
 facet normal 0.323923 -0.94289 0.0776725
  outer loop
   vertex -2 -36 -12.9394
   vertex 0 -35.4003 -14
   vertex -2 -35.9226 -12
  endloop
 endfacet
 facet normal 0.381938 -0.912979 0.143499
  outer loop
   vertex -2 -35.9226 -12
   vertex 0 -35.4003 -14
   vertex 0 -35.0859 -12
  endloop
 endfacet
 facet normal 0.385444 -0.92136 -0.0502779
  outer loop
   vertex -2 -35.9226 -12
   vertex 0 -35.0859 -12
   vertex 0 -35.1951 -10
  endloop
 endfacet
 facet normal 0.0428617 -0.997597 -0.0544381
  outer loop
   vertex 0 -35.1951 -10
   vertex 0 -35.0859 -12
   vertex 2 -35 -12
  endloop
 endfacet
 facet normal 0.0970735 -0.995277 0
  outer loop
   vertex 0 -35.1951 -10
   vertex 2 -35 -12
   vertex 2 -35 -10
  endloop
 endfacet
 facet normal 0 -1 0
  outer loop
   vertex 2 -35 -10
   vertex 2 -35 -12
   vertex 4 -35 -12
  endloop
 endfacet
 facet normal 0 -1 0
  outer loop
   vertex 2 -35 -10
   vertex 4 -35 -12
   vertex 4 -35 -10
  endloop
 endfacet
 facet normal -0.288058 -0.957613 0
  outer loop
   vertex 4 -35 -10
   vertex 4 -35 -12
   vertex 6 -35.6016 -12
  endloop
 endfacet
 facet normal -0.288058 -0.957613 0
  outer loop
   vertex 4 -35 -10
   vertex 6 -35.6016 -12
   vertex 6 -35.6016 -10
  endloop
 endfacet
 facet normal -0.707107 -0.707106 0
  outer loop
   vertex 6 -35.6016 -10
   vertex 6 -35.6016 -12
   vertex 6.39838 -36 -12
  endloop
 endfacet
 facet normal -0.707107 -0.707106 0
  outer loop
   vertex 6 -35.6016 -10
   vertex 6.39838 -36 -12
   vertex 6.39838 -36 -10
  endloop
 endfacet
 facet normal -0.957613 -0.288058 0
  outer loop
   vertex 6.39838 -36 -10
   vertex 6.39838 -36 -12
   vertex 7 -38 -10
  endloop
 endfacet
 facet normal -0.957613 -0.288058 0
  outer loop
   vertex 6.39838 -36 -10
   vertex 7 -38 -10
   vertex 7 -38 -8
  endloop
 endfacet
 facet normal -1 0 0
  outer loop
   vertex 7 -38 -8
   vertex 7 -38 -10
   vertex 7 -40 -8
  endloop
 endfacet
 facet normal -0.999078 0 -0.0429253
  outer loop
   vertex 7 -38 -8
   vertex 7 -40 -8
   vertex 6.91407 -40 -6
  endloop
 endfacet
 facet normal -0.954264 0.29614 -0.0409999
  outer loop
   vertex 6.91407 -40 -6
   vertex 7 -40 -8
   vertex 6.2934 -42 -6
  endloop
 endfacet
 facet normal -0.896832 0.278317 -0.343849
  outer loop
   vertex 6.91407 -40 -6
   vertex 6.2934 -42 -6
   vertex 6.14726 -40 -4
  endloop
 endfacet
 facet normal -0.78951 0.404174 -0.461863
  outer loop
   vertex 6.14726 -40 -4
   vertex 6.2934 -42 -6
   vertex 6 -42 -5.49846
  endloop
 endfacet
 facet normal -0.777538 0.412718 -0.474445
  outer loop
   vertex 6.14726 -40 -4
   vertex 6 -42 -5.49846
   vertex 6 -40.2774 -4
  endloop
 endfacet
 facet normal 0.311797 0.683993 0.659497
  outer loop
   vertex 0 -48.2588 -22
   vertex 0 -48 -22.2684
   vertex -0.567742 -48 -22
  endloop
 endfacet
 facet normal 0.393024 0.393023 0.831303
  outer loop
   vertex -0.567742 -48 -22
   vertex 0 -48 -22.2684
   vertex -2 -46.5677 -22
  endloop
 endfacet
 facet normal 0.693606 0.693606 0.194479
  outer loop
   vertex -0.567742 -48 -22
   vertex -2 -46.5677 -22
   vertex -2 -47.1285 -20
  endloop
 endfacet
 facet normal 0.903828 0.412006 0.115522
  outer loop
   vertex -2 -47.1285 -20
   vertex -2 -46.5677 -22
   vertex -2.2588 -46 -22
  endloop
 endfacet
 facet normal 0.832995 0.52101 0.186194
  outer loop
   vertex -2 -47.1285 -20
   vertex -2.2588 -46 -22
   vertex -2.70585 -46 -20
  endloop
 endfacet
 facet normal 0.972253 0.0865801 0.217321
  outer loop
   vertex -2.70585 -46 -20
   vertex -2.2588 -46 -22
   vertex -2.88395 -44 -20
  endloop
 endfacet
 facet normal 0.993309 0.0884552 -0.074251
  outer loop
   vertex -2.70585 -46 -20
   vertex -2.88395 -44 -20
   vertex -2.55635 -46 -18
  endloop
 endfacet
 facet normal 0.974706 0.216215 0.0565564
  outer loop
   vertex -2.55635 -46 -18
   vertex -2.88395 -44 -20
   vertex -3 -44 -18
  endloop
 endfacet
 facet normal -0.393781 0.393781 0.830586
  outer loop
   vertex 5.86448 -46 -22
   vertex 4 -46 -22.884
   vertex 4 -47.8645 -22
  endloop
 endfacet
 facet normal -0.171711 0.422031 0.890171
  outer loop
   vertex 4 -47.8645 -22
   vertex 4 -46 -22.884
   vertex 3.66692 -48 -22
  endloop
 endfacet
 facet normal -0.367541 0.903339 0.221118
  outer loop
   vertex 4 -47.8645 -22
   vertex 3.66692 -48 -22
   vertex 4 -48 -21.4464
  endloop
 endfacet
 facet normal -0.230208 0.963236 0.138497
  outer loop
   vertex 4 -48 -21.4464
   vertex 3.66692 -48 -22
   vertex 2 -48.3984 -22
  endloop
 endfacet
 facet normal -0.229761 0.963612 0.13661
  outer loop
   vertex 4 -48 -21.4464
   vertex 2 -48.3984 -22
   vertex 4 -48.205 -20
  endloop
 endfacet
 facet normal -0.240245 0.959441 0.147497
  outer loop
   vertex 4 -48.205 -20
   vertex 2 -48.3984 -22
   vertex 2 -48.7058 -20
  endloop
 endfacet
 facet normal -0.218211 0.871447 -0.439276
  outer loop
   vertex 4 -48.205 -20
   vertex 2 -48.7058 -20
   vertex 2 -48 -18.5997
  endloop
 endfacet
 facet normal -0.0678378 0.890909 -0.449087
  outer loop
   vertex 2 -48 -18.5997
   vertex 2 -48.7058 -20
   vertex 0 -48 -18.2976
  endloop
 endfacet
 facet normal -0.0742013 0.867873 -0.491213
  outer loop
   vertex 2 -48 -18.5997
   vertex 0 -48 -18.2976
   vertex 2 -47.6606 -18
  endloop
 endfacet
 facet normal -0.100614 0.921567 -0.374956
  outer loop
   vertex 2 -47.6606 -18
   vertex 0 -48 -18.2976
   vertex 0 -47.8789 -18
  endloop
 endfacet
 facet normal -0.10137 0.928493 -0.357245
  outer loop
   vertex 2 -47.6606 -18
   vertex 0 -47.8789 -18
   vertex 0 -47.1094 -16
  endloop
 endfacet
 facet normal 0.278948 0.896255 -0.344841
  outer loop
   vertex 0 -47.1094 -16
   vertex 0 -47.8789 -18
   vertex -2 -46.4869 -16
  endloop
 endfacet
 facet normal -0.210486 0.424309 0.880714
  outer loop
   vertex 3.66692 -48 -22
   vertex 4 -46 -22.884
   vertex 2 -48 -22.3984
  endloop
 endfacet
 facet normal -0.0554794 0.287614 0.956138
  outer loop
   vertex 2 -48 -22.3984
   vertex 4 -46 -22.884
   vertex 2 -46 -23
  endloop
 endfacet
 facet normal 0.0128566 0.288034 0.957534
  outer loop
   vertex 2 -48 -22.3984
   vertex 2 -46 -23
   vertex 0 -46 -22.9731
  endloop
 endfacet
 facet normal 0.0133073 -0.132458 0.991099
  outer loop
   vertex 0 -46 -22.9731
   vertex 2 -46 -23
   vertex 0 -44 -22.7059
  endloop
 endfacet
 facet normal 0.393024 0.393024 0.831303
  outer loop
   vertex 0 -48 -22.2684
   vertex -2 -46 -22.2684
   vertex -2 -46.5677 -22
  endloop
 endfacet
 facet normal 0.683995 0.311797 0.659495
  outer loop
   vertex -2 -46.5677 -22
   vertex -2 -46 -22.2684
   vertex -2.2588 -46 -22
  endloop
 endfacet
 facet normal -0.427013 -0.0802059 0.900681
  outer loop
   vertex 5.86448 -46 -22
   vertex 4 -44 -22.7059
   vertex 4 -46 -22.884
  endloop
 endfacet
 facet normal -0.0579801 -0.0885501 0.994383
  outer loop
   vertex 4 -46 -22.884
   vertex 4 -44 -22.7059
   vertex 2 -44 -22.8225
  endloop
 endfacet
 facet normal -0.0577008 -0.0882721 0.994424
  outer loop
   vertex 4 -46 -22.884
   vertex 2 -44 -22.8225
   vertex 2 -46 -23
  endloop
 endfacet
 facet normal 0.0579816 -0.0882706 0.994408
  outer loop
   vertex 2 -46 -23
   vertex 2 -44 -22.8225
   vertex 0 -44 -22.7059
  endloop
 endfacet
 facet normal -0.360525 -0.00691385 0.932724
  outer loop
   vertex 5.86448 -46 -22
   vertex 5.82613 -44 -22
   vertex 4 -44 -22.7059
  endloop
 endfacet
 facet normal -0.322827 -0.445234 0.835194
  outer loop
   vertex 4 -44 -22.7059
   vertex 5.82613 -44 -22
   vertex 4 -42.6759 -22
  endloop
 endfacet
 facet normal -0.0513851 -0.4698 0.881276
  outer loop
   vertex 4 -44 -22.7059
   vertex 4 -42.6759 -22
   vertex 2 -44 -22.8225
  endloop
 endfacet
 facet normal -0.117488 -0.389872 0.913344
  outer loop
   vertex 2 -44 -22.8225
   vertex 4 -42.6759 -22
   vertex 2 -42.0732 -22
  endloop
 endfacet
 facet normal 0.0535494 -0.392027 0.918394
  outer loop
   vertex 2 -44 -22.8225
   vertex 2 -42.0732 -22
   vertex 0 -44 -22.7059
  endloop
 endfacet
 facet normal 0.187036 -0.503215 0.843678
  outer loop
   vertex 0 -44 -22.7059
   vertex 2 -42.0732 -22
   vertex 0 -42.8166 -22
  endloop
 endfacet
 facet normal 0.438123 -0.15688 0.88512
  outer loop
   vertex -2 -46 -22.2684
   vertex -1.82613 -44 -22
   vertex -2 -44.4856 -22
  endloop
 endfacet
 facet normal 0.600372 -0.214976 0.770285
  outer loop
   vertex -2 -44.4856 -22
   vertex -1.82613 -44 -22
   vertex -2 -44 -21.8645
  endloop
 endfacet
 facet normal 0.897202 -0.118714 0.425364
  outer loop
   vertex -2 -44.4856 -22
   vertex -2 -44 -21.8645
   vertex -2.88395 -44 -20
  endloop
 endfacet
 facet normal 0.857994 -0.313655 0.406776
  outer loop
   vertex -2.88395 -44 -20
   vertex -2 -44 -21.8645
   vertex -2.15282 -42 -20
  endloop
 endfacet
 facet normal 0.937818 -0.342836 0.054416
  outer loop
   vertex -2.88395 -44 -20
   vertex -2.15282 -42 -20
   vertex -3 -44 -18
  endloop
 endfacet
 facet normal 0.937818 -0.054416 0.342836
  outer loop
   vertex -3 -44 -18
   vertex -2.15282 -42 -20
   vertex -2.88395 -42 -18
  endloop
 endfacet
 facet normal 0.714496 -0.122102 0.688903
  outer loop
   vertex -2 -46 -22.2684
   vertex -2 -44.4856 -22
   vertex -2.2588 -46 -22
  endloop
 endfacet
 facet normal 0.889832 -0.152065 0.430204
  outer loop
   vertex -2.2588 -46 -22
   vertex -2 -44.4856 -22
   vertex -2.88395 -44 -20
  endloop
 endfacet
 facet normal -0.544969 0.830155 0.11769
  outer loop
   vertex 4 -48 -21.4464
   vertex 4 -48.205 -20
   vertex 4.31235 -48 -20
  endloop
 endfacet
 facet normal -0.504101 0.7679 -0.395237
  outer loop
   vertex 4.31235 -48 -20
   vertex 4 -48.205 -20
   vertex 4 -48 -19.6016
  endloop
 endfacet
 facet normal -0.5485 0.717082 -0.430048
  outer loop
   vertex 4.31235 -48 -20
   vertex 4 -48 -19.6016
   vertex 6 -46.7091 -20
  endloop
 endfacet
 facet normal -0.557168 0.759878 -0.334886
  outer loop
   vertex 6 -46.7091 -20
   vertex 4 -48 -19.6016
   vertex 4 -47.2942 -18
  endloop
 endfacet
 facet normal -0.372308 0.922435 -0.102475
  outer loop
   vertex 6 -46.7091 -20
   vertex 4 -47.2942 -18
   vertex 6 -46.4869 -18
  endloop
 endfacet
 facet normal -0.361086 0.894631 -0.263157
  outer loop
   vertex 6 -46.4869 -18
   vertex 4 -47.2942 -18
   vertex 4 -46.7058 -16
  endloop
 endfacet
 facet normal -0.2168 0.969927 -0.110629
  outer loop
   vertex 6 -46.4869 -18
   vertex 4 -46.7058 -16
   vertex 6 -46.2588 -16
  endloop
 endfacet
 facet normal -0.195737 0.875693 -0.441417
  outer loop
   vertex 6 -46.2588 -16
   vertex 4 -46.7058 -16
   vertex 4 -46 -14.5997
  endloop
 endfacet
 facet normal -0.103432 0.941181 -0.321683
  outer loop
   vertex 6 -46.2588 -16
   vertex 4 -46 -14.5997
   vertex 6 -46 -15.2428
  endloop
 endfacet
 facet normal -0.138909 0.891102 -0.43202
  outer loop
   vertex 6 -46 -15.2428
   vertex 4 -46 -14.5997
   vertex 6 -45.3975 -14
  endloop
 endfacet
 facet normal -0.840082 0.488118 -0.236647
  outer loop
   vertex 6 -46 -15.2428
   vertex 6 -45.3975 -14
   vertex 6.81198 -44 -14
  endloop
 endfacet
 facet normal -0.860107 0.499753 -0.10229
  outer loop
   vertex 6.81198 -44 -14
   vertex 6 -45.3975 -14
   vertex 6.57413 -44 -12
  endloop
 endfacet
 facet normal -0.988704 0.092946 -0.117583
  outer loop
   vertex 6.81198 -44 -14
   vertex 6.57413 -44 -12
   vertex 7 -42 -14
  endloop
 endfacet
 facet normal -0.978072 0.208265 0
  outer loop
   vertex 7 -42 -14
   vertex 6.57413 -44 -12
   vertex 7 -42 -12
  endloop
 endfacet
 facet normal -1 0 0
  outer loop
   vertex 7 -42 -14
   vertex 7 -42 -12
   vertex 7 -40 -14
  endloop
 endfacet
 facet normal -1 0 0
  outer loop
   vertex 7 -40 -14
   vertex 7 -42 -12
   vertex 7 -40 -12
  endloop
 endfacet
 facet normal -0.99991 -0.0134253 -0
  outer loop
   vertex 7 -40 -14
   vertex 7 -40 -12
   vertex 6.97315 -38 -14
  endloop
 endfacet
 facet normal -0.99991 0 0.0134253
  outer loop
   vertex 6.97315 -38 -14
   vertex 7 -40 -12
   vertex 7 -38 -12
  endloop
 endfacet
 facet normal -0.943085 -0.33231 0.0126624
  outer loop
   vertex 6.97315 -38 -14
   vertex 7 -38 -12
   vertex 6.26842 -36 -14
  endloop
 endfacet
 facet normal -0.955764 -0.287502 0.0621083
  outer loop
   vertex 6.26842 -36 -14
   vertex 7 -38 -12
   vertex 6.39838 -36 -12
  endloop
 endfacet
 facet normal -0.706362 -0.706361 0.0459014
  outer loop
   vertex 6.26842 -36 -14
   vertex 6.39838 -36 -12
   vertex 6 -35.6016 -12
  endloop
 endfacet
 facet normal 0.0523781 0.987032 0.151739
  outer loop
   vertex 2 -48.3984 -22
   vertex 0 -48.5997 -20
   vertex 2 -48.7058 -20
  endloop
 endfacet
 facet normal 0.0499888 0.942007 -0.331848
  outer loop
   vertex 2 -48.7058 -20
   vertex 0 -48.5997 -20
   vertex 0 -48 -18.2976
  endloop
 endfacet
 facet normal -0.763785 0.599247 0.239867
  outer loop
   vertex 6.55635 -46 -20
   vertex 6 -46 -21.7715
   vertex 6 -46.7091 -20
  endloop
 endfacet
 facet normal -0.578992 0.756945 0.30299
  outer loop
   vertex 6 -46.7091 -20
   vertex 6 -46 -21.7715
   vertex 4.31235 -48 -20
  endloop
 endfacet
 facet normal -0.687112 0.711237 0.148387
  outer loop
   vertex 4.31235 -48 -20
   vertex 6 -46 -21.7715
   vertex 4 -48 -21.4464
  endloop
 endfacet
 facet normal -0.625736 0.686079 0.371147
  outer loop
   vertex 4 -48 -21.4464
   vertex 6 -46 -21.7715
   vertex 5.86448 -46 -22
  endloop
 endfacet
 facet normal -0.696747 0.696748 0.170549
  outer loop
   vertex 4 -48 -21.4464
   vertex 5.86448 -46 -22
   vertex 4 -47.8645 -22
  endloop
 endfacet
 facet normal -0.953965 0.0139249 0.299593
  outer loop
   vertex 6.55635 -46 -20
   vertex 6 -44 -21.8645
   vertex 6 -46 -21.7715
  endloop
 endfacet
 facet normal -0.859844 0.0237047 0.510006
  outer loop
   vertex 6 -46 -21.7715
   vertex 6 -44 -21.8645
   vertex 5.86448 -46 -22
  endloop
 endfacet
 facet normal -0.893854 0.146415 0.423777
  outer loop
   vertex 6.55635 -46 -20
   vertex 6.88395 -44 -20
   vertex 6 -44 -21.8645
  endloop
 endfacet
 facet normal -0.860587 -0.304832 0.408005
  outer loop
   vertex 6 -44 -21.8645
   vertex 6.88395 -44 -20
   vertex 6 -42 -20.3702
  endloop
 endfacet
 facet normal -0.435836 -0.538689 0.721014
  outer loop
   vertex 6 -44 -21.8645
   vertex 6 -42 -20.3702
   vertex 4 -42 -21.5792
  endloop
 endfacet
 facet normal -0.447998 -0.500019 0.741134
  outer loop
   vertex 4 -42 -21.5792
   vertex 6 -42 -20.3702
   vertex 4 -40 -20.2298
  endloop
 endfacet
 facet normal -0.0159446 -0.559212 0.828871
  outer loop
   vertex 4 -42 -21.5792
   vertex 4 -40 -20.2298
   vertex 2 -40 -20.2683
  endloop
 endfacet
 facet normal -0.013601 -0.707044 0.707038
  outer loop
   vertex 2 -40 -20.2683
   vertex 4 -40 -20.2298
   vertex 4 -39.7702 -20
  endloop
 endfacet
 facet normal 0.0023527 -0.768053 0.640382
  outer loop
   vertex 2 -40 -20.2683
   vertex 4 -39.7702 -20
   vertex 2 -39.7763 -20
  endloop
 endfacet
 facet normal 0.00268847 -0.877667 0.479264
  outer loop
   vertex 2 -39.7763 -20
   vertex 4 -39.7702 -20
   vertex 2 -38.6842 -18
  endloop
 endfacet
 facet normal 0.0908833 -0.874038 0.477282
  outer loop
   vertex 2 -39.7763 -20
   vertex 2 -38.6842 -18
   vertex 0 -38.8921 -18
  endloop
 endfacet
 facet normal 0.0760735 -0.731609 0.677467
  outer loop
   vertex 0 -38.8921 -18
   vertex 2 -38.6842 -18
   vertex 0 -38 -17.0366
  endloop
 endfacet
 facet normal 0.277019 -0.70502 0.652845
  outer loop
   vertex 0 -38.8921 -18
   vertex 0 -38 -17.0366
   vertex -2 -38 -16.1879
  endloop
 endfacet
 facet normal 0.282597 -0.690359 0.66599
  outer loop
   vertex -2 -38 -16.1879
   vertex 0 -38 -17.0366
   vertex 0 -37 -16
  endloop
 endfacet
 facet normal -0.614702 -0.0117883 0.788672
  outer loop
   vertex 5.86448 -46 -22
   vertex 6 -44 -21.8645
   vertex 5.82613 -44 -22
  endloop
 endfacet
 facet normal -0.49717 -0.588163 0.637876
  outer loop
   vertex 5.82613 -44 -22
   vertex 6 -44 -21.8645
   vertex 4 -42 -21.5792
  endloop
 endfacet
 facet normal -0.357841 -0.493525 0.792706
  outer loop
   vertex 5.82613 -44 -22
   vertex 4 -42 -21.5792
   vertex 4 -42.6759 -22
  endloop
 endfacet
 facet normal -0.158596 -0.521834 0.838175
  outer loop
   vertex 4 -42.6759 -22
   vertex 4 -42 -21.5792
   vertex 2 -42 -21.9576
  endloop
 endfacet
 facet normal -0.14928 -0.495373 0.855758
  outer loop
   vertex 4 -42.6759 -22
   vertex 2 -42 -21.9576
   vertex 2 -42.0732 -22
  endloop
 endfacet
 facet normal 0.243858 -0.485862 0.839328
  outer loop
   vertex 2 -42.0732 -22
   vertex 2 -42 -21.9576
   vertex 0 -42 -21.3765
  endloop
 endfacet
 facet normal 0.220026 -0.591975 0.775341
  outer loop
   vertex 2 -42.0732 -22
   vertex 0 -42 -21.3765
   vertex 0 -42.8166 -22
  endloop
 endfacet
 facet normal -0.76355 -0.225457 0.605112
  outer loop
   vertex 6.88395 -44 -20
   vertex 6.2934 -42 -20
   vertex 6 -42 -20.3702
  endloop
 endfacet
 facet normal -0.71242 -0.416768 0.564591
  outer loop
   vertex 6 -42 -20.3702
   vertex 6.2934 -42 -20
   vertex 6 -41.4985 -20
  endloop
 endfacet
 facet normal -0.473391 -0.523134 0.708684
  outer loop
   vertex 6 -42 -20.3702
   vertex 6 -41.4985 -20
   vertex 4 -40 -20.2298
  endloop
 endfacet
 facet normal -0.447005 -0.480927 0.754252
  outer loop
   vertex 4 -40 -20.2298
   vertex 6 -41.4985 -20
   vertex 4.38783 -40 -20
  endloop
 endfacet
 facet normal -0.386498 -0.65216 0.652155
  outer loop
   vertex 4 -40 -20.2298
   vertex 4.38783 -40 -20
   vertex 4 -39.7702 -20
  endloop
 endfacet
 facet normal -0.373495 -0.63022 0.680679
  outer loop
   vertex 4 -39.7702 -20
   vertex 4.38783 -40 -20
   vertex 6 -38.7953 -18
  endloop
 endfacet
 facet normal -0.173228 -0.805953 0.566068
  outer loop
   vertex 4 -39.7702 -20
   vertex 6 -38.7953 -18
   vertex 4 -38.3654 -18
  endloop
 endfacet
 facet normal -0.162962 -0.758191 0.63134
  outer loop
   vertex 4 -38.3654 -18
   vertex 6 -38.7953 -18
   vertex 4 -38 -17.5611
  endloop
 endfacet
 facet normal 0.137695 -0.761143 0.633799
  outer loop
   vertex 4 -38.3654 -18
   vertex 4 -38 -17.5611
   vertex 2 -38 -17.1266
  endloop
 endfacet
 facet normal 0.142223 -0.742437 0.654645
  outer loop
   vertex 2 -38 -17.1266
   vertex 4 -38 -17.5611
   vertex 4 -36.6235 -16
  endloop
 endfacet
 facet normal 0.139427 -0.740581 0.657343
  outer loop
   vertex 2 -38 -17.1266
   vertex 4 -36.6235 -16
   vertex 2 -37 -16
  endloop
 endfacet
 facet normal 0.141836 -0.753378 0.642109
  outer loop
   vertex 2 -37 -16
   vertex 4 -36.6235 -16
   vertex 2 -36 -14.8267
  endloop
 endfacet
 facet normal 0 -0.761073 0.648666
  outer loop
   vertex 2 -37 -16
   vertex 2 -36 -14.8267
   vertex 0 -36 -14.8267
  endloop
 endfacet
 facet normal 0 -0.809447 0.587192
  outer loop
   vertex 0 -36 -14.8267
   vertex 2 -36 -14.8267
   vertex 2 -35.4003 -14
  endloop
 endfacet
 facet normal 0 -0.809447 0.587192
  outer loop
   vertex 0 -36 -14.8267
   vertex 2 -35.4003 -14
   vertex 0 -35.4003 -14
  endloop
 endfacet
 facet normal 0 -0.987872 0.155271
  outer loop
   vertex 0 -35.4003 -14
   vertex 2 -35.4003 -14
   vertex 0 -35.0859 -12
  endloop
 endfacet
 facet normal 0.68587 -0.467501 0.557696
  outer loop
   vertex -2 -44 -21.8645
   vertex -2 -42 -20.1879
   vertex -2.15282 -42 -20
  endloop
 endfacet
 facet normal 0.656198 -0.53358 0.533569
  outer loop
   vertex -2.15282 -42 -20
   vertex -2 -42 -20.1879
   vertex -2 -41.8121 -20
  endloop
 endfacet
 facet normal 0.656195 -0.533577 0.533577
  outer loop
   vertex -2.15282 -42 -20
   vertex -2 -41.8121 -20
   vertex -2.15282 -40 -18
  endloop
 endfacet
 facet normal -0.143065 -0.638633 0.756095
  outer loop
   vertex 4 -42 -21.5792
   vertex 2 -40 -20.2683
   vertex 2 -42 -21.9576
  endloop
 endfacet
 facet normal 0.216686 -0.62994 0.745803
  outer loop
   vertex 2 -42 -21.9576
   vertex 2 -40 -20.2683
   vertex 0 -42 -21.3765
  endloop
 endfacet
 facet normal 0.291491 -0.676399 0.6764
  outer loop
   vertex 0 -42 -21.3765
   vertex 1.44674 -40 -20
   vertex 0 -40.6235 -20
  endloop
 endfacet
 facet normal 0.30246 -0.701852 0.64492
  outer loop
   vertex 0 -40.6235 -20
   vertex 1.44674 -40 -20
   vertex 0 -40 -19.3215
  endloop
 endfacet
 facet normal 0.358062 -0.68752 0.63175
  outer loop
   vertex 0 -40.6235 -20
   vertex 0 -40 -19.3215
   vertex -2 -40 -18.1879
  endloop
 endfacet
 facet normal 0.342152 -0.720072 0.603679
  outer loop
   vertex -2 -40 -18.1879
   vertex 0 -40 -19.3215
   vertex 0 -38.8921 -18
  endloop
 endfacet
 facet normal 0.309306 -0.672439 0.672425
  outer loop
   vertex -2 -40 -18.1879
   vertex 0 -38.8921 -18
   vertex -2 -39.8121 -18
  endloop
 endfacet
 facet normal 0.309303 -0.672432 0.672434
  outer loop
   vertex -2 -39.8121 -18
   vertex 0 -38.8921 -18
   vertex -2 -38 -16.1879
  endloop
 endfacet
 facet normal 0.318755 -0.682944 0.657254
  outer loop
   vertex 0 -42 -21.3765
   vertex 2 -40 -20.2683
   vertex 1.44674 -40 -20
  endloop
 endfacet
 facet normal 0.296598 -0.733494 0.611568
  outer loop
   vertex 1.44674 -40 -20
   vertex 2 -40 -20.2683
   vertex 2 -39.7763 -20
  endloop
 endfacet
 facet normal 0.292824 -0.724162 0.624375
  outer loop
   vertex 1.44674 -40 -20
   vertex 2 -39.7763 -20
   vertex 0 -40 -19.3215
  endloop
 endfacet
 facet normal 0.290571 -0.733259 0.614735
  outer loop
   vertex 0 -40 -19.3215
   vertex 2 -39.7763 -20
   vertex 0 -38.8921 -18
  endloop
 endfacet
 facet normal -0.223456 0.866656 -0.446066
  outer loop
   vertex 4 -48.205 -20
   vertex 2 -48 -18.5997
   vertex 4 -48 -19.6016
  endloop
 endfacet
 facet normal -0.198023 0.896954 -0.395297
  outer loop
   vertex 4 -48 -19.6016
   vertex 2 -48 -18.5997
   vertex 4 -47.2942 -18
  endloop
 endfacet
 facet normal 0.481262 0.826776 -0.291255
  outer loop
   vertex 0 -48.5997 -20
   vertex -1.03027 -48 -20
   vertex 0 -48 -18.2976
  endloop
 endfacet
 facet normal 0.528611 0.786275 -0.31991
  outer loop
   vertex 0 -48 -18.2976
   vertex -1.03027 -48 -20
   vertex 0 -47.8789 -18
  endloop
 endfacet
 facet normal -0.731124 0.678073 -0.0753283
  outer loop
   vertex 6 -46.7091 -20
   vertex 6 -46.4869 -18
   vertex 6.45159 -46 -18
  endloop
 endfacet
 facet normal -0.731559 0.678477 -0.0670014
  outer loop
   vertex 6.45159 -46 -18
   vertex 6 -46.4869 -18
   vertex 6.26842 -46 -16
  endloop
 endfacet
 facet normal -0.960661 0.263417 -0.0879842
  outer loop
   vertex 6.45159 -46 -18
   vertex 6.26842 -46 -16
   vertex 7 -44 -18
  endloop
 endfacet
 facet normal -0.943085 0.33231 -0.0126624
  outer loop
   vertex 7 -44 -18
   vertex 6.26842 -46 -16
   vertex 6.97315 -44 -16
  endloop
 endfacet
 facet normal -0.998988 -0.0429215 -0.013413
  outer loop
   vertex 7 -44 -18
   vertex 6.97315 -44 -16
   vertex 6.91407 -42 -18
  endloop
 endfacet
 facet normal -0.998988 0.013413 0.0429215
  outer loop
   vertex 6.91407 -42 -18
   vertex 6.97315 -44 -16
   vertex 7 -42 -16
  endloop
 endfacet
 facet normal -0.984978 -0.167416 0.0423195
  outer loop
   vertex 6.91407 -42 -18
   vertex 7 -42 -16
   vertex 6.57413 -40 -18
  endloop
 endfacet
 facet normal -0.980588 -0.0131659 0.195635
  outer loop
   vertex 6.57413 -40 -18
   vertex 7 -42 -16
   vertex 6.97315 -40 -16
  endloop
 endfacet
 facet normal -0.973782 -0.11834 0.194277
  outer loop
   vertex 6.57413 -40 -18
   vertex 6.97315 -40 -16
   vertex 6.73009 -38 -16
  endloop
 endfacet
 facet normal -0.992608 -0.120628 0.0133273
  outer loop
   vertex 6.73009 -38 -16
   vertex 6.97315 -40 -16
   vertex 7 -40 -14
  endloop
 endfacet
 facet normal -0.992608 -0.0133273 0.120628
  outer loop
   vertex 6.73009 -38 -16
   vertex 7 -40 -14
   vertex 6.97315 -38 -14
  endloop
 endfacet
 facet normal -0.786086 0.616744 -0.0411734
  outer loop
   vertex 6 -46.7091 -20
   vertex 6.45159 -46 -18
   vertex 6.55635 -46 -20
  endloop
 endfacet
 facet normal -0.985533 0.161433 -0.0516199
  outer loop
   vertex 6.55635 -46 -20
   vertex 6.45159 -46 -18
   vertex 6.88395 -44 -20
  endloop
 endfacet
 facet normal -0.157449 0.859417 -0.486427
  outer loop
   vertex 2 -48 -18.5997
   vertex 2 -47.6606 -18
   vertex 4 -47.2942 -18
  endloop
 endfacet
 facet normal -0.165691 0.904402 -0.393196
  outer loop
   vertex 4 -47.2942 -18
   vertex 2 -47.6606 -18
   vertex 2 -46.791 -16
  endloop
 endfacet
 facet normal -0.0408333 0.958557 -0.281961
  outer loop
   vertex 4 -47.2942 -18
   vertex 2 -46.791 -16
   vertex 4 -46.7058 -16
  endloop
 endfacet
 facet normal -0.038279 0.898595 -0.437105
  outer loop
   vertex 4 -46.7058 -16
   vertex 2 -46.791 -16
   vertex 2 -46 -14.3738
  endloop
 endfacet
 facet normal -0.0507852 0.891814 -0.449543
  outer loop
   vertex 4 -46.7058 -16
   vertex 2 -46 -14.3738
   vertex 4 -46 -14.5997
  endloop
 endfacet
 facet normal -0.0555602 0.868928 -0.49181
  outer loop
   vertex 4 -46 -14.5997
   vertex 2 -46 -14.3738
   vertex 4 -45.6606 -14
  endloop
 endfacet
 facet normal -0.113735 0.864625 -0.489375
  outer loop
   vertex 4 -46 -14.5997
   vertex 4 -45.6606 -14
   vertex 6 -45.3975 -14
  endloop
 endfacet
 facet normal -0.129346 0.983308 -0.127966
  outer loop
   vertex 6 -45.3975 -14
   vertex 4 -45.6606 -14
   vertex 4 -45.4003 -12
  endloop
 endfacet
 facet normal -0.310612 0.89879 -0.30935
  outer loop
   vertex 6 -45.3975 -14
   vertex 4 -45.4003 -12
   vertex 6 -44.7091 -12
  endloop
 endfacet
 facet normal 0.842626 0.527035 -0.110522
  outer loop
   vertex -2 -47.1285 -20
   vertex -2.70585 -46 -20
   vertex -2 -46.7091 -18
  endloop
 endfacet
 facet normal 0.785396 0.616203 -0.0587093
  outer loop
   vertex -2 -46.7091 -18
   vertex -2.70585 -46 -20
   vertex -2.55635 -46 -18
  endloop
 endfacet
 facet normal -0.962895 0.26403 0.055871
  outer loop
   vertex 6.45159 -46 -18
   vertex 7 -44 -18
   vertex 6.88395 -44 -20
  endloop
 endfacet
 facet normal -0.957583 -0.28275 0.0555627
  outer loop
   vertex 6.88395 -44 -20
   vertex 7 -44 -18
   vertex 6.2934 -42 -20
  endloop
 endfacet
 facet normal -0.954264 -0.0409999 0.29614
  outer loop
   vertex 7 -44 -18
   vertex 6.91407 -42 -18
   vertex 6.2934 -42 -20
  endloop
 endfacet
 facet normal -0.942727 -0.160235 0.29256
  outer loop
   vertex 6.2934 -42 -20
   vertex 6.91407 -42 -18
   vertex 6.57413 -40 -18
  endloop
 endfacet
 facet normal -0.750367 -0.411774 0.517099
  outer loop
   vertex 6.2934 -42 -20
   vertex 6.57413 -40 -18
   vertex 6 -40 -18.8331
  endloop
 endfacet
 facet normal -0.766509 -0.365303 0.528222
  outer loop
   vertex 6 -40 -18.8331
   vertex 6.57413 -40 -18
   vertex 6 -38.7953 -18
  endloop
 endfacet
 facet normal -0.511522 -0.488753 0.706729
  outer loop
   vertex 6 -40 -18.8331
   vertex 6 -38.7953 -18
   vertex 4.38783 -40 -20
  endloop
 endfacet
 facet normal -0.724221 -0.423671 0.544065
  outer loop
   vertex 6.2934 -42 -20
   vertex 6 -40 -18.8331
   vertex 6 -41.4985 -20
  endloop
 endfacet
 facet normal -0.495901 -0.533533 0.685146
  outer loop
   vertex 6 -41.4985 -20
   vertex 6 -40 -18.8331
   vertex 4.38783 -40 -20
  endloop
 endfacet
 facet normal 0.888309 -0.324737 0.324737
  outer loop
   vertex -2.15282 -42 -20
   vertex -2.15282 -40 -18
   vertex -2.88395 -42 -18
  endloop
 endfacet
 facet normal 0.129309 -0.811454 0.569931
  outer loop
   vertex 4 -39.7702 -20
   vertex 4 -38.3654 -18
   vertex 2 -38.6842 -18
  endloop
 endfacet
 facet normal 0.124473 -0.781101 0.611872
  outer loop
   vertex 2 -38.6842 -18
   vertex 4 -38.3654 -18
   vertex 2 -38 -17.1266
  endloop
 endfacet
 facet normal 0.0277512 -0.78692 0.61643
  outer loop
   vertex 2 -38.6842 -18
   vertex 2 -38 -17.1266
   vertex 0 -38 -17.0366
  endloop
 endfacet
 facet normal 0.0298716 -0.747553 0.663531
  outer loop
   vertex 0 -38 -17.0366
   vertex 2 -38 -17.1266
   vertex 2 -37 -16
  endloop
 endfacet
 facet normal 0 -0.719695 0.69429
  outer loop
   vertex 0 -38 -17.0366
   vertex 2 -37 -16
   vertex 0 -37 -16
  endloop
 endfacet
 facet normal 0 -0.761073 0.648666
  outer loop
   vertex 0 -37 -16
   vertex 2 -37 -16
   vertex 0 -36 -14.8267
  endloop
 endfacet
 facet normal 0.286686 -0.729127 0.621438
  outer loop
   vertex 0 -37 -16
   vertex 0 -36 -14.8267
   vertex -1.79203 -36 -14
  endloop
 endfacet
 facet normal 0.261464 -0.781289 0.566766
  outer loop
   vertex -1.79203 -36 -14
   vertex 0 -36 -14.8267
   vertex 0 -35.4003 -14
  endloop
 endfacet
 facet normal -0.69177 0.717466 -0.0818338
  outer loop
   vertex 6 -46.4869 -18
   vertex 6 -46.2588 -16
   vertex 6.26842 -46 -16
  endloop
 endfacet
 facet normal -0.673996 0.699032 -0.23892
  outer loop
   vertex 6.26842 -46 -16
   vertex 6 -46.2588 -16
   vertex 6 -46 -15.2428
  endloop
 endfacet
 facet normal -0.811677 0.508325 -0.287725
  outer loop
   vertex 6.26842 -46 -16
   vertex 6 -46 -15.2428
   vertex 6.81198 -44 -14
  endloop
 endfacet
 facet normal -0.144446 0.907461 -0.394525
  outer loop
   vertex 2 -47.6606 -18
   vertex 0 -47.1094 -16
   vertex 2 -46.791 -16
  endloop
 endfacet
 facet normal -0.805851 -0.384053 0.450675
  outer loop
   vertex 6.57413 -40 -18
   vertex 6 -38 -17.3223
   vertex 6 -38.7953 -18
  endloop
 endfacet
 facet normal -0.0905338 -0.645944 0.757997
  outer loop
   vertex 6 -38.7953 -18
   vertex 6 -38 -17.3223
   vertex 4 -38 -17.5611
  endloop
 endfacet
 facet normal -0.808526 -0.383383 0.446434
  outer loop
   vertex 6.57413 -40 -18
   vertex 6.73009 -38 -16
   vertex 6 -38 -17.3223
  endloop
 endfacet
 facet normal -0.779539 -0.455029 0.430428
  outer loop
   vertex 6 -38 -17.3223
   vertex 6.73009 -38 -16
   vertex 6 -36.7492 -16
  endloop
 endfacet
 facet normal -0.0818023 -0.724038 0.684893
  outer loop
   vertex 6 -38 -17.3223
   vertex 6 -36.7492 -16
   vertex 4 -38 -17.5611
  endloop
 endfacet
 facet normal -0.0471126 -0.749229 0.660634
  outer loop
   vertex 4 -38 -17.5611
   vertex 6 -36.7492 -16
   vertex 4 -36.6235 -16
  endloop
 endfacet
 facet normal 0.700994 0.701003 -0.131158
  outer loop
   vertex -2.45159 -46 -16
   vertex -2.07739 -46 -14
   vertex -2 -46.0774 -14
  endloop
 endfacet
 facet normal 0.681285 0.681294 -0.267748
  outer loop
   vertex -2 -46.0774 -14
   vertex -2.07739 -46 -14
   vertex -2 -46 -13.8031
  endloop
 endfacet
 facet normal 0.438358 0.83652 -0.328751
  outer loop
   vertex -2 -46.0774 -14
   vertex -2 -46 -13.8031
   vertex 0 -46.3394 -12
  endloop
 endfacet
 facet normal 0.410739 0.86337 -0.293062
  outer loop
   vertex 0 -46.3394 -12
   vertex -2 -46 -13.8031
   vertex -0.713498 -46 -12
  endloop
 endfacet
 facet normal 0.424343 0.891965 -0.155983
  outer loop
   vertex 0 -46.3394 -12
   vertex -0.713498 -46 -12
   vertex 0 -46 -10.059
  endloop
 endfacet
 facet normal 0.478891 0.860044 -0.176034
  outer loop
   vertex 0 -46 -10.059
   vertex -0.713498 -46 -12
   vertex 0 -45.9879 -10
  endloop
 endfacet
 facet normal -0.294037 0.936381 -0.191659
  outer loop
   vertex 0 -46 -10.059
   vertex 0 -45.9879 -10
   vertex 1.2652 -46 -12
  endloop
 endfacet
 facet normal -0.264722 0.948645 -0.173188
  outer loop
   vertex 1.2652 -46 -12
   vertex 0 -45.9879 -10
   vertex 2 -45.795 -12
  endloop
 endfacet
 facet normal -0.268783 0.963201 0
  outer loop
   vertex 1.2652 -46 -12
   vertex 2 -45.795 -12
   vertex 2 -45.795 -14
  endloop
 endfacet
 facet normal -0.940449 0.331381 -0.0757827
  outer loop
   vertex 6.26842 -46 -16
   vertex 6.81198 -44 -14
   vertex 6.97315 -44 -16
  endloop
 endfacet
 facet normal -0.99668 0.013382 -0.0803139
  outer loop
   vertex 6.97315 -44 -16
   vertex 6.81198 -44 -14
   vertex 7 -42 -16
  endloop
 endfacet
 facet normal 0.949074 0.26024 -0.177575
  outer loop
   vertex -2.45159 -46 -16
   vertex -3 -44 -16
   vertex -2.07739 -46 -14
  endloop
 endfacet
 facet normal 0.921803 0.385629 -0.0396052
  outer loop
   vertex -2.07739 -46 -14
   vertex -3 -44 -16
   vertex -2.91407 -44 -14
  endloop
 endfacet
 facet normal 0.918302 0.384164 -0.0956045
  outer loop
   vertex -2.07739 -46 -14
   vertex -2.91407 -44 -14
   vertex -2.70585 -44 -12
  endloop
 endfacet
 facet normal 0.993717 0.042695 -0.103456
  outer loop
   vertex -2.70585 -44 -12
   vertex -2.91407 -44 -14
   vertex -3 -42 -14
  endloop
 endfacet
 facet normal 0.989357 0.14551 -0
  outer loop
   vertex -2.70585 -44 -12
   vertex -3 -42 -14
   vertex -3 -42 -12
  endloop
 endfacet
 facet normal 1 0 0
  outer loop
   vertex -3 -42 -12
   vertex -3 -42 -14
   vertex -3 -40 -14
  endloop
 endfacet
 facet normal 1 0 -0
  outer loop
   vertex -3 -42 -12
   vertex -3 -40 -14
   vertex -3 -40 -12
  endloop
 endfacet
 facet normal -0.99561 0.0935953 0
  outer loop
   vertex 6.81198 -44 -14
   vertex 7 -42 -14
   vertex 7 -42 -16
  endloop
 endfacet
 facet normal -0.99991 -0.0134253 -0
  outer loop
   vertex 7 -42 -16
   vertex 7 -42 -14
   vertex 6.97315 -40 -16
  endloop
 endfacet
 facet normal 0.999078 0 -0.0429253
  outer loop
   vertex -3 -44 -16
   vertex -3 -42 -16
   vertex -2.91407 -44 -14
  endloop
 endfacet
 facet normal 0.999078 0.0429253 -0
  outer loop
   vertex -2.91407 -44 -14
   vertex -3 -42 -16
   vertex -3 -42 -14
  endloop
 endfacet
 facet normal -0.99991 0 0.0134253
  outer loop
   vertex 7 -42 -14
   vertex 7 -40 -14
   vertex 6.97315 -40 -16
  endloop
 endfacet
 facet normal 0.998321 -0.0579266 0
  outer loop
   vertex -3 -42 -16
   vertex -2.88395 -40 -16
   vertex -3 -42 -14
  endloop
 endfacet
 facet normal 0.998321 0 0.0579266
  outer loop
   vertex -3 -42 -14
   vertex -2.88395 -40 -16
   vertex -3 -40 -14
  endloop
 endfacet
 facet normal -0.830056 -0.484517 0.276136
  outer loop
   vertex 6.73009 -38 -16
   vertex 6 -36 -14.6854
   vertex 6 -36.7492 -16
  endloop
 endfacet
 facet normal -0.122373 -0.862277 0.491429
  outer loop
   vertex 6 -36.7492 -16
   vertex 6 -36 -14.6854
   vertex 4 -36 -15.1834
  endloop
 endfacet
 facet normal -0.0499172 -0.79383 0.606087
  outer loop
   vertex 6 -36.7492 -16
   vertex 4 -36 -15.1834
   vertex 4 -36.6235 -16
  endloop
 endfacet
 facet normal 0.107601 -0.790207 0.60332
  outer loop
   vertex 4 -36.6235 -16
   vertex 4 -36 -15.1834
   vertex 2 -36 -14.8267
  endloop
 endfacet
 facet normal -0.805601 -0.501464 0.315501
  outer loop
   vertex 6 -36 -14.6854
   vertex 6.73009 -38 -16
   vertex 6.26842 -36 -14
  endloop
 endfacet
 facet normal -0.937026 -0.330175 0.113873
  outer loop
   vertex 6.26842 -36 -14
   vertex 6.73009 -38 -16
   vertex 6.97315 -38 -14
  endloop
 endfacet
 facet normal 0.746428 -0.606949 0.27287
  outer loop
   vertex -2.15282 -38 -16
   vertex -2 -37.8121 -16
   vertex -2.88395 -38 -14
  endloop
 endfacet
 facet normal 0.850419 -0.403185 0.337979
  outer loop
   vertex -2.88395 -38 -14
   vertex -2 -37.8121 -16
   vertex -2 -36.1355 -14
  endloop
 endfacet
 facet normal 0.901748 -0.42752 0.0638602
  outer loop
   vertex -2.88395 -38 -14
   vertex -2 -36.1355 -14
   vertex -2.07739 -36 -12
  endloop
 endfacet
 facet normal 0.838466 -0.540559 0.0690712
  outer loop
   vertex -2.07739 -36 -12
   vertex -2 -36.1355 -14
   vertex -2 -36 -12.9394
  endloop
 endfacet
 facet normal 0.705906 -0.705915 0.0581512
  outer loop
   vertex -2.07739 -36 -12
   vertex -2 -36 -12.9394
   vertex -2 -35.9226 -12
  endloop
 endfacet
 facet normal -0.669792 -0.694672 0.262314
  outer loop
   vertex 6 -36 -14.6854
   vertex 6.26842 -36 -14
   vertex 6 -35.7412 -14
  endloop
 endfacet
 facet normal -0.693223 -0.718974 0.0501771
  outer loop
   vertex 6 -35.7412 -14
   vertex 6.26842 -36 -14
   vertex 6 -35.6016 -12
  endloop
 endfacet
 facet normal -0.287416 -0.955482 0.066683
  outer loop
   vertex 6 -35.7412 -14
   vertex 6 -35.6016 -12
   vertex 4 -35 -12
  endloop
 endfacet
 facet normal -0.0876286 -0.931926 0.351902
  outer loop
   vertex 6 -36 -14.6854
   vertex 6 -35.7412 -14
   vertex 4 -36 -15.1834
  endloop
 endfacet
 facet normal -0.188526 -0.843433 0.50307
  outer loop
   vertex 4 -36 -15.1834
   vertex 6 -35.7412 -14
   vertex 4 -35.2942 -14
  endloop
 endfacet
 facet normal 0.0909806 -0.855271 0.510131
  outer loop
   vertex 4 -36 -15.1834
   vertex 4 -35.2942 -14
   vertex 2 -36 -14.8267
  endloop
 endfacet
 facet normal 0.0429148 -0.808702 0.586651
  outer loop
   vertex 2 -36 -14.8267
   vertex 4 -35.2942 -14
   vertex 2 -35.4003 -14
  endloop
 endfacet
 facet normal -0.257102 0.958303 -0.124712
  outer loop
   vertex 1.2652 -46 -12
   vertex 0 -46.5997 -14
   vertex 0 -46.3394 -12
  endloop
 endfacet
 facet normal 0.25071 0.959967 -0.124929
  outer loop
   vertex 0 -46.3394 -12
   vertex 0 -46.5997 -14
   vertex -2 -46.0774 -14
  endloop
 endfacet
 facet normal -0.363528 0.930294 -0.0489883
  outer loop
   vertex 0 -46.5997 -14
   vertex 1.2652 -46 -12
   vertex 1.53472 -46 -14
  endloop
 endfacet
 facet normal -0.402676 0.913733 -0.0542638
  outer loop
   vertex 1.53472 -46 -14
   vertex 1.2652 -46 -12
   vertex 2 -45.795 -14
  endloop
 endfacet
 facet normal -0.759584 0.615001 -0.211674
  outer loop
   vertex 6 -45.3975 -14
   vertex 6 -44.7091 -12
   vertex 6.57413 -44 -12
  endloop
 endfacet
 facet normal -0.776956 0.629065 -0.0248348
  outer loop
   vertex 6.57413 -44 -12
   vertex 6 -44.7091 -12
   vertex 6.5102 -44 -10
  endloop
 endfacet
 facet normal -0.977595 0.208164 -0.0312481
  outer loop
   vertex 6.57413 -44 -12
   vertex 6.5102 -44 -10
   vertex 7 -42 -12
  endloop
 endfacet
 facet normal -0.971297 0.237869 0
  outer loop
   vertex 7 -42 -12
   vertex 6.5102 -44 -10
   vertex 7 -42 -10
  endloop
 endfacet
 facet normal -1 0 0
  outer loop
   vertex 7 -42 -12
   vertex 7 -42 -10
   vertex 7 -40 -12
  endloop
 endfacet
 facet normal -1 0 0
  outer loop
   vertex 7 -40 -12
   vertex 7 -42 -10
   vertex 7 -40 -10
  endloop
 endfacet
 facet normal -1 0 0
  outer loop
   vertex 7 -40 -12
   vertex 7 -40 -10
   vertex 7 -38 -12
  endloop
 endfacet
 facet normal -1 0 0
  outer loop
   vertex 7 -38 -12
   vertex 7 -40 -10
   vertex 7 -38 -10
  endloop
 endfacet
 facet normal -0.957613 -0.288058 -0
  outer loop
   vertex 7 -38 -12
   vertex 7 -38 -10
   vertex 6.39838 -36 -12
  endloop
 endfacet
 facet normal 0.520698 0.768666 -0.371517
  outer loop
   vertex -0.713498 -46 -12
   vertex -2 -46 -13.8031
   vertex -2 -45.1285 -12
  endloop
 endfacet
 facet normal 0.742143 0.603452 -0.291665
  outer loop
   vertex -2 -45.1285 -12
   vertex -2 -46 -13.8031
   vertex -2.07739 -46 -14
  endloop
 endfacet
 facet normal 0.819761 0.512733 -0.255138
  outer loop
   vertex -2 -45.1285 -12
   vertex -2.07739 -46 -14
   vertex -2.70585 -44 -12
  endloop
 endfacet
 facet normal 0.922438 -0.385895 0.0138911
  outer loop
   vertex -2.88395 -38 -14
   vertex -2.07739 -36 -12
   vertex -2.91407 -38 -12
  endloop
 endfacet
 facet normal 0.92136 -0.385444 -0.0502789
  outer loop
   vertex -2.91407 -38 -12
   vertex -2.07739 -36 -12
   vertex -2.80493 -38 -10
  endloop
 endfacet
 facet normal -0.215926 -0.966017 0.142078
  outer loop
   vertex 6 -35.7412 -14
   vertex 4 -35 -12
   vertex 4 -35.2942 -14
  endloop
 endfacet
 facet normal 0 -0.989357 0.14551
  outer loop
   vertex 4 -35.2942 -14
   vertex 4 -35 -12
   vertex 2 -35 -12
  endloop
 endfacet
 facet normal 0.051964 -0.979229 0.195985
  outer loop
   vertex 4 -35.2942 -14
   vertex 2 -35 -12
   vertex 2 -35.4003 -14
  endloop
 endfacet
 facet normal 0.0420921 -0.979685 0.196076
  outer loop
   vertex 2 -35.4003 -14
   vertex 2 -35 -12
   vertex 0 -35.0859 -12
  endloop
 endfacet
 facet normal -0.224928 0.954516 0.195721
  outer loop
   vertex 2.87015 -46 -10
   vertex 2 -46 -11
   vertex 2 -46.205 -10
  endloop
 endfacet
 facet normal 0.105102 0.974193 0.199756
  outer loop
   vertex 2 -46.205 -10
   vertex 2 -46 -11
   vertex 0.0994174 -46 -10
  endloop
 endfacet
 facet normal 0.0957276 0.887298 -0.451153
  outer loop
   vertex 2 -46.205 -10
   vertex 0.0994174 -46 -10
   vertex 2 -46 -9.59673
  endloop
 endfacet
 facet normal 0.0922593 0.895785 -0.434808
  outer loop
   vertex 2 -46 -9.59673
   vertex 0.0994174 -46 -10
   vertex 2 -45.225 -8
  endloop
 endfacet
 facet normal -0.201627 0.881146 -0.427702
  outer loop
   vertex 2 -46 -9.59673
   vertex 2 -45.225 -8
   vertex 4 -45.7381 -10
  endloop
 endfacet
 facet normal -0.104941 0.932972 -0.344312
  outer loop
   vertex 4 -45.7381 -10
   vertex 2 -45.225 -8
   vertex 4 -45 -8
  endloop
 endfacet
 facet normal -0.4703 0.827925 -0.305545
  outer loop
   vertex 4 -45.7381 -10
   vertex 4 -45 -8
   vertex 6 -44.602 -10
  endloop
 endfacet
 facet normal -0.434944 0.861009 -0.263605
  outer loop
   vertex 6 -44.602 -10
   vertex 4 -45 -8
   vertex 5.97959 -44 -8
  endloop
 endfacet
 facet normal -0.488031 0.834398 -0.256137
  outer loop
   vertex 6 -44.602 -10
   vertex 5.97959 -44 -8
   vertex 6 -44 -8.03889
  endloop
 endfacet
 facet normal -0.651964 0.676653 -0.342176
  outer loop
   vertex 6 -44 -8.03889
   vertex 5.97959 -44 -8
   vertex 6 -43.9803 -8
  endloop
 endfacet
 facet normal -0.255506 0.952355 -0.166544
  outer loop
   vertex 0 -46 -10.059
   vertex 1.2652 -46 -12
   vertex 0 -46.3394 -12
  endloop
 endfacet
 facet normal -0.224928 0.954516 0.195721
  outer loop
   vertex 2 -46 -11
   vertex 2.87015 -46 -10
   vertex 2 -45.795 -12
  endloop
 endfacet
 facet normal -0.221509 0.955596 0.194345
  outer loop
   vertex 2 -45.795 -12
   vertex 2.87015 -46 -10
   vertex 4 -45.7381 -10
  endloop
 endfacet
 facet normal 0.117477 0.967651 0.223275
  outer loop
   vertex 0.0994174 -46 -10
   vertex 2 -46 -11
   vertex 0 -45.9879 -10
  endloop
 endfacet
 facet normal 0.10575 0.974125 0.199742
  outer loop
   vertex 0 -45.9879 -10
   vertex 2 -46 -11
   vertex 2 -45.795 -12
  endloop
 endfacet
 facet normal 0.549406 0.811045 -0.200895
  outer loop
   vertex -0.713498 -46 -12
   vertex -2 -45.1285 -12
   vertex 0 -45.9879 -10
  endloop
 endfacet
 facet normal 0.60322 0.745771 -0.282757
  outer loop
   vertex 0 -45.9879 -10
   vertex -2 -45.1285 -12
   vertex -2 -44.3702 -10
  endloop
 endfacet
 facet normal 0.562913 0.695939 -0.445868
  outer loop
   vertex 0 -45.9879 -10
   vertex -2 -44.3702 -10
   vertex 0 -44.7066 -8
  endloop
 endfacet
 facet normal 0.591121 0.646422 -0.482404
  outer loop
   vertex 0 -44.7066 -8
   vertex -2 -44.3702 -10
   vertex -2 -44 -9.5039
  endloop
 endfacet
 facet normal 0.572613 0.69489 -0.435019
  outer loop
   vertex 0 -44.7066 -8
   vertex -2 -44 -9.5039
   vertex -0.857474 -44 -8
  endloop
 endfacet
 facet normal 0.657607 0.563882 -0.49959
  outer loop
   vertex -0.857474 -44 -8
   vertex -2 -44 -9.5039
   vertex -2 -42.6676 -8
  endloop
 endfacet
 facet normal 0.626311 0.537047 -0.56508
  outer loop
   vertex -0.857474 -44 -8
   vertex -2 -42.6676 -8
   vertex 0 -44 -7.04961
  endloop
 endfacet
 facet normal 0.633302 0.628935 -0.450965
  outer loop
   vertex 0 -44 -7.04961
   vertex -2 -42.6676 -8
   vertex 0 -43.2474 -6
  endloop
 endfacet
 facet normal 0.30349 0.774347 -0.55523
  outer loop
   vertex 0 -44 -7.04961
   vertex 0 -43.2474 -6
   vertex 1.92024 -44 -6
  endloop
 endfacet
 facet normal 0.337447 0.860986 -0.380568
  outer loop
   vertex 1.92024 -44 -6
   vertex 0 -43.2474 -6
   vertex 2 -43.1472 -4
  endloop
 endfacet
 facet normal 0.287111 0.876959 -0.385371
  outer loop
   vertex 1.92024 -44 -6
   vertex 2 -43.1472 -4
   vertex 2 -44 -5.94058
  endloop
 endfacet
 facet normal -0.200434 0.896926 -0.394145
  outer loop
   vertex 2 -44 -5.94058
   vertex 2 -43.1472 -4
   vertex 4 -43.5792 -6
  endloop
 endfacet
 facet normal -0.197461 0.876441 -0.439158
  outer loop
   vertex 2 -44 -5.94058
   vertex 4 -43.5792 -6
   vertex 2.13216 -44 -6
  endloop
 endfacet
 facet normal -0.178991 0.794464 -0.580335
  outer loop
   vertex 2.13216 -44 -6
   vertex 4 -43.5792 -6
   vertex 4 -44 -6.57609
  endloop
 endfacet
 facet normal -0.174539 0.805788 -0.5659
  outer loop
   vertex 2.13216 -44 -6
   vertex 4 -44 -6.57609
   vertex 4 -45 -8
  endloop
 endfacet
 facet normal -0.382037 0.756275 -0.531127
  outer loop
   vertex 4 -45 -8
   vertex 4 -44 -6.57609
   vertex 5.97959 -44 -8
  endloop
 endfacet
 facet normal 0.831187 0.51988 -0.197111
  outer loop
   vertex -2 -45.1285 -12
   vertex -2.70585 -44 -12
   vertex -2 -44.3702 -10
  endloop
 endfacet
 facet normal 0.783004 0.599638 -0.165341
  outer loop
   vertex -2 -44.3702 -10
   vertex -2.70585 -44 -12
   vertex -2.28352 -44 -10
  endloop
 endfacet
 facet normal 0.722989 0.553678 -0.413192
  outer loop
   vertex -2 -44.3702 -10
   vertex -2.28352 -44 -10
   vertex -2 -44 -9.5039
  endloop
 endfacet
 facet normal 0.757508 0.488633 -0.43292
  outer loop
   vertex -2 -44 -9.5039
   vertex -2.28352 -44 -10
   vertex -2 -42.6676 -8
  endloop
 endfacet
 facet normal 0.968448 0.142435 -0.2045
  outer loop
   vertex -2.70585 -44 -12
   vertex -3 -42 -12
   vertex -2.28352 -44 -10
  endloop
 endfacet
 facet normal 0.952924 0.300431 -0.0409423
  outer loop
   vertex -2.28352 -44 -10
   vertex -3 -42 -12
   vertex -2.91407 -42 -10
  endloop
 endfacet
 facet normal 0.927722 0.292486 -0.231915
  outer loop
   vertex -2.28352 -44 -10
   vertex -2.91407 -42 -10
   vertex -2.4141 -42 -8
  endloop
 endfacet
 facet normal 0.969305 0.0416461 -0.24231
  outer loop
   vertex -2.4141 -42 -8
   vertex -2.91407 -42 -10
   vertex -3 -40 -10
  endloop
 endfacet
 facet normal 0.969305 0.24231 -0.0416461
  outer loop
   vertex -2.4141 -42 -8
   vertex -3 -40 -10
   vertex -2.91407 -40 -8
  endloop
 endfacet
 facet normal 0.999078 0 -0.0429253
  outer loop
   vertex -3 -42 -12
   vertex -3 -40 -12
   vertex -2.91407 -42 -10
  endloop
 endfacet
 facet normal 0.999078 0.0429253 -0
  outer loop
   vertex -2.91407 -42 -10
   vertex -3 -40 -12
   vertex -3 -40 -10
  endloop
 endfacet
 facet normal 0.691934 -0.691936 -0.206036
  outer loop
   vertex -2 -36.4874 -10
   vertex -2 -36 -11.6368
   vertex -1.51261 -36 -10
  endloop
 endfacet
 facet normal 0.57338 -0.801302 -0.170734
  outer loop
   vertex -1.51261 -36 -10
   vertex -2 -36 -11.6368
   vertex -2 -35.9226 -12
  endloop
 endfacet
 facet normal 0.464668 -0.873194 -0.147023
  outer loop
   vertex -1.51261 -36 -10
   vertex -2 -35.9226 -12
   vertex 0 -35.1951 -10
  endloop
 endfacet
 facet normal 0.874276 -0.465242 -0.138534
  outer loop
   vertex -2 -36 -11.6368
   vertex -2 -36.4874 -10
   vertex -2.80493 -38 -10
  endloop
 endfacet
 facet normal 0.873195 -0.464667 0.147023
  outer loop
   vertex -2.80493 -38 -10
   vertex -2 -36.4874 -10
   vertex -2.07739 -36 -8
  endloop
 endfacet
 facet normal 0.92136 -0.385444 0.0502789
  outer loop
   vertex -2.80493 -38 -10
   vertex -2.07739 -36 -8
   vertex -2.91407 -38 -8
  endloop
 endfacet
 facet normal 0.922527 -0.385932 0
  outer loop
   vertex -2.91407 -38 -8
   vertex -2.07739 -36 -8
   vertex -2.91407 -38 -6
  endloop
 endfacet
 facet normal 0.851827 -0.491373 -0.181502
  outer loop
   vertex -2.80493 -38 -10
   vertex -2.07739 -36 -12
   vertex -2 -36 -11.6368
  endloop
 endfacet
 facet normal 0.699211 -0.69922 -0.148983
  outer loop
   vertex -2 -36 -11.6368
   vertex -2.07739 -36 -12
   vertex -2 -35.9226 -12
  endloop
 endfacet
 facet normal -0.205567 0.872354 -0.443555
  outer loop
   vertex 2 -46.205 -10
   vertex 2 -46 -9.59673
   vertex 2.87015 -46 -10
  endloop
 endfacet
 facet normal -0.203 0.875747 -0.438017
  outer loop
   vertex 2.87015 -46 -10
   vertex 2 -46 -9.59673
   vertex 4 -45.7381 -10
  endloop
 endfacet
 facet normal 0.107829 0.888183 -0.446658
  outer loop
   vertex 0.0994174 -46 -10
   vertex 0 -45.9879 -10
   vertex 2 -45.225 -8
  endloop
 endfacet
 facet normal 0.21322 0.822652 -0.527049
  outer loop
   vertex 2 -45.225 -8
   vertex 0 -45.9879 -10
   vertex 0 -44.7066 -8
  endloop
 endfacet
 facet normal 0.217243 0.838176 -0.500266
  outer loop
   vertex 2 -45.225 -8
   vertex 0 -44.7066 -8
   vertex 2 -44.0313 -6
  endloop
 endfacet
 facet normal 0.309656 0.763063 -0.567317
  outer loop
   vertex 2 -44.0313 -6
   vertex 0 -44.7066 -8
   vertex 0 -44 -7.04961
  endloop
 endfacet
 facet normal 0.303478 0.774369 -0.555206
  outer loop
   vertex 2 -44.0313 -6
   vertex 0 -44 -7.04961
   vertex 1.92024 -44 -6
  endloop
 endfacet
 facet normal -0.969758 0.237493 -0.0562692
  outer loop
   vertex 6.5102 -44 -10
   vertex 6.88395 -42 -8
   vertex 7 -42 -10
  endloop
 endfacet
 facet normal -0.998321 0 -0.0579265
  outer loop
   vertex 7 -42 -10
   vertex 6.88395 -42 -8
   vertex 7 -40 -10
  endloop
 endfacet
 facet normal 0.768586 0.476763 -0.426583
  outer loop
   vertex -2.28352 -44 -10
   vertex -2.4141 -42 -8
   vertex -2 -42.6676 -8
  endloop
 endfacet
 facet normal 0.787109 0.488254 -0.376919
  outer loop
   vertex -2 -42.6676 -8
   vertex -2.4141 -42 -8
   vertex -2 -42 -7.13524
  endloop
 endfacet
 facet normal 0.643444 0.605944 -0.467773
  outer loop
   vertex -2 -42.6676 -8
   vertex -2 -42 -7.13524
   vertex 0 -43.2474 -6
  endloop
 endfacet
 facet normal 0.63234 0.685611 -0.360673
  outer loop
   vertex 0 -43.2474 -6
   vertex -2 -42 -7.13524
   vertex -1.35248 -42 -6
  endloop
 endfacet
 facet normal 0.656113 0.711387 -0.251882
  outer loop
   vertex 0 -43.2474 -6
   vertex -1.35248 -42 -6
   vertex 0 -42.5393 -4
  endloop
 endfacet
 facet normal 0.638034 0.733706 -0.233639
  outer loop
   vertex 0 -42.5393 -4
   vertex -1.35248 -42 -6
   vertex -0.620113 -42 -4
  endloop
 endfacet
 facet normal 0.606039 0.696913 -0.383442
  outer loop
   vertex 0 -42.5393 -4
   vertex -0.620113 -42 -4
   vertex 0 -42 -3.0199
  endloop
 endfacet
 facet normal 0.838888 0.120642 -0.530766
  outer loop
   vertex 0 -42 -3.0199
   vertex -0.620113 -42 -4
   vertex 0 -40 -2.5653
  endloop
 endfacet
 facet normal 0.504818 0.191329 -0.841756
  outer loop
   vertex 0 -42 -3.0199
   vertex 0 -40 -2.5653
   vertex 1.70062 -42 -2
  endloop
 endfacet
 facet normal 0.284986 -0.028484 -0.958108
  outer loop
   vertex 1.70062 -42 -2
   vertex 0 -40 -2.5653
   vertex 1.90052 -40 -2
  endloop
 endfacet
 facet normal 0.299647 -0.0299494 -0.95358
  outer loop
   vertex 1.70062 -42 -2
   vertex 1.90052 -40 -2
   vertex 2 -40 -1.96874
  endloop
 endfacet
 facet normal 0.267935 -0.448529 -0.852662
  outer loop
   vertex 2 -40 -1.96874
   vertex 1.90052 -40 -2
   vertex 2 -39.9406 -2
  endloop
 endfacet
 facet normal -0.267935 -0.448529 -0.852662
  outer loop
   vertex 2 -40 -1.96874
   vertex 2 -39.9406 -2
   vertex 2.09948 -40 -2
  endloop
 endfacet
 facet normal -0.25095 -0.420097 -0.872091
  outer loop
   vertex 2.09948 -40 -2
   vertex 2 -39.9406 -2
   vertex 4 -40 -2.54689
  endloop
 endfacet
 facet normal -0.272708 0.165798 -0.947703
  outer loop
   vertex 2.09948 -40 -2
   vertex 4 -40 -2.54689
   vertex 4 -42 -2.89678
  endloop
 endfacet
 facet normal -0.998321 0.0579265 0
  outer loop
   vertex 7 -40 -10
   vertex 6.88395 -42 -8
   vertex 7 -40 -8
  endloop
 endfacet
 facet normal -0.957583 0.0555627 -0.28275
  outer loop
   vertex 7 -40 -8
   vertex 6.88395 -42 -8
   vertex 6.2934 -42 -6
  endloop
 endfacet
 facet normal -1 0 0
  outer loop
   vertex 7 -40 -10
   vertex 7 -40 -8
   vertex 7 -38 -10
  endloop
 endfacet
 facet normal -0.957613 -0.288058 0
  outer loop
   vertex 6.39838 -36 -10
   vertex 7 -38 -8
   vertex 6.39838 -36 -8
  endloop
 endfacet
 facet normal -0.956804 -0.287814 -0.041109
  outer loop
   vertex 6.39838 -36 -8
   vertex 7 -38 -8
   vertex 6.91407 -38 -6
  endloop
 endfacet
 facet normal -0.912578 -0.38177 -0.146468
  outer loop
   vertex 6.39838 -36 -8
   vertex 6.91407 -38 -6
   vertex 6.07739 -36 -6
  endloop
 endfacet
 facet normal -0.860657 -0.360049 -0.360049
  outer loop
   vertex 6.07739 -36 -6
   vertex 6.91407 -38 -6
   vertex 6.07739 -38 -4
  endloop
 endfacet
 facet normal -0.764908 -0.455475 -0.455475
  outer loop
   vertex 6.07739 -36 -6
   vertex 6.07739 -38 -4
   vertex 6 -37.87 -4
  endloop
 endfacet
 facet normal -0.651694 -0.38806 -0.651694
  outer loop
   vertex 6 -37.87 -4
   vertex 6.07739 -38 -4
   vertex 6 -38 -3.92261
  endloop
 endfacet
 facet normal -0.455475 -0.455475 -0.764909
  outer loop
   vertex 6 -37.87 -4
   vertex 6 -38 -3.92261
   vertex 4.12996 -36 -4
  endloop
 endfacet
 facet normal -0.45548 -0.45548 -0.764903
  outer loop
   vertex 4.12996 -36 -4
   vertex 6 -38 -3.92261
   vertex 4 -36 -3.92261
  endloop
 endfacet
 facet normal -0.388064 -0.651697 -0.651689
  outer loop
   vertex 4.12996 -36 -4
   vertex 4 -36 -3.92261
   vertex 4 -35.9226 -4
  endloop
 endfacet
 facet normal -0.112767 -0.702601 -0.702592
  outer loop
   vertex 4 -35.9226 -4
   vertex 4 -36 -3.92261
   vertex 2 -35.6016 -4
  endloop
 endfacet
 facet normal -0.146468 -0.912578 -0.38177
  outer loop
   vertex 4 -35.9226 -4
   vertex 2 -35.6016 -4
   vertex 4 -35.0859 -6
  endloop
 endfacet
 facet normal -0.041109 -0.956804 -0.287814
  outer loop
   vertex 4 -35.0859 -6
   vertex 2 -35.6016 -4
   vertex 2 -35 -6
  endloop
 endfacet
 facet normal -0.0428858 -0.998159 -0.0428858
  outer loop
   vertex 4 -35.0859 -6
   vertex 2 -35 -6
   vertex 4 -35 -8
  endloop
 endfacet
 facet normal 0 -1 0
  outer loop
   vertex 4 -35 -8
   vertex 2 -35 -6
   vertex 2 -35 -8
  endloop
 endfacet
 facet normal 0 -1 0
  outer loop
   vertex 4 -35 -8
   vertex 2 -35 -8
   vertex 4 -35 -10
  endloop
 endfacet
 facet normal 0 -1 0
  outer loop
   vertex 4 -35 -10
   vertex 2 -35 -8
   vertex 2 -35 -10
  endloop
 endfacet
 facet normal 0.691934 -0.691936 0.206036
  outer loop
   vertex -2 -36.4874 -10
   vertex -1.51261 -36 -10
   vertex -2 -36 -8.36319
  endloop
 endfacet
 facet normal 0.465243 -0.874275 0.138535
  outer loop
   vertex -2 -36 -8.36319
   vertex -1.51261 -36 -10
   vertex 0 -35.1951 -10
  endloop
 endfacet
 facet normal 0.491372 -0.851828 0.1815
  outer loop
   vertex -2 -36 -8.36319
   vertex 0 -35.1951 -10
   vertex -2 -35.9226 -8
  endloop
 endfacet
 facet normal 0.385444 -0.92136 0.0502779
  outer loop
   vertex -2 -35.9226 -8
   vertex 0 -35.1951 -10
   vertex 0 -35.0859 -8
  endloop
 endfacet
 facet normal 0.385932 -0.922527 0
  outer loop
   vertex -2 -35.9226 -8
   vertex 0 -35.0859 -8
   vertex -2 -35.9226 -6
  endloop
 endfacet
 facet normal 0.385932 -0.922527 0
  outer loop
   vertex -2 -35.9226 -6
   vertex 0 -35.0859 -8
   vertex 0 -35.0859 -6
  endloop
 endfacet
 facet normal 0.360049 -0.860656 -0.360049
  outer loop
   vertex -2 -35.9226 -6
   vertex 0 -35.0859 -6
   vertex 0 -35.9226 -4
  endloop
 endfacet
 facet normal 0.0396052 -0.921803 -0.38563
  outer loop
   vertex 0 -35.9226 -4
   vertex 0 -35.0859 -6
   vertex 2 -35 -6
  endloop
 endfacet
 facet normal 0.151913 -0.946499 -0.284714
  outer loop
   vertex 0 -35.9226 -4
   vertex 2 -35 -6
   vertex 2 -35.6016 -4
  endloop
 endfacet
 facet normal 0.801298 -0.573386 0.170735
  outer loop
   vertex -2 -36.4874 -10
   vertex -2 -36 -8.36319
   vertex -2.07739 -36 -8
  endloop
 endfacet
 facet normal 0.699211 -0.69922 0.148983
  outer loop
   vertex -2.07739 -36 -8
   vertex -2 -36 -8.36319
   vertex -2 -35.9226 -8
  endloop
 endfacet
 facet normal 0.707102 -0.707111 0
  outer loop
   vertex -2.07739 -36 -8
   vertex -2 -35.9226 -8
   vertex -2.07739 -36 -6
  endloop
 endfacet
 facet normal 0.707102 -0.707111 0
  outer loop
   vertex -2.07739 -36 -6
   vertex -2 -35.9226 -8
   vertex -2 -35.9226 -6
  endloop
 endfacet
 facet normal -0.707107 -0.707106 -0
  outer loop
   vertex 6.39838 -36 -10
   vertex 6.39838 -36 -8
   vertex 6 -35.6016 -8
  endloop
 endfacet
 facet normal -0.702597 -0.702596 -0.112766
  outer loop
   vertex 6 -35.6016 -8
   vertex 6.39838 -36 -8
   vertex 6 -35.9226 -6
  endloop
 endfacet
 facet normal -0.38177 -0.912578 -0.146468
  outer loop
   vertex 6 -35.6016 -8
   vertex 6 -35.9226 -6
   vertex 4 -35.0859 -6
  endloop
 endfacet
 facet normal -0.360049 -0.860656 -0.360049
  outer loop
   vertex 4 -35.0859 -6
   vertex 6 -35.9226 -6
   vertex 4 -35.9226 -4
  endloop
 endfacet
 facet normal -0.707107 -0.707106 -0
  outer loop
   vertex 6.39838 -36 -10
   vertex 6 -35.6016 -8
   vertex 6 -35.6016 -10
  endloop
 endfacet
 facet normal -0.288058 -0.957613 -0
  outer loop
   vertex 6 -35.6016 -10
   vertex 6 -35.6016 -8
   vertex 4 -35 -8
  endloop
 endfacet
 facet normal -0.288058 -0.957613 -0
  outer loop
   vertex 6 -35.6016 -10
   vertex 4 -35 -8
   vertex 4 -35 -10
  endloop
 endfacet
 facet normal 0.0969307 -0.993813 0.0542316
  outer loop
   vertex 0 -35.1951 -10
   vertex 2 -35 -10
   vertex 0 -35.0859 -8
  endloop
 endfacet
 facet normal 0.0429253 -0.999078 0
  outer loop
   vertex 0 -35.0859 -8
   vertex 2 -35 -10
   vertex 2 -35 -8
  endloop
 endfacet
 facet normal 0.0429253 -0.999078 0
  outer loop
   vertex 0 -35.0859 -8
   vertex 2 -35 -8
   vertex 0 -35.0859 -6
  endloop
 endfacet
 facet normal 0.0429253 -0.999078 0
  outer loop
   vertex 0 -35.0859 -6
   vertex 2 -35 -8
   vertex 2 -35 -6
  endloop
 endfacet
 facet normal -0.188427 0.796661 -0.574306
  outer loop
   vertex 2.13216 -44 -6
   vertex 4 -45 -8
   vertex 2 -44.0313 -6
  endloop
 endfacet
 facet normal -0.0961375 0.854706 -0.510132
  outer loop
   vertex 2 -44.0313 -6
   vertex 4 -45 -8
   vertex 2 -45.225 -8
  endloop
 endfacet
 facet normal 0.551594 0.669382 -0.497667
  outer loop
   vertex 0 -44.7066 -8
   vertex -0.857474 -44 -8
   vertex 0 -44 -7.04961
  endloop
 endfacet
 facet normal -0.499378 0.518289 -0.694261
  outer loop
   vertex 5.97959 -44 -8
   vertex 4 -44 -6.57609
   vertex 6 -43.9803 -8
  endloop
 endfacet
 facet normal -0.393393 0.742396 -0.542301
  outer loop
   vertex 6 -43.9803 -8
   vertex 4 -44 -6.57609
   vertex 4 -43.5792 -6
  endloop
 endfacet
 facet normal -0.425994 0.704732 -0.567347
  outer loop
   vertex 6 -43.9803 -8
   vertex 4 -43.5792 -6
   vertex 6 -42.3702 -6
  endloop
 endfacet
 facet normal -0.481634 0.796778 -0.36493
  outer loop
   vertex 6 -42.3702 -6
   vertex 4 -43.5792 -6
   vertex 4 -42.6632 -4
  endloop
 endfacet
 facet normal -0.540133 0.720695 -0.434574
  outer loop
   vertex 6 -42.3702 -6
   vertex 4 -42.6632 -4
   vertex 4.88485 -42 -4
  endloop
 endfacet
 facet normal -0.54045 0.721119 -0.433476
  outer loop
   vertex 4.88485 -42 -4
   vertex 4 -42.6632 -4
   vertex 4 -42 -2.89678
  endloop
 endfacet
 facet normal 0.715363 0.567248 -0.408027
  outer loop
   vertex -1.35248 -42 -6
   vertex -2 -42 -7.13524
   vertex -2 -41.1834 -6
  endloop
 endfacet
 facet normal 0.773244 0.51477 -0.370279
  outer loop
   vertex -2 -41.1834 -6
   vertex -2 -42 -7.13524
   vertex -2.4141 -42 -8
  endloop
 endfacet
 facet normal 0.800954 0.477732 -0.360894
  outer loop
   vertex -2 -41.1834 -6
   vertex -2.4141 -42 -8
   vertex -2.70585 -40 -6
  endloop
 endfacet
 facet normal 0.965235 0.241293 -0.100491
  outer loop
   vertex -2.70585 -40 -6
   vertex -2.4141 -42 -8
   vertex -2.91407 -40 -8
  endloop
 endfacet
 facet normal -0.999078 0 -0.0429253
  outer loop
   vertex 7 -38 -8
   vertex 6.91407 -40 -6
   vertex 6.91407 -38 -6
  endloop
 endfacet
 facet normal -0.933724 0 -0.357993
  outer loop
   vertex 6.91407 -38 -6
   vertex 6.91407 -40 -6
   vertex 6.14726 -40 -4
  endloop
 endfacet
 facet normal -0.922048 -0.0322151 -0.385732
  outer loop
   vertex 6.91407 -38 -6
   vertex 6.14726 -40 -4
   vertex 6.07739 -38 -4
  endloop
 endfacet
 facet normal -0.735462 -0.025696 -0.677079
  outer loop
   vertex 6.07739 -38 -4
   vertex 6.14726 -40 -4
   vertex 6 -40 -3.84004
  endloop
 endfacet
 facet normal -0.706806 -0.0291824 -0.706806
  outer loop
   vertex 6.07739 -38 -4
   vertex 6 -40 -3.84004
   vertex 6 -38 -3.92261
  endloop
 endfacet
 facet normal -0.418591 -0.0374645 -0.907402
  outer loop
   vertex 6 -38 -3.92261
   vertex 6 -40 -3.84004
   vertex 4 -38 -3
  endloop
 endfacet
 facet normal -0.386358 -0.386358 -0.837529
  outer loop
   vertex 6 -38 -3.92261
   vertex 4 -38 -3
   vertex 4 -36 -3.92261
  endloop
 endfacet
 facet normal -0.144216 -0.414506 -0.898547
  outer loop
   vertex 4 -36 -3.92261
   vertex 4 -38 -3
   vertex 2 -36 -3.60162
  endloop
 endfacet
 facet normal -0.112766 -0.702596 -0.702597
  outer loop
   vertex 4 -36 -3.92261
   vertex 2 -36 -3.60162
   vertex 2 -35.6016 -4
  endloop
 endfacet
 facet normal 0.112766 -0.702596 -0.702597
  outer loop
   vertex 2 -35.6016 -4
   vertex 2 -36 -3.60162
   vertex 0 -35.9226 -4
  endloop
 endfacet
 facet normal 0.922527 -0.385932 0
  outer loop
   vertex -2.91407 -38 -6
   vertex -2.07739 -36 -8
   vertex -2.07739 -36 -6
  endloop
 endfacet
 facet normal -0.702592 -0.702601 -0.112765
  outer loop
   vertex 6.39838 -36 -8
   vertex 6.07739 -36 -6
   vertex 6 -35.9226 -6
  endloop
 endfacet
 facet normal -0.651689 -0.651697 -0.388064
  outer loop
   vertex 6 -35.9226 -6
   vertex 6.07739 -36 -6
   vertex 6 -36 -5.87004
  endloop
 endfacet
 facet normal -0.455477 -0.764907 -0.455477
  outer loop
   vertex 6 -35.9226 -6
   vertex 6 -36 -5.87004
   vertex 4 -35.9226 -4
  endloop
 endfacet
 facet normal -0.455477 -0.764907 -0.455477
  outer loop
   vertex 4 -35.9226 -4
   vertex 6 -36 -5.87004
   vertex 4.12996 -36 -4
  endloop
 endfacet
 facet normal -0.287814 -0.956804 -0.041109
  outer loop
   vertex 4 -35 -8
   vertex 6 -35.6016 -8
   vertex 4 -35.0859 -6
  endloop
 endfacet
 facet normal -0.204885 0.866248 -0.455671
  outer loop
   vertex 2.13216 -44 -6
   vertex 2 -44.0313 -6
   vertex 2 -44 -5.94058
  endloop
 endfacet
 facet normal 0.327692 0.836156 -0.439841
  outer loop
   vertex 2 -44 -5.94058
   vertex 2 -44.0313 -6
   vertex 1.92024 -44 -6
  endloop
 endfacet
 facet normal -0.214911 0.887933 -0.40668
  outer loop
   vertex 4 -43.5792 -6
   vertex 2 -43.1472 -4
   vertex 4 -42.6632 -4
  endloop
 endfacet
 facet normal -0.21029 0.868842 -0.448209
  outer loop
   vertex 4 -42.6632 -4
   vertex 2 -43.1472 -4
   vertex 2 -42.1155 -2
  endloop
 endfacet
 facet normal -0.30653 0.794573 -0.524112
  outer loop
   vertex 4 -42.6632 -4
   vertex 2 -42.1155 -2
   vertex 2.29938 -42 -2
  endloop
 endfacet
 facet normal -0.253438 0.65695 -0.710061
  outer loop
   vertex 2.29938 -42 -2
   vertex 2 -42.1155 -2
   vertex 2 -42 -1.89314
  endloop
 endfacet
 facet normal -0.335964 -0.0335793 -0.941276
  outer loop
   vertex 2.29938 -42 -2
   vertex 2 -42 -1.89314
   vertex 2.09948 -40 -2
  endloop
 endfacet
 facet normal -0.299587 -0.0360359 -0.953388
  outer loop
   vertex 2.09948 -40 -2
   vertex 2 -42 -1.89314
   vertex 2 -40 -1.96874
  endloop
 endfacet
 facet normal 0.27547 0.906183 -0.320855
  outer loop
   vertex 0 -43.2474 -6
   vertex 0 -42.5393 -4
   vertex 2 -43.1472 -4
  endloop
 endfacet
 facet normal 0.26081 0.857957 -0.442593
  outer loop
   vertex 2 -43.1472 -4
   vertex 0 -42.5393 -4
   vertex 2 -42.1155 -2
  endloop
 endfacet
 facet normal 0.734286 0.582253 -0.349005
  outer loop
   vertex -2 -41.1834 -6
   vertex -2 -40 -4.02569
   vertex -1.35248 -42 -6
  endloop
 endfacet
 facet normal 0.686352 0.61124 -0.39409
  outer loop
   vertex -1.35248 -42 -6
   vertex -2 -40 -4.02569
   vertex -1.98525 -40 -4
  endloop
 endfacet
 facet normal 0.790571 0.539619 -0.289496
  outer loop
   vertex -1.35248 -42 -6
   vertex -1.98525 -40 -4
   vertex -0.620113 -42 -4
  endloop
 endfacet
 facet normal 0.543877 0.371233 -0.752585
  outer loop
   vertex -0.620113 -42 -4
   vertex -1.98525 -40 -4
   vertex 0 -40 -2.5653
  endloop
 endfacet
 facet normal 0.821004 0.489691 -0.293523
  outer loop
   vertex -2 -41.1834 -6
   vertex -2.70585 -40 -6
   vertex -2 -40 -4.02569
  endloop
 endfacet
 facet normal 0.941138 0.0323327 -0.336473
  outer loop
   vertex -2 -40 -4.02569
   vertex -2.70585 -40 -6
   vertex -2 -39.7327 -4
  endloop
 endfacet
 facet normal 0.866222 0.0477935 -0.497368
  outer loop
   vertex -2 -40 -4.02569
   vertex -2 -39.7327 -4
   vertex -1.98525 -40 -4
  endloop
 endfacet
 facet normal 0.628798 0.0346937 -0.776794
  outer loop
   vertex -1.98525 -40 -4
   vertex -2 -39.7327 -4
   vertex -2 -38 -3.92261
  endloop
 endfacet
 facet normal 0.585361 0.0356578 -0.809988
  outer loop
   vertex -1.98525 -40 -4
   vertex -2 -38 -3.92261
   vertex 0 -40 -2.5653
  endloop
 endfacet
 facet normal 0.410958 -0.193626 -0.890855
  outer loop
   vertex 0 -40 -2.5653
   vertex -2 -38 -3.92261
   vertex 0 -38 -3
  endloop
 endfacet
 facet normal 0.09488 -0.211432 -0.972777
  outer loop
   vertex 0 -40 -2.5653
   vertex 0 -38 -3
   vertex 2 -38 -2.80493
  endloop
 endfacet
 facet normal 0.0882205 -0.417252 -0.904499
  outer loop
   vertex 2 -38 -2.80493
   vertex 0 -38 -3
   vertex 0 -36 -3.92261
  endloop
 endfacet
 facet normal 0.940388 0.0420003 -0.3375
  outer loop
   vertex -2.70585 -40 -6
   vertex -2.07739 -38 -4
   vertex -2 -39.7327 -4
  endloop
 endfacet
 facet normal 0.706754 0.0315656 -0.706754
  outer loop
   vertex -2 -39.7327 -4
   vertex -2.07739 -38 -4
   vertex -2 -38 -3.92261
  endloop
 endfacet
 facet normal -0.764902 -0.45548 -0.45548
  outer loop
   vertex 6.07739 -36 -6
   vertex 6 -37.87 -4
   vertex 6 -36 -5.87004
  endloop
 endfacet
 facet normal -0.57735 -0.577351 -0.57735
  outer loop
   vertex 6 -36 -5.87004
   vertex 6 -37.87 -4
   vertex 4.12996 -36 -4
  endloop
 endfacet
 facet normal 0.57735 -0.577351 -0.57735
  outer loop
   vertex -2 -36 -5.87004
   vertex -0.129956 -36 -4
   vertex -2 -37.87 -4
  endloop
 endfacet
 facet normal 0.45548 -0.455481 -0.764902
  outer loop
   vertex -2 -37.87 -4
   vertex -0.129956 -36 -4
   vertex 0 -36 -3.92261
  endloop
 endfacet
 facet normal 0.455475 -0.455475 -0.764908
  outer loop
   vertex -2 -37.87 -4
   vertex 0 -36 -3.92261
   vertex -2 -38 -3.92261
  endloop
 endfacet
 facet normal 0.386358 -0.386358 -0.837529
  outer loop
   vertex -2 -38 -3.92261
   vertex 0 -36 -3.92261
   vertex 0 -38 -3
  endloop
 endfacet
 facet normal 0.764909 -0.455475 -0.455475
  outer loop
   vertex -2 -36 -5.87004
   vertex -2 -37.87 -4
   vertex -2.07739 -38 -4
  endloop
 endfacet
 facet normal 0.651694 -0.38806 -0.651694
  outer loop
   vertex -2.07739 -38 -4
   vertex -2 -37.87 -4
   vertex -2 -38 -3.92261
  endloop
 endfacet
 facet normal -0.262174 0.827091 -0.497178
  outer loop
   vertex 4 -42.6632 -4
   vertex 2.29938 -42 -2
   vertex 4 -42 -2.89678
  endloop
 endfacet
 facet normal -0.46594 -0.0465702 -0.88359
  outer loop
   vertex 4 -42 -2.89678
   vertex 2.29938 -42 -2
   vertex 2.09948 -40 -2
  endloop
 endfacet
 facet normal 0.308612 0.79997 -0.514594
  outer loop
   vertex 0 -42 -3.0199
   vertex 1.70062 -42 -2
   vertex 2 -42.1155 -2
  endloop
 endfacet
 facet normal 0.253438 0.65695 -0.710061
  outer loop
   vertex 2 -42.1155 -2
   vertex 1.70062 -42 -2
   vertex 2 -42 -1.89314
  endloop
 endfacet
 facet normal 0.284195 0.840015 -0.462177
  outer loop
   vertex 0 -42 -3.0199
   vertex 2 -42.1155 -2
   vertex 0 -42.5393 -4
  endloop
 endfacet
 facet normal -0.685304 0.36376 -0.630902
  outer loop
   vertex 6 -40.2774 -4
   vertex 6 -40 -3.84004
   vertex 6.14726 -40 -4
  endloop
 endfacet
 facet normal -0.25522 -0.370449 -0.893101
  outer loop
   vertex 4 -40 -2.54689
   vertex 2 -39.9406 -2
   vertex 2 -38 -2.80493
  endloop
 endfacet
 facet normal 0.223103 -0.37348 -0.90041
  outer loop
   vertex 2 -38 -2.80493
   vertex 2 -39.9406 -2
   vertex 1.90052 -40 -2
  endloop
 endfacet
 facet normal 0.264715 -0.371344 -0.88996
  outer loop
   vertex 2 -38 -2.80493
   vertex 1.90052 -40 -2
   vertex 0 -40 -2.5653
  endloop
 endfacet
 facet normal 0.335941 -0.0355756 -0.941211
  outer loop
   vertex 2 -42 -1.89314
   vertex 1.70062 -42 -2
   vertex 2 -40 -1.96874
  endloop
 endfacet
endsolid
