solid ascii
 facet normal -0.21687 0.793355 0.56882
  outer loop
   vertex 3.45737 -76 -34
   vertex 2 -76 -34.5556
   vertex 2 -76.3984 -34
  endloop
 endfacet
 facet normal 0.436555 0.731165 0.524231
  outer loop
   vertex 2 -76.3984 -34
   vertex 2 -76 -34.5556
   vertex 1.33277 -76 -34
  endloop
 endfacet
 facet normal 0.430813 0.721547 0.542005
  outer loop
   vertex 2 -76.3984 -34
   vertex 1.33277 -76 -34
   vertex 0 -76.7066 -32
  endloop
 endfacet
 facet normal 0.45095 0.703655 0.549103
  outer loop
   vertex 0 -76.7066 -32
   vertex 1.33277 -76 -34
   vertex 0 -76 -32.9055
  endloop
 endfacet
 facet normal 0.544777 0.661109 0.515901
  outer loop
   vertex 0 -76.7066 -32
   vertex 0 -76 -32.9055
   vertex -0.857474 -76 -32
  endloop
 endfacet
 facet normal 0.64443 0.460735 0.610273
  outer loop
   vertex -0.857474 -76 -32
   vertex 0 -76 -32.9055
   vertex -2 -74.4019 -32
  endloop
 endfacet
 facet normal 0.63105 0.451168 0.631049
  outer loop
   vertex -0.857474 -76 -32
   vertex -2 -74.4019 -32
   vertex -2 -76 -30.8575
  endloop
 endfacet
 facet normal 0.722477 0.402112 0.562435
  outer loop
   vertex -2 -76 -30.8575
   vertex -2 -74.4019 -32
   vertex -2.22371 -74 -32
  endloop
 endfacet
 facet normal 0.703866 0.410072 0.580012
  outer loop
   vertex -2 -76 -30.8575
   vertex -2.22371 -74 -32
   vertex -2.70659 -76 -30
  endloop
 endfacet
 facet normal 0.847886 0.258293 0.463005
  outer loop
   vertex -2.70659 -76 -30
   vertex -2.22371 -74 -32
   vertex -3.31585 -74 -30
  endloop
 endfacet
 facet normal 0.870696 0.265241 0.414169
  outer loop
   vertex -2.70659 -76 -30
   vertex -3.31585 -74 -30
   vertex -3.65794 -76 -28
  endloop
 endfacet
 facet normal 0.921378 0.184492 0.342089
  outer loop
   vertex -3.65794 -76 -28
   vertex -3.31585 -74 -30
   vertex -4 -74.2917 -28
  endloop
 endfacet
 facet normal 0.920141 0.184245 -0.345536
  outer loop
   vertex -3.65794 -76 -28
   vertex -4 -74.2917 -28
   vertex -4 -74 -27.8445
  endloop
 endfacet
 facet normal 0.91769 0.186931 -0.350573
  outer loop
   vertex -4 -74 -27.8445
   vertex -4 -74.2917 -28
   vertex -4.05942 -74 -28
  endloop
 endfacet
 facet normal 0.934154 -0.0023476 -0.356863
  outer loop
   vertex -4 -74 -27.8445
   vertex -4.05942 -74 -28
   vertex -4 -72 -27.8576
  endloop
 endfacet
 facet normal 0.922864 0 -0.385125
  outer loop
   vertex -4 -72 -27.8576
   vertex -4.05942 -74 -28
   vertex -4.05942 -72 -28
  endloop
 endfacet
 facet normal 0.921827 0.0474042 -0.384692
  outer loop
   vertex -4 -72 -27.8576
   vertex -4.05942 -72 -28
   vertex -4 -70 -27.6112
  endloop
 endfacet
 facet normal 0.938541 0.0387976 -0.342979
  outer loop
   vertex -4 -70 -27.6112
   vertex -4.05942 -72 -28
   vertex -4.1421 -70 -28
  endloop
 endfacet
 facet normal 0.897055 0.296358 -0.327818
  outer loop
   vertex -4 -70 -27.6112
   vertex -4.1421 -70 -28
   vertex -4 -68.2178 -26
  endloop
 endfacet
 facet normal 0.885095 0.314464 -0.343102
  outer loop
   vertex -4 -68.2178 -26
   vertex -4.1421 -70 -28
   vertex -4.07739 -68 -26
  endloop
 endfacet
 facet normal 0.6858 0.243657 -0.685791
  outer loop
   vertex -4 -68.2178 -26
   vertex -4.07739 -68 -26
   vertex -4 -68 -25.9226
  endloop
 endfacet
 facet normal 0.70643 0.0438751 -0.706422
  outer loop
   vertex -4 -68 -25.9226
   vertex -4.07739 -68 -26
   vertex -4 -66 -25.7984
  endloop
 endfacet
 facet normal 0.3853 0.0572034 -0.921017
  outer loop
   vertex -4 -68 -25.9226
   vertex -4 -66 -25.7984
   vertex -2 -68 -25.0859
  endloop
 endfacet
 facet normal 0.319956 -0.0174932 -0.947271
  outer loop
   vertex -2 -68 -25.0859
   vertex -4 -66 -25.7984
   vertex -2 -66 -25.1229
  endloop
 endfacet
 facet normal 0.042918 -0.0184468 -0.998908
  outer loop
   vertex -2 -68 -25.0859
   vertex -2 -66 -25.1229
   vertex 0 -68 -25
  endloop
 endfacet
 facet normal 0 -0.0613163 -0.998118
  outer loop
   vertex 0 -68 -25
   vertex -2 -66 -25.1229
   vertex 0 -66 -25.1229
  endloop
 endfacet
 facet normal 0 -0.0613163 -0.998118
  outer loop
   vertex 0 -68 -25
   vertex 0 -66 -25.1229
   vertex 2 -68 -25
  endloop
 endfacet
 facet normal 0 -0.0613163 -0.998118
  outer loop
   vertex 2 -68 -25
   vertex 0 -66 -25.1229
   vertex 2 -66 -25.1229
  endloop
 endfacet
 facet normal 0 -0.0613163 -0.998118
  outer loop
   vertex 2 -68 -25
   vertex 2 -66 -25.1229
   vertex 4 -68 -25
  endloop
 endfacet
 facet normal 0 -0.0613163 -0.998118
  outer loop
   vertex 4 -68 -25
   vertex 2 -66 -25.1229
   vertex 4 -66 -25.1229
  endloop
 endfacet
 facet normal -0.145241 -0.0606661 -0.987535
  outer loop
   vertex 4 -68 -25
   vertex 4 -66 -25.1229
   vertex 6 -68 -25.2941
  endloop
 endfacet
 facet normal -0.0505511 0.0349299 -0.99811
  outer loop
   vertex 6 -68 -25.2941
   vertex 4 -66 -25.1229
   vertex 6 -66 -25.2242
  endloop
 endfacet
 facet normal -0.412864 0.0318546 -0.910235
  outer loop
   vertex 6 -68 -25.2941
   vertex 6 -66 -25.2242
   vertex 7.71049 -66 -26
  endloop
 endfacet
 facet normal -0.402028 -0.229708 -0.886345
  outer loop
   vertex 7.71049 -66 -26
   vertex 6 -66 -25.2242
   vertex 6.56774 -64 -26
  endloop
 endfacet
 facet normal -0.864601 -0.49401 0.0917506
  outer loop
   vertex 7.71049 -66 -26
   vertex 6.56774 -64 -26
   vertex 7.49825 -66 -28
  endloop
 endfacet
 facet normal -0.451125 -0.727222 0.517334
  outer loop
   vertex 7.49825 -66 -28
   vertex 6.56774 -64 -26
   vertex 6 -64 -26.4951
  endloop
 endfacet
 facet normal -0.462496 -0.727649 0.506581
  outer loop
   vertex 7.49825 -66 -28
   vertex 6 -64 -26.4951
   vertex 6 -65.0477 -28
  endloop
 endfacet
 facet normal -0.0683226 -0.818781 0.570026
  outer loop
   vertex 6 -65.0477 -28
   vertex 6 -64 -26.4951
   vertex 4 -64 -26.7348
  endloop
 endfacet
 facet normal -0.0594841 -0.813003 0.579213
  outer loop
   vertex 6 -65.0477 -28
   vertex 4 -64 -26.7348
   vertex 4 -64.9014 -28
  endloop
 endfacet
 facet normal 0 -0.814445 0.580241
  outer loop
   vertex 4 -64.9014 -28
   vertex 4 -64 -26.7348
   vertex 2 -64 -26.7348
  endloop
 endfacet
 facet normal 0.020337 -0.798805 0.601246
  outer loop
   vertex 4 -64.9014 -28
   vertex 2 -64 -26.7348
   vertex 2 -64.9523 -28
  endloop
 endfacet
 facet normal 0 -0.79897 0.601371
  outer loop
   vertex 2 -64.9523 -28
   vertex 2 -64 -26.7348
   vertex 0 -64 -26.7348
  endloop
 endfacet
 facet normal 0.0187104 -0.784396 0.619978
  outer loop
   vertex 2 -64.9523 -28
   vertex 0 -64 -26.7348
   vertex 0 -65 -28
  endloop
 endfacet
 facet normal 0.0741184 -0.782375 0.618381
  outer loop
   vertex 0 -65 -28
   vertex 0 -64 -26.7348
   vertex -2 -64 -26.4951
  endloop
 endfacet
 facet normal 0.0195726 -0.820541 0.571252
  outer loop
   vertex 0 -65 -28
   vertex -2 -64 -26.4951
   vertex -2 -65.0477 -28
  endloop
 endfacet
 facet normal 0.445952 -0.734572 0.511401
  outer loop
   vertex -2 -65.0477 -28
   vertex -2 -64 -26.4951
   vertex -2.56774 -64 -26
  endloop
 endfacet
 facet normal 0.403133 -0.758618 0.511842
  outer loop
   vertex -2 -65.0477 -28
   vertex -2.56774 -64 -26
   vertex -3.79203 -66 -28
  endloop
 endfacet
 facet normal 0.717097 -0.660747 0.221779
  outer loop
   vertex -3.79203 -66 -28
   vertex -2.56774 -64 -26
   vertex -4 -65.5544 -26
  endloop
 endfacet
 facet normal 0.670751 -0.706072 0.227058
  outer loop
   vertex -3.79203 -66 -28
   vertex -4 -65.5544 -26
   vertex -4 -66 -27.3856
  endloop
 endfacet
 facet normal 0.909317 -0.396125 0.127386
  outer loop
   vertex -4 -66 -27.3856
   vertex -4 -65.5544 -26
   vertex -4.19411 -66 -26
  endloop
 endfacet
 facet normal 0.968736 -0.207688 0.135709
  outer loop
   vertex -4 -66 -27.3856
   vertex -4.19411 -66 -26
   vertex -4 -66.4014 -28
  endloop
 endfacet
 facet normal 0.971916 -0.19396 0.133263
  outer loop
   vertex -4 -66.4014 -28
   vertex -4.19411 -66 -26
   vertex -4.31902 -68 -28
  endloop
 endfacet
 facet normal 0.738875 -0.147453 0.657511
  outer loop
   vertex -4 -66.4014 -28
   vertex -4.31902 -68 -28
   vertex -4 -68 -28.3585
  endloop
 endfacet
 facet normal 0.746394 0.0416114 0.664202
  outer loop
   vertex -4 -68 -28.3585
   vertex -4.31902 -68 -28
   vertex -4 -70 -28.2332
  endloop
 endfacet
 facet normal 0.415192 0.0568822 0.907954
  outer loop
   vertex -4 -68 -28.3585
   vertex -4 -70 -28.2332
   vertex -2 -68 -29.2731
  endloop
 endfacet
 facet normal 0.683754 -0.35118 0.639651
  outer loop
   vertex -2 -68 -29.2731
   vertex -4 -70 -28.2332
   vertex -2 -69.3241 -30
  endloop
 endfacet
 facet normal 0.118831 -0.477848 0.870368
  outer loop
   vertex -2 -68 -29.2731
   vertex -2 -69.3241 -30
   vertex 0 -68.8267 -30
  endloop
 endfacet
 facet normal 0.142989 -0.574994 0.805566
  outer loop
   vertex 0 -68.8267 -30
   vertex -2 -69.3241 -30
   vertex -2 -70 -30.4825
  endloop
 endfacet
 facet normal 0.193231 -0.636442 0.746729
  outer loop
   vertex 0 -68.8267 -30
   vertex -2 -70 -30.4825
   vertex 0 -70 -31
  endloop
 endfacet
 facet normal 0.202628 -0.588037 0.783042
  outer loop
   vertex 0 -70 -31
   vertex -2 -70 -30.4825
   vertex -2 -72 -31.9844
  endloop
 endfacet
 facet normal 0.321954 -0.657323 0.681375
  outer loop
   vertex 0 -70 -31
   vertex -2 -72 -31.9844
   vertex 0 -71.0366 -32
  endloop
 endfacet
 facet normal 0.364562 -0.747824 0.554846
  outer loop
   vertex 0 -71.0366 -32
   vertex -2 -72 -31.9844
   vertex -1.97624 -72 -32
  endloop
 endfacet
 facet normal 0.314424 -0.644976 0.696522
  outer loop
   vertex 0 -71.0366 -32
   vertex -1.97624 -72 -32
   vertex 0 -72 -32.8921
  endloop
 endfacet
 facet normal 0.408153 -0.12615 0.904156
  outer loop
   vertex 0 -72 -32.8921
   vertex -1.97624 -72 -32
   vertex -2 -74 -32.2683
  endloop
 endfacet
 facet normal 0.583842 -0.356313 0.729499
  outer loop
   vertex 0 -72 -32.8921
   vertex -2 -74 -32.2683
   vertex 0 -74 -33.869
  endloop
 endfacet
 facet normal 0.584851 0.35205 0.73076
  outer loop
   vertex 0 -74 -33.869
   vertex -2 -74 -32.2683
   vertex 0 -76 -32.9055
  endloop
 endfacet
 facet normal 0.36867 0.403446 0.837445
  outer loop
   vertex 0 -74 -33.869
   vertex 0 -76 -32.9055
   vertex 0.297606 -74 -34
  endloop
 endfacet
 facet normal 0.602959 0.31208 0.734198
  outer loop
   vertex 0.297606 -74 -34
   vertex 0 -76 -32.9055
   vertex 1.33277 -76 -34
  endloop
 endfacet
 facet normal 0.607468 0.314414 0.72947
  outer loop
   vertex 0.297606 -74 -34
   vertex 1.33277 -76 -34
   vertex 2 -76 -34.5556
  endloop
 endfacet
 facet normal -0.355683 0.0562997 0.932909
  outer loop
   vertex 3.45737 -76 -34
   vertex 2 -74 -34.6763
   vertex 2 -76 -34.5556
  endloop
 endfacet
 facet normal 0.368636 0.0559965 0.927886
  outer loop
   vertex 2 -76 -34.5556
   vertex 2 -74 -34.6763
   vertex 0.297606 -74 -34
  endloop
 endfacet
 facet normal -0.32378 0.0827914 0.942503
  outer loop
   vertex 3.45737 -76 -34
   vertex 3.96878 -74 -34
   vertex 2 -74 -34.6763
  endloop
 endfacet
 facet normal -0.260954 -0.595716 0.759622
  outer loop
   vertex 2 -74 -34.6763
   vertex 3.96878 -74 -34
   vertex 2 -73.1376 -34
  endloop
 endfacet
 facet normal 0.298379 -0.588987 0.751042
  outer loop
   vertex 2 -74 -34.6763
   vertex 2 -73.1376 -34
   vertex 0.297606 -74 -34
  endloop
 endfacet
 facet normal 0.315341 -0.622469 0.716305
  outer loop
   vertex 0.297606 -74 -34
   vertex 2 -73.1376 -34
   vertex 0 -74 -33.869
  endloop
 endfacet
 facet normal -0.749045 0.606467 0.2667
  outer loop
   vertex 4.57413 -76 -32
   vertex 4 -76 -33.6125
   vertex 4 -76.7091 -32
  endloop
 endfacet
 facet normal -0.251939 0.885868 0.389569
  outer loop
   vertex 4 -76.7091 -32
   vertex 4 -76 -33.6125
   vertex 2 -76.3984 -34
  endloop
 endfacet
 facet normal -0.265822 0.876226 0.401953
  outer loop
   vertex 4 -76.7091 -32
   vertex 2 -76.3984 -34
   vertex 2 -77.3158 -32
  endloop
 endfacet
 facet normal 0.266847 0.875969 0.401835
  outer loop
   vertex 2 -77.3158 -32
   vertex 2 -76.3984 -34
   vertex 0 -76.7066 -32
  endloop
 endfacet
 facet normal 0.247152 0.811319 0.52979
  outer loop
   vertex 2 -77.3158 -32
   vertex 0 -76.7066 -32
   vertex 2 -78 -30.9523
  endloop
 endfacet
 facet normal 0.174059 0.768202 0.616092
  outer loop
   vertex 2 -78 -30.9523
   vertex 0 -76.7066 -32
   vertex 0 -78 -30.3873
  endloop
 endfacet
 facet normal 0.16462 0.795854 0.58268
  outer loop
   vertex 2 -78 -30.9523
   vertex 0 -78 -30.3873
   vertex 0 -78.2835 -30
  endloop
 endfacet
 facet normal 0.418749 0.732713 0.536452
  outer loop
   vertex 0 -78.2835 -30
   vertex 0 -78 -30.3873
   vertex -0.496101 -78 -30
  endloop
 endfacet
 facet normal 0.449023 0.785687 0.425528
  outer loop
   vertex 0 -78.2835 -30
   vertex -0.496101 -78 -30
   vertex -2 -78.2237 -28
  endloop
 endfacet
 facet normal 0.459097 0.776251 0.432048
  outer loop
   vertex -2 -78.2237 -28
   vertex -0.496101 -78 -30
   vertex -2 -78 -28.4019
  endloop
 endfacet
 facet normal 0.588838 0.70623 0.393076
  outer loop
   vertex -2 -78.2237 -28
   vertex -2 -78 -28.4019
   vertex -2.26832 -78 -28
  endloop
 endfacet
 facet normal 0.669377 0.593523 0.446839
  outer loop
   vertex -2.26832 -78 -28
   vertex -2 -78 -28.4019
   vertex -2.70659 -76 -30
  endloop
 endfacet
 facet normal 0.764936 0.531487 0.363862
  outer loop
   vertex -2.26832 -78 -28
   vertex -2.70659 -76 -30
   vertex -3.65794 -76 -28
  endloop
 endfacet
 facet normal -0.24736 0.904896 0.346375
  outer loop
   vertex 2 -76.3984 -34
   vertex 4 -76 -33.6125
   vertex 3.45737 -76 -34
  endloop
 endfacet
 facet normal -0.574758 0.148025 0.804824
  outer loop
   vertex 3.45737 -76 -34
   vertex 4 -76 -33.6125
   vertex 4 -74 -33.9803
  endloop
 endfacet
 facet normal -0.528129 0.135044 0.838357
  outer loop
   vertex 3.45737 -76 -34
   vertex 4 -74 -33.9803
   vertex 3.96878 -74 -34
  endloop
 endfacet
 facet normal -0.39577 -0.669827 0.62825
  outer loop
   vertex 3.96878 -74 -34
   vertex 4 -74 -33.9803
   vertex 2 -72 -33.1079
  endloop
 endfacet
 facet normal -0.260954 -0.595715 0.759623
  outer loop
   vertex 3.96878 -74 -34
   vertex 2 -72 -33.1079
   vertex 2 -73.1376 -34
  endloop
 endfacet
 facet normal 0.302741 -0.588138 0.749961
  outer loop
   vertex 2 -73.1376 -34
   vertex 2 -72 -33.1079
   vertex 0 -74 -33.869
  endloop
 endfacet
 facet normal -0.940279 0.061575 0.334789
  outer loop
   vertex 4 -76 -33.6125
   vertex 4.57413 -76 -32
   vertex 4 -74 -33.9803
  endloop
 endfacet
 facet normal -0.904158 0.140064 0.403585
  outer loop
   vertex 4 -74 -33.9803
   vertex 4.57413 -76 -32
   vertex 4.88395 -74 -32
  endloop
 endfacet
 facet normal -0.877291 -0.277515 0.391593
  outer loop
   vertex 4 -74 -33.9803
   vertex 4.88395 -74 -32
   vertex 4 -72 -32.563
  endloop
 endfacet
 facet normal -0.75987 -0.158373 0.630488
  outer loop
   vertex 4 -72 -32.563
   vertex 4.88395 -74 -32
   vertex 4.46711 -72 -32
  endloop
 endfacet
 facet normal -0.723401 -0.341198 0.600229
  outer loop
   vertex 4 -72 -32.563
   vertex 4.46711 -72 -32
   vertex 4 -71.0096 -32
  endloop
 endfacet
 facet normal -0.739243 -0.34867 0.576151
  outer loop
   vertex 4 -71.0096 -32
   vertex 4.46711 -72 -32
   vertex 4 -70 -31.389
  endloop
 endfacet
 facet normal 0.00533021 -0.517738 0.855523
  outer loop
   vertex 4 -71.0096 -32
   vertex 4 -70 -31.389
   vertex 2 -70 -31.3765
  endloop
 endfacet
 facet normal 0.00516049 -0.560287 0.828282
  outer loop
   vertex 2 -70 -31.3765
   vertex 4 -70 -31.389
   vertex 4 -68 -30.0361
  endloop
 endfacet
 facet normal 0.143243 -0.645845 0.749911
  outer loop
   vertex 2 -70 -31.3765
   vertex 4 -68 -30.0361
   vertex 3.811 -68 -30
  endloop
 endfacet
 facet normal 0.148974 -0.607899 0.779914
  outer loop
   vertex 3.811 -68 -30
   vertex 4 -68 -30.0361
   vertex 4 -67.9537 -30
  endloop
 endfacet
 facet normal 0.130799 -0.533734 0.835476
  outer loop
   vertex 3.811 -68 -30
   vertex 4 -67.9537 -30
   vertex 2 -68 -29.7165
  endloop
 endfacet
 facet normal 0.13161 -0.52116 0.84325
  outer loop
   vertex 2 -68 -29.7165
   vertex 4 -67.9537 -30
   vertex 4 -66 -28.7926
  endloop
 endfacet
 facet normal 0.0481086 -0.458137 0.887579
  outer loop
   vertex 2 -68 -29.7165
   vertex 4 -66 -28.7926
   vertex 2 -66 -28.6841
  endloop
 endfacet
 facet normal 0.0439152 -0.584489 0.810212
  outer loop
   vertex 2 -66 -28.6841
   vertex 4 -66 -28.7926
   vertex 4 -64.9014 -28
  endloop
 endfacet
 facet normal 0.0139185 -0.546697 0.837215
  outer loop
   vertex 2 -66 -28.6841
   vertex 4 -64.9014 -28
   vertex 2 -64.9523 -28
  endloop
 endfacet
 facet normal 0.634158 0.429288 0.643083
  outer loop
   vertex 0 -76 -32.9055
   vertex -2 -74 -32.2683
   vertex -2 -74.4019 -32
  endloop
 endfacet
 facet normal 0.706236 0.393073 0.588833
  outer loop
   vertex -2 -74.4019 -32
   vertex -2 -74 -32.2683
   vertex -2.22371 -74 -32
  endloop
 endfacet
 facet normal -0.217001 -0.564429 0.796448
  outer loop
   vertex 4 -74 -33.9803
   vertex 4 -72 -32.563
   vertex 2 -72 -33.1079
  endloop
 endfacet
 facet normal -0.230488 -0.480878 0.84595
  outer loop
   vertex 2 -72 -33.1079
   vertex 4 -72 -32.563
   vertex 4 -71.0096 -32
  endloop
 endfacet
 facet normal -0.105774 -0.63885 0.762025
  outer loop
   vertex 2 -72 -33.1079
   vertex 4 -71.0096 -32
   vertex 2 -70.6785 -32
  endloop
 endfacet
 facet normal -0.11133 -0.672406 0.731762
  outer loop
   vertex 2 -70.6785 -32
   vertex 4 -71.0096 -32
   vertex 2 -70 -31.3765
  endloop
 endfacet
 facet normal 0.137314 -0.670203 0.729365
  outer loop
   vertex 2 -70.6785 -32
   vertex 2 -70 -31.3765
   vertex 0 -70 -31
  endloop
 endfacet
 facet normal 0.142364 -0.638684 0.756185
  outer loop
   vertex 0 -70 -31
   vertex 2 -70 -31.3765
   vertex 2 -68.3702 -30
  endloop
 endfacet
 facet normal 0.146458 -0.641672 0.752866
  outer loop
   vertex 0 -70 -31
   vertex 2 -68.3702 -30
   vertex 0 -68.8267 -30
  endloop
 endfacet
 facet normal 0.132836 -0.58199 0.802273
  outer loop
   vertex 0 -68.8267 -30
   vertex 2 -68.3702 -30
   vertex 0 -68 -29.4003
  endloop
 endfacet
 facet normal 0.0514208 -0.586417 0.808375
  outer loop
   vertex 0 -68.8267 -30
   vertex 0 -68 -29.4003
   vertex -2 -68 -29.2731
  endloop
 endfacet
 facet normal 0.060176 -0.318494 0.946013
  outer loop
   vertex -2 -68 -29.2731
   vertex 0 -68 -29.4003
   vertex -2 -66 -28.5997
  endloop
 endfacet
 facet normal 0.397644 -0.292762 0.86958
  outer loop
   vertex -2 -68 -29.2731
   vertex -2 -66 -28.5997
   vertex -4 -68 -28.3585
  endloop
 endfacet
 facet normal 0.311016 -0.198924 0.929354
  outer loop
   vertex -4 -68 -28.3585
   vertex -2 -66 -28.5997
   vertex -3.79203 -66 -28
  endloop
 endfacet
 facet normal 0.389108 -0.20158 0.898866
  outer loop
   vertex -4 -68 -28.3585
   vertex -3.79203 -66 -28
   vertex -4 -66.4014 -28
  endloop
 endfacet
 facet normal 0.850341 -0.440524 0.287851
  outer loop
   vertex -4 -66.4014 -28
   vertex -3.79203 -66 -28
   vertex -4 -66 -27.3856
  endloop
 endfacet
 facet normal 0.0964892 -0.436834 0.894352
  outer loop
   vertex 0 -74 -33.869
   vertex 2 -72 -33.1079
   vertex 0 -72 -32.8921
  endloop
 endfacet
 facet normal 0.0823955 -0.64027 0.763718
  outer loop
   vertex 0 -72 -32.8921
   vertex 2 -72 -33.1079
   vertex 2 -70.6785 -32
  endloop
 endfacet
 facet normal 0.120758 -0.674463 0.728366
  outer loop
   vertex 0 -72 -32.8921
   vertex 2 -70.6785 -32
   vertex 0 -71.0366 -32
  endloop
 endfacet
 facet normal 0.123358 -0.688988 0.714198
  outer loop
   vertex 0 -71.0366 -32
   vertex 2 -70.6785 -32
   vertex 0 -70 -31
  endloop
 endfacet
 facet normal 0.482838 -0.122073 0.867159
  outer loop
   vertex -2 -74 -32.2683
   vertex -1.97624 -72 -32
   vertex -2 -72.094 -32
  endloop
 endfacet
 facet normal 0.543907 -0.137513 0.827801
  outer loop
   vertex -2 -72.094 -32
   vertex -1.97624 -72 -32
   vertex -2 -72 -31.9844
  endloop
 endfacet
 facet normal 0.834244 -0.0903588 0.543941
  outer loop
   vertex -2 -72.094 -32
   vertex -2 -72 -31.9844
   vertex -3.29385 -72 -30
  endloop
 endfacet
 facet normal 0.802205 -0.287896 0.523051
  outer loop
   vertex -3.29385 -72 -30
   vertex -2 -72 -31.9844
   vertex -2.57609 -70 -30
  endloop
 endfacet
 facet normal 0.886206 -0.318042 0.336879
  outer loop
   vertex -3.29385 -72 -30
   vertex -2.57609 -70 -30
   vertex -4 -72 -28.1424
  endloop
 endfacet
 facet normal 0.778299 0.0284786 0.627248
  outer loop
   vertex -4 -72 -28.1424
   vertex -2.57609 -70 -30
   vertex -4 -70 -28.2332
  endloop
 endfacet
 facet normal 0.853712 0.0236189 0.52021
  outer loop
   vertex -4 -72 -28.1424
   vertex -4 -70 -28.2332
   vertex -4.1421 -70 -28
  endloop
 endfacet
 facet normal 0.851524 0.0753252 0.518877
  outer loop
   vertex -4.1421 -70 -28
   vertex -4 -70 -28.2332
   vertex -4.31902 -68 -28
  endloop
 endfacet
 facet normal 0.988974 0.0874839 -0.119483
  outer loop
   vertex -4.1421 -70 -28
   vertex -4.31902 -68 -28
   vertex -4.07739 -68 -26
  endloop
 endfacet
 facet normal 0.991118 0.0578458 -0.119742
  outer loop
   vertex -4.07739 -68 -26
   vertex -4.31902 -68 -28
   vertex -4.19411 -66 -26
  endloop
 endfacet
 facet normal 0.719727 0.0420062 -0.692985
  outer loop
   vertex -4.07739 -68 -26
   vertex -4.19411 -66 -26
   vertex -4 -66 -25.7984
  endloop
 endfacet
 facet normal 0.687315 -0.299415 -0.661777
  outer loop
   vertex -4 -66 -25.7984
   vertex -4.19411 -66 -26
   vertex -4 -65.5544 -26
  endloop
 endfacet
 facet normal 0.417196 -0.374625 -0.828011
  outer loop
   vertex -4 -66 -25.7984
   vertex -4 -65.5544 -26
   vertex -2 -64 -25.6956
  endloop
 endfacet
 facet normal 0.433272 -0.399225 -0.808019
  outer loop
   vertex -2 -64 -25.6956
   vertex -4 -65.5544 -26
   vertex -2.56774 -64 -26
  endloop
 endfacet
 facet normal 0.406862 -0.508663 -0.758766
  outer loop
   vertex -2 -64 -25.6956
   vertex -2.56774 -64 -26
   vertex -2 -63.5459 -26
  endloop
 endfacet
 facet normal 0.507798 -0.634855 0.582323
  outer loop
   vertex -2 -63.5459 -26
   vertex -2.56774 -64 -26
   vertex -2 -64 -26.4951
  endloop
 endfacet
 facet normal 0.151525 -0.728429 0.668155
  outer loop
   vertex -2 -63.5459 -26
   vertex -2 -64 -26.4951
   vertex 0 -63.1299 -26
  endloop
 endfacet
 facet normal 0.0911936 -0.642497 0.760842
  outer loop
   vertex 0 -63.1299 -26
   vertex -2 -64 -26.4951
   vertex 0 -64 -26.7348
  endloop
 endfacet
 facet normal 0 -0.645185 0.764026
  outer loop
   vertex 0 -63.1299 -26
   vertex 0 -64 -26.7348
   vertex 2 -63.1299 -26
  endloop
 endfacet
 facet normal 0 -0.645185 0.764026
  outer loop
   vertex 2 -63.1299 -26
   vertex 0 -64 -26.7348
   vertex 2 -64 -26.7348
  endloop
 endfacet
 facet normal 0 -0.645185 0.764026
  outer loop
   vertex 2 -63.1299 -26
   vertex 2 -64 -26.7348
   vertex 4 -63.1299 -26
  endloop
 endfacet
 facet normal 0 -0.645185 0.764026
  outer loop
   vertex 4 -63.1299 -26
   vertex 2 -64 -26.7348
   vertex 4 -64 -26.7348
  endloop
 endfacet
 facet normal -0.133016 -0.639452 0.757237
  outer loop
   vertex 4 -63.1299 -26
   vertex 4 -64 -26.7348
   vertex 6 -63.5459 -26
  endloop
 endfacet
 facet normal -0.0807551 -0.734532 0.673752
  outer loop
   vertex 6 -63.5459 -26
   vertex 4 -64 -26.7348
   vertex 6 -64 -26.4951
  endloop
 endfacet
 facet normal -0.507798 -0.634855 0.582323
  outer loop
   vertex 6 -63.5459 -26
   vertex 6 -64 -26.4951
   vertex 6.56774 -64 -26
  endloop
 endfacet
 facet normal 0.764957 -0.0897845 0.637792
  outer loop
   vertex -2 -74 -32.2683
   vertex -2 -72.094 -32
   vertex -2.22371 -74 -32
  endloop
 endfacet
 facet normal 0.83349 -0.0978284 0.543805
  outer loop
   vertex -2.22371 -74 -32
   vertex -2 -72.094 -32
   vertex -3.29385 -72 -30
  endloop
 endfacet
 facet normal 0.877628 -0.00965289 0.479246
  outer loop
   vertex -2.22371 -74 -32
   vertex -3.29385 -72 -30
   vertex -3.31585 -74 -30
  endloop
 endfacet
 facet normal 0.938332 -0.0103206 0.345583
  outer loop
   vertex -3.31585 -74 -30
   vertex -3.29385 -72 -30
   vertex -4 -74 -28.1424
  endloop
 endfacet
 facet normal 0.925308 0.166342 0.340786
  outer loop
   vertex -3.31585 -74 -30
   vertex -4 -74 -28.1424
   vertex -4 -74.2917 -28
  endloop
 endfacet
 facet normal 0.906978 0.184749 0.378496
  outer loop
   vertex -4 -74.2917 -28
   vertex -4 -74 -28.1424
   vertex -4.05942 -74 -28
  endloop
 endfacet
 facet normal -0.527793 0.706339 0.47172
  outer loop
   vertex 4.19708 -78 -30
   vertex 4 -78 -30.2205
   vertex 4 -78.1473 -30
  endloop
 endfacet
 facet normal -0.184887 0.817264 0.545799
  outer loop
   vertex 4 -78.1473 -30
   vertex 4 -78 -30.2205
   vertex 2 -78.5997 -30
  endloop
 endfacet
 facet normal -0.208992 0.923814 0.320765
  outer loop
   vertex 4 -78.1473 -30
   vertex 2 -78.5997 -30
   vertex 2 -79.2942 -28
  endloop
 endfacet
 facet normal 0.137617 0.935687 0.324887
  outer loop
   vertex 2 -79.2942 -28
   vertex 2 -78.5997 -30
   vertex 0 -79 -28
  endloop
 endfacet
 facet normal 0.140647 0.956294 0.256361
  outer loop
   vertex 2 -79.2942 -28
   vertex 0 -79 -28
   vertex 0 -79.5362 -26
  endloop
 endfacet
 facet normal 0.433794 0.870283 0.233304
  outer loop
   vertex 0 -79.5362 -26
   vertex 0 -79 -28
   vertex -2 -78.5393 -26
  endloop
 endfacet
 facet normal 0.445076 0.892918 -0.0678619
  outer loop
   vertex 0 -79.5362 -26
   vertex -2 -78.5393 -26
   vertex -2 -78.3873 -24
  endloop
 endfacet
 facet normal 0.70609 0.706086 -0.0536627
  outer loop
   vertex -2 -78.3873 -24
   vertex -2 -78.5393 -26
   vertex -2.53925 -78 -26
  endloop
 endfacet
 facet normal 0.802603 0.587619 -0.102623
  outer loop
   vertex -2 -78.3873 -24
   vertex -2.53925 -78 -26
   vertex -2.28352 -78 -24
  endloop
 endfacet
 facet normal 0.92895 0.350632 -0.118778
  outer loop
   vertex -2.28352 -78 -24
   vertex -2.53925 -78 -26
   vertex -3.29415 -76 -26
  endloop
 endfacet
 facet normal 0.938435 0.295863 -0.17834
  outer loop
   vertex -2.28352 -78 -24
   vertex -3.29415 -76 -26
   vertex -2.91407 -76 -24
  endloop
 endfacet
 facet normal 0.981085 0.0520612 -0.186445
  outer loop
   vertex -2.91407 -76 -24
   vertex -3.29415 -76 -26
   vertex -3.40028 -74 -26
  endloop
 endfacet
 facet normal 0.968151 -0.0145795 -0.249942
  outer loop
   vertex -2.91407 -76 -24
   vertex -3.40028 -74 -26
   vertex -2.88395 -74 -24
  endloop
 endfacet
 facet normal 0.966971 -0.051455 -0.249637
  outer loop
   vertex -2.88395 -74 -24
   vertex -3.40028 -74 -26
   vertex -3.29385 -72 -26
  endloop
 endfacet
 facet normal 0.827852 -0.302636 -0.472305
  outer loop
   vertex -2.88395 -74 -24
   vertex -3.29385 -72 -26
   vertex -2.15282 -72 -24
  endloop
 endfacet
 facet normal 0.868583 -0.000406614 -0.495543
  outer loop
   vertex -2.15282 -72 -24
   vertex -3.29385 -72 -26
   vertex -3.29292 -70 -26
  endloop
 endfacet
 facet normal 0.559526 -0.404464 -0.723422
  outer loop
   vertex -2.15282 -72 -24
   vertex -3.29292 -70 -26
   vertex -2 -70 -25
  endloop
 endfacet
 facet normal 0.593966 0.239706 -0.767949
  outer loop
   vertex -2 -70 -25
   vertex -3.29292 -70 -26
   vertex -4 -68 -25.9226
  endloop
 endfacet
 facet normal 0.385629 -0.0396052 -0.921804
  outer loop
   vertex -2 -70 -25
   vertex -4 -68 -25.9226
   vertex -2 -68 -25.0859
  endloop
 endfacet
 facet normal -0.191378 0.830543 0.523042
  outer loop
   vertex 2 -78.5997 -30
   vertex 4 -78 -30.2205
   vertex 2 -78 -30.9523
  endloop
 endfacet
 facet normal -0.196166 0.821027 0.536129
  outer loop
   vertex 2 -78 -30.9523
   vertex 4 -78 -30.2205
   vertex 2 -77.3158 -32
  endloop
 endfacet
 facet normal 0.132597 0.838711 0.528187
  outer loop
   vertex 2 -78 -30.9523
   vertex 0 -78.2835 -30
   vertex 2 -78.5997 -30
  endloop
 endfacet
 facet normal 0.147213 0.931158 0.333576
  outer loop
   vertex 2 -78.5997 -30
   vertex 0 -78.2835 -30
   vertex 0 -79 -28
  endloop
 endfacet
 facet normal -0.549091 0.676504 0.490755
  outer loop
   vertex 4.19708 -78 -30
   vertex 4 -76.7091 -32
   vertex 4 -78 -30.2205
  endloop
 endfacet
 facet normal -0.238478 0.786092 0.570253
  outer loop
   vertex 4 -78 -30.2205
   vertex 4 -76.7091 -32
   vertex 2 -77.3158 -32
  endloop
 endfacet
 facet normal -0.69991 0.566685 0.434734
  outer loop
   vertex 4 -76.7091 -32
   vertex 4.19708 -78 -30
   vertex 4.57413 -76 -32
  endloop
 endfacet
 facet normal -0.836175 0.458548 0.300907
  outer loop
   vertex 4.57413 -76 -32
   vertex 4.19708 -78 -30
   vertex 5.29385 -76 -30
  endloop
 endfacet
 facet normal -0.93109 0.144236 0.335064
  outer loop
   vertex 4.57413 -76 -32
   vertex 5.29385 -76 -30
   vertex 4.88395 -74 -32
  endloop
 endfacet
 facet normal -0.960506 0.0719409 0.268798
  outer loop
   vertex 4.88395 -74 -32
   vertex 5.29385 -76 -30
   vertex 5.44365 -74 -30
  endloop
 endfacet
 facet normal -0.944172 -0.196785 0.264227
  outer loop
   vertex 4.88395 -74 -32
   vertex 5.44365 -74 -30
   vertex 4.46711 -72 -32
  endloop
 endfacet
 facet normal -0.881832 0.0393461 0.469919
  outer loop
   vertex 4.46711 -72 -32
   vertex 5.44365 -74 -30
   vertex 5.53289 -72 -30
  endloop
 endfacet
 facet normal -0.880937 -0.059791 0.469442
  outer loop
   vertex 4.46711 -72 -32
   vertex 5.53289 -72 -30
   vertex 5.39715 -70 -30
  endloop
 endfacet
 facet normal -0.655728 -0.0445056 0.753684
  outer loop
   vertex 5.39715 -70 -30
   vertex 5.53289 -72 -30
   vertex 6 -70 -29.4755
  endloop
 endfacet
 facet normal -0.654274 -0.0800252 0.752012
  outer loop
   vertex 5.39715 -70 -30
   vertex 6 -70 -29.4755
   vertex 6 -68 -29.2627
  endloop
 endfacet
 facet normal -0.652846 -0.0801556 0.753238
  outer loop
   vertex 6 -68 -29.2627
   vertex 6 -70 -29.4755
   vertex 7.70239 -70 -28
  endloop
 endfacet
 facet normal -0.555653 0.0509443 0.829852
  outer loop
   vertex 6 -68 -29.2627
   vertex 7.70239 -70 -28
   vertex 7.88576 -68 -28
  endloop
 endfacet
 facet normal -0.939995 0.0861822 -0.330124
  outer loop
   vertex 7.88576 -68 -28
   vertex 7.70239 -70 -28
   vertex 7 -70 -26
  endloop
 endfacet
 facet normal -0.933527 0.0599866 -0.353454
  outer loop
   vertex 7.88576 -68 -28
   vertex 7 -70 -26
   vertex 7.12852 -68 -26
  endloop
 endfacet
 facet normal -0.665098 0.042738 -0.745532
  outer loop
   vertex 7.12852 -68 -26
   vertex 7 -70 -26
   vertex 6 -70 -25.1079
  endloop
 endfacet
 facet normal -0.528639 -0.0787134 -0.845189
  outer loop
   vertex 7.12852 -68 -26
   vertex 6 -70 -25.1079
   vertex 6 -68 -25.2941
  endloop
 endfacet
 facet normal -0.144896 -0.0917512 -0.985184
  outer loop
   vertex 6 -68 -25.2941
   vertex 6 -70 -25.1079
   vertex 4 -68 -25
  endloop
 endfacet
 facet normal 0.577351 0.577349 0.577351
  outer loop
   vertex -0.857474 -76 -32
   vertex -2 -76 -30.8575
   vertex -2 -76.8575 -30
  endloop
 endfacet
 facet normal 0.651211 0.536621 0.536622
  outer loop
   vertex -2 -76.8575 -30
   vertex -2 -76 -30.8575
   vertex -2.70659 -76 -30
  endloop
 endfacet
 facet normal 0.702534 0.578912 0.413892
  outer loop
   vertex -2 -76.8575 -30
   vertex -2.70659 -76 -30
   vertex -2 -78 -28.4019
  endloop
 endfacet
 facet normal 0.522411 0.633967 0.570239
  outer loop
   vertex -0.857474 -76 -32
   vertex -2 -76.8575 -30
   vertex 0 -76.7066 -32
  endloop
 endfacet
 facet normal 0.503722 0.663047 0.553745
  outer loop
   vertex 0 -76.7066 -32
   vertex -2 -76.8575 -30
   vertex -0.496101 -78 -30
  endloop
 endfacet
 facet normal 0.438833 0.700983 0.562182
  outer loop
   vertex 0 -76.7066 -32
   vertex -0.496101 -78 -30
   vertex 0 -78 -30.3873
  endloop
 endfacet
 facet normal -0.658766 -0.356295 0.662633
  outer loop
   vertex 4.46711 -72 -32
   vertex 5.39715 -70 -30
   vertex 4 -70 -31.389
  endloop
 endfacet
 facet normal -0.635675 -0.432523 0.639407
  outer loop
   vertex 4 -70 -31.389
   vertex 5.39715 -70 -30
   vertex 4 -68 -30.0361
  endloop
 endfacet
 facet normal 0.556423 -0.498949 0.664412
  outer loop
   vertex -2 -72 -31.9844
   vertex -2 -70 -30.4825
   vertex -2.57609 -70 -30
  endloop
 endfacet
 facet normal 0.563236 -0.480048 0.672547
  outer loop
   vertex -2.57609 -70 -30
   vertex -2 -70 -30.4825
   vertex -2 -69.3241 -30
  endloop
 endfacet
 facet normal 0.648758 -0.552939 0.522848
  outer loop
   vertex -2.57609 -70 -30
   vertex -2 -69.3241 -30
   vertex -4 -70 -28.2332
  endloop
 endfacet
 facet normal -0.413931 -0.273488 0.868254
  outer loop
   vertex 5.39715 -70 -30
   vertex 4.07573 -68 -30
   vertex 4 -68 -30.0361
  endloop
 endfacet
 facet normal -0.351954 -0.575425 0.738251
  outer loop
   vertex 4 -68 -30.0361
   vertex 4.07573 -68 -30
   vertex 4 -67.9537 -30
  endloop
 endfacet
 facet normal 0.130778 -0.639715 0.757405
  outer loop
   vertex 2 -70 -31.3765
   vertex 3.811 -68 -30
   vertex 2 -68.3702 -30
  endloop
 endfacet
 facet normal 0.123346 -0.603363 0.78787
  outer loop
   vertex 2 -68.3702 -30
   vertex 3.811 -68 -30
   vertex 2 -68 -29.7165
  endloop
 endfacet
 facet normal 0.124542 -0.603272 0.787751
  outer loop
   vertex 2 -68.3702 -30
   vertex 2 -68 -29.7165
   vertex 0 -68 -29.4003
  endloop
 endfacet
 facet normal 0.14522 -0.367675 0.918546
  outer loop
   vertex 0 -68 -29.4003
   vertex 2 -68 -29.7165
   vertex 0 -66 -28.5997
  endloop
 endfacet
 facet normal 0 -0.371615 0.928387
  outer loop
   vertex 0 -68 -29.4003
   vertex 0 -66 -28.5997
   vertex -2 -66 -28.5997
  endloop
 endfacet
 facet normal 0 -0.514319 0.857599
  outer loop
   vertex -2 -66 -28.5997
   vertex 0 -66 -28.5997
   vertex 0 -65 -28
  endloop
 endfacet
 facet normal 0.0127103 -0.532852 0.846113
  outer loop
   vertex -2 -66 -28.5997
   vertex 0 -65 -28
   vertex -2 -65.0477 -28
  endloop
 endfacet
 facet normal -0.687343 0.513593 0.513598
  outer loop
   vertex 6.14726 -78 -28
   vertex 6 -78 -28.1971
   vertex 6 -78.1971 -28
  endloop
 endfacet
 facet normal -0.567644 0.58214 0.582145
  outer loop
   vertex 6 -78.1971 -28
   vertex 6 -78 -28.1971
   vertex 4 -78.1473 -30
  endloop
 endfacet
 facet normal -0.429609 0.783406 0.449123
  outer loop
   vertex 6 -78.1971 -28
   vertex 4 -78.1473 -30
   vertex 4 -79.2939 -28
  endloop
 endfacet
 facet normal -0.000129067 0.867545 0.497359
  outer loop
   vertex 4 -79.2939 -28
   vertex 4 -78.1473 -30
   vertex 2 -79.2942 -28
  endloop
 endfacet
 facet normal -0.000123368 0.829236 0.558899
  outer loop
   vertex 4 -79.2939 -28
   vertex 2 -79.2942 -28
   vertex 4 -80 -26.9523
  endloop
 endfacet
 facet normal 0.0648678 0.880584 0.469429
  outer loop
   vertex 4 -80 -26.9523
   vertex 2 -79.2942 -28
   vertex 2 -80 -26.6759
  endloop
 endfacet
 facet normal 0.0728401 0.846662 0.527122
  outer loop
   vertex 4 -80 -26.9523
   vertex 2 -80 -26.6759
   vertex 2 -80.4208 -26
  endloop
 endfacet
 facet normal 0.364399 0.790548 0.492186
  outer loop
   vertex 2 -80.4208 -26
   vertex 2 -80 -26.6759
   vertex 1.08705 -80 -26
  endloop
 endfacet
 facet normal 0.382921 0.830731 0.404052
  outer loop
   vertex 2 -80.4208 -26
   vertex 1.08705 -80 -26
   vertex 0 -80.4717 -24
  endloop
 endfacet
 facet normal 0.408287 0.81367 0.413815
  outer loop
   vertex 0 -80.4717 -24
   vertex 1.08705 -80 -26
   vertex 0 -80 -24.9275
  endloop
 endfacet
 facet normal 0.61828 0.700561 0.356291
  outer loop
   vertex 0 -80.4717 -24
   vertex 0 -80 -24.9275
   vertex -0.534468 -80 -24
  endloop
 endfacet
 facet normal 0.680754 0.618613 0.392292
  outer loop
   vertex -0.534468 -80 -24
   vertex 0 -80 -24.9275
   vertex -2 -78.3873 -24
  endloop
 endfacet
 facet normal 0.710532 0.645673 -0.279733
  outer loop
   vertex -0.534468 -80 -24
   vertex -2 -78.3873 -24
   vertex -2 -78 -23.1062
  endloop
 endfacet
 facet normal 0.781669 0.572293 -0.247942
  outer loop
   vertex -2 -78 -23.1062
   vertex -2 -78.3873 -24
   vertex -2.28352 -78 -24
  endloop
 endfacet
 facet normal 0.867456 0.414501 -0.275153
  outer loop
   vertex -2 -78 -23.1062
   vertex -2.28352 -78 -24
   vertex -2 -77.2657 -22
  endloop
 endfacet
 facet normal 0.882128 0.387741 -0.267408
  outer loop
   vertex -2 -77.2657 -22
   vertex -2.28352 -78 -24
   vertex -2.55635 -76 -22
  endloop
 endfacet
 facet normal 0.83284 0.366076 -0.41517
  outer loop
   vertex -2 -77.2657 -22
   vertex -2.55635 -76 -22
   vertex -2 -76 -20.884
  endloop
 endfacet
 facet normal 0.876379 -0.202733 -0.436874
  outer loop
   vertex -2 -76 -20.884
   vertex -2.55635 -76 -22
   vertex -2 -74 -21.8121
  endloop
 endfacet
 facet normal 0.34561 -0.394999 -0.851193
  outer loop
   vertex -2 -76 -20.884
   vertex -2 -74 -21.8121
   vertex 0 -74 -21
  endloop
 endfacet
 facet normal 0.275956 -0.679657 -0.679643
  outer loop
   vertex 0 -74 -21
   vertex -2 -74 -21.8121
   vertex -2 -73.8121 -22
  endloop
 endfacet
 facet normal 0.27596 -0.679649 -0.679649
  outer loop
   vertex 0 -74 -21
   vertex -2 -73.8121 -22
   vertex 0 -73 -22
  endloop
 endfacet
 facet normal 0.27596 -0.679649 -0.679649
  outer loop
   vertex 0 -73 -22
   vertex -2 -73.8121 -22
   vertex 0 -72 -23
  endloop
 endfacet
 facet normal 0 -0.707107 -0.707107
  outer loop
   vertex 0 -73 -22
   vertex 0 -72 -23
   vertex 2 -72 -23
  endloop
 endfacet
 facet normal 0 -0.648667 -0.761072
  outer loop
   vertex 2 -72 -23
   vertex 0 -72 -23
   vertex 0 -70.8267 -24
  endloop
 endfacet
 facet normal 0 -0.648667 -0.761072
  outer loop
   vertex 2 -72 -23
   vertex 0 -70.8267 -24
   vertex 2 -70.8267 -24
  endloop
 endfacet
 facet normal 0 -0.587194 -0.809446
  outer loop
   vertex 2 -70.8267 -24
   vertex 0 -70.8267 -24
   vertex 2 -70 -24.5997
  endloop
 endfacet
 facet normal 0 -0.587194 -0.809446
  outer loop
   vertex 2 -70.8267 -24
   vertex 2 -70 -24.5997
   vertex 4 -70 -24.5997
  endloop
 endfacet
 facet normal 0 -0.196248 -0.980554
  outer loop
   vertex 4 -70 -24.5997
   vertex 2 -70 -24.5997
   vertex 2 -68 -25
  endloop
 endfacet
 facet normal 0 -0.196248 -0.980554
  outer loop
   vertex 4 -70 -24.5997
   vertex 2 -68 -25
   vertex 4 -68 -25
  endloop
 endfacet
 facet normal -0.513597 0.68734 0.513597
  outer loop
   vertex 4 -78.1473 -30
   vertex 6 -78 -28.1971
   vertex 4.19708 -78 -30
  endloop
 endfacet
 facet normal -0.683173 0.257971 0.683173
  outer loop
   vertex 4.19708 -78 -30
   vertex 6 -78 -28.1971
   vertex 6 -76 -28.9523
  endloop
 endfacet
 facet normal -0.754853 0.413952 0.508764
  outer loop
   vertex 4.19708 -78 -30
   vertex 6 -76 -28.9523
   vertex 5.29385 -76 -30
  endloop
 endfacet
 facet normal -0.827966 0.055327 0.558042
  outer loop
   vertex 5.29385 -76 -30
   vertex 6 -76 -28.9523
   vertex 6 -74 -29.1506
  endloop
 endfacet
 facet normal -0.834899 0.0625331 0.546839
  outer loop
   vertex 5.29385 -76 -30
   vertex 6 -74 -29.1506
   vertex 5.44365 -74 -30
  endloop
 endfacet
 facet normal -0.834144 0.0755714 0.546344
  outer loop
   vertex 5.44365 -74 -30
   vertex 6 -74 -29.1506
   vertex 6 -72 -29.4272
  endloop
 endfacet
 facet normal -0.774503 0.0345572 0.631626
  outer loop
   vertex 5.44365 -74 -30
   vertex 6 -72 -29.4272
   vertex 5.53289 -72 -30
  endloop
 endfacet
 facet normal -0.774876 0.015252 0.63193
  outer loop
   vertex 5.53289 -72 -30
   vertex 6 -72 -29.4272
   vertex 6 -70 -29.4755
  endloop
 endfacet
 facet normal 0.343208 0.884233 0.316766
  outer loop
   vertex 0 -78.2835 -30
   vertex -2 -78.2237 -28
   vertex 0 -79 -28
  endloop
 endfacet
 facet normal 0.35799 0.922317 0.145512
  outer loop
   vertex 0 -79 -28
   vertex -2 -78.2237 -28
   vertex -2 -78.5393 -26
  endloop
 endfacet
 facet normal -0.781357 0.220464 0.583847
  outer loop
   vertex 6 -78 -28.1971
   vertex 6.14726 -78 -28
   vertex 6 -76 -28.9523
  endloop
 endfacet
 facet normal -0.831091 0.188016 0.523391
  outer loop
   vertex 6 -76 -28.9523
   vertex 6.14726 -78 -28
   vertex 6.59972 -76 -28
  endloop
 endfacet
 facet normal -0.845003 0.0527602 0.532152
  outer loop
   vertex 6 -76 -28.9523
   vertex 6.59972 -76 -28
   vertex 6 -74 -29.1506
  endloop
 endfacet
 facet normal -0.820949 0.0791518 0.56549
  outer loop
   vertex 6 -74 -29.1506
   vertex 6.59972 -76 -28
   vertex 6.79255 -74 -28
  endloop
 endfacet
 facet normal -0.821009 0.0782253 0.565531
  outer loop
   vertex 6 -74 -29.1506
   vertex 6.79255 -74 -28
   vertex 6 -72 -29.4272
  endloop
 endfacet
 facet normal -0.711397 0.199071 0.674006
  outer loop
   vertex 6 -72 -29.4272
   vertex 6.79255 -74 -28
   vertex 7.35221 -72 -28
  endloop
 endfacet
 facet normal -0.725827 0.0165975 0.687677
  outer loop
   vertex 6 -72 -29.4272
   vertex 7.35221 -72 -28
   vertex 6 -70 -29.4755
  endloop
 endfacet
 facet normal -0.650689 0.11393 0.750749
  outer loop
   vertex 6 -70 -29.4755
   vertex 7.35221 -72 -28
   vertex 7.70239 -70 -28
  endloop
 endfacet
 facet normal 0.525714 0.691995 0.49474
  outer loop
   vertex -0.496101 -78 -30
   vertex -2 -76.8575 -30
   vertex -2 -78 -28.4019
  endloop
 endfacet
 facet normal 0.934741 0 0.355329
  outer loop
   vertex -3.29385 -72 -30
   vertex -4 -72 -28.1424
   vertex -4 -74 -28.1424
  endloop
 endfacet
 facet normal 0.922864 0 0.385125
  outer loop
   vertex -4 -74 -28.1424
   vertex -4 -72 -28.1424
   vertex -4.05942 -72 -28
  endloop
 endfacet
 facet normal 0.922864 0 0.385125
  outer loop
   vertex -4 -74 -28.1424
   vertex -4.05942 -72 -28
   vertex -4.05942 -74 -28
  endloop
 endfacet
 facet normal 0.922193 0.0381218 0.384845
  outer loop
   vertex -4.1421 -70 -28
   vertex -4.05942 -72 -28
   vertex -4 -72 -28.1424
  endloop
 endfacet
 facet normal -0.348208 -0.230064 0.908747
  outer loop
   vertex 5.39715 -70 -30
   vertex 6 -68 -29.2627
   vertex 4.07573 -68 -30
  endloop
 endfacet
 facet normal -0.309876 -0.499969 0.808707
  outer loop
   vertex 4.07573 -68 -30
   vertex 6 -68 -29.2627
   vertex 4 -66 -28.7926
  endloop
 endfacet
 facet normal -0.306123 -0.500494 0.809811
  outer loop
   vertex 4.07573 -68 -30
   vertex 4 -66 -28.7926
   vertex 4 -67.9537 -30
  endloop
 endfacet
 facet normal -0.538743 -0.249759 0.804597
  outer loop
   vertex 7.88576 -68 -28
   vertex 6 -66 -28.6418
   vertex 6 -68 -29.2627
  endloop
 endfacet
 facet normal -0.0717832 -0.295696 0.952581
  outer loop
   vertex 6 -68 -29.2627
   vertex 6 -66 -28.6418
   vertex 4 -66 -28.7926
  endloop
 endfacet
 facet normal -0.392638 -0.0760756 0.916541
  outer loop
   vertex 7.88576 -68 -28
   vertex 7.49825 -66 -28
   vertex 6 -66 -28.6418
  endloop
 endfacet
 facet normal -0.334744 -0.526655 0.781397
  outer loop
   vertex 6 -66 -28.6418
   vertex 7.49825 -66 -28
   vertex 6 -65.0477 -28
  endloop
 endfacet
 facet normal -0.0623667 -0.55781 0.827622
  outer loop
   vertex 6 -66 -28.6418
   vertex 6 -65.0477 -28
   vertex 4 -66 -28.7926
  endloop
 endfacet
 facet normal -0.0427668 -0.584518 0.810253
  outer loop
   vertex 4 -66 -28.7926
   vertex 6 -65.0477 -28
   vertex 4 -64.9014 -28
  endloop
 endfacet
 facet normal 0.0374848 -0.458346 0.887983
  outer loop
   vertex 2 -68 -29.7165
   vertex 2 -66 -28.6841
   vertex 0 -66 -28.5997
  endloop
 endfacet
 facet normal 0.0353231 -0.546409 0.836773
  outer loop
   vertex 0 -66 -28.5997
   vertex 2 -66 -28.6841
   vertex 2 -64.9523 -28
  endloop
 endfacet
 facet normal 0.0122673 -0.51428 0.857534
  outer loop
   vertex 0 -66 -28.5997
   vertex 2 -64.9523 -28
   vertex 0 -65 -28
  endloop
 endfacet
 facet normal 0.272468 -0.512732 0.814166
  outer loop
   vertex -3.79203 -66 -28
   vertex -2 -66 -28.5997
   vertex -2 -65.0477 -28
  endloop
 endfacet
 facet normal -0.38083 0.753861 0.535408
  outer loop
   vertex 5.33883 -80 -26
   vertex 4 -80 -26.9523
   vertex 4 -80.6763 -26
  endloop
 endfacet
 facet normal 0.1036 0.810911 0.575926
  outer loop
   vertex 4 -80.6763 -26
   vertex 4 -80 -26.9523
   vertex 2 -80.4208 -26
  endloop
 endfacet
 facet normal 0.118031 0.923865 0.364064
  outer loop
   vertex 4 -80.6763 -26
   vertex 2 -80.4208 -26
   vertex 2 -81.209 -24
  endloop
 endfacet
 facet normal 0.324412 0.88005 0.346798
  outer loop
   vertex 2 -81.209 -24
   vertex 2 -80.4208 -26
   vertex 0 -80.4717 -24
  endloop
 endfacet
 facet normal 0.337615 0.915865 0.217273
  outer loop
   vertex 2 -81.209 -24
   vertex 0 -80.4717 -24
   vertex 0 -80.9462 -22
  endloop
 endfacet
 facet normal 0.651479 0.738179 0.17512
  outer loop
   vertex 0 -80.9462 -22
   vertex 0 -80.4717 -24
   vertex -0.534468 -80 -24
  endloop
 endfacet
 facet normal 0.777299 0.62308 0.0870457
  outer loop
   vertex 0 -80.9462 -22
   vertex -0.534468 -80 -24
   vertex -0.758438 -80 -22
  endloop
 endfacet
 facet normal 0.906846 0.409044 0.101553
  outer loop
   vertex -0.758438 -80 -22
   vertex -0.534468 -80 -24
   vertex -1.66056 -78 -22
  endloop
 endfacet
 facet normal 0.906531 0.408902 -0.104881
  outer loop
   vertex -0.758438 -80 -22
   vertex -1.66056 -78 -22
   vertex -0.527049 -80 -20
  endloop
 endfacet
 facet normal 0.926596 0.304572 -0.220582
  outer loop
   vertex -0.527049 -80 -20
   vertex -1.66056 -78 -22
   vertex -1.18445 -78 -20
  endloop
 endfacet
 facet normal 0.826304 0.271606 -0.493408
  outer loop
   vertex -0.527049 -80 -20
   vertex -1.18445 -78 -20
   vertex 0 -78 -18.0164
  endloop
 endfacet
 facet normal 0.817436 -0.305849 -0.488113
  outer loop
   vertex 0 -78 -18.0164
   vertex -1.18445 -78 -20
   vertex 0 -76 -19.2696
  endloop
 endfacet
 facet normal 0.0683599 -0.529728 -0.845409
  outer loop
   vertex 0 -78 -18.0164
   vertex 0 -76 -19.2696
   vertex 2 -76 -19.1079
  endloop
 endfacet
 facet normal 0.0604869 -0.660888 -0.748043
  outer loop
   vertex 2 -76 -19.1079
   vertex 0 -76 -19.2696
   vertex 0 -75.1733 -20
  endloop
 endfacet
 facet normal 0.046388 -0.678704 -0.732945
  outer loop
   vertex 2 -76 -19.1079
   vertex 0 -75.1733 -20
   vertex 2 -75.0366 -20
  endloop
 endfacet
 facet normal 0.0474 -0.69351 -0.718886
  outer loop
   vertex 2 -75.0366 -20
   vertex 0 -75.1733 -20
   vertex 2 -74 -21
  endloop
 endfacet
 facet normal -0.0387937 -0.693768 -0.719153
  outer loop
   vertex 2 -75.0366 -20
   vertex 2 -74 -21
   vertex 4 -74 -21.1079
  endloop
 endfacet
 facet normal -0.0381162 -0.706593 -0.706593
  outer loop
   vertex 4 -74 -21.1079
   vertex 2 -74 -21
   vertex 2 -73 -22
  endloop
 endfacet
 facet normal -0.0124295 -0.679383 -0.733679
  outer loop
   vertex 4 -74 -21.1079
   vertex 2 -73 -22
   vertex 4 -73.0366 -22
  endloop
 endfacet
 facet normal -0.0127012 -0.694234 -0.719637
  outer loop
   vertex 4 -73.0366 -22
   vertex 2 -73 -22
   vertex 4 -72 -23
  endloop
 endfacet
 facet normal -0.323193 -0.65703 -0.681071
  outer loop
   vertex 4 -73.0366 -22
   vertex 4 -72 -23
   vertex 6 -74 -22.0197
  endloop
 endfacet
 facet normal -0.28943 -0.638833 -0.712828
  outer loop
   vertex 6 -74 -22.0197
   vertex 4 -72 -23
   vertex 6 -72 -23.8121
  endloop
 endfacet
 facet normal -0.6754 -0.492174 -0.549181
  outer loop
   vertex 6 -74 -22.0197
   vertex 6 -72 -23.8121
   vertex 6.15282 -72 -24
  endloop
 endfacet
 facet normal -0.683353 -0.473585 -0.555648
  outer loop
   vertex 6.15282 -72 -24
   vertex 6 -72 -23.8121
   vertex 6 -71.7795 -24
  endloop
 endfacet
 facet normal -0.605545 -0.419662 -0.676165
  outer loop
   vertex 6.15282 -72 -24
   vertex 6 -71.7795 -24
   vertex 7 -70 -26
  endloop
 endfacet
 facet normal -0.603734 -0.421332 -0.676746
  outer loop
   vertex 7 -70 -26
   vertex 6 -71.7795 -24
   vertex 6 -70 -25.1079
  endloop
 endfacet
 facet normal -0.844059 0.452161 0.288298
  outer loop
   vertex 6.7887 -78 -26
   vertex 6 -78.1971 -28
   vertex 6 -79.4723 -26
  endloop
 endfacet
 facet normal -0.419697 0.765332 0.487976
  outer loop
   vertex 6 -79.4723 -26
   vertex 6 -78.1971 -28
   vertex 4 -79.2939 -28
  endloop
 endfacet
 facet normal -0.512599 0.642232 0.569895
  outer loop
   vertex 6 -79.4723 -26
   vertex 4 -79.2939 -28
   vertex 5.33883 -80 -26
  endloop
 endfacet
 facet normal -0.369419 0.770578 0.519364
  outer loop
   vertex 5.33883 -80 -26
   vertex 4 -79.2939 -28
   vertex 4 -80 -26.9523
  endloop
 endfacet
 facet normal -0.775872 0.579744 0.248836
  outer loop
   vertex 6 -78.1971 -28
   vertex 6.7887 -78 -26
   vertex 6.14726 -78 -28
  endloop
 endfacet
 facet normal -0.930871 0.21059 0.298547
  outer loop
   vertex 6.14726 -78 -28
   vertex 6.7887 -78 -26
   vertex 6.59972 -76 -28
  endloop
 endfacet
 facet normal 0.346759 0.812649 0.468359
  outer loop
   vertex 1.08705 -80 -26
   vertex 2 -80 -26.6759
   vertex 0 -79.5362 -26
  endloop
 endfacet
 facet normal 0.341748 0.829312 0.442096
  outer loop
   vertex 0 -79.5362 -26
   vertex 2 -80 -26.6759
   vertex 2 -79.2942 -28
  endloop
 endfacet
 facet normal 0.635735 0.762477 0.120295
  outer loop
   vertex -2 -78.2237 -28
   vertex -2.26832 -78 -28
   vertex -2 -78.5393 -26
  endloop
 endfacet
 facet normal 0.703887 0.703883 0.095353
  outer loop
   vertex -2 -78.5393 -26
   vertex -2.26832 -78 -28
   vertex -2.53925 -78 -26
  endloop
 endfacet
 facet normal -0.975335 0.103045 0.195203
  outer loop
   vertex 6.59972 -76 -28
   vertex 6.7887 -78 -26
   vertex 7 -76 -26
  endloop
 endfacet
 facet normal -0.993623 0.104977 -0.0411603
  outer loop
   vertex 7 -76 -26
   vertex 6.7887 -78 -26
   vertex 6.70585 -78 -24
  endloop
 endfacet
 facet normal -0.989357 0.14551 0
  outer loop
   vertex 7 -76 -26
   vertex 6.70585 -78 -24
   vertex 7 -76 -24
  endloop
 endfacet
 facet normal -0.987996 0.14531 -0.0524278
  outer loop
   vertex 7 -76 -24
   vertex 6.70585 -78 -24
   vertex 6.59972 -78 -22
  endloop
 endfacet
 facet normal -0.98589 0.0332555 -0.16406
  outer loop
   vertex 7 -76 -24
   vertex 6.59972 -78 -22
   vertex 6.66718 -76 -22
  endloop
 endfacet
 facet normal -0.947821 0.0319714 -0.317197
  outer loop
   vertex 6.66718 -76 -22
   vertex 6.59972 -78 -22
   vertex 6 -78 -20.208
  endloop
 endfacet
 facet normal -0.806464 -0.222007 -0.548022
  outer loop
   vertex 6.66718 -76 -22
   vertex 6 -78 -20.208
   vertex 6 -76 -21.0182
  endloop
 endfacet
 facet normal -0.586922 -0.303995 -0.750407
  outer loop
   vertex 6 -76 -21.0182
   vertex 6 -78 -20.208
   vertex 4.69821 -76 -20
  endloop
 endfacet
 facet normal -0.573551 -0.365093 -0.733312
  outer loop
   vertex 6 -76 -21.0182
   vertex 4.69821 -76 -20
   vertex 6 -74.028 -22
  endloop
 endfacet
 facet normal -0.400853 -0.508355 -0.762163
  outer loop
   vertex 6 -74.028 -22
   vertex 4.69821 -76 -20
   vertex 4 -75.4494 -20
  endloop
 endfacet
 facet normal -0.482487 -0.410103 -0.773965
  outer loop
   vertex 6 -74.028 -22
   vertex 4 -75.4494 -20
   vertex 5.97624 -74 -22
  endloop
 endfacet
 facet normal -0.337594 -0.571623 -0.747849
  outer loop
   vertex 5.97624 -74 -22
   vertex 4 -75.4494 -20
   vertex 4 -74 -21.1079
  endloop
 endfacet
 facet normal -0.314424 -0.644976 -0.696522
  outer loop
   vertex 5.97624 -74 -22
   vertex 4 -74 -21.1079
   vertex 4 -73.0366 -22
  endloop
 endfacet
 facet normal 0.816193 0.567101 0.110567
  outer loop
   vertex -2.26832 -78 -28
   vertex -3.65794 -76 -28
   vertex -2.53925 -78 -26
  endloop
 endfacet
 facet normal 0.922314 0.348127 -0.167765
  outer loop
   vertex -2.53925 -78 -26
   vertex -3.65794 -76 -28
   vertex -3.29415 -76 -26
  endloop
 endfacet
 facet normal -0.976201 0.0941205 0.195377
  outer loop
   vertex 6.59972 -76 -28
   vertex 7 -76 -26
   vertex 6.79255 -74 -28
  endloop
 endfacet
 facet normal -0.988519 0.0424716 0.145006
  outer loop
   vertex 6.79255 -74 -28
   vertex 7 -76 -26
   vertex 7.08593 -74 -26
  endloop
 endfacet
 facet normal -0.953539 0.26683 0.139875
  outer loop
   vertex 6.79255 -74 -28
   vertex 7.08593 -74 -26
   vertex 7.35221 -72 -28
  endloop
 endfacet
 facet normal -0.995302 0.049028 -0.0834878
  outer loop
   vertex 7.35221 -72 -28
   vertex 7.08593 -74 -26
   vertex 7.18445 -72 -26
  endloop
 endfacet
 facet normal -0.98167 0.171881 -0.0823443
  outer loop
   vertex 7.35221 -72 -28
   vertex 7.18445 -72 -26
   vertex 7.70239 -70 -28
  endloop
 endfacet
 facet normal -0.939954 -0.0866867 -0.330109
  outer loop
   vertex 7.70239 -70 -28
   vertex 7.18445 -72 -26
   vertex 7 -70 -26
  endloop
 endfacet
 facet normal 0.93484 0.183525 -0.303961
  outer loop
   vertex -3.65794 -76 -28
   vertex -4 -74 -27.8445
   vertex -3.40028 -74 -26
  endloop
 endfacet
 facet normal 0.950991 -0.00203414 -0.309213
  outer loop
   vertex -3.40028 -74 -26
   vertex -4 -74 -27.8445
   vertex -4 -72 -27.8576
  endloop
 endfacet
 facet normal 0.933587 -0.0496785 -0.354891
  outer loop
   vertex -3.40028 -74 -26
   vertex -4 -72 -27.8576
   vertex -3.29385 -72 -26
  endloop
 endfacet
 facet normal 0.933846 0.043744 -0.354989
  outer loop
   vertex -3.29385 -72 -26
   vertex -4 -72 -27.8576
   vertex -4 -70 -27.6112
  endloop
 endfacet
 facet normal 0.915697 -0.00042867 -0.401868
  outer loop
   vertex -3.29385 -72 -26
   vertex -4 -70 -27.6112
   vertex -3.29292 -70 -26
  endloop
 endfacet
 facet normal 0.860659 0.341465 -0.377714
  outer loop
   vertex -3.29292 -70 -26
   vertex -4 -70 -27.6112
   vertex -4 -68.2178 -26
  endloop
 endfacet
 facet normal 0.644908 0.255867 -0.720157
  outer loop
   vertex -3.29292 -70 -26
   vertex -4 -68.2178 -26
   vertex -4 -68 -25.9226
  endloop
 endfacet
 facet normal 0.982518 0.0521373 -0.178716
  outer loop
   vertex -3.40028 -74 -26
   vertex -3.29415 -76 -26
   vertex -3.65794 -76 -28
  endloop
 endfacet
 facet normal -0.920225 -0.178298 -0.348418
  outer loop
   vertex 7.88576 -68 -28
   vertex 7.12852 -68 -26
   vertex 7.49825 -66 -28
  endloop
 endfacet
 facet normal -0.955229 0.277959 0.101368
  outer loop
   vertex 7.49825 -66 -28
   vertex 7.12852 -68 -26
   vertex 7.71049 -66 -26
  endloop
 endfacet
 facet normal -0.630785 0.752882 0.187827
  outer loop
   vertex 5.40279 -80 -24
   vertex 4 -80.6763 -26
   vertex 4 -81.1753 -24
  endloop
 endfacet
 facet normal -0.0163278 0.970132 0.242026
  outer loop
   vertex 4 -81.1753 -24
   vertex 4 -80.6763 -26
   vertex 2 -81.209 -24
  endloop
 endfacet
 facet normal -0.0168128 0.998953 0.0425541
  outer loop
   vertex 4 -81.1753 -24
   vertex 2 -81.209 -24
   vertex 2 -81.2942 -22
  endloop
 endfacet
 facet normal 0.17127 0.984331 0.0419313
  outer loop
   vertex 2 -81.2942 -22
   vertex 2 -81.209 -24
   vertex 0 -80.9462 -22
  endloop
 endfacet
 facet normal 0.169009 0.971338 -0.167145
  outer loop
   vertex 2 -81.2942 -22
   vertex 0 -80.9462 -22
   vertex 0 -80.602 -20
  endloop
 endfacet
 facet normal 0.775781 0.621863 -0.107008
  outer loop
   vertex 0 -80.602 -20
   vertex 0 -80.9462 -22
   vertex -0.758438 -80 -22
  endloop
 endfacet
 facet normal 0.74956 0.656232 -0.0867199
  outer loop
   vertex 0 -80.602 -20
   vertex -0.758438 -80 -22
   vertex -0.527049 -80 -20
  endloop
 endfacet
 facet normal -0.450857 0.89248 0.0144188
  outer loop
   vertex 4 -80.6763 -26
   vertex 5.40279 -80 -24
   vertex 5.33883 -80 -26
  endloop
 endfacet
 facet normal -0.62369 0.781418 0.0199462
  outer loop
   vertex 5.33883 -80 -26
   vertex 5.40279 -80 -24
   vertex 6 -79.4723 -26
  endloop
 endfacet
 facet normal -0.8705 0.489308 -0.0529786
  outer loop
   vertex 6.70585 -78 -24
   vertex 6 -79.4723 -26
   vertex 6 -79.2557 -24
  endloop
 endfacet
 facet normal -0.778162 0.624414 -0.0676069
  outer loop
   vertex 6 -79.2557 -24
   vertex 6 -79.4723 -26
   vertex 5.40279 -80 -24
  endloop
 endfacet
 facet normal -0.778771 0.624903 -0.0548869
  outer loop
   vertex 6 -79.2557 -24
   vertex 5.40279 -80 -24
   vertex 5.26183 -80 -22
  endloop
 endfacet
 facet normal -0.641558 0.765741 -0.0452163
  outer loop
   vertex 5.26183 -80 -22
   vertex 5.40279 -80 -24
   vertex 4 -81.1753 -24
  endloop
 endfacet
 facet normal -0.577127 0.809033 -0.111307
  outer loop
   vertex 5.26183 -80 -22
   vertex 4 -81.1753 -24
   vertex 4 -80.9001 -22
  endloop
 endfacet
 facet normal -0.191557 0.972322 -0.133773
  outer loop
   vertex 4 -80.9001 -22
   vertex 4 -81.1753 -24
   vertex 2 -81.2942 -22
  endloop
 endfacet
 facet normal -0.190915 0.969063 -0.156421
  outer loop
   vertex 4 -80.9001 -22
   vertex 2 -81.2942 -22
   vertex 2 -80.9713 -20
  endloop
 endfacet
 facet normal 0.179343 0.971216 -0.156769
  outer loop
   vertex 2 -80.9713 -20
   vertex 2 -81.2942 -22
   vertex 0 -80.602 -20
  endloop
 endfacet
 facet normal 0.165155 0.894384 -0.415693
  outer loop
   vertex 2 -80.9713 -20
   vertex 0 -80.602 -20
   vertex 0 -80 -18.7048
  endloop
 endfacet
 facet normal 0.719432 0.629855 -0.292745
  outer loop
   vertex 0 -80 -18.7048
   vertex 0 -80.602 -20
   vertex -0.527049 -80 -20
  endloop
 endfacet
 facet normal 0.918557 0.12864 -0.373771
  outer loop
   vertex 0 -80 -18.7048
   vertex -0.527049 -80 -20
   vertex 0 -78 -18.0164
  endloop
 endfacet
 facet normal -0.880899 0.471896 -0.0364908
  outer loop
   vertex 6.7887 -78 -26
   vertex 6 -79.4723 -26
   vertex 6.70585 -78 -24
  endloop
 endfacet
 facet normal 0.364674 0.854634 0.369612
  outer loop
   vertex 1.08705 -80 -26
   vertex 0 -79.5362 -26
   vertex 0 -80 -24.9275
  endloop
 endfacet
 facet normal 0.678726 0.674055 0.291515
  outer loop
   vertex 0 -80 -24.9275
   vertex 0 -79.5362 -26
   vertex -2 -78.3873 -24
  endloop
 endfacet
 facet normal -0.999078 0.0429253 0
  outer loop
   vertex 7 -76 -26
   vertex 7 -76 -24
   vertex 7.08593 -74 -26
  endloop
 endfacet
 facet normal -0.993285 -0.0576343 -0.100311
  outer loop
   vertex 7.08593 -74 -26
   vertex 7 -76 -24
   vertex 6.88395 -74 -24
  endloop
 endfacet
 facet normal -0.993747 0.0489514 -0.100357
  outer loop
   vertex 7.08593 -74 -26
   vertex 6.88395 -74 -24
   vertex 7.18445 -72 -26
  endloop
 endfacet
 facet normal -0.845243 -0.308994 -0.43599
  outer loop
   vertex 7.18445 -72 -26
   vertex 6.88395 -74 -24
   vertex 6.15282 -72 -24
  endloop
 endfacet
 facet normal -0.885764 -0.081689 -0.456891
  outer loop
   vertex 7.18445 -72 -26
   vertex 6.15282 -72 -24
   vertex 7 -70 -26
  endloop
 endfacet
 facet normal -0.201451 -0.575156 -0.792852
  outer loop
   vertex 4 -70 -24.5997
   vertex 6 -70 -25.1079
   vertex 4 -70.8267 -24
  endloop
 endfacet
 facet normal -0.244163 -0.512528 -0.823225
  outer loop
   vertex 4 -70.8267 -24
   vertex 6 -70 -25.1079
   vertex 6 -71.7795 -24
  endloop
 endfacet
 facet normal -0.295244 -0.619753 -0.727143
  outer loop
   vertex 4 -70.8267 -24
   vertex 6 -71.7795 -24
   vertex 6 -72 -23.8121
  endloop
 endfacet
 facet normal -0 -0.587194 -0.809446
  outer loop
   vertex 4 -70 -24.5997
   vertex 4 -70.8267 -24
   vertex 2 -70.8267 -24
  endloop
 endfacet
 facet normal -0 -0.648667 -0.761072
  outer loop
   vertex 2 -70.8267 -24
   vertex 4 -70.8267 -24
   vertex 4 -72 -23
  endloop
 endfacet
 facet normal -0 -0.648667 -0.761072
  outer loop
   vertex 2 -70.8267 -24
   vertex 4 -72 -23
   vertex 2 -72 -23
  endloop
 endfacet
 facet normal -0 -0.707107 -0.707107
  outer loop
   vertex 2 -72 -23
   vertex 4 -72 -23
   vertex 2 -73 -22
  endloop
 endfacet
 facet normal -0 -0.707107 -0.707107
  outer loop
   vertex 2 -72 -23
   vertex 2 -73 -22
   vertex 0 -73 -22
  endloop
 endfacet
 facet normal -0 -0.707107 -0.707107
  outer loop
   vertex 0 -73 -22
   vertex 2 -73 -22
   vertex 2 -74 -21
  endloop
 endfacet
 facet normal -0 -0.707107 -0.707107
  outer loop
   vertex 0 -73 -22
   vertex 2 -74 -21
   vertex 0 -74 -21
  endloop
 endfacet
 facet normal -0 -0.648667 -0.761072
  outer loop
   vertex 0 -74 -21
   vertex 2 -74 -21
   vertex 0 -75.1733 -20
  endloop
 endfacet
 facet normal 0.417324 -0.589481 -0.69163
  outer loop
   vertex 0 -74 -21
   vertex 0 -75.1733 -20
   vertex -1.16776 -76 -20
  endloop
 endfacet
 facet normal 0.424422 -0.599508 -0.678569
  outer loop
   vertex -1.16776 -76 -20
   vertex 0 -75.1733 -20
   vertex 0 -76 -19.2696
  endloop
 endfacet
 facet normal 0.530278 -0.00442584 -0.847812
  outer loop
   vertex -1.16776 -76 -20
   vertex 0 -76 -19.2696
   vertex -1.18445 -78 -20
  endloop
 endfacet
 facet normal 0 -0.587194 -0.809446
  outer loop
   vertex 2 -70 -24.5997
   vertex 0 -70.8267 -24
   vertex 0 -70 -24.5997
  endloop
 endfacet
 facet normal 0.266058 -0.56603 -0.780271
  outer loop
   vertex 0 -70 -24.5997
   vertex 0 -70.8267 -24
   vertex -2 -71.7668 -24
  endloop
 endfacet
 facet normal 0.171593 -0.485264 -0.857365
  outer loop
   vertex 0 -70 -24.5997
   vertex -2 -71.7668 -24
   vertex -2 -70 -25
  endloop
 endfacet
 facet normal 0.600852 -0.393741 -0.695661
  outer loop
   vertex -2 -70 -25
   vertex -2 -71.7668 -24
   vertex -2.15282 -72 -24
  endloop
 endfacet
 facet normal -0.241753 -0.190427 -0.951469
  outer loop
   vertex 4 -70 -24.5997
   vertex 4 -68 -25
   vertex 6 -70 -25.1079
  endloop
 endfacet
 facet normal 0 -0.196248 -0.980554
  outer loop
   vertex 2 -70 -24.5997
   vertex 0 -70 -24.5997
   vertex 0 -68 -25
  endloop
 endfacet
 facet normal 0.0420921 -0.196074 -0.979685
  outer loop
   vertex 0 -68 -25
   vertex 0 -70 -24.5997
   vertex -2 -68 -25.0859
  endloop
 endfacet
 facet normal -0 -0.196248 -0.980554
  outer loop
   vertex 0 -68 -25
   vertex 2 -68 -25
   vertex 2 -70 -24.5997
  endloop
 endfacet
 facet normal 0.196074 -0.0420921 -0.979685
  outer loop
   vertex -2 -70 -25
   vertex -2 -68 -25.0859
   vertex 0 -70 -24.5997
  endloop
 endfacet
 facet normal -0.524082 0.152501 -0.837903
  outer loop
   vertex 7.12852 -68 -26
   vertex 6 -68 -25.2941
   vertex 7.71049 -66 -26
  endloop
 endfacet
 facet normal -0.462687 -0.203385 -0.862876
  outer loop
   vertex 6.56774 -64 -26
   vertex 6 -66 -25.2242
   vertex 6 -64 -25.6956
  endloop
 endfacet
 facet normal -0.0780423 -0.228719 -0.970359
  outer loop
   vertex 6 -64 -25.6956
   vertex 6 -66 -25.2242
   vertex 4 -64 -25.5347
  endloop
 endfacet
 facet normal -0.0707458 -0.470358 -0.879636
  outer loop
   vertex 6 -64 -25.6956
   vertex 4 -64 -25.5347
   vertex 4 -63.1299 -26
  endloop
 endfacet
 facet normal 0 -0.471539 -0.881845
  outer loop
   vertex 4 -63.1299 -26
   vertex 4 -64 -25.5347
   vertex 2 -63.1299 -26
  endloop
 endfacet
 facet normal -0.049545 -0.201446 -0.978246
  outer loop
   vertex 6 -66 -25.2242
   vertex 4 -66 -25.1229
   vertex 4 -64 -25.5347
  endloop
 endfacet
 facet normal 0 -0.201694 -0.979449
  outer loop
   vertex 4 -64 -25.5347
   vertex 4 -66 -25.1229
   vertex 2 -64 -25.5347
  endloop
 endfacet
 facet normal 0 -0.471539 -0.881845
  outer loop
   vertex 4 -64 -25.5347
   vertex 2 -64 -25.5347
   vertex 2 -63.1299 -26
  endloop
 endfacet
 facet normal 0 -0.471539 -0.881845
  outer loop
   vertex 2 -63.1299 -26
   vertex 2 -64 -25.5347
   vertex 0 -63.1299 -26
  endloop
 endfacet
 facet normal 0 -0.201694 -0.979449
  outer loop
   vertex 4 -66 -25.1229
   vertex 2 -66 -25.1229
   vertex 2 -64 -25.5347
  endloop
 endfacet
 facet normal 0 -0.201694 -0.979449
  outer loop
   vertex 2 -64 -25.5347
   vertex 2 -66 -25.1229
   vertex 0 -64 -25.5347
  endloop
 endfacet
 facet normal 0 -0.471539 -0.881845
  outer loop
   vertex 2 -64 -25.5347
   vertex 0 -64 -25.5347
   vertex 0 -63.1299 -26
  endloop
 endfacet
 facet normal 0.097619 -0.469287 -0.877633
  outer loop
   vertex 0 -63.1299 -26
   vertex 0 -64 -25.5347
   vertex -2 -63.5459 -26
  endloop
 endfacet
 facet normal 0 -0.201694 -0.979449
  outer loop
   vertex 2 -66 -25.1229
   vertex 0 -66 -25.1229
   vertex 0 -64 -25.5347
  endloop
 endfacet
 facet normal 0.0785301 -0.201071 -0.976424
  outer loop
   vertex 0 -64 -25.5347
   vertex 0 -66 -25.1229
   vertex -2 -64 -25.6956
  endloop
 endfacet
 facet normal 0.0666553 -0.555597 -0.828776
  outer loop
   vertex 0 -64 -25.5347
   vertex -2 -64 -25.6956
   vertex -2 -63.5459 -26
  endloop
 endfacet
 facet normal 0 -0.275288 -0.961362
  outer loop
   vertex 0 -66 -25.1229
   vertex -2 -66 -25.1229
   vertex -2 -64 -25.6956
  endloop
 endfacet
 facet normal 0.308841 -0.26183 -0.914364
  outer loop
   vertex -2 -64 -25.6956
   vertex -2 -66 -25.1229
   vertex -4 -66 -25.7984
  endloop
 endfacet
 facet normal -0.406862 -0.508663 -0.758766
  outer loop
   vertex 6.56774 -64 -26
   vertex 6 -64 -25.6956
   vertex 6 -63.5459 -26
  endloop
 endfacet
 facet normal -0.115061 -0.553137 -0.825106
  outer loop
   vertex 6 -63.5459 -26
   vertex 6 -64 -25.6956
   vertex 4 -63.1299 -26
  endloop
 endfacet
 facet normal -0.874723 0.482895 -0.0409001
  outer loop
   vertex 6.59972 -78 -22
   vertex 6 -79.2557 -24
   vertex 6 -79.0863 -22
  endloop
 endfacet
 facet normal -0.776752 0.62756 -0.0531529
  outer loop
   vertex 6 -79.0863 -22
   vertex 6 -79.2557 -24
   vertex 5.26183 -80 -22
  endloop
 endfacet
 facet normal -0.725719 0.586329 -0.35993
  outer loop
   vertex 6 -79.0863 -22
   vertex 5.26183 -80 -22
   vertex 5.88576 -78 -20
  endloop
 endfacet
 facet normal -0.874562 0.450997 -0.178164
  outer loop
   vertex 5.88576 -78 -20
   vertex 5.26183 -80 -22
   vertex 4.85439 -80 -20
  endloop
 endfacet
 facet normal -0.543734 0.280395 -0.791032
  outer loop
   vertex 5.88576 -78 -20
   vertex 4.85439 -80 -20
   vertex 4 -80 -19.4127
  endloop
 endfacet
 facet normal -0.386449 0.731147 -0.562211
  outer loop
   vertex 4 -80 -19.4127
   vertex 4.85439 -80 -20
   vertex 4 -80.4516 -20
  endloop
 endfacet
 facet normal -0.364598 0.738166 -0.567608
  outer loop
   vertex 4 -80 -19.4127
   vertex 4 -80.4516 -20
   vertex 2 -80 -18.128
  endloop
 endfacet
 facet normal -0.224761 0.864914 -0.448783
  outer loop
   vertex 2 -80 -18.128
   vertex 4 -80.4516 -20
   vertex 2 -80.9713 -20
  endloop
 endfacet
 facet normal 0.131655 0.879899 -0.456558
  outer loop
   vertex 2 -80 -18.128
   vertex 2 -80.9713 -20
   vertex 0 -80 -18.7048
  endloop
 endfacet
 facet normal -0.870793 0.489473 -0.0462085
  outer loop
   vertex 6.70585 -78 -24
   vertex 6 -79.2557 -24
   vertex 6.59972 -78 -22
  endloop
 endfacet
 facet normal 0.735034 0.639414 -0.225555
  outer loop
   vertex -0.534468 -80 -24
   vertex -2 -78 -23.1062
   vertex -1.66056 -78 -22
  endloop
 endfacet
 facet normal 0.874419 0.404218 -0.268327
  outer loop
   vertex -1.66056 -78 -22
   vertex -2 -78 -23.1062
   vertex -2 -77.2657 -22
  endloop
 endfacet
 facet normal 0.819631 0.378892 -0.429704
  outer loop
   vertex -1.66056 -78 -22
   vertex -2 -77.2657 -22
   vertex -2 -76 -20.884
  endloop
 endfacet
 facet normal 0.940143 0.296402 -0.168155
  outer loop
   vertex -2.28352 -78 -24
   vertex -2.91407 -76 -24
   vertex -2.55635 -76 -22
  endloop
 endfacet
 facet normal 0.98427 -0.0148222 -0.176048
  outer loop
   vertex -2.55635 -76 -22
   vertex -2.91407 -76 -24
   vertex -2.88395 -74 -24
  endloop
 endfacet
 facet normal 0.922787 -0.186186 -0.337341
  outer loop
   vertex -2.55635 -76 -22
   vertex -2.88395 -74 -24
   vertex -2.15282 -74 -22
  endloop
 endfacet
 facet normal 0.888309 -0.324737 -0.324737
  outer loop
   vertex -2.15282 -74 -22
   vertex -2.88395 -74 -24
   vertex -2.15282 -72 -24
  endloop
 endfacet
 facet normal 0.656202 -0.533572 -0.533572
  outer loop
   vertex -2.15282 -74 -22
   vertex -2.15282 -72 -24
   vertex -2 -72 -23.8121
  endloop
 endfacet
 facet normal 0.691617 -0.453219 -0.562369
  outer loop
   vertex -2 -72 -23.8121
   vertex -2.15282 -72 -24
   vertex -2 -71.7668 -24
  endloop
 endfacet
 facet normal 0.301438 -0.59831 -0.742402
  outer loop
   vertex -2 -72 -23.8121
   vertex -2 -71.7668 -24
   vertex 0 -72 -23
  endloop
 endfacet
 facet normal 0.291646 -0.620467 -0.727986
  outer loop
   vertex 0 -72 -23
   vertex -2 -71.7668 -24
   vertex 0 -70.8267 -24
  endloop
 endfacet
 facet normal -0.877768 -0.275702 -0.391806
  outer loop
   vertex 6.88395 -74 -24
   vertex 6 -74.028 -22
   vertex 6 -74 -22.0197
  endloop
 endfacet
 facet normal -0.560638 -0.476529 -0.677204
  outer loop
   vertex 6 -74 -22.0197
   vertex 6 -74.028 -22
   vertex 5.97624 -74 -22
  endloop
 endfacet
 facet normal -0.387292 -0.794451 -0.467817
  outer loop
   vertex 6 -74 -22.0197
   vertex 5.97624 -74 -22
   vertex 4 -73.0366 -22
  endloop
 endfacet
 facet normal -0.872371 -0.295141 -0.389692
  outer loop
   vertex 6 -74.028 -22
   vertex 6.88395 -74 -24
   vertex 6.66718 -76 -22
  endloop
 endfacet
 facet normal -0.984823 -0.0571433 -0.163883
  outer loop
   vertex 6.66718 -76 -22
   vertex 6.88395 -74 -24
   vertex 7 -76 -24
  endloop
 endfacet
 facet normal -0.866172 -0.316644 -0.38663
  outer loop
   vertex 6.88395 -74 -24
   vertex 6 -74 -22.0197
   vertex 6.15282 -72 -24
  endloop
 endfacet
 facet normal 0.275959 -0.679649 -0.67965
  outer loop
   vertex 0 -72 -23
   vertex -2 -73.8121 -22
   vertex -2 -72 -23.8121
  endloop
 endfacet
 facet normal 0.656194 -0.533577 -0.533578
  outer loop
   vertex -2 -72 -23.8121
   vertex -2 -73.8121 -22
   vertex -2.15282 -74 -22
  endloop
 endfacet
 facet normal -0.295243 -0.619751 -0.727145
  outer loop
   vertex 4 -72 -23
   vertex 4 -70.8267 -24
   vertex 6 -72 -23.8121
  endloop
 endfacet
 facet normal -0.45837 0.86722 -0.194491
  outer loop
   vertex 4.85439 -80 -20
   vertex 4 -80.9001 -22
   vertex 4 -80.4516 -20
  endloop
 endfacet
 facet normal -0.245788 0.945829 -0.212121
  outer loop
   vertex 4 -80.4516 -20
   vertex 4 -80.9001 -22
   vertex 2 -80.9713 -20
  endloop
 endfacet
 facet normal -0.576714 0.808454 -0.117487
  outer loop
   vertex 5.26183 -80 -22
   vertex 4 -80.9001 -22
   vertex 4.85439 -80 -20
  endloop
 endfacet
 facet normal -0.84014 0.463803 -0.28116
  outer loop
   vertex 6.59972 -78 -22
   vertex 6 -79.0863 -22
   vertex 6 -78 -20.208
  endloop
 endfacet
 facet normal -0.68634 0.621929 -0.377017
  outer loop
   vertex 6 -78 -20.208
   vertex 6 -79.0863 -22
   vertex 5.88576 -78 -20
  endloop
 endfacet
 facet normal -0.777483 -0.46165 -0.427083
  outer loop
   vertex 6 -78 -20.208
   vertex 5.88576 -78 -20
   vertex 4.69821 -76 -20
  endloop
 endfacet
 facet normal -0.507193 -0.301158 -0.807502
  outer loop
   vertex 4.69821 -76 -20
   vertex 5.88576 -78 -20
   vertex 4 -78 -18.8156
  endloop
 endfacet
 facet normal -0.490635 -0.310814 -0.814046
  outer loop
   vertex 4.69821 -76 -20
   vertex 4 -78 -18.8156
   vertex 4 -76 -19.5792
  endloop
 endfacet
 facet normal -0.214997 -0.348357 -0.912373
  outer loop
   vertex 4 -76 -19.5792
   vertex 4 -78 -18.8156
   vertex 2 -76 -19.1079
  endloop
 endfacet
 facet normal -0.170374 -0.669502 -0.723008
  outer loop
   vertex 4 -76 -19.5792
   vertex 2 -76 -19.1079
   vertex 2 -75.0366 -20
  endloop
 endfacet
 facet normal 0.649627 0.451554 -0.611624
  outer loop
   vertex -1.66056 -78 -22
   vertex -2 -76 -20.884
   vertex -1.16776 -76 -20
  endloop
 endfacet
 facet normal 0.577479 -0.609026 -0.543697
  outer loop
   vertex -1.16776 -76 -20
   vertex -2 -76 -20.884
   vertex 0 -74 -21
  endloop
 endfacet
 facet normal 0.972783 -0.0081191 -0.231577
  outer loop
   vertex -1.16776 -76 -20
   vertex -1.18445 -78 -20
   vertex -1.66056 -78 -22
  endloop
 endfacet
 facet normal -0.796508 -0.269475 -0.541256
  outer loop
   vertex 6.66718 -76 -22
   vertex 6 -76 -21.0182
   vertex 6 -74.028 -22
  endloop
 endfacet
 facet normal -0.124383 -0.602558 -0.788322
  outer loop
   vertex 4 -74 -21.1079
   vertex 4 -75.4494 -20
   vertex 2 -75.0366 -20
  endloop
 endfacet
 facet normal -0.124382 -0.602556 -0.788325
  outer loop
   vertex 2 -75.0366 -20
   vertex 4 -75.4494 -20
   vertex 4 -76 -19.5792
  endloop
 endfacet
 facet normal 0.766542 -0.154662 -0.623292
  outer loop
   vertex -2.55635 -76 -22
   vertex -2.15282 -74 -22
   vertex -2 -74 -21.8121
  endloop
 endfacet
 facet normal 0.656198 -0.53358 -0.533569
  outer loop
   vertex -2 -74 -21.8121
   vertex -2.15282 -74 -22
   vertex -2 -73.8121 -22
  endloop
 endfacet
 facet normal -0.515658 0.245128 -0.82098
  outer loop
   vertex 5.88576 -78 -20
   vertex 4 -80 -19.4127
   vertex 4 -78 -18.8156
  endloop
 endfacet
 facet normal -0.524164 0.243647 -0.81602
  outer loop
   vertex 4 -78 -18.8156
   vertex 4 -80 -19.4127
   vertex 2 -80 -18.128
  endloop
 endfacet
 facet normal -0.443896 0.139621 -0.885134
  outer loop
   vertex 4 -78 -18.8156
   vertex 2 -80 -18.128
   vertex 2.37378 -78 -18
  endloop
 endfacet
 facet normal -0.657147 0.169825 -0.734383
  outer loop
   vertex 2.37378 -78 -18
   vertex 2 -80 -18.128
   vertex 2 -79.4464 -18
  endloop
 endfacet
 facet normal -0.47729 0.123345 -0.870046
  outer loop
   vertex 2.37378 -78 -18
   vertex 2 -79.4464 -18
   vertex 2 -78 -17.795
  endloop
 endfacet
 facet normal 0.106214 0.139571 -0.984499
  outer loop
   vertex 2 -78 -17.795
   vertex 2 -79.4464 -18
   vertex 0.0994174 -78 -18
  endloop
 endfacet
 facet normal 0.0898247 -0.546568 -0.832583
  outer loop
   vertex 2 -78 -17.795
   vertex 0.0994174 -78 -18
   vertex 2 -77.6877 -18
  endloop
 endfacet
 facet normal 0.089824 -0.546565 -0.832586
  outer loop
   vertex 2 -77.6877 -18
   vertex 0.0994174 -78 -18
   vertex 2 -76 -19.1079
  endloop
 endfacet
 facet normal -0.39238 -0.504772 -0.768923
  outer loop
   vertex 2 -77.6877 -18
   vertex 2 -76 -19.1079
   vertex 4 -78 -18.8156
  endloop
 endfacet
 facet normal 0.159346 0.209388 -0.964762
  outer loop
   vertex 0.0994174 -78 -18
   vertex 2 -79.4464 -18
   vertex 0 -78 -18.0164
  endloop
 endfacet
 facet normal 0.168489 0.222082 -0.96036
  outer loop
   vertex 0 -78 -18.0164
   vertex 2 -79.4464 -18
   vertex 2 -80 -18.128
  endloop
 endfacet
 facet normal 0.263064 0.313972 -0.912261
  outer loop
   vertex 0 -78 -18.0164
   vertex 2 -80 -18.128
   vertex 0 -80 -18.7048
  endloop
 endfacet
 facet normal -0.395034 -0.472728 -0.787703
  outer loop
   vertex 4 -78 -18.8156
   vertex 2.37378 -78 -18
   vertex 2 -77.6877 -18
  endloop
 endfacet
 facet normal -0.416849 -0.498834 -0.759869
  outer loop
   vertex 2 -77.6877 -18
   vertex 2.37378 -78 -18
   vertex 2 -78 -17.795
  endloop
 endfacet
 facet normal 0.133413 -0.57423 -0.807751
  outer loop
   vertex 0.0994174 -78 -18
   vertex 0 -78 -18.0164
   vertex 2 -76 -19.1079
  endloop
 endfacet
 facet normal -0.431889 -0.547714 -0.716576
  outer loop
   vertex 4.69821 -76 -20
   vertex 4 -76 -19.5792
   vertex 4 -75.4494 -20
  endloop
 endfacet
endsolid
