solid ascii
 facet normal -0.393782 0.393782 0.830585
  outer loop
   vertex 3.86448 -44 -40
   vertex 2 -44 -40.884
   vertex 2 -45.8645 -40
  endloop
 endfacet
 facet normal 0 0.428395 0.903592
  outer loop
   vertex 2 -45.8645 -40
   vertex 2 -44 -40.884
   vertex 0 -45.8645 -40
  endloop
 endfacet
 facet normal -0 0.719337 0.694661
  outer loop
   vertex 2 -45.8645 -40
   vertex 0 -45.8645 -40
   vertex 2 -46 -39.8597
  endloop
 endfacet
 facet normal 0.00687212 0.766473 0.64224
  outer loop
   vertex 2 -46 -39.8597
   vertex 0 -45.8645 -40
   vertex 0 -46 -39.8383
  endloop
 endfacet
 facet normal 0.00467171 0.899644 0.436599
  outer loop
   vertex 2 -46 -39.8597
   vertex 0 -46 -39.8383
   vertex 0 -46.8921 -38
  endloop
 endfacet
 facet normal 0.611142 0.712095 0.345581
  outer loop
   vertex 0 -46.8921 -38
   vertex 0 -46 -39.8383
   vertex -1.03948 -46 -38
  endloop
 endfacet
 facet normal 0.569609 0.663702 0.484815
  outer loop
   vertex 0 -46.8921 -38
   vertex -1.03948 -46 -38
   vertex 0 -48 -36.4833
  endloop
 endfacet
 facet normal 0.539737 0.668515 0.511636
  outer loop
   vertex 0 -48 -36.4833
   vertex -1.03948 -46 -38
   vertex -0.458162 -48 -36
  endloop
 endfacet
 facet normal 0.578465 0.603899 0.548347
  outer loop
   vertex 0 -48 -36.4833
   vertex -0.458162 -48 -36
   vertex 0 -48.4389 -36
  endloop
 endfacet
 facet normal 0.526338 0.54948 0.648876
  outer loop
   vertex 0 -48.4389 -36
   vertex -0.458162 -48 -36
   vertex -2 -48.8849 -34
  endloop
 endfacet
 facet normal 0.482243 0.618688 0.620215
  outer loop
   vertex 0 -48.4389 -36
   vertex -2 -48.8849 -34
   vertex -0.569372 -50 -34
  endloop
 endfacet
 facet normal 0.456071 0.58511 0.670556
  outer loop
   vertex -0.569372 -50 -34
   vertex -2 -48.8849 -34
   vertex -2 -50 -33.027
  endloop
 endfacet
 facet normal 0.361858 0.765504 0.532036
  outer loop
   vertex -0.569372 -50 -34
   vertex -2 -50 -33.027
   vertex -2 -50.7138 -32
  endloop
 endfacet
 facet normal 0.355858 0.767399 0.533352
  outer loop
   vertex -2 -50.7138 -32
   vertex -2 -50 -33.027
   vertex -3.53921 -50 -32
  endloop
 endfacet
 facet normal 0.412617 0.889799 0.19495
  outer loop
   vertex -2 -50.7138 -32
   vertex -3.53921 -50 -32
   vertex -4 -50.2245 -30
  endloop
 endfacet
 facet normal 0.819915 0.516514 0.246887
  outer loop
   vertex -4 -50.2245 -30
   vertex -3.53921 -50 -32
   vertex -4 -50 -30.4697
  endloop
 endfacet
 facet normal 0.934149 0.32199 0.153907
  outer loop
   vertex -4 -50.2245 -30
   vertex -4 -50 -30.4697
   vertex -4.07739 -50 -30
  endloop
 endfacet
 facet normal 0.905839 -0.396463 0.149242
  outer loop
   vertex -4.07739 -50 -30
   vertex -4 -50 -30.4697
   vertex -4 -49.8232 -30
  endloop
 endfacet
 facet normal 0.839907 -0.367606 -0.399277
  outer loop
   vertex -4.07739 -50 -30
   vertex -4 -49.8232 -30
   vertex -4 -50 -29.8372
  endloop
 endfacet
 facet normal 0.806146 -0.400786 -0.435316
  outer loop
   vertex -4 -50 -29.8372
   vertex -4 -49.8232 -30
   vertex -3.09358 -48 -30
  endloop
 endfacet
 facet normal 0.674471 -0.358223 -0.645574
  outer loop
   vertex -4 -50 -29.8372
   vertex -3.09358 -48 -30
   vertex -2 -48 -28.8575
  endloop
 endfacet
 facet normal 0.612918 -0.529305 -0.586658
  outer loop
   vertex -2 -48 -28.8575
   vertex -3.09358 -48 -30
   vertex -2 -46.7337 -30
  endloop
 endfacet
 facet normal 0.464631 -0.593183 -0.657459
  outer loop
   vertex -2 -48 -28.8575
   vertex -2 -46.7337 -30
   vertex -1.06334 -46 -30
  endloop
 endfacet
 facet normal 0.436797 -0.557648 -0.705859
  outer loop
   vertex -1.06334 -46 -30
   vertex -2 -46.7337 -30
   vertex -2 -46 -30.5796
  endloop
 endfacet
 facet normal 0.405183 -0.638044 -0.654772
  outer loop
   vertex -1.06334 -46 -30
   vertex -2 -46 -30.5796
   vertex 0 -44 -31.2909
  endloop
 endfacet
 facet normal 0.304183 -0.574441 -0.759927
  outer loop
   vertex 0 -44 -31.2909
   vertex -2 -46 -30.5796
   vertex -1.77152 -44 -32
  endloop
 endfacet
 facet normal 0.239868 -0.763782 -0.59925
  outer loop
   vertex 0 -44 -31.2909
   vertex -1.77152 -44 -32
   vertex 0 -43.4436 -32
  endloop
 endfacet
 facet normal 0.27822 -0.885902 -0.371175
  outer loop
   vertex 0 -43.4436 -32
   vertex -1.77152 -44 -32
   vertex -2 -43.2338 -34
  endloop
 endfacet
 facet normal 0.273622 -0.889104 -0.366913
  outer loop
   vertex 0 -43.4436 -32
   vertex -2 -43.2338 -34
   vertex 0 -42.6183 -34
  endloop
 endfacet
 facet normal 0.253226 -0.82283 -0.508751
  outer loop
   vertex 0 -42.6183 -34
   vertex -2 -43.2338 -34
   vertex 0 -42 -35
  endloop
 endfacet
 facet normal -0.104674 -0.84588 -0.523002
  outer loop
   vertex 0 -42.6183 -34
   vertex 0 -42 -35
   vertex 2 -42 -35.4003
  endloop
 endfacet
 facet normal -0.102394 -0.853093 -0.511613
  outer loop
   vertex 2 -42 -35.4003
   vertex 0 -42 -35
   vertex 0 -41.4003 -36
  endloop
 endfacet
 facet normal -0.112536 -0.864744 -0.489442
  outer loop
   vertex 2 -42 -35.4003
   vertex 0 -41.4003 -36
   vertex 2 -41.6606 -36
  endloop
 endfacet
 facet normal -0.124111 -0.953685 -0.274008
  outer loop
   vertex 2 -41.6606 -36
   vertex 0 -41.4003 -36
   vertex 2 -41.0859 -38
  endloop
 endfacet
 facet normal -0.37305 -0.891734 -0.256209
  outer loop
   vertex 2 -41.6606 -36
   vertex 2 -41.0859 -38
   vertex 4 -41.9226 -38
  endloop
 endfacet
 facet normal -0.375457 -0.897486 0.231411
  outer loop
   vertex 4 -41.9226 -38
   vertex 2 -41.0859 -38
   vertex 2 -41.6016 -40
  endloop
 endfacet
 facet normal -0.323955 -0.929799 0.174723
  outer loop
   vertex 4 -41.9226 -38
   vertex 2 -41.6016 -40
   vertex 3.14342 -42 -40
  endloop
 endfacet
 facet normal -0.239213 -0.686577 0.686577
  outer loop
   vertex 3.14342 -42 -40
   vertex 2 -41.6016 -40
   vertex 2 -42 -40.3984
  endloop
 endfacet
 facet normal -0.326725 -0.117794 0.93775
  outer loop
   vertex 3.14342 -42 -40
   vertex 2 -42 -40.3984
   vertex 3.86448 -44 -40
  endloop
 endfacet
 facet normal -0.418443 -0.214282 0.882603
  outer loop
   vertex 3.86448 -44 -40
   vertex 2 -42 -40.3984
   vertex 2 -44 -40.884
  endloop
 endfacet
 facet normal 0 0.428395 0.903592
  outer loop
   vertex 0 -45.8645 -40
   vertex 2 -44 -40.884
   vertex 0 -44 -40.884
  endloop
 endfacet
 facet normal 0 -0.235931 0.97177
  outer loop
   vertex 0 -44 -40.884
   vertex 2 -44 -40.884
   vertex 0 -42 -40.3984
  endloop
 endfacet
 facet normal 0.189106 -0.231674 0.954236
  outer loop
   vertex 0 -44 -40.884
   vertex 0 -42 -40.3984
   vertex -2 -42 -40.002
  endloop
 endfacet
 facet normal 0.138775 -0.700265 0.700265
  outer loop
   vertex -2 -42 -40.002
   vertex 0 -42 -40.3984
   vertex 0 -41.6016 -40
  endloop
 endfacet
 facet normal 0.138904 -0.700909 0.699594
  outer loop
   vertex -2 -42 -40.002
   vertex 0 -41.6016 -40
   vertex -2 -41.998 -40
  endloop
 endfacet
 facet normal 0.180664 -0.911626 0.369187
  outer loop
   vertex -2 -41.998 -40
   vertex 0 -41.6016 -40
   vertex -2 -41.188 -38
  endloop
 endfacet
 facet normal 0.474159 -0.81606 0.330485
  outer loop
   vertex -2 -41.998 -40
   vertex -2 -41.188 -38
   vertex -3.39748 -42 -38
  endloop
 endfacet
 facet normal 0.495274 -0.852401 -0.167682
  outer loop
   vertex -3.39748 -42 -38
   vertex -2 -41.188 -38
   vertex -2.72035 -42 -36
  endloop
 endfacet
 facet normal 0.945315 -0.0628225 -0.320051
  outer loop
   vertex -3.39748 -42 -38
   vertex -2.72035 -42 -36
   vertex -2.85326 -44 -36
  endloop
 endfacet
 facet normal 0.991903 -0.0659186 -0.108547
  outer loop
   vertex -2.85326 -44 -36
   vertex -2.72035 -42 -36
   vertex -2.63439 -44 -34
  endloop
 endfacet
 facet normal 0.978048 -0.17879 -0.10703
  outer loop
   vertex -2.85326 -44 -36
   vertex -2.63439 -44 -34
   vertex -3 -46 -34
  endloop
 endfacet
 facet normal 0.961812 -0.175822 0.209772
  outer loop
   vertex -3 -46 -34
   vertex -2.63439 -44 -34
   vertex -3.4362 -46 -32
  endloop
 endfacet
 facet normal 0.965201 0.155154 0.210511
  outer loop
   vertex -3 -46 -34
   vertex -3.4362 -46 -32
   vertex -2.6785 -48 -34
  endloop
 endfacet
 facet normal 0.791148 -0.255827 0.555552
  outer loop
   vertex -2.6785 -48 -34
   vertex -3.4362 -46 -32
   vertex -4 -48 -32.1181
  endloop
 endfacet
 facet normal 0.80997 0.143001 0.568769
  outer loop
   vertex -2.6785 -48 -34
   vertex -4 -48 -32.1181
   vertex -4 -48.4697 -32
  endloop
 endfacet
 facet normal 0.838006 0.13305 0.529191
  outer loop
   vertex -4 -48.4697 -32
   vertex -4 -48 -32.1181
   vertex -4.07457 -48 -32
  endloop
 endfacet
 facet normal 0.911698 0.14475 -0.384518
  outer loop
   vertex -4 -48.4697 -32
   vertex -4.07457 -48 -32
   vertex -4 -48 -31.8232
  endloop
 endfacet
 facet normal 0.888973 -0.262968 -0.374933
  outer loop
   vertex -4 -48 -31.8232
   vertex -4.07457 -48 -32
   vertex -4 -47.7479 -32
  endloop
 endfacet
 facet normal 0.871861 -0.281225 -0.400963
  outer loop
   vertex -4 -48 -31.8232
   vertex -4 -47.7479 -32
   vertex -3.4362 -46 -32
  endloop
 endfacet
 facet normal 0.796013 -0.25676 0.548122
  outer loop
   vertex -3.4362 -46 -32
   vertex -4 -47.7479 -32
   vertex -4 -48 -32.1181
  endloop
 endfacet
 facet normal 0.212544 0.604168 0.767988
  outer loop
   vertex -2 -44.42 -40
   vertex 0 -44 -40.884
   vertex -2 -44 -40.3304
  endloop
 endfacet
 facet normal 0.263449 -0.156311 0.951925
  outer loop
   vertex -2 -44 -40.3304
   vertex 0 -44 -40.884
   vertex -2 -42 -40.002
  endloop
 endfacet
 facet normal 0.549055 -0.135427 0.824741
  outer loop
   vertex -2 -44 -40.3304
   vertex -2 -42 -40.002
   vertex -2.00305 -42 -40
  endloop
 endfacet
 facet normal 0.425583 -0.640475 0.639273
  outer loop
   vertex -2.00305 -42 -40
   vertex -2 -42 -40.002
   vertex -2 -41.998 -40
  endloop
 endfacet
 facet normal 0.516334 -0.777048 0.359994
  outer loop
   vertex -2.00305 -42 -40
   vertex -2 -41.998 -40
   vertex -3.39748 -42 -38
  endloop
 endfacet
 facet normal 0.295571 0.409254 0.86322
  outer loop
   vertex 0 -44 -40.884
   vertex -2 -44.42 -40
   vertex 0 -45.8645 -40
  endloop
 endfacet
 facet normal 0.563512 0.780252 0.271405
  outer loop
   vertex 0 -45.8645 -40
   vertex -2 -44.42 -40
   vertex -2 -45.1157 -38
  endloop
 endfacet
 facet normal 0.680702 0.561501 0.470491
  outer loop
   vertex 0 -45.8645 -40
   vertex -2 -45.1157 -38
   vertex 0 -46 -39.8383
  endloop
 endfacet
 facet normal 0.6325 0.687041 0.357658
  outer loop
   vertex 0 -46 -39.8383
   vertex -2 -45.1157 -38
   vertex -1.03948 -46 -38
  endloop
 endfacet
 facet normal 0.461865 0.548397 0.697095
  outer loop
   vertex -2 -44.42 -40
   vertex -2 -44 -40.3304
   vertex -2.49874 -44 -40
  endloop
 endfacet
 facet normal 0.547223 -0.135626 0.825925
  outer loop
   vertex -2.49874 -44 -40
   vertex -2 -44 -40.3304
   vertex -2.00305 -42 -40
  endloop
 endfacet
 facet normal 0.926785 -0.229697 0.297169
  outer loop
   vertex -2.49874 -44 -40
   vertex -2.00305 -42 -40
   vertex -3.14003 -44 -38
  endloop
 endfacet
 facet normal 0.81577 0.105008 0.568764
  outer loop
   vertex -3.14003 -44 -38
   vertex -2.00305 -42 -40
   vertex -3.39748 -42 -38
  endloop
 endfacet
 facet normal 0.981937 0.126397 -0.140796
  outer loop
   vertex -3.14003 -44 -38
   vertex -3.39748 -42 -38
   vertex -2.85326 -44 -36
  endloop
 endfacet
 facet normal 0 -0.235931 0.97177
  outer loop
   vertex 2 -44 -40.884
   vertex 2 -42 -40.3984
   vertex 0 -42 -40.3984
  endloop
 endfacet
 facet normal 0 -0.707107 0.707107
  outer loop
   vertex 0 -42 -40.3984
   vertex 2 -42 -40.3984
   vertex 2 -41.6016 -40
  endloop
 endfacet
 facet normal 0 -0.707107 0.707107
  outer loop
   vertex 0 -42 -40.3984
   vertex 2 -41.6016 -40
   vertex 0 -41.6016 -40
  endloop
 endfacet
 facet normal 0 -0.957613 0.288058
  outer loop
   vertex 0 -41.6016 -40
   vertex 2 -41.6016 -40
   vertex 0 -41 -38
  endloop
 endfacet
 facet normal 0.089662 -0.953756 0.286897
  outer loop
   vertex 0 -41.6016 -40
   vertex 0 -41 -38
   vertex -2 -41.188 -38
  endloop
 endfacet
 facet normal 0.0916738 -0.975156 -0.201661
  outer loop
   vertex -2 -41.188 -38
   vertex 0 -41 -38
   vertex -2 -41.6016 -36
  endloop
 endfacet
 facet normal 0.476228 -0.861102 -0.178075
  outer loop
   vertex -2 -41.188 -38
   vertex -2 -41.6016 -36
   vertex -2.72035 -42 -36
  endloop
 endfacet
 facet normal 0.414946 -0.750293 -0.514665
  outer loop
   vertex -2.72035 -42 -36
   vertex -2 -41.6016 -36
   vertex -2 -42 -35.4192
  endloop
 endfacet
 facet normal 0.501759 -0.600776 -0.622339
  outer loop
   vertex -2.72035 -42 -36
   vertex -2 -42 -35.4192
   vertex -2.63439 -44 -34
  endloop
 endfacet
 facet normal 0.673644 -0.557757 -0.484883
  outer loop
   vertex -2.63439 -44 -34
   vertex -2 -42 -35.4192
   vertex -2 -43.2338 -34
  endloop
 endfacet
 facet normal 0.742395 -0.61468 -0.266492
  outer loop
   vertex -2.63439 -44 -34
   vertex -2 -43.2338 -34
   vertex -2 -44 -32.2327
  endloop
 endfacet
 facet normal 0.375486 -0.85035 -0.368666
  outer loop
   vertex -2 -44 -32.2327
   vertex -2 -43.2338 -34
   vertex -1.77152 -44 -32
  endloop
 endfacet
 facet normal 0.42336 -0.804975 -0.41567
  outer loop
   vertex -2 -44 -32.2327
   vertex -1.77152 -44 -32
   vertex -2 -44.1202 -32
  endloop
 endfacet
 facet normal 0.302228 -0.574656 -0.760545
  outer loop
   vertex -2 -44.1202 -32
   vertex -1.77152 -44 -32
   vertex -2 -46 -30.5796
  endloop
 endfacet
 facet normal 0.619447 -0.473259 -0.626348
  outer loop
   vertex -2 -44.1202 -32
   vertex -2 -46 -30.5796
   vertex -3.4362 -46 -32
  endloop
 endfacet
 facet normal 0.680372 -0.252617 -0.687952
  outer loop
   vertex -3.4362 -46 -32
   vertex -2 -46 -30.5796
   vertex -4 -48 -31.8232
  endloop
 endfacet
 facet normal -0.562989 0.7279 0.391414
  outer loop
   vertex 3.29292 -46 -38
   vertex 2 -46 -39.8597
   vertex 2 -47 -38
  endloop
 endfacet
 facet normal 0.0474568 0.879747 0.473068
  outer loop
   vertex 2 -47 -38
   vertex 2 -46 -39.8597
   vertex 0 -46.8921 -38
  endloop
 endfacet
 facet normal 0.0426312 0.790292 0.611246
  outer loop
   vertex 2 -47 -38
   vertex 0 -46.8921 -38
   vertex 2 -48 -36.7071
  endloop
 endfacet
 facet normal 0.0658488 0.805753 0.58858
  outer loop
   vertex 2 -48 -36.7071
   vertex 0 -46.8921 -38
   vertex 0 -48 -36.4833
  endloop
 endfacet
 facet normal 0.0749962 0.738253 0.670342
  outer loop
   vertex 2 -48 -36.7071
   vertex 0 -48 -36.4833
   vertex 0 -48.4389 -36
  endloop
 endfacet
 facet normal -0.84014 0.463803 0.28116
  outer loop
   vertex 4.59972 -44 -38
   vertex 4 -44 -39.792
   vertex 4 -45.0863 -38
  endloop
 endfacet
 facet normal -0.741449 0.573809 0.347846
  outer loop
   vertex 4 -45.0863 -38
   vertex 4 -44 -39.792
   vertex 3.29292 -46 -38
  endloop
 endfacet
 facet normal -0.709441 0.549037 0.441874
  outer loop
   vertex 4 -45.0863 -38
   vertex 3.29292 -46 -38
   vertex 4 -46 -36.8648
  endloop
 endfacet
 facet normal -0.633907 0.665036 0.394828
  outer loop
   vertex 4 -46 -36.8648
   vertex 3.29292 -46 -38
   vertex 2 -48 -36.7071
  endloop
 endfacet
 facet normal -0.514808 0.565601 0.644257
  outer loop
   vertex 4 -46 -36.8648
   vertex 2 -48 -36.7071
   vertex 2.88488 -48 -36
  endloop
 endfacet
 facet normal -0.484106 0.631351 0.605836
  outer loop
   vertex 2.88488 -48 -36
   vertex 2 -48 -36.7071
   vertex 2 -48.6785 -36
  endloop
 endfacet
 facet normal -0.467865 0.610169 0.639372
  outer loop
   vertex 2.88488 -48 -36
   vertex 2 -48.6785 -36
   vertex 4 -48 -35.184
  endloop
 endfacet
 facet normal -0.467548 0.617695 0.632338
  outer loop
   vertex 4 -48 -35.184
   vertex 2 -48.6785 -36
   vertex 2 -50 -34.7091
  endloop
 endfacet
 facet normal -0.269915 0.469525 0.84065
  outer loop
   vertex 4 -48 -35.184
   vertex 2 -50 -34.7091
   vertex 4 -50 -34.0669
  endloop
 endfacet
 facet normal -0.194411 0.771741 0.605492
  outer loop
   vertex 4 -50 -34.0669
   vertex 2 -50 -34.7091
   vertex 2 -50.5564 -34
  endloop
 endfacet
 facet normal -0.166186 0.683004 0.711258
  outer loop
   vertex 4 -50 -34.0669
   vertex 2 -50.5564 -34
   vertex 4 -50.0697 -34
  endloop
 endfacet
 facet normal -0.231112 0.949839 0.210698
  outer loop
   vertex 4 -50.0697 -34
   vertex 2 -50.5564 -34
   vertex 2 -51 -32
  endloop
 endfacet
 facet normal 0.0802963 0.870665 0.485278
  outer loop
   vertex 4 -50.0697 -34
   vertex 2 -51 -32
   vertex 4 -51.1844 -32
  endloop
 endfacet
 facet normal 0.0900632 0.976569 0.195452
  outer loop
   vertex 4 -51.1844 -32
   vertex 2 -51 -32
   vertex 2 -51.4003 -30
  endloop
 endfacet
 facet normal 0.182371 0.941333 0.283958
  outer loop
   vertex 4 -51.1844 -32
   vertex 2 -51.4003 -30
   vertex 4 -51.7878 -30
  endloop
 endfacet
 facet normal 0.175773 0.907276 0.38204
  outer loop
   vertex 4 -51.7878 -30
   vertex 2 -51.4003 -30
   vertex 4 -52 -29.496
  endloop
 endfacet
 facet normal -0.31142 0.875794 0.368784
  outer loop
   vertex 4 -51.7878 -30
   vertex 4 -52 -29.496
   vertex 5.77152 -52 -28
  endloop
 endfacet
 facet normal -0.282376 0.899137 0.33439
  outer loop
   vertex 5.77152 -52 -28
   vertex 4 -52 -29.496
   vertex 4 -52.5564 -28
  endloop
 endfacet
 facet normal -0.287017 0.913916 -0.287017
  outer loop
   vertex 5.77152 -52 -28
   vertex 4 -52.5564 -28
   vertex 4 -52 -26.2285
  endloop
 endfacet
 facet normal -0.201319 0.934524 -0.293489
  outer loop
   vertex 4 -52 -26.2285
   vertex 4 -52.5564 -28
   vertex 3.66692 -52 -26
  endloop
 endfacet
 facet normal -0.547595 0.250708 -0.798302
  outer loop
   vertex 4 -52 -26.2285
   vertex 3.66692 -52 -26
   vertex 4 -51.2725 -26
  endloop
 endfacet
 facet normal -0.231143 0.105825 -0.967147
  outer loop
   vertex 4 -51.2725 -26
   vertex 3.66692 -52 -26
   vertex 2 -52 -25.6016
  endloop
 endfacet
 facet normal -0.231838 0.107956 -0.966745
  outer loop
   vertex 4 -51.2725 -26
   vertex 2 -52 -25.6016
   vertex 4 -50 -25.8579
  endloop
 endfacet
 facet normal -0.221981 0.0976628 -0.970148
  outer loop
   vertex 4 -50 -25.8579
   vertex 2 -52 -25.6016
   vertex 2 -50 -25.4003
  endloop
 endfacet
 facet normal -0.182113 -0.577375 -0.79591
  outer loop
   vertex 4 -50 -25.8579
   vertex 2 -50 -25.4003
   vertex 2 -49.1733 -26
  endloop
 endfacet
 facet normal 0.0345085 -0.586844 -0.808964
  outer loop
   vertex 2 -49.1733 -26
   vertex 2 -50 -25.4003
   vertex 0 -49.2909 -26
  endloop
 endfacet
 facet normal 0.0381162 -0.648196 -0.760519
  outer loop
   vertex 2 -49.1733 -26
   vertex 0 -49.2909 -26
   vertex 2 -48 -27
  endloop
 endfacet
 facet normal 0.111624 -0.71087 -0.694409
  outer loop
   vertex 2 -48 -27
   vertex 0 -49.2909 -26
   vertex 0 -48 -27.3215
  endloop
 endfacet
 facet normal 0.108126 -0.732024 -0.672644
  outer loop
   vertex 2 -48 -27
   vertex 0 -48 -27.3215
   vertex 0 -47.3765 -28
  endloop
 endfacet
 facet normal 0.441076 -0.660844 -0.607238
  outer loop
   vertex 0 -47.3765 -28
   vertex 0 -48 -27.3215
   vertex -0.934112 -48 -28
  endloop
 endfacet
 facet normal 0.426807 -0.639466 -0.639467
  outer loop
   vertex 0 -47.3765 -28
   vertex -0.934112 -48 -28
   vertex 0 -46 -29.3765
  endloop
 endfacet
 facet normal 0.482552 -0.638228 -0.59984
  outer loop
   vertex 0 -46 -29.3765
   vertex -0.934112 -48 -28
   vertex -2 -48 -28.8575
  endloop
 endfacet
 facet normal 0.40859 -0.589444 -0.696857
  outer loop
   vertex 0 -46 -29.3765
   vertex -2 -48 -28.8575
   vertex -1.06334 -46 -30
  endloop
 endfacet
 facet normal -0.640592 0.625532 0.445367
  outer loop
   vertex 3.29292 -46 -38
   vertex 4 -44 -39.792
   vertex 2 -46 -39.8597
  endloop
 endfacet
 facet normal -0.648061 0.633781 0.422302
  outer loop
   vertex 2 -46 -39.8597
   vertex 4 -44 -39.792
   vertex 3.86448 -44 -40
  endloop
 endfacet
 facet normal -0.58395 0.583951 0.563918
  outer loop
   vertex 2 -46 -39.8597
   vertex 3.86448 -44 -40
   vertex 2 -45.8645 -40
  endloop
 endfacet
 facet normal 0.622526 0.739158 0.257111
  outer loop
   vertex -2 -44.42 -40
   vertex -2.49874 -44 -40
   vertex -2 -45.1157 -38
  endloop
 endfacet
 facet normal 0.682495 0.69736 0.218839
  outer loop
   vertex -2 -45.1157 -38
   vertex -2.49874 -44 -40
   vertex -3.14003 -44 -38
  endloop
 endfacet
 facet normal 0.692856 0.707947 0.136975
  outer loop
   vertex -2 -45.1157 -38
   vertex -3.14003 -44 -38
   vertex -2 -45.5027 -36
  endloop
 endfacet
 facet normal 0.86291 0.489978 -0.123729
  outer loop
   vertex -2 -45.5027 -36
   vertex -3.14003 -44 -38
   vertex -2.85326 -44 -36
  endloop
 endfacet
 facet normal 0.748662 0.425106 0.508714
  outer loop
   vertex -2 -45.5027 -36
   vertex -2.85326 -44 -36
   vertex -2 -46 -35.5844
  endloop
 endfacet
 facet normal 0.764842 0.426608 0.482724
  outer loop
   vertex -2 -46 -35.5844
   vertex -2.85326 -44 -36
   vertex -3 -46 -34
  endloop
 endfacet
 facet normal 0.820401 0.242562 0.51779
  outer loop
   vertex -2 -46 -35.5844
   vertex -3 -46 -34
   vertex -2 -48 -34.6475
  endloop
 endfacet
 facet normal 0.68618 0.110302 0.719021
  outer loop
   vertex -2 -48 -34.6475
   vertex -3 -46 -34
   vertex -2.6785 -48 -34
  endloop
 endfacet
 facet normal 0.610169 0.467863 0.639373
  outer loop
   vertex -2 -48 -34.6475
   vertex -2.6785 -48 -34
   vertex -2 -48.8849 -34
  endloop
 endfacet
 facet normal 0.660108 0.506155 0.555035
  outer loop
   vertex -2 -48.8849 -34
   vertex -2.6785 -48 -34
   vertex -4 -48.4697 -32
  endloop
 endfacet
 facet normal 0.71255 0.214557 0.66801
  outer loop
   vertex -2 -48.8849 -34
   vertex -4 -48.4697 -32
   vertex -3.53921 -50 -32
  endloop
 endfacet
 facet normal 0.760181 0.228899 -0.608055
  outer loop
   vertex -3.53921 -50 -32
   vertex -4 -48.4697 -32
   vertex -4 -48 -31.8232
  endloop
 endfacet
 facet normal 0.869585 0.23857 -0.432327
  outer loop
   vertex -3.53921 -50 -32
   vertex -4 -48 -31.8232
   vertex -3.09358 -48 -30
  endloop
 endfacet
 facet normal 0.761502 -0.526101 -0.378592
  outer loop
   vertex -3.09358 -48 -30
   vertex -4 -48 -31.8232
   vertex -2 -46 -30.5796
  endloop
 endfacet
 facet normal 0.583148 -0.503596 -0.63744
  outer loop
   vertex -3.09358 -48 -30
   vertex -2 -46 -30.5796
   vertex -2 -46.7337 -30
  endloop
 endfacet
 facet normal -0.925431 -0.218314 0.309704
  outer loop
   vertex 4.59972 -44 -38
   vertex 4 -42 -38.3822
   vertex 4 -44 -39.792
  endloop
 endfacet
 facet normal -0.78191 -0.35917 0.509523
  outer loop
   vertex 4 -44 -39.792
   vertex 4 -42 -38.3822
   vertex 3.86448 -44 -40
  endloop
 endfacet
 facet normal -0.949499 -0.247978 0.192247
  outer loop
   vertex 4.59972 -44 -38
   vertex 4.07739 -42 -38
   vertex 4 -42 -38.3822
  endloop
 endfacet
 facet normal -0.699965 -0.699974 0.141723
  outer loop
   vertex 4 -42 -38.3822
   vertex 4.07739 -42 -38
   vertex 4 -41.9226 -38
  endloop
 endfacet
 facet normal -0.350953 -0.917771 0.18582
  outer loop
   vertex 4 -42 -38.3822
   vertex 4 -41.9226 -38
   vertex 3.14342 -42 -40
  endloop
 endfacet
 facet normal -0.842055 -0.303586 0.445846
  outer loop
   vertex 3.86448 -44 -40
   vertex 4 -42 -38.3822
   vertex 3.14342 -42 -40
  endloop
 endfacet
 facet normal -0.0415682 -0.967492 0.249461
  outer loop
   vertex 2 -41.6016 -40
   vertex 2 -41.0859 -38
   vertex 0 -41 -38
  endloop
 endfacet
 facet normal -0.0420921 -0.979685 -0.196076
  outer loop
   vertex 0 -41 -38
   vertex 2 -41.0859 -38
   vertex 0 -41.4003 -36
  endloop
 endfacet
 facet normal 0.0982311 -0.975812 -0.195301
  outer loop
   vertex 0 -41 -38
   vertex 0 -41.4003 -36
   vertex -2 -41.6016 -36
  endloop
 endfacet
 facet normal 0.0860113 -0.854422 -0.512411
  outer loop
   vertex -2 -41.6016 -36
   vertex 0 -41.4003 -36
   vertex 0 -42 -35
  endloop
 endfacet
 facet normal 0.117745 -0.818902 -0.561726
  outer loop
   vertex -2 -41.6016 -36
   vertex 0 -42 -35
   vertex -2 -42 -35.4192
  endloop
 endfacet
 facet normal 0.136241 -0.747651 -0.649967
  outer loop
   vertex -2 -42 -35.4192
   vertex 0 -42 -35
   vertex -2 -43.2338 -34
  endloop
 endfacet
 facet normal 0.086133 0.718855 0.689803
  outer loop
   vertex 2 -48 -36.7071
   vertex 0 -48.4389 -36
   vertex 2 -48.6785 -36
  endloop
 endfacet
 facet normal 0.0834351 0.696339 0.712847
  outer loop
   vertex 2 -48.6785 -36
   vertex 0 -48.4389 -36
   vertex 2 -50 -34.7091
  endloop
 endfacet
 facet normal -0.808093 0.444119 0.386967
  outer loop
   vertex 4.4141 -46 -36
   vertex 4 -46 -36.8648
   vertex 4 -46.7535 -36
  endloop
 endfacet
 facet normal -0.644443 0.576511 0.502322
  outer loop
   vertex 4 -46.7535 -36
   vertex 4 -46 -36.8648
   vertex 2.88488 -48 -36
  endloop
 endfacet
 facet normal -0.522151 0.46711 0.713559
  outer loop
   vertex 4 -46.7535 -36
   vertex 2.88488 -48 -36
   vertex 4 -48 -35.184
  endloop
 endfacet
 facet normal -0.521879 0.674747 0.521879
  outer loop
   vertex 2 -48 -36.7071
   vertex 3.29292 -46 -38
   vertex 2 -47 -38
  endloop
 endfacet
 facet normal 0.816565 0.509219 0.271878
  outer loop
   vertex -0.458162 -48 -36
   vertex -1.03948 -46 -38
   vertex -1.70539 -46 -36
  endloop
 endfacet
 facet normal 0.827091 0.489985 0.275383
  outer loop
   vertex -1.70539 -46 -36
   vertex -1.03948 -46 -38
   vertex -2 -45.5027 -36
  endloop
 endfacet
 facet normal 0.73451 0.435138 0.52072
  outer loop
   vertex -1.70539 -46 -36
   vertex -2 -45.5027 -36
   vertex -2 -46 -35.5844
  endloop
 endfacet
 facet normal -0.794719 0.472857 0.380563
  outer loop
   vertex 4 -46 -36.8648
   vertex 4.4141 -46 -36
   vertex 4 -45.0863 -38
  endloop
 endfacet
 facet normal -0.812264 0.448414 0.373029
  outer loop
   vertex 4 -45.0863 -38
   vertex 4.4141 -46 -36
   vertex 4.59972 -44 -38
  endloop
 endfacet
 facet normal -0.997247 0.0709261 -0.0216266
  outer loop
   vertex 4.59972 -44 -38
   vertex 4.4141 -46 -36
   vertex 4.55635 -44 -36
  endloop
 endfacet
 facet normal -0.927277 0.0659497 0.368522
  outer loop
   vertex 4.55635 -44 -36
   vertex 4.4141 -46 -36
   vertex 5.20895 -46 -34
  endloop
 endfacet
 facet normal -0.94822 -0.317511 -0.00810586
  outer loop
   vertex 4.55635 -44 -36
   vertex 5.20895 -46 -34
   vertex 4.53925 -44 -34
  endloop
 endfacet
 facet normal -0.91376 -0.305973 0.267251
  outer loop
   vertex 4.53925 -44 -34
   vertex 5.20895 -46 -34
   vertex 5.7939 -46 -32
  endloop
 endfacet
 facet normal -0.75131 -0.638438 -0.167123
  outer loop
   vertex 4.53925 -44 -34
   vertex 5.7939 -46 -32
   vertex 4.09437 -44 -32
  endloop
 endfacet
 facet normal -0.706555 -0.600407 -0.374554
  outer loop
   vertex 4.09437 -44 -32
   vertex 5.7939 -46 -32
   vertex 4.73367 -46 -30
  endloop
 endfacet
 facet normal -0.527861 -0.678978 -0.510246
  outer loop
   vertex 4.09437 -44 -32
   vertex 4.73367 -46 -30
   vertex 4 -45.4296 -30
  endloop
 endfacet
 facet normal -0.481736 -0.619648 -0.61965
  outer loop
   vertex 4 -45.4296 -30
   vertex 4.73367 -46 -30
   vertex 4 -46 -29.4296
  endloop
 endfacet
 facet normal -0.15017 -0.699087 -0.699089
  outer loop
   vertex 4 -45.4296 -30
   vertex 4 -46 -29.4296
   vertex 2 -45 -30
  endloop
 endfacet
 facet normal -0.150171 -0.699088 -0.699088
  outer loop
   vertex 2 -45 -30
   vertex 4 -46 -29.4296
   vertex 2 -46 -29
  endloop
 endfacet
 facet normal 0.112938 -0.702583 -0.702583
  outer loop
   vertex 2 -45 -30
   vertex 2 -46 -29
   vertex 0 -45.3215 -30
  endloop
 endfacet
 facet normal 0.137314 -0.670203 -0.729365
  outer loop
   vertex 0 -45.3215 -30
   vertex 2 -46 -29
   vertex 0 -46 -29.3765
  endloop
 endfacet
 facet normal 0.396375 -0.62119 -0.676025
  outer loop
   vertex 0 -45.3215 -30
   vertex 0 -46 -29.3765
   vertex -1.06334 -46 -30
  endloop
 endfacet
 facet normal 0.670542 0.728364 0.140925
  outer loop
   vertex -2 -45.1157 -38
   vertex -2 -45.5027 -36
   vertex -1.03948 -46 -38
  endloop
 endfacet
 facet normal -0.739783 -0.573625 -0.351676
  outer loop
   vertex 4.07739 -42 -38
   vertex 4 -43.1264 -36
   vertex 4 -42 -37.8372
  endloop
 endfacet
 facet normal -0.571354 -0.699679 -0.428957
  outer loop
   vertex 4 -42 -37.8372
   vertex 4 -43.1264 -36
   vertex 2.62067 -42 -36
  endloop
 endfacet
 facet normal -0.451425 -0.82544 -0.338917
  outer loop
   vertex 4 -42 -37.8372
   vertex 2.62067 -42 -36
   vertex 2 -41.6606 -36
  endloop
 endfacet
 facet normal -0.429752 -0.78581 -0.444766
  outer loop
   vertex 2 -41.6606 -36
   vertex 2.62067 -42 -36
   vertex 2 -42 -35.4003
  endloop
 endfacet
 facet normal -0.799771 -0.509301 -0.317771
  outer loop
   vertex 4 -43.1264 -36
   vertex 4.07739 -42 -38
   vertex 4.55635 -44 -36
  endloop
 endfacet
 facet normal -0.967334 -0.252636 -0.0209779
  outer loop
   vertex 4.55635 -44 -36
   vertex 4.07739 -42 -38
   vertex 4.59972 -44 -38
  endloop
 endfacet
 facet normal -0.67025 -0.670258 -0.318621
  outer loop
   vertex 4.07739 -42 -38
   vertex 4 -42 -37.8372
   vertex 4 -41.9226 -38
  endloop
 endfacet
 facet normal -0.480347 -0.792131 -0.376557
  outer loop
   vertex 4 -41.9226 -38
   vertex 4 -42 -37.8372
   vertex 2 -41.6606 -36
  endloop
 endfacet
 facet normal -0.46261 0.614064 0.639466
  outer loop
   vertex 4 -50 -34.0669
   vertex 4 -50.0697 -34
   vertex 4.09254 -50 -34
  endloop
 endfacet
 facet normal -0.470161 0.624087 0.624071
  outer loop
   vertex 4.09254 -50 -34
   vertex 4 -50.0697 -34
   vertex 6 -50 -32.563
  endloop
 endfacet
 facet normal -0.60016 0.0720673 0.796627
  outer loop
   vertex 4.09254 -50 -34
   vertex 6 -50 -32.563
   vertex 6 -48 -32.7439
  endloop
 endfacet
 facet normal -0.755018 0.0590773 0.653037
  outer loop
   vertex 6 -48 -32.7439
   vertex 6 -50 -32.563
   vertex 6.48692 -50 -32
  endloop
 endfacet
 facet normal -0.837296 -0.000487489 0.54675
  outer loop
   vertex 6 -48 -32.7439
   vertex 6.48692 -50 -32
   vertex 6.48576 -48 -32
  endloop
 endfacet
 facet normal -0.966416 -0.000562665 0.256981
  outer loop
   vertex 6.48576 -48 -32
   vertex 6.48692 -50 -32
   vertex 7.01875 -50 -30
  endloop
 endfacet
 facet normal -0.95665 -0.289216 -0.0342752
  outer loop
   vertex 6.48576 -48 -32
   vertex 7.01875 -50 -30
   vertex 6.4141 -48 -30
  endloop
 endfacet
 facet normal -0.905955 -0.27389 -0.322845
  outer loop
   vertex 6.4141 -48 -30
   vertex 7.01875 -50 -30
   vertex 6.30603 -50 -28
  endloop
 endfacet
 facet normal -0.73909 -0.455924 -0.495862
  outer loop
   vertex 6.4141 -48 -30
   vertex 6.30603 -50 -28
   vertex 6 -49.5039 -28
  endloop
 endfacet
 facet normal -0.696088 -0.429398 -0.575394
  outer loop
   vertex 6 -49.5039 -28
   vertex 6.30603 -50 -28
   vertex 6 -50 -27.6298
  endloop
 endfacet
 facet normal -0.586685 -0.484337 -0.649013
  outer loop
   vertex 6 -49.5039 -28
   vertex 6 -50 -27.6298
   vertex 4.19708 -50 -26
  endloop
 endfacet
 facet normal -0.660538 0.172477 -0.730713
  outer loop
   vertex 4.19708 -50 -26
   vertex 6 -50 -27.6298
   vertex 6 -51.5685 -28
  endloop
 endfacet
 facet normal -0.576005 0.304979 -0.758423
  outer loop
   vertex 4.19708 -50 -26
   vertex 6 -51.5685 -28
   vertex 5.77152 -52 -28
  endloop
 endfacet
 facet normal -0.679218 0.359628 0.639789
  outer loop
   vertex 5.77152 -52 -28
   vertex 6 -51.5685 -28
   vertex 4 -51.7878 -30
  endloop
 endfacet
 facet normal 0.102479 0.789752 0.604805
  outer loop
   vertex 0 -50.2835 -34
   vertex 2 -50 -34.7091
   vertex 0 -50 -34.3702
  endloop
 endfacet
 facet normal 0.116412 0.717241 0.687033
  outer loop
   vertex 0 -50 -34.3702
   vertex 2 -50 -34.7091
   vertex 0 -48.4389 -36
  endloop
 endfacet
 facet normal 0.410204 0.658597 0.630859
  outer loop
   vertex 0 -50 -34.3702
   vertex 0 -48.4389 -36
   vertex -0.569372 -50 -34
  endloop
 endfacet
 facet normal 0.106711 0.782259 0.613745
  outer loop
   vertex 2 -50 -34.7091
   vertex 0 -50.2835 -34
   vertex 2 -50.5564 -34
  endloop
 endfacet
 facet normal 0.129014 0.945753 0.298171
  outer loop
   vertex 2 -50.5564 -34
   vertex 0 -50.2835 -34
   vertex 0 -50.9141 -32
  endloop
 endfacet
 facet normal 0.0419085 0.975411 0.21637
  outer loop
   vertex 2 -50.5564 -34
   vertex 0 -50.9141 -32
   vertex 2 -51 -32
  endloop
 endfacet
 facet normal 0.0418 0.972886 0.227478
  outer loop
   vertex 2 -51 -32
   vertex 0 -50.9141 -32
   vertex 0 -51.3817 -30
  endloop
 endfacet
 facet normal 0.00910778 0.980513 0.196242
  outer loop
   vertex 2 -51 -32
   vertex 0 -51.3817 -30
   vertex 2 -51.4003 -30
  endloop
 endfacet
 facet normal 0.00796581 0.857573 0.5143
  outer loop
   vertex 2 -51.4003 -30
   vertex 0 -51.3817 -30
   vertex 2 -52 -29
  endloop
 endfacet
 facet normal 0.126516 0.850709 0.510184
  outer loop
   vertex 2 -51.4003 -30
   vertex 2 -52 -29
   vertex 4 -52 -29.496
  endloop
 endfacet
 facet normal 0.126516 0.850709 0.510184
  outer loop
   vertex 4 -52 -29.496
   vertex 2 -52 -29
   vertex 2 -52.5997 -28
  endloop
 endfacet
 facet normal -0.0203186 0.937087 0.348504
  outer loop
   vertex 4 -52 -29.496
   vertex 2 -52.5997 -28
   vertex 4 -52.5564 -28
  endloop
 endfacet
 facet normal -0.0215687 0.99474 -0.100137
  outer loop
   vertex 4 -52.5564 -28
   vertex 2 -52.5997 -28
   vertex 2 -52.3984 -26
  endloop
 endfacet
 facet normal -0.22207 0.929187 -0.295461
  outer loop
   vertex 4 -52.5564 -28
   vertex 2 -52.3984 -26
   vertex 3.66692 -52 -26
  endloop
 endfacet
 facet normal -0.166632 0.697221 -0.697221
  outer loop
   vertex 3.66692 -52 -26
   vertex 2 -52.3984 -26
   vertex 2 -52 -25.6016
  endloop
 endfacet
 facet normal 0.367656 0.738327 0.565423
  outer loop
   vertex 0 -50 -34.3702
   vertex -0.569372 -50 -34
   vertex 0 -50.2835 -34
  endloop
 endfacet
 facet normal 0.37573 0.754542 0.538046
  outer loop
   vertex 0 -50.2835 -34
   vertex -0.569372 -50 -34
   vertex -2 -50.7138 -32
  endloop
 endfacet
 facet normal 0.0950873 0.949403 0.299321
  outer loop
   vertex 0 -50.2835 -34
   vertex -2 -50.7138 -32
   vertex 0 -50.9141 -32
  endloop
 endfacet
 facet normal 0.0930327 0.928888 0.358485
  outer loop
   vertex 0 -50.9141 -32
   vertex -2 -50.7138 -32
   vertex -2 -51.4856 -30
  endloop
 endfacet
 facet normal -0.050527 0.972493 0.227386
  outer loop
   vertex 0 -50.9141 -32
   vertex -2 -51.4856 -30
   vertex 0 -51.3817 -30
  endloop
 endfacet
 facet normal -0.0441483 0.849723 0.525378
  outer loop
   vertex 0 -51.3817 -30
   vertex -2 -51.4856 -30
   vertex 0 -52 -29
  endloop
 endfacet
 facet normal -0 0.850552 0.525891
  outer loop
   vertex 0 -51.3817 -30
   vertex 0 -52 -29
   vertex 2 -52 -29
  endloop
 endfacet
 facet normal -0 0.8576 0.514317
  outer loop
   vertex 2 -52 -29
   vertex 0 -52 -29
   vertex 0 -52.5997 -28
  endloop
 endfacet
 facet normal -0 0.8576 0.514317
  outer loop
   vertex 2 -52 -29
   vertex 0 -52.5997 -28
   vertex 2 -52.5997 -28
  endloop
 endfacet
 facet normal 0 0.994971 -0.10016
  outer loop
   vertex 2 -52.5997 -28
   vertex 0 -52.5997 -28
   vertex 0 -52.3984 -26
  endloop
 endfacet
 facet normal 0 0.994971 -0.10016
  outer loop
   vertex 2 -52.5997 -28
   vertex 0 -52.3984 -26
   vertex 2 -52.3984 -26
  endloop
 endfacet
 facet normal 0 0.707107 -0.707107
  outer loop
   vertex 2 -52.3984 -26
   vertex 0 -52.3984 -26
   vertex 0 -52 -25.6016
  endloop
 endfacet
 facet normal 0 0.707107 -0.707107
  outer loop
   vertex 2 -52.3984 -26
   vertex 0 -52 -25.6016
   vertex 2 -52 -25.6016
  endloop
 endfacet
 facet normal 0 0.0787362 -0.996895
  outer loop
   vertex 2 -52 -25.6016
   vertex 0 -52 -25.6016
   vertex 0 -50 -25.4437
  endloop
 endfacet
 facet normal 0.0215725 0.100138 -0.99474
  outer loop
   vertex 2 -52 -25.6016
   vertex 0 -50 -25.4437
   vertex 2 -50 -25.4003
  endloop
 endfacet
 facet normal 0.0170595 -0.617177 -0.786639
  outer loop
   vertex 2 -50 -25.4003
   vertex 0 -50 -25.4437
   vertex 0 -49.2909 -26
  endloop
 endfacet
 facet normal -0.534003 0.412278 0.738152
  outer loop
   vertex 4 -50 -34.0669
   vertex 4.09254 -50 -34
   vertex 4 -48 -35.184
  endloop
 endfacet
 facet normal -0.695233 0.342075 0.632168
  outer loop
   vertex 4 -48 -35.184
   vertex 4.09254 -50 -34
   vertex 5.0766 -48 -34
  endloop
 endfacet
 facet normal -0.677112 0.403044 0.615691
  outer loop
   vertex 4 -48 -35.184
   vertex 5.0766 -48 -34
   vertex 4 -46.7535 -36
  endloop
 endfacet
 facet normal -0.693722 0.381262 0.611056
  outer loop
   vertex 4 -46.7535 -36
   vertex 5.0766 -48 -34
   vertex 4.4141 -46 -36
  endloop
 endfacet
 facet normal 0.577784 0.481988 0.658675
  outer loop
   vertex -2 -48.8849 -34
   vertex -0.458162 -48 -36
   vertex -2 -48 -34.6475
  endloop
 endfacet
 facet normal 0.609881 0.380329 0.695266
  outer loop
   vertex -2 -48 -34.6475
   vertex -0.458162 -48 -36
   vertex -1.70539 -46 -36
  endloop
 endfacet
 facet normal 0.787406 0.261501 0.558219
  outer loop
   vertex -2 -48 -34.6475
   vertex -1.70539 -46 -36
   vertex -2 -46 -35.5844
  endloop
 endfacet
 facet normal -0.927548 0.0613807 0.368629
  outer loop
   vertex 4.4141 -46 -36
   vertex 5.0766 -48 -34
   vertex 5.20895 -46 -34
  endloop
 endfacet
 facet normal -0.957861 0.0633867 0.280149
  outer loop
   vertex 5.20895 -46 -34
   vertex 5.0766 -48 -34
   vertex 5.7939 -46 -32
  endloop
 endfacet
 facet normal -0.707096 -0.707092 -0.00604461
  outer loop
   vertex 4.55635 -44 -36
   vertex 4.53925 -44 -34
   vertex 4 -43.4607 -34
  endloop
 endfacet
 facet normal -0.697755 -0.697751 -0.162117
  outer loop
   vertex 4 -43.4607 -34
   vertex 4.53925 -44 -34
   vertex 4 -43.9254 -32
  endloop
 endfacet
 facet normal -0.247785 -0.943679 -0.219256
  outer loop
   vertex 4 -43.4607 -34
   vertex 4 -43.9254 -32
   vertex 2 -43.4003 -32
  endloop
 endfacet
 facet normal -0.209273 -0.797009 -0.566553
  outer loop
   vertex 2 -43.4003 -32
   vertex 4 -43.9254 -32
   vertex 4 -44 -31.8951
  endloop
 endfacet
 facet normal -0.207316 -0.791861 -0.574435
  outer loop
   vertex 2 -43.4003 -32
   vertex 4 -44 -31.8951
   vertex 2 -44 -31.1733
  endloop
 endfacet
 facet normal -0.227944 -0.741037 -0.63159
  outer loop
   vertex 2 -44 -31.1733
   vertex 4 -44 -31.8951
   vertex 2 -45 -30
  endloop
 endfacet
 facet normal 0.121435 -0.75544 -0.643866
  outer loop
   vertex 2 -44 -31.1733
   vertex 2 -45 -30
   vertex 0 -45.3215 -30
  endloop
 endfacet
 facet normal -0.84011 -0.534989 -0.0894492
  outer loop
   vertex 4.55635 -44 -36
   vertex 4 -43.4607 -34
   vertex 4 -43.1264 -36
  endloop
 endfacet
 facet normal -0.348889 -0.924333 -0.154547
  outer loop
   vertex 4 -43.1264 -36
   vertex 4 -43.4607 -34
   vertex 2 -42.7058 -34
  endloop
 endfacet
 facet normal -0.572505 -0.70109 -0.425101
  outer loop
   vertex 4 -43.1264 -36
   vertex 2 -42.7058 -34
   vertex 2.62067 -42 -36
  endloop
 endfacet
 facet normal -0.398839 -0.818869 -0.412773
  outer loop
   vertex 2.62067 -42 -36
   vertex 2 -42.7058 -34
   vertex 2 -42 -35.4003
  endloop
 endfacet
 facet normal -0.039062 -0.892285 -0.44978
  outer loop
   vertex 2 -42 -35.4003
   vertex 2 -42.7058 -34
   vertex 0 -42.6183 -34
  endloop
 endfacet
 facet normal -0.0404339 -0.923625 -0.381159
  outer loop
   vertex 0 -42.6183 -34
   vertex 2 -42.7058 -34
   vertex 0 -43.4436 -32
  endloop
 endfacet
 facet normal -0.701284 0.374546 0.606561
  outer loop
   vertex 6.48692 -50 -32
   vertex 6 -50 -32.563
   vertex 6 -50.9117 -32
  endloop
 endfacet
 facet normal -0.532838 0.4446 0.72001
  outer loop
   vertex 6 -50.9117 -32
   vertex 6 -50 -32.563
   vertex 4 -50.0697 -34
  endloop
 endfacet
 facet normal -0.118286 0.867353 0.483433
  outer loop
   vertex 6 -50.9117 -32
   vertex 4 -50.0697 -34
   vertex 4 -51.1844 -32
  endloop
 endfacet
 facet normal -0.749004 0.368532 0.550616
  outer loop
   vertex 4.09254 -50 -34
   vertex 6 -48 -32.7439
   vertex 5.0766 -48 -34
  endloop
 endfacet
 facet normal -0.772186 -0.285471 0.567657
  outer loop
   vertex 5.0766 -48 -34
   vertex 6 -48 -32.7439
   vertex 6 -46.5208 -32
  endloop
 endfacet
 facet normal -0.761217 -0.301264 0.574273
  outer loop
   vertex 5.0766 -48 -34
   vertex 6 -46.5208 -32
   vertex 5.7939 -46 -32
  endloop
 endfacet
 facet normal -0.919629 -0.363958 -0.147705
  outer loop
   vertex 5.7939 -46 -32
   vertex 6 -46.5208 -32
   vertex 6 -47.3324 -30
  endloop
 endfacet
 facet normal -0.676624 -0.643058 -0.358687
  outer loop
   vertex 5.7939 -46 -32
   vertex 6 -47.3324 -30
   vertex 4.73367 -46 -30
  endloop
 endfacet
 facet normal -0.577567 -0.548915 -0.604242
  outer loop
   vertex 4.73367 -46 -30
   vertex 6 -47.3324 -30
   vertex 4 -47.4296 -28
  endloop
 endfacet
 facet normal -0.481735 -0.61965 -0.619649
  outer loop
   vertex 4.73367 -46 -30
   vertex 4 -47.4296 -28
   vertex 4 -46 -29.4296
  endloop
 endfacet
 facet normal -0.150171 -0.699089 -0.699088
  outer loop
   vertex 4 -46 -29.4296
   vertex 4 -47.4296 -28
   vertex 2 -47 -28
  endloop
 endfacet
 facet normal -0.150171 -0.699088 -0.699088
  outer loop
   vertex 4 -46 -29.4296
   vertex 2 -47 -28
   vertex 2 -46 -29
  endloop
 endfacet
 facet normal 0.131961 -0.700923 -0.700923
  outer loop
   vertex 2 -46 -29
   vertex 2 -47 -28
   vertex 0 -47.3765 -28
  endloop
 endfacet
 facet normal 0.13196 -0.700923 -0.700924
  outer loop
   vertex 2 -46 -29
   vertex 0 -47.3765 -28
   vertex 0 -46 -29.3765
  endloop
 endfacet
 facet normal 0.449164 0.587416 0.673197
  outer loop
   vertex -2 -48.8849 -34
   vertex -3.53921 -50 -32
   vertex -2 -50 -33.027
  endloop
 endfacet
 facet normal -0.807334 -0.265118 0.527185
  outer loop
   vertex 6 -48 -32.7439
   vertex 6.48576 -48 -32
   vertex 6 -46.5208 -32
  endloop
 endfacet
 facet normal -0.942558 -0.309524 -0.125614
  outer loop
   vertex 6 -46.5208 -32
   vertex 6.48576 -48 -32
   vertex 6 -47.3324 -30
  endloop
 endfacet
 facet normal 0.820256 -0.242641 0.517982
  outer loop
   vertex -4.07457 -48 -32
   vertex -4 -48 -32.1181
   vertex -4 -47.7479 -32
  endloop
 endfacet
 facet normal 0.758241 -0.579299 -0.299136
  outer loop
   vertex -2 -44.1202 -32
   vertex -3.4362 -46 -32
   vertex -2 -44 -32.2327
  endloop
 endfacet
 facet normal 0.765558 -0.581723 -0.274807
  outer loop
   vertex -2 -44 -32.2327
   vertex -3.4362 -46 -32
   vertex -2.63439 -44 -34
  endloop
 endfacet
 facet normal -0.614194 -0.777239 -0.136623
  outer loop
   vertex 4.53925 -44 -34
   vertex 4.09437 -44 -32
   vertex 4 -43.9254 -32
  endloop
 endfacet
 facet normal -0.541484 -0.685227 -0.487093
  outer loop
   vertex 4 -43.9254 -32
   vertex 4.09437 -44 -32
   vertex 4 -44 -31.8951
  endloop
 endfacet
 facet normal -0.335855 -0.889802 -0.308955
  outer loop
   vertex 4 -43.4607 -34
   vertex 2 -43.4003 -32
   vertex 2 -42.7058 -34
  endloop
 endfacet
 facet normal 0.0204788 -0.944477 -0.327939
  outer loop
   vertex 2 -42.7058 -34
   vertex 2 -43.4003 -32
   vertex 0 -43.4436 -32
  endloop
 endfacet
 facet normal -0.478418 0.809615 0.34006
  outer loop
   vertex 6.43797 -52 -30
   vertex 6 -52 -30.6162
   vertex 6 -52.2588 -30
  endloop
 endfacet
 facet normal 0.214153 0.900584 0.378269
  outer loop
   vertex 6 -52.2588 -30
   vertex 6 -52 -30.6162
   vertex 4.91164 -52 -30
  endloop
 endfacet
 facet normal 0.228211 0.959699 -0.164006
  outer loop
   vertex 6 -52.2588 -30
   vertex 4.91164 -52 -30
   vertex 6 -52 -28.4856
  endloop
 endfacet
 facet normal 0.223796 0.961274 -0.160834
  outer loop
   vertex 6 -52 -28.4856
   vertex 4.91164 -52 -30
   vertex 4 -51.7878 -30
  endloop
 endfacet
 facet normal 0.503216 0.645952 -0.574038
  outer loop
   vertex 6 -52 -28.4856
   vertex 4 -51.7878 -30
   vertex 6 -51.5685 -28
  endloop
 endfacet
 facet normal -0.65623 0.593117 0.466449
  outer loop
   vertex 6.43797 -52 -30
   vertex 6 -50.9117 -32
   vertex 6 -52 -30.6162
  endloop
 endfacet
 facet normal 0.264137 0.758126 0.596219
  outer loop
   vertex 6 -52 -30.6162
   vertex 6 -50.9117 -32
   vertex 4 -51.7878 -30
  endloop
 endfacet
 facet normal 0.210493 0.904132 0.371804
  outer loop
   vertex 6 -52 -30.6162
   vertex 4 -51.7878 -30
   vertex 4.91164 -52 -30
  endloop
 endfacet
 facet normal -0.804532 0.429689 0.409995
  outer loop
   vertex 6 -50.9117 -32
   vertex 6.43797 -52 -30
   vertex 6.48692 -50 -32
  endloop
 endfacet
 facet normal -0.93047 0.270199 0.247423
  outer loop
   vertex 6.48692 -50 -32
   vertex 6.43797 -52 -30
   vertex 7.01875 -50 -30
  endloop
 endfacet
 facet normal -0.129466 0.949332 0.28637
  outer loop
   vertex 6 -50.9117 -32
   vertex 4 -51.1844 -32
   vertex 4 -51.7878 -30
  endloop
 endfacet
 facet normal 0.50704 0.804117 0.310332
  outer loop
   vertex -2 -50.7138 -32
   vertex -4 -50.2245 -30
   vertex -2 -51.4856 -30
  endloop
 endfacet
 facet normal 0.485363 0.76974 0.414637
  outer loop
   vertex -2 -51.4856 -30
   vertex -4 -50.2245 -30
   vertex -2 -52 -29.0451
  endloop
 endfacet
 facet normal -0.010692 0.880343 0.474216
  outer loop
   vertex -2 -51.4856 -30
   vertex -2 -52 -29.0451
   vertex 0 -52 -29
  endloop
 endfacet
 facet normal -0.00894302 0.917929 0.396643
  outer loop
   vertex 0 -52 -29
   vertex -2 -52 -29.0451
   vertex -2 -52.4516 -28
  endloop
 endfacet
 facet normal 0.0633882 0.855876 0.513282
  outer loop
   vertex 0 -52 -29
   vertex -2 -52.4516 -28
   vertex 0 -52.5997 -28
  endloop
 endfacet
 facet normal 0.0734907 0.992281 -0.099889
  outer loop
   vertex 0 -52.5997 -28
   vertex -2 -52.4516 -28
   vertex 0 -52.3984 -26
  endloop
 endfacet
 facet normal 0.760172 -0.608067 0.228897
  outer loop
   vertex -4 -50 -30.4697
   vertex -3.53921 -50 -32
   vertex -4 -49.8232 -30
  endloop
 endfacet
 facet normal 0.869585 -0.432326 0.238569
  outer loop
   vertex -4 -49.8232 -30
   vertex -3.53921 -50 -32
   vertex -3.09358 -48 -30
  endloop
 endfacet
 facet normal -0.84939 -0.526888 -0.0304322
  outer loop
   vertex 6.48576 -48 -32
   vertex 6.4141 -48 -30
   vertex 6 -47.3324 -30
  endloop
 endfacet
 facet normal -0.751735 -0.466311 -0.466314
  outer loop
   vertex 6 -47.3324 -30
   vertex 6.4141 -48 -30
   vertex 6 -48 -29.3324
  endloop
 endfacet
 facet normal -0.596925 -0.567308 -0.567311
  outer loop
   vertex 6 -47.3324 -30
   vertex 6 -48 -29.3324
   vertex 4.73367 -48 -28
  endloop
 endfacet
 facet normal -0.618717 -0.520979 -0.588022
  outer loop
   vertex 4.73367 -48 -28
   vertex 6 -48 -29.3324
   vertex 6 -49.5039 -28
  endloop
 endfacet
 facet normal -0.579611 -0.48805 -0.652579
  outer loop
   vertex 4.73367 -48 -28
   vertex 6 -49.5039 -28
   vertex 4 -49.8029 -26
  endloop
 endfacet
 facet normal -0.548711 -0.548703 -0.630747
  outer loop
   vertex 4 -49.8029 -26
   vertex 6 -49.5039 -28
   vertex 4.19708 -50 -26
  endloop
 endfacet
 facet normal -0.504847 -0.50484 -0.70019
  outer loop
   vertex 4 -49.8029 -26
   vertex 4.19708 -50 -26
   vertex 4 -50 -25.8579
  endloop
 endfacet
 facet normal -0.582462 0.0902106 -0.807836
  outer loop
   vertex 4 -50 -25.8579
   vertex 4.19708 -50 -26
   vertex 4 -51.2725 -26
  endloop
 endfacet
 facet normal -0.556319 -0.663379 -0.500438
  outer loop
   vertex 4.09437 -44 -32
   vertex 4 -45.4296 -30
   vertex 4 -44 -31.8951
  endloop
 endfacet
 facet normal -0.169019 -0.786834 -0.59357
  outer loop
   vertex 4 -44 -31.8951
   vertex 4 -45.4296 -30
   vertex 2 -45 -30
  endloop
 endfacet
 facet normal 0.0420274 -0.698159 -0.714708
  outer loop
   vertex 2 -44 -31.1733
   vertex 0 -45.3215 -30
   vertex 0 -44 -31.2909
  endloop
 endfacet
 facet normal 0.407235 -0.638209 -0.653337
  outer loop
   vertex 0 -44 -31.2909
   vertex 0 -45.3215 -30
   vertex -1.06334 -46 -30
  endloop
 endfacet
 facet normal 0.0175483 -0.809323 -0.587102
  outer loop
   vertex 2 -43.4003 -32
   vertex 2 -44 -31.1733
   vertex 0 -43.4436 -32
  endloop
 endfacet
 facet normal 0.0362738 -0.786233 -0.616864
  outer loop
   vertex 0 -43.4436 -32
   vertex 2 -44 -31.1733
   vertex 0 -44 -31.2909
  endloop
 endfacet
 facet normal -0.503318 0.851753 -0.145559
  outer loop
   vertex 6 -52.2588 -30
   vertex 6 -52 -28.4856
   vertex 6.43797 -52 -30
  endloop
 endfacet
 facet normal -0.939281 0.209676 -0.271639
  outer loop
   vertex 6.43797 -52 -30
   vertex 6 -52 -28.4856
   vertex 6.30603 -50 -28
  endloop
 endfacet
 facet normal -0.908596 0.263847 -0.323786
  outer loop
   vertex 6.43797 -52 -30
   vertex 6.30603 -50 -28
   vertex 7.01875 -50 -30
  endloop
 endfacet
 facet normal 0.413917 0.835638 0.361084
  outer loop
   vertex -2 -52.4516 -28
   vertex -2 -52 -29.0451
   vertex -2.9117 -52 -28
  endloop
 endfacet
 facet normal 0.752207 0.0599269 0.656196
  outer loop
   vertex -2.9117 -52 -28
   vertex -2 -52 -29.0451
   vertex -3.07103 -50 -28
  endloop
 endfacet
 facet normal 0.84437 0.0672693 -0.531521
  outer loop
   vertex -2.9117 -52 -28
   vertex -3.07103 -50 -28
   vertex -2 -50 -26.2986
  endloop
 endfacet
 facet normal 0.66782 -0.614241 -0.420385
  outer loop
   vertex -2 -50 -26.2986
   vertex -3.07103 -50 -28
   vertex -2 -48.8355 -28
  endloop
 endfacet
 facet normal 0.543154 -0.692895 -0.474215
  outer loop
   vertex -2 -50 -26.2986
   vertex -2 -48.8355 -28
   vertex -0.934112 -48 -28
  endloop
 endfacet
 facet normal 0.489551 -0.624514 -0.60854
  outer loop
   vertex -0.934112 -48 -28
   vertex -2 -48.8355 -28
   vertex -2 -48 -28.8575
  endloop
 endfacet
 facet normal -0.967581 0.188788 -0.16777
  outer loop
   vertex 6 -52 -28.4856
   vertex 6 -51.5685 -28
   vertex 6.30603 -50 -28
  endloop
 endfacet
 facet normal -0.762193 0.148714 -0.630037
  outer loop
   vertex 6.30603 -50 -28
   vertex 6 -51.5685 -28
   vertex 6 -50 -27.6298
  endloop
 endfacet
 facet normal 0.708162 0.585456 -0.394649
  outer loop
   vertex -2 -52 -29.0451
   vertex -4 -50.2245 -30
   vertex -3.07103 -50 -28
  endloop
 endfacet
 facet normal 0.848163 0.310958 -0.428864
  outer loop
   vertex -3.07103 -50 -28
   vertex -4 -50.2245 -30
   vertex -4 -50 -29.8372
  endloop
 endfacet
 facet normal 0.740918 -0.557395 -0.374636
  outer loop
   vertex -3.07103 -50 -28
   vertex -4 -50 -29.8372
   vertex -2 -48 -28.8575
  endloop
 endfacet
 facet normal 0.862326 0.297233 -0.409935
  outer loop
   vertex -4 -50.2245 -30
   vertex -4.07739 -50 -30
   vertex -4 -50 -29.8372
  endloop
 endfacet
 facet normal -0.76995 -0.423158 -0.477613
  outer loop
   vertex 6 -49.5039 -28
   vertex 6 -48 -29.3324
   vertex 6.4141 -48 -30
  endloop
 endfacet
 facet normal 0.614384 -0.565092 -0.550638
  outer loop
   vertex -3.07103 -50 -28
   vertex -2 -48 -28.8575
   vertex -2 -48.8355 -28
  endloop
 endfacet
 facet normal -0.51411 -0.661291 -0.546246
  outer loop
   vertex 6 -47.3324 -30
   vertex 4.73367 -48 -28
   vertex 4 -47.4296 -28
  endloop
 endfacet
 facet normal -0.481736 -0.619648 -0.61965
  outer loop
   vertex 4 -47.4296 -28
   vertex 4.73367 -48 -28
   vertex 4 -48 -27.4296
  endloop
 endfacet
 facet normal -0.15017 -0.699087 -0.699089
  outer loop
   vertex 4 -47.4296 -28
   vertex 4 -48 -27.4296
   vertex 2 -47 -28
  endloop
 endfacet
 facet normal -0.150171 -0.699088 -0.699088
  outer loop
   vertex 2 -47 -28
   vertex 4 -48 -27.4296
   vertex 2 -48 -27
  endloop
 endfacet
 facet normal 0.131961 -0.700923 -0.700923
  outer loop
   vertex 2 -47 -28
   vertex 2 -48 -27
   vertex 0 -47.3765 -28
  endloop
 endfacet
 facet normal 0.252782 0.924731 -0.284559
  outer loop
   vertex 0 -52.3984 -26
   vertex -2 -52 -26.482
   vertex -1.45737 -52 -26
  endloop
 endfacet
 facet normal 0.662574 0.0684218 -0.745864
  outer loop
   vertex -1.45737 -52 -26
   vertex -2 -52 -26.482
   vertex -2 -50 -26.2986
  endloop
 endfacet
 facet normal 0.58475 0.0376822 -0.810338
  outer loop
   vertex -1.45737 -52 -26
   vertex -2 -50 -26.2986
   vertex -1.58626 -50 -26
  endloop
 endfacet
 facet normal 0.413791 -0.707079 -0.573426
  outer loop
   vertex -1.58626 -50 -26
   vertex -2 -50 -26.2986
   vertex 0 -48 -27.3215
  endloop
 endfacet
 facet normal 0.304586 -0.681351 -0.665573
  outer loop
   vertex -1.58626 -50 -26
   vertex 0 -48 -27.3215
   vertex 0 -49.2909 -26
  endloop
 endfacet
 facet normal 0.251314 0.927722 -0.275995
  outer loop
   vertex 0 -52.3984 -26
   vertex -2 -52.4516 -28
   vertex -2 -52 -26.482
  endloop
 endfacet
 facet normal 0.428884 0.865856 -0.25759
  outer loop
   vertex -2 -52 -26.482
   vertex -2 -52.4516 -28
   vertex -2.9117 -52 -28
  endloop
 endfacet
 facet normal 0.856309 0.0471796 -0.514304
  outer loop
   vertex -2 -52 -26.482
   vertex -2.9117 -52 -28
   vertex -2 -50 -26.2986
  endloop
 endfacet
 facet normal -0.723283 0.112021 -0.681405
  outer loop
   vertex 4.19708 -50 -26
   vertex 5.77152 -52 -28
   vertex 4 -51.2725 -26
  endloop
 endfacet
 facet normal -0.690291 0.216787 -0.690291
  outer loop
   vertex 4 -51.2725 -26
   vertex 5.77152 -52 -28
   vertex 4 -52 -26.2285
  endloop
 endfacet
 facet normal -0.520237 -0.530621 -0.669174
  outer loop
   vertex 4.73367 -48 -28
   vertex 4 -49.8029 -26
   vertex 4 -48 -27.4296
  endloop
 endfacet
 facet normal -0.191963 -0.609765 -0.768984
  outer loop
   vertex 4 -48 -27.4296
   vertex 4 -49.8029 -26
   vertex 2 -49.1733 -26
  endloop
 endfacet
 facet normal -0.161344 -0.640168 -0.751101
  outer loop
   vertex 4 -48 -27.4296
   vertex 2 -49.1733 -26
   vertex 2 -48 -27
  endloop
 endfacet
 facet normal 0.415246 -0.70764 -0.571678
  outer loop
   vertex -2 -50 -26.2986
   vertex -0.934112 -48 -28
   vertex 0 -48 -27.3215
  endloop
 endfacet
 facet normal 0.18978 0.694256 -0.694256
  outer loop
   vertex 0 -52.3984 -26
   vertex -1.45737 -52 -26
   vertex 0 -52 -25.6016
  endloop
 endfacet
 facet normal 0.262921 0.075966 -0.961822
  outer loop
   vertex 0 -52 -25.6016
   vertex -1.45737 -52 -26
   vertex 0 -50 -25.4437
  endloop
 endfacet
 facet normal 0.330889 0.021323 -0.943429
  outer loop
   vertex -1.45737 -52 -26
   vertex -1.58626 -50 -26
   vertex 0 -50 -25.4437
  endloop
 endfacet
 facet normal 0.265997 -0.595029 -0.75841
  outer loop
   vertex 0 -50 -25.4437
   vertex -1.58626 -50 -26
   vertex 0 -49.2909 -26
  endloop
 endfacet
 facet normal -0.181074 -0.575174 -0.797739
  outer loop
   vertex 2 -49.1733 -26
   vertex 4 -49.8029 -26
   vertex 4 -50 -25.8579
  endloop
 endfacet
endsolid
